/* XPM */
static char *idle0[] = {
/* columns rows colors chars-per-pixel */
"35 40 157 2 ",
"   c None",
".  c #321F1E",
"X  c #34211F",
"o  c #391F21",
"O  c #362220",
"+  c #3A2422",
"@  c #3C2B22",
"#  c #3C3222",
"$  c #3C3B23",
"%  c #442625",
"&  c #4A2727",
"*  c #432925",
"=  c #492827",
"-  c #4C2728",
";  c #432E28",
":  c #4D2928",
">  c #522A2A",
",  c #5B2C2D",
"<  c #403B24",
"1  c #533C33",
"2  c #602D2E",
"3  c #652F30",
"4  c #692F31",
"5  c #673031",
"6  c #6B3132",
"7  c #663F35",
"8  c #6A3C3B",
"9  c #743335",
"0  c #793537",
"q  c #7D3738",
"w  c #7E393A",
"e  c #763A3B",
"r  c #3E4523",
"t  c #3E4A23",
"y  c #434026",
"u  c #4C432B",
"i  c #444926",
"p  c #405624",
"a  c #425C24",
"s  c #426424",
"d  c #436B24",
"f  c #447024",
"g  c #467B25",
"h  c #6F4E46",
"j  c #674843",
"k  c #73574A",
"l  c #6D5E5D",
"z  c #7E5454",
"x  c #785B57",
"c  c #705C5B",
"v  c #7C6C6C",
"b  c #823A3B",
"n  c #8C3C3E",
"m  c #903D3F",
"M  c #8F3E40",
"N  c #923E40",
"B  c #8E4042",
"V  c #954042",
"C  c #9B4244",
"Z  c #974748",
"A  c #9C4A4B",
"S  c #934C4C",
"D  c #9F504F",
"F  c #855A5A",
"G  c #955151",
"H  c #9A5152",
"J  c #A34446",
"K  c #A84547",
"L  c #A54648",
"P  c #AA4648",
"I  c #A44B4C",
"U  c #AE484A",
"Y  c #B34A4C",
"T  c #BA4D4F",
"R  c #BC4E50",
"E  c #A25452",
"W  c #A85553",
"Q  c #AB5A56",
"!  c #AB5B5A",
"~  c #A15C5D",
"^  c #BC5453",
"/  c #BD5B57",
"(  c #BE5C58",
")  c #B55452",
"_  c #A8655C",
"`  c #BD675E",
"'  c #896162",
"]  c #946361",
"[  c #AC6464",
"{  c #AD6B6B",
"}  c #B16766",
"|  c #B56A61",
" . c #B26D6E",
".. c #B17868",
"X. c #BB7466",
"o. c #B77575",
"O. c #BC7E7F",
"+. c #C25E5A",
"@. c #C2625C",
"#. c #C36B62",
"$. c #C86D63",
"%. c #C67366",
"&. c #CB7166",
"*. c #C67769",
"=. c #C97B6B",
"-. c #B78A73",
";. c #C0826E",
":. c #C28570",
">. c #CB8571",
",. c #D38C76",
"<. c #C0977A",
"1. c #C09E7E",
"2. c #CD9379",
"3. c #D2967C",
"4. c #A27F80",
"5. c #9F8081",
"6. c #A68283",
"7. c #BE8181",
"8. c #A69C9C",
"9. c #B59E9F",
"0. c #B69393",
"q. c #BBACAC",
"w. c #BDB3B3",
"e. c #C58E8F",
"r. c #DF9E82",
"t. c #CA9695",
"y. c #CD9998",
"u. c #D5A484",
"i. c #D7AB88",
"p. c #D9AD89",
"a. c #DCA183",
"s. c #E5A486",
"d. c #E6A688",
"f. c #E3AC8B",
"g. c #E5B28F",
"h. c #E7B691",
"j. c #E7BB94",
"k. c #C3A2A3",
"l. c #CDA2A3",
"z. c #C8ABAB",
"x. c #D3ABAC",
"c. c #D7B2B3",
"v. c #EAC59A",
"b. c #EDC89D",
"n. c #F0C29A",
"m. c #F5C99F",
"M. c #F6CCA1",
"N. c #F8CCA1",
"B. c #FCD3A6",
"V. c #FED7A8",
"C. c #FFD9AA",
"Z. c #CFC6C6",
"A. c #DEC7C7",
"S. c #D6C7C8",
"D. c #DACBCB",
"F. c #DBD0D0",
"G. c #E2CECE",
/* pixels */
"          @ @ + + @ @ + o + @ @ + + + + + + + + + + + + + + + + +     ",
"        + @ + % - - - - - - - - - > > > > > > > > > > > > > > > -     ",
"      + + @ % , 9 9 9 9 9 9 9 9 0 q q q q q q q q q q q q q q 0 4 - + ",
"    # @ @ @ > 9 M V V V V V V C J P P P P P P P P P P P P P U J 0 - + ",
"  $ r t $ % > q C J J J J J J J P Y Y T R R T T Y Y Y Y Y Y T P q > + ",
"@ $ p d p < , q C I I I J L I I I L Y T T T Y Y U U U Y Y Y Y J q > @ ",
"@ $ s g s < , q A }  .~ Z H {  .! I U Y Y J C C J P U Y Y P C n 5 - + ",
"@ $ s g s < > b ! e.k.4.z ' 0.l.O.W P Y J b q M P Y Y Y Y J b 5 > + + ",
"@ # p d p < > b { x.S.8.c v q.A.t.! P Y C 0 9 n U T T T T P b 2 - @ @ ",
"+ @ $ t $ @ > b  .c.F.8.l v w.G.y.! K Y P m n J Y T R R T Y C q , % + ",
"@ @ @ # @ @ > q { c.F.8.l v w.G.y.! J Y Y Y Y Y T T T T T T Y C 9 - + ",
"@ @ + @ # y u 7 ] z.D.8.l v w.G.y.! J Y T R R T T T T T T R R P q > + ",
"    o @ t s p u x 9.Z.8.l v q.D.t.! J Y T R R T T T T T T R R Y b > @ ",
"    + # p g d i j 5.k.6.z ' 0.l.7.W P Y T T T T R R R T R R ^ Y b > + ",
"    + # p g f r 1 F { [ S G { o.[ I U T R T T T T T T T T R R U q > + ",
"    + @ t d s r > e Z I J C A I I J P Y T T T Y P J J J J P P C 9 - + ",
"    o @ $ t r # - 5 n J J J C C C J J P Y T Y C q 9 9 9 9 9 0 9 , % + ",
"    + @ @ # @ % > 9 M J J J J C J J J J P U C 0 , = % % % = - = % @ @ ",
"    @ @ @ @ % > 5 b C J J K J J K K K J C N q , % O X X X O + + + @ @ ",
"    + + + @ - 5 b V L U Y R T R R R ^ Y C 0 , -                       ",
"      @ O @ > 0 C W ! ` &.&.&.&.&.&.&.$.W 5 %                         ",
"        O @ > q D | :.3.s.s.s.s.s.s.d.r...j %                         ",
"        X + , q W ;.u.j.m.N.N.N.N.N.N.n.<.k ;                         ",
"@ + O X . + > q W :.p.b.B.B.B.B.B.B.C.N.1.k ;                         ",
"@ @ @ + + % , b W :.p.b.B.B.B.B.B.B.C.N.1.k ;                         ",
"+ + > 2 5 5 0 B Q ;.p.b.B.B.B.B.B.V.C.N.1.k ;                         ",
"o - 5 n N C C C W ;.p.v.B.B.B.B.B.B.V.N.1.k ;                         ",
"o - 5 N J U P J W X.2.p.j.v.m.B.B.B.m.h.-.h %                         ",
"+ @ > 9 n J P J I ! | *.,.a.g.v.v.v.f.,._ 8 %                         ",
"+ @ @ = 5 b C J J I U ) @.=.3.p.p.u.,.$.A 5 %                         ",
"  + + + - 3 q N C J P Y R +.%.>.>.=.$.^ N 2 %                         ",
"    @ @ @ = 3 b C P Y Y Y Y ^ / ( / ^ Y m 2 %                         ",
"      @ + @ , q J Y Y P C m N V L U T Y m 2 %                         ",
"        X + > q J Y U N 9 , , 5 b J Y U n 2 %                         ",
"          @ , q C L V 9 > + + > 9 C L C b , %                         ",
"          % , q N n 9 , % X O - 9 n M q 3 >                           ",
"          @ > 9 q 5 > %     + - 5 q 9 , -                             ",
"          @ = , 2 > %       + % , 3 , -                               ",
"          @ @ % - %         @ @ % % =                                 ",
"          @ + + + +         + + + + +                                 "
};
