/* XPM */
static char *kill0[] = {
/* columns rows colors chars-per-pixel */
"32 32 39 1 ",
"  c None",
". c #C44052",
"X c #CC4655",
"o c #EE7668",
"O c #EF7B69",
"+ c #E96564",
"@ c #DC545D",
"# c #F1836C",
"$ c #EC7167",
"% c #FFC07C",
"& c #E25A60",
"* c #D7505B",
"= c #FFB979",
"- c #FDE68A",
"; c #D34D59",
": c #F2886D",
"> c #FFBD7B",
", c #FDD483",
"< c #FAA474",
"1 c #E75E62",
"2 c #EA6A65",
"3 c #FDDA85",
"4 c #FDB077",
"5 c #FBA975",
"6 c #FEB478",
"7 c #F59470",
"8 c #F79971",
"9 c #F2866C",
"0 c #F89E72",
"q c #CF4957",
"w c #FDE087",
"e c #FEC77E",
"r c #F48E6E",
"t c #E86263",
"y c #FDDE87",
"u c #EF7E6A",
"i c #FECC80",
"p c #C03C50",
"a c #FED182",
/* pixels */
"                                ",
"                   .            ",
"                  Xo            ",
"            .     O+            ",
"       @#    $o   %&    .       ",
"      *=-$X;:--%>,-<@  12       ",
"       #--3--4$15----674.       ",
"       &----%   8------6        ",
"       ::=--,894--------$       ",
"      $2 5--%  8-------=0&      ",
"     qo 1w--,#oe-------+ r      ",
"     #2 4--------------# O1     ",
"     %e=---------------,t+8  .  ",
"  @28-------------------68,45+  ",
"   $>------------------------7  ",
"    2----------------------<2@  ",
"    ;----------------<9y--,q    ",
"    q3--------------,  46-5     ",
"    u----------------o$22-<     ",
" .O04%-%8,r2i---------5 t-e     ",
"      >7 $2 8---------6 86+     ",
"      +i& 7#6----------,eq      ",
"      @-e:>-------------7       ",
"      ;4,---------------5       ",
"        ;>---6774-----4$<$      ",
"         *,-w    >--w:   #X     ",
"          %-i09$o>e35     p     ",
"         *wa  q*;X @8           ",
"         qor        1.          ",
"           .                    ",
"                                ",
"                                "
};
