/* XPM */
static char *kill4[] = {
/* columns rows colors chars-per-pixel */
"32 32 38 1 ",
"  c None",
". c #CB4655",
"X c #D34D59",
"o c #CC4756",
"O c #E86263",
"+ c #E65D62",
"@ c #F1826B",
"# c #EE7668",
"$ c #EA6864",
"% c #EC6F66",
"& c #F38C6E",
"* c #C03C50",
"= c #CF4957",
"- c #FDDA85",
"; c #E96564",
": c #FDE68A",
"> c #F89E72",
", c #DF575E",
"< c #F69770",
"1 c #FDE087",
"2 c #FDB077",
"3 c #FBA975",
"4 c #F79C72",
"5 c #DB535C",
"6 c #FFBD7B",
"7 c #FDDE87",
"8 c #F59370",
"9 c #FFC07C",
"0 c #FECC80",
"q c #D7505B",
"w c #F4906F",
"e c #FEC77E",
"r c #FDD784",
"t c #F2896D",
"y c #EF7E6A",
"u c #FEB478",
"i c #EF7B69",
"p c #FED182",
/* pixels */
"                                ",
"            .X                  ",
"       oOo . X                  ",
"     +@# $%o                    ",
"      & $+   *         .=       ",
"      O-# *   *   *$;   .*      ",
"      $:>     =     =#,         ",
"  +   <::#            ,+   *    ",
" .o  # $12             .*  ,    ",
" *  +.  @3               *  +   ",
"         3, +4%*         ;  *   ",
"   .   *=+4<-::5     o   5=     ",
"o  $   **  ;6::#     .   +%    *",
",  %         &:7@   .%%#890+  * ",
"*  #        q3::0. Xw>40:::0<<. ",
"   #       .e:60r &1t  .$,5# y  ",
"   %       q::0r:1::t      + %  ",
"   +      .>::-::r::;     o#y,  ",
"   *      y::4 t$ ;;       +    ",
"          ;::@         *   .    ",
"           %u$         . *  *   ",
"      *      #            *$*   ",
"     *      %&             *    ",
"   o       Ou,o*                ",
"   ,   .  i:8        .*         ",
"     q;+  e1X       O$          ",
"      #y5&:p      5#q           ",
"      # %r6t#;X .;q             ",
"      o#8&    .                 ",
"        i          qo           ",
"        .   *X5.                ",
"                                "
};
