/* XPM */
static char *kill6[] = {
/* columns rows colors chars-per-pixel */
"32 32 32 1 ",
"  c None",
". c #C13D51",
"X c #EA6965",
"o c #EB6C66",
"O c #F48F6E",
"+ c #D24C58",
"@ c #F0826B",
"# c #C64253",
"$ c #E86062",
"% c #D7505B",
"& c #DC545D",
"* c #FDDA85",
"= c #FFC07C",
"- c #FAA474",
"; c #FDE68A",
": c #FFBD7B",
"> c #FEB478",
", c #E65D62",
"< c #FCAC76",
"1 c #F9A173",
"2 c #F79C72",
"3 c #FDD483",
"4 c #FEC77E",
"5 c #EE7668",
"6 c #CE4957",
"7 c #F4906F",
"8 c #FDE087",
"9 c #FEC97F",
"0 c #C94454",
"q c #E25A60",
"w c #F59470",
"e c #EF7B69",
/* pixels */
"              .                 ",
"                                ",
"        .X                      ",
"         oO+                    ",
"          @@                    ",
"       .  #@+           .       ",
"      .     $#          #%      ",
"  .          .                  ",
"                             .  ",
"                                ",
"              &X#               ",
"   .     .    &*=&          .   ",
". #+           -;:    .     .   ",
"  ..        $  O;;>,            ",
"            <1X2332,            ",
"            :;4 Xo              ",
"           o;;> 5          66&X.",
"  ..       7;> o*889>0  .q5w-o+ ",
"           O=  &8;;9$    +# .   ",
"           &   e-$,#            ",
"                                ",
"                             .  ",
"         +                   .  ",
"        +q     .                ",
"   .    q%                      ",
"       +-6                      ",
"       ,O                       ",
"       Xq                       ",
"       X.   ..    .&.           ",
"             .                  ",
"                                ",
"               .                "
};
