/* XPM */
static char *kill7[] = {
/* columns rows colors chars-per-pixel */
"32 32 22 1 ",
"  c None",
". c #D14B58",
"X c #DE575E",
"o c #E65D62",
"O c #C03C50",
"+ c #D34D59",
"@ c #EA6A65",
"# c #C44052",
"$ c #EE7668",
"% c #FFBD7B",
"& c #DA535C",
"* c #FFC07C",
"= c #FECF81",
"- c #F69770",
"; c #C94454",
": c #FDD784",
"> c #E86062",
", c #CE4957",
"< c #F1826B",
"1 c #FED182",
"2 c #FAA775",
"3 c #EC6F66",
/* pixels */
"                                ",
"                                ",
"                                ",
"         .X                     ",
"          o                     ",
"            O          O        ",
"    OO      O           O       ",
" O                              ",
"                            OO  ",
"                                ",
"              +                 ",
"              X@#          O    ",
" O             $%&              ",
" O        #$   .*=-O            ",
"          #*.   #&X             ",
"          ;:>                   ",
"          &*,                OO ",
"          &>       .      ;o;   ",
"          >;   <123&    O O,O   ",
"          O   >%$.              ",
"              X+                ",
"                                ",
"       #                        ",
"       O                        ",
"       O                        ",
"      &.                        ",
"      +                         ",
"                                ",
"      O           OO            ",
"            O                   ",
"                                ",
"                                "
};
