/* XPM */
static char *kill5[] = {
/* columns rows colors chars-per-pixel */
"32 32 39 1 ",
"  c None",
". c #D7505B",
"X c #F89E72",
"o c #CB4655",
"O c #FFBD7B",
"+ c #C03C50",
"@ c #EC7167",
"# c #F79971",
"$ c #FAA474",
"% c #E65D62",
"& c #C44052",
"* c #E25A60",
"= c #FCAD76",
"- c #E96564",
"; c #D44D59",
": c #CE4957",
"> c #DC545D",
", c #E86263",
"< c #FEC97F",
"1 c #FDE68A",
"2 c #FEC77E",
"3 c #D14B58",
"4 c #EA6965",
"5 c #F2866C",
"6 c #EF7B69",
"7 c #FDD784",
"8 c #EF7E6A",
"9 c #FECF81",
"0 c #FFB679",
"q c #F48F6E",
"w c #FEC37D",
"e c #FED182",
"r c #FDDA85",
"t c #F2886D",
"y c #F59370",
"u c #FDE087",
"i c #FDB277",
"p c #FFB979",
"a c #F1826B",
/* pixels */
"                                ",
"        .Xo                     ",
"        oO +                    ",
"         @#         +     +     ",
"       ++ $%          +%o       ",
"      &   *=o           -;      ",
"  o+ :o    >*            >      ",
"  +         &                .  ",
"                             +  ",
"             +,*o               ",
"   *     +    <12:          3   ",
"+  4     +    5116    &     &   ",
"  o*        o361178             ",
"   ;        692001=o        +   ",
"   +        q1O>>w        &  &  ",
"           ;e1<>>rw#t:  *60$yX$3",
"   o       t11reu111<o  &;.   * ",
"           61i $1972>       +   ",
"           :p> >, oo            ",
"            o                   ",
"                             +  ",
"          :+                    ",
"         o6    +                ",
"   +     q6                     ",
"       +*=;            +        ",
"        a6             +        ",
"       t$ +         *:          ",
"       a*   o;   +*43           ",
"             &                  ",
"                    +           ",
"              +o                ",
"                                "
};
