/* XPM */
static char *kill1[] = {
/* columns rows colors chars-per-pixel */
"32 32 41 1 ",
"  c None",
". c #DB535C",
"X c #F2866C",
"o c #FAA474",
"O c #F48F6E",
"+ c #E86263",
"@ c #CE4957",
"# c #F1836C",
"$ c #FDE087",
"% c #FEC37D",
"& c #EA6A65",
"* c #D7505B",
"= c #C94454",
"- c #D54F5A",
"; c #D14B58",
": c #EC7167",
"> c #C64253",
", c #C03C50",
"< c #FEB478",
"1 c #F2896D",
"2 c #F4906F",
"3 c #DE575E",
"4 c #E96764",
"5 c #FCAC76",
"6 c #FDE68A",
"7 c #FED182",
"8 c #F07F6A",
"9 c #F79971",
"0 c #FEC97F",
"q c #FFB979",
"w c #EE7668",
"e c #FEC77E",
"r c #F9A173",
"t c #FDDA85",
"y c #FDD483",
"u c #FFBD7B",
"i c #F59370",
"p c #E25A60",
"a c #EF7C6A",
"s c #FDDE87",
"d c #FDB077",
/* pixels */
"                                ",
"                                ",
"                                ",
"        .XoO+@                  ",
" .     #$%&           *=        ",
" -O;   :o*  @+>  ,>    ;;       ",
"  .<1  2O.-> :3   ;43>  >@      ",
"   56#178=   49     =&-  @>     ",
"  @76661  3:9060%q1-  &w  1     ",
"  :e666r:<666666666t1  y<u6:    ",
"  - u66666666666666667y6666t5i= ",
" @  o$66666666666666666666eow   ",
"    O 56666666666666666t06&     ",
"    4 866666666666666661 0:     ",
"    p O6666666666666666& O9 =   ",
"    p O6666666666666666p p&7O   ",
"    4 46666666666666667> .4$a   ",
"    & @y666666666666669  ;3tp   ",
"    @  #66666666666666# = -q>   ",
"       .6666666666666soa& @:    ",
"       &y66666666666tp ;  *@    ",
"      4: O6666666666X     ;     ",
"    , ;*  o66666666i            ",
"    p  => @o666660:  *>         ",
"     := --  #6669@  p*          ",
"     .<: p#4X666& ;&@           ",
"      &y<Ou$6666<a.             ",
"       40& pu66d*    ,          ",
"        =,  o66a   =.           ",
"           =77%i.;@             ",
"           @5                   ",
"                                "
};
