/* XPM */
static char *idle1[] = {
/* columns rows colors chars-per-pixel */
"35 40 140 2 ",
"   c None",
".  c #391F21",
"X  c #372121",
"o  c #3C2C22",
"O  c #3C3422",
"+  c #3D3C22",
"@  c #432525",
"#  c #422826",
"$  c #492827",
"%  c #4D2728",
"&  c #432A28",
"*  c #4E2828",
"=  c #522A2A",
"-  c #5C2C2D",
";  c #403B23",
":  c #4D3129",
">  c #4B3E29",
",  c #543E33",
"<  c #612E2F",
"1  c #652F30",
"2  c #6B3133",
"3  c #663E34",
"4  c #793537",
"5  c #7D3738",
"6  c #773A3B",
"7  c #3E4522",
"8  c #3E4B23",
"9  c #444026",
"0  c #424A25",
"q  c #4D472D",
"w  c #405723",
"e  c #415A24",
"r  c #6D433E",
"t  c #426524",
"y  c #436B24",
"u  c #447024",
"i  c #467B25",
"p  c #634D45",
"a  c #725146",
"s  c #765749",
"d  c #6E5E5E",
"f  c #7D5654",
"g  c #775B57",
"h  c #715B5B",
"j  c #7C6C6C",
"k  c #81393B",
"l  c #8A3D3E",
"z  c #913E3F",
"x  c #8C3E40",
"c  c #943F41",
"v  c #934042",
"b  c #9A4749",
"n  c #904C4B",
"m  c #855A59",
"M  c #975352",
"N  c #A34446",
"B  c #A34748",
"V  c #AB4648",
"C  c #A44A4B",
"Z  c #B04749",
"A  c #BB4C4E",
"S  c #BD4E50",
"D  c #A65252",
"F  c #AB5554",
"G  c #A15B5B",
"H  c #AC5B5B",
"J  c #BD5252",
"K  c #B65C56",
"L  c #BA5955",
"P  c #B05A5A",
"I  c #B1625B",
"U  c #876260",
"Y  c #8A6261",
"T  c #936461",
"R  c #A66762",
"E  c #AF6364",
"W  c #AB6768",
"Q  c #AC6A6B",
"!  c #B16665",
"~  c #B16B6C",
"^  c #AE7063",
"/  c #BC7A6A",
"(  c #B77574",
")  c #BC7F7E",
"_  c #C25E5A",
"`  c #C5635D",
"'  c #C4685F",
"]  c #C36A60",
"[  c #C67366",
"{  c #C97567",
"}  c #CB7F6D",
"|  c #BF836F",
" . c #BC9076",
".. c #BE9578",
"X. c #C0846F",
"o. c #CC8671",
"O. c #D38B76",
"+. c #D78F79",
"@. c #C19D7C",
"#. c #C99F7F",
"$. c #D49279",
"%. c #DC917B",
"&. c #A28181",
"*. c #BE8484",
"=. c #A69B9C",
"-. c #B69495",
";. c #B89E9F",
":. c #BFA2A3",
">. c #BBACAD",
",. c #BDB2B2",
"<. c #C58E8E",
"1. c #D19F81",
"2. c #D89C80",
"3. c #C99696",
"4. c #CC9A99",
"5. c #D5A182",
"6. c #D7AE8A",
"7. c #DFB48E",
"8. c #E2B58F",
"9. c #E0B690",
"0. c #EAB792",
"q. c #EBBC95",
"w. c #C9A5A6",
"e. c #CEA7A8",
"r. c #D2ABAC",
"t. c #D7B2B3",
"y. c #EBC097",
"u. c #EEC99D",
"i. c #F1C29A",
"p. c #F3CA9F",
"a. c #F4CDA1",
"s. c #FAD4A6",
"d. c #FCD7A8",
"f. c #FFDAAA",
"g. c #D0C5C6",
"h. c #D6C7C8",
"j. c #DDC8C8",
"k. c #D9CECF",
"l. c #DBCFD0",
"z. c #E1CDCD",
/* pixels */
"    X X X X X X X X X X X X X X X X X X X X X X X X X X X X           ",
"    % * = = = = = = = = = = = = = = % % % % % % % % % @ X X .         ",
"X % 1 4 k k k k k k k k k k k k k 6 4 4 4 4 4 4 4 4 4 - @ X . X       ",
"X = 4 b V V N N N N N V V V V V V N b b c c c c c c z 4 = X X o O     ",
"X = k V A Z Z Z V Z Z Z A S A A Z V N N N N N N N N b k = o + 8 8 +   ",
"X = 5 N V V V V V V V Z Z A A A V B C C C B N C C C b k = ; w y e + X ",
"X % 2 l b V V V V V N N b N V Z V C H ~ W M n G ~ ! C k = ; t i t + X ",
"X X * 1 k N Z Z Z Z V z 5 k N V V F ) w.-.Y f ( w.<.H k = ; t i t + X ",
"X X % - k N Z S A A Z v 4 5 b V V P 3.k.>.j h =.h.r.Q k = ; w y e O X ",
"X @ - 5 b Z A S S A Z N c c N V V P 4.z.,.j d =.l.t.~ k = o + 8 + o X ",
"X % 4 b Z A A A A A A Z Z Z Z V V P 4.z.,.j d =.l.t.Q 6 = o o o o X X ",
"X = k V A S A A A A A A A A A Z V P 4.z.,.j d =.k.e.T 3 > 9 O X . X X ",
"X = k V A S A A A A A A S S A Z V P 3.k.>.j d =.g.;.g q e t 8 o X     ",
"X = k V A _ S A A A S A A A A Z V F *.e.-.U f &.:.&.p 0 y i w o X     ",
"X = k V A A A A Z A A A A A S Z V C E ( Q M n R Q m , 0 u i w o X     ",
"X % 4 b V N N N N N B Z A A A Z V N C C C B B C b 6 : 7 t y 8 o X     ",
"X @ - 4 4 4 4 4 4 4 5 b V Z Z V N N b b b N N N z 2 $ O 7 8 + X .     ",
"X X @ % % % % % % % - 4 b V V N N N N N N N N N c 4 = @ o o o X X     ",
"X X X X X X X X X X @ < 6 c N V V V V V V V V N b k 2 = @ X X X X     ",
"                      * - 4 b Z Z Z A A A Z Z V N b l 4 = X X X X     ",
"                        @ 1 c Z A A A A A A Z V N N b 5 = X X X       ",
"                        @ < c Z S S S S S A Z V N N b 6 = @ X         ",
"                        @ 2 b I ` ` ` ` ` ` _ K F C b 6 = X           ",
"                        # r ^ O.%.%.%.%.%.%.+.o./ I C 5 = X           ",
"                        & a ..q.i.i.i.i.i.i.q.9.1./ D k - %           ",
"                        & s #.a.f.d.d.d.d.s.s.y.6.| F v 4 < -         ",
"                        & s #.a.f.f.f.f.f.f.d.u.6.| F N v k 2 % X X X ",
"                        & s #.a.f.f.f.f.f.f.d.u.6.X.F N N b k - @ X X ",
"                        & s @.a.f.f.f.f.f.f.s.y.6.| F N N N b k < @ X ",
"                        & a  .q.s.d.f.d.s.p.y.8.1./ F N N N N c 4 % X ",
"                        $ r ^ 2.0.i.a.p.q.6.$.o./ I C N N b c 6 1 *   ",
"                        @ 2 b [ $.6.9.7.5.o.' K F C N N b x 4 - =     ",
"                        @ < v L { o.$.$.} ` J Z V N b b l 4 = @       ",
"                        @ < c Z _ ` ] ] ` J Z Z Z V b k 2 = %         ",
"                        @ < v Z J A V V N B N V Z Z N k - @           ",
"                        @ < v Z A V c 5 2 2 6 b V Z N k = X           ",
"                        @ - k b N z 4 = @ @ - k N N v 4 = X           ",
"                        @ = 2 4 4 4 - @ X X % 2 5 5 4 - @ X           ",
"                            % * * % @ X X     = * % % @ X X           ",
"                            X X X X X X X       X X X X X X           "
};
