/* XPM */
static char *idle0[] = {
/* columns rows colors chars-per-pixel */
"35 40 147 2 ",
"   c None",
".  c #321F1E",
"X  c #34211F",
"o  c #391F21",
"O  c #362220",
"+  c #3A2422",
"@  c #3C2B22",
"#  c #3C3222",
"$  c #3C3B23",
"%  c #442625",
"&  c #492827",
"*  c #4C2728",
"=  c #432E28",
"-  c #522A2A",
";  c #5B2C2D",
":  c #403B24",
">  c #533C33",
",  c #602D2E",
"<  c #652F30",
"1  c #692F31",
"2  c #673031",
"3  c #663F35",
"4  c #6A3C3B",
"5  c #743335",
"6  c #793537",
"7  c #7D3738",
"8  c #763A3B",
"9  c #3E4523",
"0  c #3E4A23",
"q  c #434026",
"w  c #444926",
"e  c #4C432B",
"r  c #405624",
"t  c #426424",
"y  c #436B24",
"u  c #447024",
"i  c #467B25",
"p  c #674843",
"a  c #6F4E46",
"s  c #73574A",
"d  c #6D5E5D",
"f  c #7E5454",
"g  c #785B57",
"h  c #705C5B",
"j  c #7C6C6C",
"k  c #823A3B",
"l  c #8C3C3E",
"z  c #903D3F",
"x  c #8F3E40",
"c  c #923E40",
"v  c #8E4042",
"b  c #954042",
"n  c #9B4244",
"m  c #974748",
"M  c #934C4C",
"N  c #9C4A4B",
"B  c #9F504F",
"V  c #855A5A",
"C  c #955151",
"Z  c #9A5152",
"A  c #A34446",
"S  c #A84547",
"D  c #A54648",
"F  c #AA4648",
"G  c #A44B4C",
"H  c #AE484A",
"J  c #B34A4C",
"K  c #BA4D4F",
"L  c #BC4E50",
"P  c #A85553",
"I  c #AB5A56",
"U  c #A15C5D",
"Y  c #AB5B5A",
"T  c #B55452",
"R  c #BC5453",
"E  c #BD5B57",
"W  c #BE5C58",
"Q  c #A8655C",
"!  c #BD675E",
"~  c #896162",
"^  c #946361",
"/  c #AC6464",
"(  c #AD6B6B",
")  c #B16766",
"_  c #B56A61",
"`  c #B26D6E",
"'  c #BB7466",
"]  c #B17868",
"[  c #B77575",
"{  c #BC7E7F",
"}  c #C25E5A",
"|  c #C2625C",
" . c #C86D63",
".. c #C67366",
"X. c #CB7166",
"o. c #C67769",
"O. c #C97B6B",
"+. c #B78A73",
"@. c #C0826E",
"#. c #C28570",
"$. c #CB8571",
"%. c #D38C76",
"&. c #C0977A",
"*. c #CD9379",
"=. c #C09E7E",
"-. c #D2967C",
";. c #A27F80",
":. c #9F8081",
">. c #A68283",
",. c #BE8181",
"<. c #A69C9C",
"1. c #B69393",
"2. c #B59E9F",
"3. c #BBACAC",
"4. c #BDB3B3",
"5. c #C58E8F",
"6. c #DF9E82",
"7. c #CA9695",
"8. c #CD9998",
"9. c #D5A484",
"0. c #DCA183",
"q. c #D9AD89",
"w. c #E5A486",
"e. c #E6A688",
"r. c #E3AC8B",
"t. c #E5B28F",
"y. c #E7B691",
"u. c #E7BB94",
"i. c #C3A2A3",
"p. c #CDA2A3",
"a. c #C8ABAB",
"s. c #D3ABAC",
"d. c #D7B2B3",
"f. c #EAC59A",
"g. c #EDC89D",
"h. c #F0C29A",
"j. c #F5C99F",
"k. c #F8CCA1",
"l. c #FCD3A6",
"z. c #FED7A8",
"x. c #FFD9AA",
"c. c #CFC6C6",
"v. c #DEC7C7",
"b. c #D6C7C8",
"n. c #DACBCB",
"m. c #DBD0D0",
"M. c #E2CECE",
/* pixels */
"    + + + + + + + + + + + + + + + + + @ @ + o + @ @ + + @ @           ",
"    * - - - - - - - - - - - - - - - * * * * * * * * * % + @ +         ",
"+ * 1 6 7 7 7 7 7 7 7 7 7 7 7 7 7 7 6 5 5 5 5 5 5 5 5 ; % @ + +       ",
"+ * 6 A H F F F F F F F F F F F F F A n b b b b b b x 5 - @ @ @ #     ",
"+ - 7 F K J J J J J J K K L L K J J F A A A A A A A n 7 - % $ 0 9 $   ",
"@ - 7 A J J J J H H H J J K K K J D G G G D A G G G n 7 ; : r y r $ @ ",
"+ * 2 l n F J J H F A n n A J J H G Y ` ( Z m U ` ) N 7 ; : t i t $ @ ",
"+ + - 2 k A J J J J F x 7 k A J F P { p.1.~ f ;.i.5.Y k - : t i t $ @ ",
"@ @ * , k F K K K K H l 5 6 n J F Y 7.v.3.j h <.b.s.( k - : r y r # @ ",
"+ % ; 7 n J K L L K J A l z F J S Y 8.M.4.j d <.m.d.` k - @ $ 0 $ @ + ",
"+ * 5 n J K K K K K K J J J J J A Y 8.M.4.j d <.m.d.( 7 - @ @ # @ @ @ ",
"+ - 7 F L L K K K K K K L L K J A Y 8.M.4.j d <.n.a.^ 3 e q # @ + @ @ ",
"@ - k J L L K K K K K K L L K J A Y 7.n.3.j d <.c.2.g e r t 0 @ o     ",
"+ - k J R L L K L L L K K K K J F P ,.p.1.~ f >.i.:.p w y i r # +     ",
"+ - 7 H L L K K K K K K K K L K H G / [ ( C M / ( V > 9 u i r # +     ",
"+ * 5 n F F A A A A F J K K K J F A G G N n A G m 8 - 9 t y 0 @ +     ",
"+ % ; 5 6 5 5 5 5 5 7 n J K J F A A n n n A A A l 2 * # 9 0 $ @ o     ",
"@ @ % & * & % % % & ; 6 n H F A A A A n A A A A x 5 - % @ # @ @ +     ",
"@ @ + + + O X X X O % ; 7 c n A S S S A A S A A n k 2 - % @ @ @ @     ",
"                      * ; 6 n J R L L L K L J H D b k 2 * @ + + +     ",
"                        % 2 P  .X.X.X.X.X.X.X.! Y P n 6 - @ O @       ",
"                        % p ] 6.e.w.w.w.w.w.w.-.#._ B 7 - @ O         ",
"                        = s &.h.k.k.k.k.k.k.j.u.9.@.P 7 ; + X         ",
"                        = s =.k.x.l.l.l.l.l.l.g.q.#.P 7 - + . X O + @ ",
"                        = s =.k.x.l.l.l.l.l.l.g.q.#.P k ; % + + @ @ @ ",
"                        = s =.k.x.z.l.l.l.l.l.g.q.@.I v 6 2 2 , - + + ",
"                        = s =.k.z.l.l.l.l.l.l.f.q.@.P n n n c l 2 * o ",
"                        % a +.y.j.l.l.l.j.f.u.q.*.' P A F H A c 2 * o ",
"                        % 4 Q %.r.f.f.f.t.0.%.o._ Y G A F A l 5 - @ + ",
"                        % 2 N  .%.9.q.q.-.O.| T H G A A n k 2 & @ @ + ",
"                        % , c R  .O.$.$...} L J F A n c 7 < * + + +   ",
"                        % , z J R E W E R J J J J F n k < & @ @ @     ",
"                        % , z J K H D b c z n F J J A 7 ; @ + @       ",
"                        % , l H J A k 2 ; ; 5 c H J A 7 - + X         ",
"                        % ; k n D n 5 - + + - 5 b D n 7 ; @           ",
"                          - < 7 x l 5 * O X % ; 5 l c 7 ; %           ",
"                            * ; 5 7 2 * +     % - 2 7 5 - @           ",
"                              * ; < ; % +       % - , ; & @           ",
"                                & % % @ @         % * % @ @           ",
"                                + + + + +         + + + + @           "
};
