/* XPM */
static char *_[] = {
/* columns rows colors chars-per-pixel */
"27 38 140 2 ",
"   c None",
".  c #000000",
"X  c #1C110F",
"o  c gray8",
"O  c #1C1C1C",
"+  c #38221E",
"@  c #222222",
"#  c #2D2D2D",
"$  c #3C3432",
"%  c #50352F",
"&  c #453D3C",
"*  c #62423B",
"=  c #4E4A49",
"-  c #634641",
";  c #714E47",
":  c #7F4F44",
">  c #74514A",
",  c #655451",
"<  c #675A57",
"1  c #655F5E",
"2  c #69615F",
"3  c #6F6F6F",
"4  c #736A69",
"5  c #9B6154",
"6  c #956D66",
"7  c #996961",
"8  c #996F68",
"9  c #87736F",
"0  c #99716B",
"q  c #A37C76",
"w  c #CE7565",
"e  c #CF7867",
"r  c #CF7768",
"t  c #CF7969",
"y  c #D07C6D",
"u  c #D17F70",
"i  c #90817E",
"p  c #A6837D",
"a  c #D3806E",
"s  c #D38375",
"d  c #D78A76",
"f  c #D48679",
"g  c #D58A7C",
"h  c #958987",
"j  c #9C8D8B",
"k  c #BB938C",
"l  c #A69794",
"z  c #A99996",
"x  c #AD9D9A",
"c  c #BEB6B5",
"v  c #D78E81",
"b  c #D79083",
"n  c #D89285",
"m  c #D99589",
"M  c #DB998D",
"N  c #C19A92",
"B  c #C29E98",
"V  c #DC9D92",
"C  c #DDA196",
"Z  c #DFA49A",
"A  c #E0A79D",
"S  c #E0A99E",
"D  c #C3B4B1",
"F  c #C9B4B0",
"G  c #C7B8B5",
"H  c #CCBAB7",
"J  c #DABEB8",
"K  c #E1ACA3",
"L  c #E3B0A7",
"P  c #E4B4AC",
"I  c #E6B8AF",
"U  c #E6B7B0",
"Y  c #E7BBB3",
"T  c #E8BEB7",
"R  c #E8BFB8",
"E  c #E9C3BD",
"W  c #CEC4C2",
"Q  c #D9C4C1",
"!  c #D9CAC7",
"~  c #DCCFCD",
"^  c #D7D2D0",
"/  c #EBC7C0",
"(  c #EDCBC5",
")  c #EDCEC9",
"_  c #EFD2CD",
"`  c #F0D4CF",
"'  c #E0D3D1",
"]  c #E8D9D7",
"[  c #E6DDDB",
"{  c #EBDDDA",
"}  c #F0D6D1",
"|  c #F2DAD5",
" . c #F3DEDA",
".. c #EFE0DC",
"X. c #F5E2DE",
"o. c #ECE3E1",
"O. c #EEE5E4",
"+. c #F5E3E0",
"@. c #F5E4E0",
"#. c #F6E4E1",
"$. c #F6E6E3",
"%. c #F6E5E2",
"&. c #F6E6E3",
"*. c #F2E9E7",
"=. c #F7E8E5",
"-. c #F7E9E6",
";. c #F7EAE7",
":. c #F8EBE9",
">. c #F8EDEB",
",. c #F9EEED",
"<. c #F9EDEB",
"1. c #FAF0EF",
"2. c #FAF1F0",
"3. c #FAF2F1",
"4. c #FBF3F2",
"5. c #F8F1F0",
"6. c #FBF4F3",
"7. c #FBF5F3",
"8. c #FBF5F4",
"9. c #FAF7F6",
"0. c #FCF5F4",
"q. c #FCF6F5",
"w. c #FBF4F3",
"e. c #FBF8F7",
"r. c #FCF8F7",
"t. c #FDF8F7",
"y. c #FCF8F7",
"u. c #FDF8F8",
"i. c #FDF9F8",
"p. c #FCF9F9",
"a. c #FDFAF9",
"s. c #FEFBFB",
"d. c #FEFCFB",
"f. c #FEFCFC",
"g. c #FEFDFC",
"h. c #FEFDFD",
"j. c #FFFEFD",
"k. c #FFFEFE",
"l. c white",
"z. c #FEFDFD",
/* pixels */
"                | } } ` ` } |                         ",
"          $.q.q.q.h.h.h.h.h.h.q.q.1.$.                ",
"        =.q.:.| ` Y I I I Y R }  .h.q.                ",
"      $.q.$./ Y L Z V V V V Z L Y / h.:.{             ",
"      t.X./ I S V n g f f g n M A I / =.q.X.          ",
"      1.| Y S M v s y t w t s g m Z I / h.:.          ",
"  } $.t.E K V v s t w w e w w y g m S Y | q.$         ",
"   .h./ L V n f u w w g E g w r s v V K ) q.j         ",
"  | q.R Z m g s y r g t.3 =.b y s g m C I h.q.]       ",
"  ` q.Y V b f s y v o.D . x [ V f g v M S T h.G       ",
" .X.t.K m g s s s Y x O .   j _ g g g n V I h.' j     ",
"q.h.h.V b f s s f / l .     z X.n g f g n Z h.h.$.    ",
"h.I Z m g s s g h.W 2     } $./ m g s s g M Z / $.4   ",
"h.Z M b f s f n t.# .     :.h.Z b s u u s v M E  .&   ",
"h.V n g s f v V t.O     q.h.K M g u y y s g b Y | &   ",
"h.m g g f g m S h.@   :.X.I Z m I C y y u f g Y } &   ",
"h.b g f g b C h.q.@ :.h.E S M h.F ! Z y u s f I ` &   ",
"h.v f f g n / c = q.h.E K V h.:., h E s s s s I _ &   ",
"h.v f f g m S h.h.| R I Z h.Q O { h.M f f s s I _ &   ",
"h.v f f g n C K U I L Z E H 9 o o.A n g g f s I _ &   ",
"h.v f f g v M V Z Z Z h.:.< . O q.L M v g s s I _ &   ",
"h.v s s f g n m V C h.=.. . .   q.I V n g s s I _ &   ",
"h.v s s s g v m M Y ~ j . .   q.h.I V n g s s K ` &   ",
"q.g s s s f v m h.=.i . .   :.:.E K V n f s h.=.Y $   ",
"t.g s s s g v V t.O . .     q.=.Y K M v s g q.0 . .   ",
"t.g s s s g m Z h.^ 1     q.h._ I Z m g s g } p . .   ",
"h.g s s f g m Z I ` q.    h.} Y K V v f v q./ 6 .     ",
"$.q.h.s s g m C K Y | :.:.} T I C m g s K } X . .     ",
"K B q.b s g v M Z I Y E T I K C m g f s M $.X . .     ",
"  > q.g s s g b M Z S K K Z M n g f f Z $.I X         ",
"  q ` h.s y y s f v n m n v g s s s h.:.k . .         ",
"    7 $.Z w w w w y y y y y w w w m h.q - . .         ",
"      V _ S M g t e w w e e s M M X.K + . .           ",
"        8 |  .:.h.a a a a g q. . .N . . .             ",
"        % > ; J h.h.h.h.h.h...> > * . .               ",
"          . . : s d d d d d 5 . . . .                 ",
"                . . . . . . . .                       ",
"                . . . . . . . .                       "
};
