/* XPM */
static char *_[] = {
/* columns rows colors chars-per-pixel */
"25 38 123 2 ",
"   c None",
".  c #000000",
"X  c #0C0908",
"o  c #161616",
"O  c #1C1210",
"+  c #211A19",
"@  c #37201B",
"#  c gray15",
"$  c gray20",
"%  c #563F3C",
"&  c #62433C",
"*  c #464646",
"=  c #4C4C4C",
"-  c #565656",
";  c #6E4C47",
":  c #69514D",
">  c #735049",
",  c #625B5A",
"<  c #7E645F",
"1  c #7E6460",
"2  c #796E6D",
"3  c #9C6254",
"4  c #91756F",
"5  c #987E79",
"6  c #AD7C73",
"7  c #CE7565",
"8  c #CF7867",
"9  c #CF7768",
"0  c #CF7869",
"q  c #D17C6C",
"w  c #D17F70",
"e  c #99817B",
"r  c #D3816F",
"t  c #D38374",
"y  c #D68976",
"u  c #D48679",
"i  c #D68B7D",
"p  c #D98E7B",
"a  c #DA917F",
"s  c #AB8C86",
"d  c #A4908C",
"f  c #B2938D",
"g  c #A29896",
"h  c #AEA09E",
"j  c #BAA4A0",
"k  c #B9ADAB",
"l  c #D68E81",
"z  c #D79083",
"x  c #D89286",
"c  c #DA9689",
"v  c #DB998E",
"b  c #C19B93",
"n  c #DC9D92",
"m  c #DDA196",
"M  c #DFA59A",
"N  c #E0A79D",
"B  c #E0A99F",
"V  c #CAB7B3",
"C  c #CBB9B6",
"Z  c #CCBDBA",
"A  c #E2ADA3",
"S  c #E3B0A7",
"D  c #E4B3AB",
"F  c #E5B8AF",
"G  c #E7BBB3",
"H  c #E8BFB7",
"J  c #E8BFB8",
"K  c #CEC0BE",
"L  c #D7C2BE",
"P  c #EAC3BC",
"I  c #D5C5C2",
"U  c #D8C7C4",
"Y  c #EBC7C1",
"T  c #ECC9C3",
"R  c #E6CFCA",
"E  c #EECFC9",
"W  c #EFD2CD",
"Q  c #F0D5CF",
"!  c #E0D2D0",
"~  c #F1D7D1",
"^  c #F2DAD5",
"/  c #F3DDD9",
"(  c #EFE0DD",
")  c #F4E1DD",
"_  c #F6E7E4",
"`  c #F5E5E2",
"'  c #F7E8E5",
"]  c #F7E8E6",
"[  c #F1EAE8",
"{  c #F7EAE8",
"}  c #F6EDEC",
"|  c #F6EEED",
" . c #F8EAE8",
".. c #F8ECE9",
"X. c #F8ECEA",
"o. c #F8EDEB",
"O. c #F9EDEB",
"+. c #F9EFED",
"@. c #FAF1EF",
"#. c #FAF2F0",
"$. c #FBF3F1",
"%. c #FBF3F2",
"&. c #FBF4F3",
"*. c #FBF5F4",
"=. c #FCF5F4",
"-. c #FCF6F4",
";. c #FCF6F5",
":. c #FCF6F6",
">. c #FCF7F6",
",. c #FCF7F7",
"<. c #FBF4F3",
"1. c #FCF8F6",
"2. c #FCF8F7",
"3. c #FDF8F7",
"4. c #FDF9F8",
"5. c #FDF9F9",
"6. c #FDFAF9",
"7. c #FDFBFA",
"8. c #FEFBFB",
"9. c #FFFEFE",
"0. c #FFFFFE",
"q. c white",
"w. c white",
/* pixels */
"      ^ / ^ ~ Q W W W W W W W W W W W W W E T J   ",
"      4.4.4.4.4.4.4.4.4.4.4.4.4.4.4.4.4.4.4.4.o.  ",
"      :.) T H G F F F F F F F F F F F F F G 4.K . ",
"  ~ ` :.T S M n v v v v v v n n n n n n m N :.Z . ",
"  ^ 4.P M c u t t w q t t t u u l l l l x v :.C . ",
"  H @.A u 0 7 0 0 0 8 8 7 7 7 q t t t t u z :.C . ",
"W ^ :.t 8 q r r r r q q q q 7 7 0 q q t t u :.V . ",
"4.A w q t t y t t t t r q q 7 7 q w t t t l :.V . ",
"4.W Q ~ ~ ^ ^ ~ Q Q ^ ^ ^ ^ F t t t t t t M ^ I . ",
"  - - - - - - - - - = * * * g H t u u u n o., $ . ",
"  . . . . . . . . . % < < 1 j E l l u v { d X . . ",
"                    / :.:.:.4.A c c F / L X .     ",
"                  { 4.P G F A m n A :.2 o .       ",
"                ` 4.T G F A M m A { h + . .       ",
"              ` 4.4.G A M m n n 4.U . .           ",
"            o.4.E G A n c x x v B 4.:.:.2.o.      ",
"            :.P A M c u t t u l v A H Y E 2.` )   ",
"            o.F c u t 0 7 7 0 t l v M F G 4.4.`   ",
"            ' M t 7 7 q q 0 7 7 t u c m A F 4.!   ",
"            ' l 7 q q r r q q 7 7 t u x n N 2.Z . ",
"            W :.c u p x p p y t 7 q t u z n :.Z . ",
"              f :.2.2.2.2.:.:.2.4.q t u u c :.C . ",
"              : 5 e e e 5 5 4 5 { c u u u l :.C . ",
"                . . . . . . . * { m u u u l :.C . ",
"                          # k ` P v l u u l :.C . ",
"                          o.:.P B n z u t l :.V . ",
"                          4.T F B v l u t u :.V . ",
"                    o.o.o.W G A m c u u t u G I . ",
"                    :.4.Y G A m c u u t u :.Y s . ",
"      :.o.o.o.o.o.o.^ P F A n z u t t u :.P O . . ",
"      o.W P P P H G F A n c u t q q t F R ; X . . ",
"      ` P B M M n n c z u w 9 7 7 c E P 6 . .     ",
"      ) A u t t q q 0 7 7 8 t v v ) M @ . .       ",
"      ^ n 7 q q q q q q r u :./ ) b . . . .       ",
"      ` 4.4.4.4.4.4.4.4.4.4.( > > & . .           ",
"      q t t u p a a p p y y 3 . . . .             ",
"        . . . . . . . . . . . .                   ",
"        . . . . . . . . . . . .                   "
};
