/* XPM */
static char *_[] = {
/* columns rows colors chars-per-pixel */
"28 38 131 2 ",
"   c None",
".  c #000000",
"X  c #0B0B0B",
"o  c #191919",
"O  c gray13",
"+  c #343434",
"@  c #383231",
"#  c #433938",
"$  c #7D493F",
"%  c #414141",
"&  c #645350",
"*  c #6F5E5B",
"=  c #66605F",
"-  c #786965",
";  c #7C6C6A",
":  c #7A7776",
">  c #7A7878",
",  c #976D65",
"<  c #81726F",
"1  c #837976",
"2  c #887C7A",
"3  c #917B78",
"4  c #A47F78",
"5  c #CE7565",
"6  c #CF7867",
"7  c #CF7768",
"8  c #CF7969",
"9  c #D17C6D",
"0  c #D17F70",
"q  c #A5827B",
"w  c #D3816F",
"e  c #D28274",
"r  c #D78976",
"t  c #D48779",
"y  c #D58A7C",
"u  c #D88B78",
"i  c #9E8D8A",
"p  c #A78883",
"a  c #AA8A84",
"s  c #A98C88",
"d  c #AA918C",
"f  c #AC9692",
"g  c #BCA39E",
"h  c #B4A6A3",
"j  c #B9A9A6",
"k  c #B7AEAC",
"l  c #D68D80",
"z  c #D79083",
"x  c #D89286",
"c  c #D99589",
"v  c #DB998E",
"b  c #DC9E93",
"n  c #DDA196",
"m  c #DEA499",
"M  c #E0A89E",
"N  c #C1B0AD",
"B  c #CAB7B4",
"V  c #CEB9B5",
"C  c #CDBDBB",
"Z  c #D3B8B4",
"A  c #E1ACA2",
"S  c #E4B2A6",
"D  c #E5B5AB",
"F  c #E5B8AF",
"G  c #E6BAB2",
"H  c #E8BFB7",
"J  c #D2C0BD",
"K  c #E9C1BA",
"L  c #C7C2C1",
"P  c #CBC8C7",
"I  c #D8C9C6",
"U  c #EBC7C1",
"Y  c #ECCAC4",
"T  c #EECEC9",
"R  c #EFD1CC",
"E  c #F0D4CE",
"W  c #E1D5D3",
"Q  c #E7D8D6",
"!  c #E8DAD7",
"~  c #F0D6D1",
"^  c #F2D9D5",
"/  c #F3DDD9",
"(  c #F4E1DD",
")  c #F6E4E2",
"_  c #F6E6E3",
"`  c #F5E4E1",
"'  c #F6E7E4",
"]  c #F7E7E5",
"[  c #F5E3E0",
"{  c #F7E8E5",
"}  c #F7EAE7",
"|  c #F8EAE8",
" . c #F8EBE8",
".. c #F8EBE9",
"X. c #F8ECE9",
"o. c #F8ECEA",
"O. c #F9EDEA",
"+. c #F9EDEB",
"@. c #F9EDEC",
"#. c #F9EEEC",
"$. c #F9EEED",
"%. c #F9EFED",
"&. c #FAF0EE",
"*. c #FAF0EF",
"=. c #FAF1EF",
"-. c #F8F2F1",
";. c #FAF2F1",
":. c #FBF3F2",
">. c #FBF5F3",
",. c #FBF5F4",
"<. c #FCF5F4",
"1. c #FCF6F5",
"2. c #FCF7F6",
"3. c #FCF7F7",
"4. c #FCF5F4",
"5. c #FCF8F7",
"6. c #FDF8F7",
"7. c #FDF8F8",
"8. c #FDF9F8",
"9. c #FDF9F9",
"0. c #FDFAF9",
"q. c #FDFAFA",
"w. c #FDFBFA",
"e. c #FDFBFB",
"r. c #FEFBFB",
"t. c #FEFCFC",
"y. c #FEFDFD",
"u. c #FFFEFE",
"i. c #FFFFFE",
"p. c white",
"a. c white",
/* pixels */
"                    ( _ $.                              ",
"                    u.u.u.u.  u.u.;.;.;.;.;.&.^         ",
"                  $.u.;.u.> P ;.{ ( / ^ ^ ~ $.V         ",
"                  u.&.$.u.: L u.T K G D D D u.f .       ",
"                  u._ ( u.= k u.K D M n n n u.d .       ",
"              _ $.u.~ R u.$.$.E A n v x x v ;.s .       ",
"              $.$.T K G F Y Y A b c y y y x ;.a .       ",
"            ( $.u.H A n b b v c z y e e e l ;.p .       ",
"            &.u.u.A b x l y t t e e e e e l ;.p .       ",
"            ;.R D n x t e v c 9 9 9 9 e e l ;.p .       ",
"          _ ;.Y A v y e u.W W x 5 8 9 0 e l 5.p .       ",
"        { u.u.D n x e 9 u.; < u.5 5 8 0 e l ;.p .       ",
"        { u.K A v y e t ^ * 3 u.5 5 8 9 e l ;.p .       ",
"      _ &.u.D n x t y ;.N # g R 5 5 8 9 e l ;.p .       ",
"      &.u.u.A v l e v ! o . g R 5 8 8 9 e l ;.p .       ",
"      ;.^ D n x t e n Q X   Z ~ 9 9 9 9 e l ;.a .       ",
"    $.;.Y A v l t M I i X   ~ ^ e e 9 0 e l ;.s .       ",
"  ( ;.u.D n c l y R 2 . .   ^ / y e e e t c 5.d .       ",
"  ( ;.U A b x x b u.1 .     ( ( c y e e y v 5.f .       ",
"  ;.u.D n c x c u.h @         _ b x y t y b u.f .       ",
"K u.G n v x x b u.% O       $.( n c y y l b u.j +       ",
"D u.n v x l x b K $.;.;.5.;._ K n c y y l v G _ ;.u.$.  ",
"n u.c y t e y x b A D G G G D A b z y t y x n D H 5.{   ",
"c u.e 9 7 5 9 e y x v b n n b v x y t e t y c n A ;.C . ",
"e u.5 5 8 9 6 5 5 8 9 e e t y y t e e e e e y x b ;.C . ",
"5 u.9 9 w e w w 9 9 9 9 8 5 5 8 9 e e e e e e e l ;.V . ",
"8 u.S D D D D D D D D S S A v 5 5 9 0 0 9 9 9 b A D J . ",
"9 R R E E E E E E E E E R R / M 5 9 9 0 9 0 u.^ Y K a . ",
"  . . . . . . . . . . . . . & ( 5 9 9 9 9 t ;., . . . . ",
"  . . . . . . . . . . . . . - R 7 9 9 9 9 e ;.q . . . . ",
"                            T R 8 8 8 8 8 e ;.q .       ",
"                            T R 5 5 5 5 5 e ;.q .       ",
"                            R R 5 6 9 9 6 e ;.q .       ",
"                            T R 9 9 w w 9 e ;.4 .       ",
"                            E u.u.u.u.u.u.u.u.a .       ",
"                              9 e r y u r e 9 $ .       ",
"                                . . . . . . . . .       ",
"                                . . . . . . . . .       "
};
