/* XPM */
static char *_[] = {
/* columns rows colors chars-per-pixel */
"28 38 129 2 ",
"   c None",
".  c #000000",
"X  c #0E0807",
"o  c #0E0909",
"O  c #1C100E",
"+  c #161616",
"@  c #1D1514",
"#  c #232323",
"$  c #69413A",
"%  c #434343",
"&  c #4B4B4B",
"*  c #565656",
"=  c #5B5453",
"-  c gray36",
";  c #71544E",
":  c gray39",
">  c #7A7372",
",  c #835249",
"<  c #995B4E",
"1  c #836A65",
"2  c #896B65",
"3  c #867976",
"4  c #8A7C7A",
"5  c #9A7770",
"6  c #A27E77",
"7  c #CE7565",
"8  c #CF7867",
"9  c #CF7768",
"0  c #CF7969",
"q  c #D17C6C",
"w  c #D17F70",
"e  c #D3816F",
"r  c #D38274",
"t  c #D78A76",
"y  c #D48779",
"u  c #D58A7C",
"i  c #D98F7B",
"p  c #AB8C86",
"a  c #D78E82",
"s  c #D88F80",
"d  c #D79083",
"f  c #D99385",
"g  c #DB9887",
"h  c #D9968A",
"j  c #DB998C",
"k  c #DC9D92",
"l  c #DEA196",
"z  c #D0A098",
"x  c #DFA49A",
"c  c #E0A79D",
"v  c #E0A99E",
"b  c #CAB7B4",
"n  c #CBB9B6",
"m  c #CCBDBA",
"M  c #E1ACA3",
"N  c #E3B0A7",
"B  c #E4B3AB",
"V  c #E6BAB2",
"C  c #E8BFB7",
"Z  c #E8BFB8",
"A  c #CDC0BD",
"S  c #E9C2BB",
"D  c #D3C3C0",
"F  c #D9CDCA",
"G  c #EBC6C0",
"H  c #E5CAC5",
"J  c #ECCBC5",
"K  c #E3CDC9",
"L  c #EECEC9",
"P  c #EFD1CC",
"I  c #F0D5CE",
"U  c #F1D6D1",
"Y  c #F2D9D4",
"T  c #F3DCD9",
"R  c #F3DDD9",
"E  c #F2DCD8",
"W  c #F3DDDA",
"Q  c #F4E0DC",
"!  c #F5E2DF",
"~  c #F4E0DC",
"^  c #F5E3E0",
"/  c #F1E4E2",
"(  c #F5E4E2",
")  c #F6E6E3",
"_  c #F4E7E5",
"`  c #F6E6E4",
"'  c #F7E7E4",
"]  c #F7E8E5",
"[  c #F7E9E6",
"{  c #F5ECEA",
"}  c #F8EAE8",
"|  c #F8EBE8",
" . c #F8EBE9",
".. c #F8ECE9",
"X. c #F8ECEA",
"o. c #F9EEEC",
"O. c #F9EFEC",
"+. c #F9EFED",
"@. c #FAEFEC",
"#. c #FAEFED",
"$. c #F9EFEE",
"%. c #F8ECEA",
"&. c #F7F0EF",
"*. c #FAF0ED",
"=. c #F8F2F1",
"-. c #F9F2F1",
";. c #FAF2F0",
":. c #FBF3F1",
">. c #FBF3F2",
",. c #FBF4F2",
"<. c #FBF4F3",
"1. c #FBF5F3",
"2. c #FBF5F4",
"3. c #FCF5F4",
"4. c #FCF6F5",
"5. c #FCF7F6",
"6. c #FBF5F3",
"7. c #FCF8F7",
"8. c #FDF8F7",
"9. c #FCF8F7",
"0. c #FDF9F8",
"q. c #FDF9F9",
"w. c #FEFCFC",
"e. c #FEFDFC",
"r. c #FEFDFD",
"t. c #FEFEFD",
"y. c #FFFEFE",
"u. c white",
"i. c #FFFEFE",
/* pixels */
"      Y R Y U I P P P P P P P P P P P P P P L G S       ",
"      7.u.u.u.u.u.u.u.u.u.u.u.u.u.u.u.u.u.u.u.u.$.      ",
"      4.^ G C V B B B B B B B B B B B B B B B G ] @     ",
"  U ! 4.G B v l k k k k j j j j j j j k k l u.F - .     ",
"  Y u.S v k h d a u u u r r r r r r r r y f 4.5 . .     ",
"    $.N f y r r r r w 0 7 7 7 8 8 7 7 7 7 d P p .       ",
"l R 4.f r q 0 q q q 7 7 q q e e r e e q u $.> # .       ",
"f u.u q 7 7 9 q q 0 7 8 q r r t t t t r l Y O . .       ",
"y u.P Y Y Y l r r q 7 f G I U Y Y Y U U I $.O           ",
"  * * & % = $.k r r y 4.: * * * * * * * * % .           ",
"  . o ; 1 2 $.l u u h { . . . . . . . . . . .           ",
"      Y 4.4.u.h f f l &.+                               ",
"      ^ S M k h h j M 4.+                               ",
"      ! S k h f h k B 4..                               ",
"      ! V h d a f j v u.4.4.4.4.4.4.4.4.4.7.4.^         ",
"      R B u r r y a k M Z G G G G G L P P Y ^ 4.]       ",
"      Y v q 0 7 0 w y d j k l l c M M B B C G u.$.      ",
"      U l 7 7 8 8 7 7 7 0 q r r u a h j l M B S u.4.^   ",
"      P u.q q e e e e q q q q 0 7 7 w y a h l M V u.^   ",
"      z K v f f g j j j j g f f s r 7 0 r u f k M 4.A . ",
"        6 ^ $.$.*.*.*.*.*.*.$.$.$.4.f 7 q r y d k 4.m . ",
"          . . . . . . . . . . . . 3 G 7 q q r u h 4.n . ",
"          . . . . . . . . . . . . 4 G q q q w r f 4.n . ",
"                                  R G r r w w r a 4.n . ",
"                                  ! P a u r r r a 4.n . ",
"                                  ^ R j a r r r a 4.b . ",
"                                  $.Y l f u r r a 4.b . ",
"                                4.u.S l h u r w f V D . ",
"                                u.L B l f u r f $.S p . ",
"        ! $.$.$.$.$.$.$.$.$.$.] L V M k d r w B G O . . ",
"        Y u.S S S S S S S S C V B v k f u r q l R O . . ",
"        L u.M c l l l l l l k k h d u r r h G U l O     ",
"        S 7.f y r w w w w w q q 0 7 7 7 y 4.B , . .     ",
"        V 4.q 0 q q q q q q q q q q q r 4.V O . . .     ",
"        V u.u.u.u.u.u.u.u.u.u.u.u.u.u.u.H $ X . .       ",
"        q q r t i i i i i i i i i t r e < . .           ",
"          . . . . . . . . . . . . . . . . .             ",
"          . . . . . . . . . . . . . . . . .             "
};
