/* XPM */
static char *_[] = {
/* columns rows colors chars-per-pixel */
"27 38 136 2 ",
"   c None",
".  c #000000",
"X  c gray6",
"o  c #160D0B",
"O  c #1C120F",
"+  c #151515",
"@  c gray11",
"#  c #371F1B",
"$  c #34211D",
"%  c #2C2C2C",
"&  c #342A28",
"*  c gray24",
"=  c #50352F",
"-  c #453D3C",
";  c #603F3A",
":  c #49413F",
">  c #594642",
",  c #534C4A",
"<  c gray33",
"1  c #6E4B44",
"2  c #704E45",
"3  c #74524B",
"4  c #7D5F5A",
"5  c #746866",
"6  c gray46",
"7  c #805850",
"8  c #8A655E",
"9  c #9C6254",
"0  c #826C68",
"q  c #986E67",
"w  c #877977",
"e  c #AB786F",
"r  c #A87A72",
"t  c #CE7464",
"y  c #CF796A",
"u  c #D17C6C",
"i  c #D17E70",
"p  c #D38374",
"a  c #D68976",
"s  c #D48679",
"d  c #D58A7C",
"f  c #D88C79",
"g  c #838383",
"h  c #988784",
"j  c #9D908E",
"k  c #B78A82",
"l  c #B98D85",
"z  c #A2918E",
"x  c #A29492",
"c  c #AA9E9C",
"v  c #BAAEAC",
"b  c #BEB1AE",
"n  c #BFB5B3",
"m  c #D78E81",
"M  c #D88F81",
"N  c #D79083",
"B  c #D89285",
"V  c #D99589",
"C  c #DB998D",
"Z  c #DC9D92",
"A  c #C5A19B",
"S  c #DDA196",
"D  c #DFA59B",
"F  c #E0A99E",
"G  c #E2ADA4",
"H  c #E4B4AB",
"J  c #E6B8AF",
"K  c #E6BAB3",
"L  c #E8BEB6",
"P  c #E8BFB8",
"I  c #CCC1BE",
"U  c #D4C1BE",
"Y  c #EAC3BC",
"T  c #C9C2C1",
"R  c #DCC6C2",
"E  c #DED1CF",
"W  c #EBC7C1",
"Q  c #EDCCC6",
"!  c #EECEC9",
"~  c #EED1CC",
"^  c #E6DCDB",
"/  c #EBDDDB",
"(  c #F1D6D1",
")  c #F2DAD6",
"_  c #F2DEDA",
"`  c #E8E0DE",
"'  c #F5E1DE",
"]  c #EEE4E2",
"[  c #F6E5E2",
"{  c #F7E9E7",
"}  c #F7E9E6",
"|  c #F7EAE7",
" . c #F7E8E5",
".. c #F4E9E6",
"X. c #F8EAE7",
"o. c #F4EDEC",
"O. c #F8EBE9",
"+. c #F9EDEA",
"@. c #F9EFED",
"#. c #FAEFEE",
"$. c #F8EDEB",
"%. c #F9F0EE",
"&. c #FAF0EE",
"*. c #FAF1EF",
"=. c #FAF1EF",
"-. c #FAF2F0",
";. c #FAF2F1",
":. c #FAF3F1",
">. c #FBF3F2",
",. c #FBF4F3",
"<. c #FBF4F2",
"1. c #FBF5F4",
"2. c #FCF7F5",
"3. c #FCF7F6",
"4. c #FCF6F6",
"5. c #FCF8F7",
"6. c #FDF8F7",
"7. c #FBF8F8",
"8. c #FDF8F8",
"9. c #FDF9F8",
"0. c #FDF9F9",
"q. c #FCF9F8",
"w. c #FDFAF9",
"e. c #FDFBFB",
"r. c #FDFBFA",
"t. c #FEFBFA",
"y. c #FEFBFB",
"u. c #FEFCFB",
"i. c #FEFCFC",
"p. c #FEFDFC",
"a. c #FEFDFD",
"s. c #FFFEFD",
"d. c #FFFEFE",
"f. c #FFFFFE",
"g. c white",
"h. c #FFFEFE",
/* pixels */
"                        ) ) (                         ",
"                    [ 1.a.a.a.[                       ",
"                  [ 1.| ( ~ ) *.'                     ",
"                [ 1.a.a.Y K K a.1.) Y                 ",
"              | 1.' W H G S S F J ~ |                 ",
"            | 1.) P H S C V V C G | g                 ",
"          [ a.( K G Z V m d m a.` h . .               ",
"        | 1.a.P G Z V d p p S ( 5 + .                 ",
"        | *.Y G S V d p p C ] < . .                   ",
"      [ #.a.H S V d p d G ^ z . .                     ",
"      #.a.a.G C m s d 1.I , + .                       ",
"      1.( H Z V d s K ] @ . .                         ",
"  ' *.a.Y G C m d K v % .                             ",
"  ' a.W H S V m m ~ x . .                             ",
"  ( 1.Y F Z V V L | c                                 ",
"1.a.a.G Z V V S a.* X     *.a.a.a.a.1.                ",
"a.L G S V V C F a.+ b a.a.a.! ! ~ ~ | a.a.1.          ",
"a.G Z V N V C F a.n 1.~ Y H H G H H L Q ( a.1.[       ",
"a.S V m d m V S H a.a.H F Z V V V Z S H Y a.a./       ",
"a.V m d s d V Z S G S Z N p u y u s V S G Y #.E       ",
"a.V d s p s m V C C V d u p M d t t p N Z H ~ o.c     ",
"a.m s p p p s d m d s i G *.X.#.Y p t p V S H ( |     ",
"1.m p p p p p p s p p a.' > . . R *.N p d V S ! ' 5   ",
"1.d p p p p p p p d a.R . . . . . w Q p s m C Y ) -   ",
"1.d p p p p p s d K U 0 . .       x Q s d d m K ( -   ",
"5.d p p p p p d m ~ x . .         [ ~ V d d d H ~ -   ",
"a.F d p p p s m V ( j .           | ) Z V d p H ~ -   ",
"Q ( 5.d p p d V Z W T 6           1.Q S V d p S ( :   ",
"  1 1.V p p s m Z G ~ a.        1.( H S V d a.) G &   ",
"  4 ( a.s p p d V S H Q | #.#.[ Q K G Z m s a.k . .   ",
"    r #.S u u p d C S H K P L K H S C m p d Y A . .   ",
"    $ F ( F t t y p m V Z S S Z V m p u Z a.L e .     ",
"      . q ( H V V u t y u p p u y p C C ( Z # . .     ",
"        = 7 ! ' ' a.p u u u u u d *.( ' l . . . .     ",
"          o 1 3 8 a.a.a.a.a.a.a.a.~ 2 3 ; . .         ",
"            . . O p a d f f f a a 9 . . . .           ",
"                  . . . . . . . . . .                 ",
"                    . . . . . . . . .                 "
};
