/* XPM */
static char *_[] = {
/* columns rows colors chars-per-pixel */
"27 38 117 2 ",
"   c None",
".  c #000000",
"X  c #0D0D0D",
"o  c #37211C",
"O  c #3F2824",
"+  c #353535",
"@  c #432C28",
"#  c #46312D",
"$  c #4B3632",
"%  c #4E3936",
"&  c #453D3B",
"*  c #503B38",
"=  c #46403E",
"-  c #49413F",
";  c #64453F",
":  c #464646",
">  c #494949",
",  c #5B4844",
"<  c #565656",
"1  c #604D4A",
"2  c #67504B",
"3  c #6B504C",
"4  c #725550",
"5  c #7E625E",
"6  c #7F6560",
"7  c #986E66",
"8  c #A27D76",
"9  c #CE7565",
"0  c #CF7867",
"q  c #CF7969",
"w  c #D17C6D",
"e  c #D17F70",
"r  c #D3816F",
"t  c #D38373",
"y  c #D78976",
"u  c #D48679",
"i  c #D58A7C",
"p  c #D88C79",
"a  c #B39590",
"s  c #AFA7A6",
"d  c #D68E81",
"f  c #D79083",
"g  c #D89285",
"h  c #D9968A",
"j  c #DA988D",
"k  c #DC9D91",
"l  c #C5A29B",
"z  c #DDA095",
"x  c #DFA49A",
"c  c #E0A89F",
"v  c #C8A6A0",
"b  c #C1A9A4",
"n  c #CAA9A4",
"m  c #C5B2AE",
"M  c #D1B4AF",
"N  c #CAB4B0",
"B  c #D4BAB5",
"V  c #E2ACA3",
"C  c #E3B0A7",
"Z  c #E4B4AB",
"A  c #E7BAB3",
"S  c #E8BEB6",
"D  c #E9BFB8",
"F  c #EAC4BD",
"G  c #EBC7C0",
"H  c #ECC9C4",
"J  c #EECFCA",
"K  c #EFD1CC",
"L  c #F0D4CF",
"P  c #F1D7D1",
"I  c #F2DAD4",
"U  c #F4DEDB",
"Y  c #F4E1DE",
"T  c #F4E2DE",
"R  c #F4E1DD",
"E  c #F5E3E0",
"W  c #F6E6E2",
"Q  c #F6E6E3",
"!  c #F7E8E5",
"~  c #F7E8E6",
"^  c #F7E9E6",
"/  c #F7E9E7",
"(  c #F8EAE7",
")  c #F8EBE8",
"_  c #F8ECE9",
"`  c #F8ECEA",
"'  c #F9ECEA",
"]  c #F9EEEC",
"[  c #FAF0EE",
"{  c #FAF0EF",
"}  c #FAF1EF",
"|  c #FAF1F0",
" . c #FAF2F0",
".. c #FAF2F1",
"X. c #FBF3F1",
"o. c #FBF3F2",
"O. c #FBF4F3",
"+. c #FBF5F4",
"@. c #FCF6F5",
"#. c #FCF6F6",
"$. c #FCF7F6",
"%. c #FCF7F7",
"&. c #FAF2F1",
"*. c #FCF8F7",
"=. c #FDF8F7",
"-. c #FDF9F8",
";. c #FDFAF9",
":. c #FDFAFA",
">. c #FDFBFA",
",. c #FEFBFB",
"<. c #FEFCFC",
"1. c #FEFDFC",
"2. c #FEFDFD",
"3. c #FEFEFD",
"4. c #FFFEFE",
"5. c white",
"6. c white",
/* pixels */
"      I U I P L K K K K K K K K K K K K K K K J G     ",
"      -.-.-.-.-.-.-.-.-.-.-.-.-.-.-.-.-.-.-.-.-.`     ",
"      #.T H S A C C C C C C C C C C C C C C C K T =   ",
"  P E #.H C x k j j j j j j j j j k k k k k z F U &   ",
"  I -.F x h i t t e e e e e t t t u i i d f g A P &   ",
"  S } V i q 9 q q q q q q q 0 9 9 9 w e t u u C K &   ",
"K I #.t 0 w r t t t t r r r w w w 9 9 q w t t C K &   ",
"-.V e w t y y p i y y t t t r w w 9 9 q w e e V J &   ",
"-.K L P I I I I I I I P P I I I I V w w e e t A I -   ",
"  < < < < < < < < < < < < > : : : s C t t t *.b + X   ",
"  . . . . . . . . . . . . 3 5 5 6 m F i t i #.7 . .   ",
"                          / *.#.#.-.k i t u #.8 .     ",
"                          #.K D C V h i t t -.8 .     ",
"                        E #.J A V k g u i #.N 2 .     ",
"                        -.-.F C x h i t j T $ . .     ",
"                        -.H C x j i t w j U O .       ",
"                        -.F V k d t e w h T @         ",
"                        -.A x h i t w t -.I @         ",
"                    ` -.-.C z g u t w -.n X .         ",
"                    ` -.A V j i t e w -.v . .         ",
"                    ` -.C x g i t e w S n .           ",
"                    ` -.V k d t e w -.#.l .           ",
"                  } #.-.x h i t w i #.a 4 .           ",
"                  -.J C z g u e w f / # . .           ",
"                  -.H V k d t w q d / % .             ",
"                  -.G V j i t w q i #.%               ",
"                  -.F x h i t w d ` F #               ",
"              ` ` K C z g u t w -.n . .               ",
"              / -.S V j i t e w -.M . .               ",
"              E -.C x g i t w w V B .                 ",
"              ` -.c h i e w w -.` v .                 ",
"            } -.-.h t q 9 9 e #.8 ; .                 ",
"            #.C h t 9 0 w w u } * . .                 ",
"            / x q q w r r r i #., .                   ",
"            #.-.-.-.-.-.-.-.-.-.1                     ",
"            9 w t y p p p y t w o                     ",
"              . . . . . . . . . .                     ",
"              . . . . . . . . . .                     "
};
