/* XPM */
static char *_[] = {
/* columns rows colors chars-per-pixel */
"25 38 129 2 ",
"   c None",
".  c #000000",
"X  c gray5",
"o  c #1C110F",
"O  c #161616",
"+  c #1E1311",
"@  c #1D1D1D",
"#  c #33221E",
"$  c #362622",
"%  c #563C38",
"&  c #5F413B",
"*  c #594B49",
"=  c gray36",
"-  c #6C4E49",
";  c #744F49",
":  c #6E514B",
">  c #625755",
",  c #725751",
"<  c #755B56",
"1  c #6D6D6D",
"2  c #7C7C7C",
"3  c #81605A",
"4  c #88645E",
"5  c #B46B5C",
"6  c #927671",
"7  c #B27E75",
"8  c #CE7565",
"9  c #CF7867",
"0  c #CF7768",
"q  c #CF7869",
"w  c #D17C6D",
"e  c #D17F70",
"r  c #A6837D",
"t  c #D3816F",
"y  c #D28274",
"u  c #D48779",
"i  c #D58A7D",
"p  c #938280",
"a  c #A38B86",
"s  c #AB8A85",
"d  c #BC8F86",
"f  c #ADA09E",
"g  c #AEA4A2",
"h  c #B6A8A6",
"j  c #D68E81",
"k  c #D79083",
"l  c #D89285",
"z  c #DA968A",
"x  c #DB998C",
"c  c #DC9D92",
"v  c #DEA196",
"b  c #DEA49A",
"n  c #E0A79D",
"m  c #E0A89E",
"M  c #CAB0AA",
"N  c #C2B4B2",
"B  c #C5B9B7",
"V  c #D8BAB5",
"C  c #E2ACA2",
"Z  c #E3B0A7",
"A  c #E4B4AB",
"S  c #E6B8AF",
"D  c #E6BAB2",
"F  c #E8BEB6",
"G  c #CAC0BE",
"H  c #E9C3BC",
"J  c #D4C7C4",
"K  c #D4C8C6",
"L  c #DFD5D3",
"P  c #EBC7C0",
"I  c #E5CCC7",
"U  c #ECCAC4",
"Y  c #EECFC9",
"T  c #EFD1CC",
"R  c #F0D3CF",
"E  c #E4D5D3",
"W  c #EFDFDD",
"Q  c #F0D6D1",
"!  c #F1D9D5",
"~  c #F3DDD9",
"^  c #EFE0DD",
"/  c #F3E1DD",
"(  c #EEE6E5",
")  c #F5E5E2",
"_  c #F6E8E6",
"`  c #F8EAE7",
"'  c #F4EAE9",
"]  c #F7EAE8",
"[  c #F4ECEB",
"{  c #F4EDEC",
"}  c #F8EAE8",
"|  c #F8EBE8",
" . c #F8EBE9",
".. c #F8ECE8",
"X. c #F8ECE9",
"o. c #F8ECEA",
"O. c #F9EDEB",
"+. c #F9EEEC",
"@. c #F9EFED",
"#. c #F9ECEA",
"$. c #FAF1EF",
"%. c #FAF1EF",
"&. c #F7F2F1",
"*. c #FAF2F1",
"=. c #FBF3F2",
"-. c #FBF4F3",
";. c #FCF5F4",
":. c #FCF6F5",
">. c #FCF7F6",
",. c #FBF5F4",
"<. c #FCF8F7",
"1. c #FDF8F7",
"2. c #FDF8F7",
"3. c #FDF8F8",
"4. c #FDF9F8",
"5. c #FCF9F9",
"6. c #FDF9F9",
"7. c #FDFAF9",
"8. c #FDFAFA",
"9. c #FDFBFA",
"0. c #FEFBFA",
"q. c #FEFBFB",
"w. c #FEFCFB",
"e. c #FEFCFC",
"r. c #FEFDFD",
"t. c #FFFEFE",
"y. c #FFFFFE",
"u. c white",
"i. c #FFFDFD",
/* pixels */
"                ~ ! Q Q Q Q !                     ",
"            ) ) -.9.9.9.9.9.9. .) /               ",
"        ~  .-.-.9.9.D A A D 9.<.-.-.)             ",
"         .9.~ T H C c c c v Z U Q _ -./           ",
"      ) -.T D C c l u y u j x m A H / -.)         ",
"    ) 9.R S n x i w 8 8 8 w i z v A H ~ 9./       ",
"  ) -.9.D n z u q 8 w w 9 8 w i z v A H 9.$.      ",
"  ~ 9.F C x i w 8 i H U v 8 q y i z v A U 9.p     ",
"_  .9.C c k u w i &.1 = B v q e u j z v D 9. .W   ",
"9.U C v l i u l ( h . . * K A y u i j x v A Y 9.  ",
"9.C c z j i i D h @ .     = { C i i i j x v D { . ",
"9.c l i i i l U f .         2 E C i u i k z C { . ",
"9.z i u u j x T g             J D j u u i j v _ . ",
"9.j y y u j c P L N            .H l i u u u c _ . ",
"<.u y y u j c Z 9.{            .H z i y y y c ) . ",
"9.v y y y i z n D 9.9.9.9.<.-.9.C z i y y y x ) . ",
"Q E 9.y w y i x v A H U U P H A v z i y y y z ) . ",
"  r -.y 8 q w y i z c v v v v c z j u y y 9.9.^ . ",
"  d  .9.w w 8 8 8 q w y u i j j i u y y l  .< X . ",
"    & ~ 9.9.9.w w w w 9 8 q e y y y y w l _ : . . ",
"    # 6 a M 9.x x x z l l j 0 w y y e w k _ :     ",
"        . , ~  . . . .` ) ) F y y y w w i  .:     ",
"            . . . . . . . O 9.i u y w w 9.~ -     ",
"              . . . . . > G U z j y w l ) 3 $     ",
"                        / ~ m c l u w v T . .     ",
"                         .9.A v l u w x ! .       ",
"                      $.<.9.A c l u 9.<.H .       ",
"                      -.~ F C c j u 9.V ; .       ",
"                      <.T A v z i y T s . .       ",
"                    -.T D m x j i 9.) s .         ",
"                    9.D m x i y l  .4 % .         ",
"                  -.T v l u y w x -.o . .         ",
"                Q $.) -.u 8 8 i _ C + .           ",
"                  c 7 ) U H i n I . .             ",
"                  . . 7 C S 9.9./ . .             ",
"                        . . t w 5 .               ",
"                        . . . . . .               ",
"                              . . .               "
};
