/* XPM */
static char *wall_top_2_b[] = {
/* columns rows colors chars-per-pixel */
"110 45 132 2 ",
"   c None",
".  c #1B1C1D",
"X  c #1D1F20",
"o  c #1F2122",
"O  c #212324",
"+  c #252729",
"@  c #27292B",
"#  c #2A2C2E",
"$  c #2B2E30",
"%  c #2E3132",
"&  c #323436",
"*  c #333738",
"=  c #35393B",
"-  c #393D3E",
";  c #3D3F41",
":  c #3D4244",
">  c #424446",
",  c #434749",
"<  c #454A4C",
"1  c #494C4E",
"2  c #464F52",
"3  c #4B4F51",
"4  c #465053",
"5  c #4C5254",
"6  c #4D5559",
"7  c #4F5A5D",
"8  c #515456",
"9  c #535658",
"0  c #565A5C",
"q  c #595C5E",
"w  c #535E62",
"e  c #5B5E61",
"r  c #566165",
"t  c #5D6264",
"y  c #5B6468",
"u  c #616466",
"i  c #636669",
"p  c #66696C",
"a  c #696B6E",
"s  c #6B6E71",
"d  c #6D7273",
"f  c #717577",
"g  c #707778",
"h  c #757B7B",
"j  c #787E7E",
"k  c #79807F",
"l  c #797F80",
"z  c #7D8584",
"x  c #7F8887",
"c  c #808786",
"v  c #808887",
"b  c #828A89",
"n  c #8A8D8E",
"m  c #8C8F91",
"M  c #8F9193",
"N  c #909495",
"B  c #949698",
"V  c #979A9B",
"C  c #999C9D",
"Z  c #9C9FA0",
"A  c #9BA2A2",
"S  c #9DA0A1",
"D  c #9EA0A1",
"F  c #9FA0A2",
"G  c #9FA1A2",
"H  c #9EA1A2",
"J  c #9CA2A2",
"K  c #9CA3A2",
"L  c #9FA2A3",
"P  c #9FA6A5",
"I  c #A0A1A3",
"U  c #A0A2A3",
"Y  c #A0A2A4",
"T  c #A1A2A4",
"R  c #A2A4A5",
"E  c #A3A4A6",
"W  c #A3A5A6",
"Q  c #A3A5A7",
"!  c #A0A7A6",
"~  c #A3A6A7",
"^  c #A4A5A7",
"/  c #A2A8A7",
"(  c #A3A7A8",
")  c #A4A6A8",
"_  c #A3A8A8",
"`  c #A3A8A9",
"'  c #A2A9A8",
"]  c #A4A8A8",
"[  c #A4A9A8",
"{  c #A4A9A9",
"}  c #A4AAA9",
"|  c #A4ABA9",
" . c #A5ABA9",
".. c #A5A9AA",
"X. c #A5ACAA",
"o. c #A6ACAB",
"O. c #A6ADAB",
"+. c #A9ACAD",
"@. c #A8AFAE",
"#. c #A9AFAE",
"$. c #A9B0AF",
"%. c #AAB0AF",
"&. c #AAB1AF",
"*. c #ABB1AF",
"=. c #ABB0B0",
"-. c #ABB1B0",
";. c #ABB2B0",
":. c #ACB1B1",
">. c #AEB3B3",
",. c #AEB3B2",
"<. c #AEB4B3",
"1. c #AFB4B4",
"2. c #B1B7B6",
"3. c #B2B7B6",
"4. c #B3B8B8",
"5. c #B4B9B9",
"6. c #B6BBBA",
"7. c #B6BCBA",
"8. c #B7BCBB",
"9. c #B7BDBB",
"0. c #B6BCBB",
"q. c #B8BCBB",
"w. c #B8BDBB",
"e. c #B8BDBC",
"r. c #B9BEBD",
"t. c #BABFBD",
"y. c #BABFBE",
"u. c #BBC0BE",
"i. c #BCC1BF",
"p. c #BEC3C1",
"a. c #BFC3C1",
"s. c #BFC4C2",
/* pixels */
"                                                                                                                                                                                                                            ",
"                                                                                                                                                                                                                            ",
"                                                                                                                                                                                                                            ",
"                                                                                                                                                                                                                            ",
"                                                                                                                                                                                                                            ",
"                                                                                                                                                                                                                            ",
"                                                                                                                                                                                                                            ",
"                        V V V C       #.*.,.,.*.*.#.*.*.,.,.,.,.*.,.,.,.              C C V V V C C V V V V V V V V       ,.,.8.w.8.3.,.,.,.3.      *.,.                B     Z C V C C C V V C                             ",
"                        G Y Y Y Y G Z ,.8.8.8.8.8.8.8.8.8.w.8.8.8.8.8.8.3.,.} G C G Y Y Y Y Y Y Y Y Y Y } } Y Y Y Y C G #.,.3.w.u.w.w.w.8.w.w.p.p.p.u.u.p.w.C b V Z G G G Y Y ) Y Y Y Y Y ) } Y Y G V                       ",
"                        n n M M m n b V / } } / / } } } } } } } } } } G G G V m b m M M M M M M M M M M M N M M M n b N V C G G Y Y Y / } } } } } } } } } Y b l b m M m m m m M M M M M M M N M m n b                       ",
"                        d d f f f d d z b b b b b b b b b b b b b b b b b b z h d f f f f f f f f f d d f f f f f d d z b b b b b b b b b b n b b b b b b b d a h h h h f f f f g g f f f f f f f d d                       ",
"                        a s d d d s s j v b b b b b b b b b b b b b b b b b z h d d d s d d d d d s s s s s s s s s d z b b v v v v b b b b b v z z z x b z d p d d d d d d d d d d d d d d d d d d s                       ",
"                        a a s s s s s h v b b b b b b b b b b b b b b b b b z h d s s s s s s s s s s s s s s s s s d z v b v v v v b b v v v z x v x b b z d p d d d d d d d d d d d d d d d s s s a                       ",
"                        a a s s s a a h v b b b b b b b b b b b b z z z z z h d s s s s s s s s s s s s s s s s s s d z z z z v v v v v v b b v b b z z z z a u s d d d d d d d d d d d d d s s s a p                       ",
"                        a a s s a a p h z v b b b b b b b z z z k h g g g g d a p p a s s s s s s s s s s s s s s s s j z z z z z v v v z z z z z z h h g g u e i p a d d d d d d s s s s a a a p i u                       ",
"                        p p a a a p p h z z z z z z z z z f a p p u t e e t t t q q t p a a a a a a a a a a a a a a a h z z h j z z z z z h d a p p u t e t q q t q t i p a a a a a p i i i u u e 9 6                       ",
"                        s d d d d d d j z z z z z z z h p t e q q 6 < > > 1 8 0 0 0 0 e u i p p p p p i i p p p p p p d f d a a d d d a p i t e q 0 1 , > , 6 0 0 0 0 0 q u p p p p p i i i i i u e 0                       ",
"                        h h z z z z z z z z z z z z h p t 0 < 1 6 = * * @ - 3 6 , 6 0 q q u p p a a p i i p a a a p p a a p i i i i u q 0 q 6 < , 6 = * * @ : 3 > 1 8 0 0 e u a a a a a a a a a a p i                       ",
"                        z z b b b b b b b b b b b z s u t 9 % O   .     .       @ < e t 0 e p s s s s p p a s s s s s a a a a a a a t e e q > @ O   o o   .     O * 1 q t q t s s d d d d d d d d a p                       ",
"                        z z b b b b b b b b b b z f i 8 1   o .   .                 9 9 0 0 t a s s a i p a a a a a a a a a a a a i q q 6 ;   O .   O O   o     .   * - 9 0 e i a s s s s s s s s a u                       ",
"                        z z b b b b b b b b b b j a i 1 =                             , q t t p s s a i i p a a a a a a a a a a p u t q < @     X   O O   O     .     @ 6 e t t p a s s s s s a a i t                       ",
"                        z z b b b b b b b b b z h i u 1 $                           O * q t t p a s a i i i a p p a a a a a a a i t u 0 - o     o   O O   O     o     O < e e 0 u i i i i i u t e q 0                       ",
"                        h h z z z x v z z z z z d t 0 8                     . .   . . + 6 q e u p a p u t i p i i p p p a a a a u q e < $ .     o   o o   o     o     O - 6 0 9 0 q q q 9 9 8 3 1 1 3                       ",
"                        h h z z z z z z z z z h a t 0             .     .   . .   . . + 8 e q q u p p i t p d s a s s d d d d d p t t < @ .     o   o o   o     o     O - 9 q 0 t u u u e q q 9 8 0 q                       ",
"                        z z z z z z z z z z z h d i t 1           .     .     X   . . @ 0 i t t i a a p i d z h h h h j j j j h d i i 6 * .     o   o o   o     o     O > e i i d h h g a p p u u i i                       ",
"                        z v b b b b v z c v b z d p p > o   . .   X o   o   o o   . . @ e a p i a d d s p f b v v b b b b b b x h a a 8 * .     o   o o   o     o     O < u a s z b b z f d d d d s a                       ",
"                        z z b v v v z z z c b z d p i > o O o O O O O O O O O O O o . @ q p i u p a a p u d v v v v v v v v v z h p a 8 * .   O O   O O   O     O     O , t a s z v v z d a a s s s a                       ",
"                        z z z z z z z z z c b z f p u > @ = * * = * = = * = = * = * @ % 0 i i u p a a i t d v v v v v v v v v z h p a 8 = @ : = * < * = < * : : % , * + , t a d z z v z d a a a a a a                       ",
"                        h h k z z z z z z z v z d p t < - 6 2 4 6 6 6 6 6 6 6 2 4 2 : - q i u u p a p i t d x v z z v z z z z z h p p 9 : : 4 2 < 6 2 3 6 < 6 6 < 6 < = < t p d z z z z d a a a a a a                       ",
"                        a d h j k z z z z z z h s t t 6 6 r r r y y y y y y t r r r 6 3 e u t t p p i u t s z z z z z z z z z z h i u 0 6 6 w r r y r t y r t y r r 7 6 6 e i p h z z j a i p a a p p                       ",
"                        d f z z z z z z k z z h p q 0 0 0 t y i i i i i y t i p p i e 0 e q 0 q u u t t t p d d d d d d h z z j d u q 0 0 e t i i i y y y i y y t t t 0 9 q e e a d d s t e t u u u t                       ",
"                        g h v v v v v z z z v z h p p p p s a a a s s a p p p i u u u t t e e u i p i i p p a s d s p a h z z z h d p i p p a a a a p p p a p i u u t t e e t t p a a a i u i p p i u                       ",
"                        h z b b b b b b b b b b v z h h j h h h h h h h h h d i u i i i i u i p a a a a a a a s s a i p h b z x x z h h h h h h h h h h h h d a p p p i i i i p a a a a a a a a a p i                       ",
"                        h j b b b b b b b b b b b b b b b b b b b b b b b b h a p a a a a a a a a a a a a a a a a p u i h b v x x x z x z z z z z z z z z v z f s d s s s s s s a a a a a a a a a a p                       ",
"                        d h z z z z z z z z z z z z z z z v v b v v b b b b h a p a a a a a a a a a a a p a a p a p u i h b v x x x z z z z z z z z z z z z h d a a a a s s s s s s s a a a a a a a p                       ",
"                        u a f h h h h h z z z z z z z z z z z z z z z v v b h p p a a a a a a a a a a a p p a p a i t i h b z z z z z z z z z z z z z z z z h s i p a a a s s s s s s a a a a a a a p                       ",
"                          u a a f f f h h j k k j h z z j j h j k k j j j z d u i i i i a p i i i i i i i i i i i t q t f z z k k k j j j j j j h h j j j h h a u u u u u i i i i i i i i i i i i u t                       ",
"                                                  a     d s a s d d s a a d u 0   8 9 0   q 0 0 0 0 0 0 0 q e q 0 0 6 0 i d d d d d s a a a a a a a a s a a       0 9 9 0 0 0 0 0 0 0 0 0 0 0 0 0 0 0                       ",
"                                                                                                                                                                                                                            ",
"                                                                                                                                                                                                                            ",
"                                                                                                                                                                                                                            ",
"                                                                                                                                                                                                                            ",
"                                                                                                                                                                                                                            ",
"                                                                                                                                                                                                                            ",
"                                                                                                                                                                                                                            "
};
