/* XPM */
static char *_[] = {
/* columns rows colors chars-per-pixel */
"52 29 6 1 ",
"  c None",
". c #4061D6",
"X c #388AF5",
"o c #61D7FF",
"O c #69FFFF",
"+ c white",
/* pixels */
"                                            ++      ",
"         XXXXX...                         ++ ++     ",
"       X.XXXoXXXo.                            +     ",
"     XXXX.XXooXXXoX..oo                       +     ",
"    XooooX.XoooXXXo...oooooo        +               ",
"   XoooOooX.XoooXXoo......XX      ++                ",
"  XoooooOooX.XoooXXo....XXooooo                     ",
"  XoOOOooOoX.XoooXXoo.........                    + ",
" XoOOOOOooOoX.XoooXXoo...XXXXooo                    ",
" XoOOOOOooOoX.XoooXXoo.......X...                   ",
"XooOOOOOooOoo..ooXXXooo.....XXooOO          +       ",
"XoOOOOOOOoOOoX.ooXXXooo......XX..                   ",
"XoOOOOOOOoOOoX.XoXXXooo....XXXXXX                   ",
"XoOOOOOOOoOOoX.XoXXXXoo.........X                   ",
"XoOOOOOOOoOOoX.XXXXXXoo....XXXXooO                  ",
"XoOOOOOOOoOOoX.XXXXXXoo.......XXX                   ",
"XoOOOOOOOoOOoX...XXXXoo...XXXXXXX                   ",
"XooOOOOOooOooX.XXoXXooo..XXXXooOOO                  ",
" XoOOOOOooOoXX.XooXXoo......XXXX                   +",
" XoOOOOOooOoXX.XoXXXoo.XXXooOOooo                 + ",
"  XoOOOooOoXX.XooXXooo.....oooOO                  + ",
"  XoooooOooXX.XooXXo....XXXXX                +++  + ",
"   XoooOooXX.XooXXoo..XXoOOo                +   ++  ",
"    XooooXX.XooXXXo.......       +          +       ",
"     XXXX..XooXXXo...oooOoo                +        ",
"       XX.XooXXX..                                  ",
"         XXXXX..                    +               ",
"                                    +               ",
"                                     +              "
};
