/* XPM */
static char *_[] = {
/* columns rows colors chars-per-pixel */
"53 36 6 1 ",
"  c None",
". c #4061D6",
"X c #388AF5",
"o c #61D7FF",
"O c #69FFFF",
"+ c white",
/* pixels */
"            XXXXXXX                                  ",
"         oooOoooXXXXXX                               ",
"        OOOOOoXXXooooXX                              ",
"       oOOOOooOoOOOo..XX            XXX.             ",
"      oO++OooOoOOOoX.XXXX         XXX.               ",
"     oO++OoOOOOOOooooooXXX       oo.                 ",
"    oO++OOOO++ooooOOOo...XX    oooX     XX..         ",
"   oO+++OOO++OOooOOOoX...XXX.XXXX....XXXX.           ",
"  oO++++OO++OOooOOOoX.....XX........ooo.             ",
"  O++++OO++OOOoO+OoXX......XX.....oooX.              ",
" oO++++O++OOOO++oooX..X....XoX.XXXXX..               ",
" O++++++++OOO+++OoX.XXXXX...oX.........      XX.     ",
" O+++++++OOO+++OOoXXXOooX...oo.....XXX..  XXX..      ",
" O+++++++OO++++OOoXOOooXXX..oo....XX....oooX..       ",
"o++++++++O++++OO+++OoXXX....XoX.XXX....oooX.         ",
"o+++++++++++++O+++ooXXX.....XoX......XXXX..          ",
"O++++++++++++++++oooXXX......oo....XXXX........      ",
"O++++++++++++++++++++++++oo..Oo......................",
"O++++++++++++++++++++OooXXX..Oo...............       ",
"O++++++++++++++++oooXXXXXX...Oo....XXXX........      ",
"o+++++++++++++O+++ooX........oX.XX...XoooX.          ",
"o++++++++O++++OO+++OoXX.....XoX...XX...XooX.         ",
" O+++++++OO++++OOoXOOooX....Xo.....XX...XXoo..       ",
" O+++++++OOO+++OOoXXXOooX...oo.......X..  XXX..      ",
" O++++++++OOO+++OoXXXXXXX..Xoo.........      XX.     ",
" oO++++O++OOOO++oooX..XX...XoX.XXXXX..               ",
"  O++++OO++OOOoO+OoXX......XX.....Xooo.              ",
"  oO++++OO++OOooOOOoXX....XX........Xooo             ",
"   oO+++OOO++OOooOOOoXX...XX.XXXX....XXXX.           ",
"    oO++OOOO++ooooOOOoX..XX    XXXX     XX..         ",
"     oO++OoOOOOOOoooooo.XX       oo.                 ",
"      oO++OooOoOOOoXX...X         ooo.               ",
"       oOOOOooOoOOOoXX.X            XXX.             ",
"        OOOOOoXXXooooXX                              ",
"         oooOoooXXXXXX                               ",
"            XXXXXXX                                  "
};
