/* XPM */
static char *_[] = {
/* columns rows colors chars-per-pixel */
"48 32 6 1 ",
"  c None",
". c #4061D6",
"X c #388AF5",
"o c #61D7FF",
"O c #69FFFF",
"+ c white",
/* pixels */
"        O+++O   .XXXX.                          ",
"       ++++O  .XXXXXXX.                         ",
"     +++++O  .XXXXXoXXX                         ",
"    ++++++O ..XX..XXoXX.                        ",
"   ++++++O  ++X....XooXX   +                    ",
"  O+++++O+O++X.  ...XooX.   +     +++           ",
"  +++++O++++...   ..XooXX    +   +OO++          ",
" O+++++++++O..    ...XooX.    + +O  O++         ",
" +++++++++OO.++OO  ..XooXX    ++O      +        ",
"O+++++++++OO++O     .XoOXX                      ",
"O++++++++++++O      .XoOoX                      ",
"++++++++++++O       .XoOOo                      ",
"++++++++++++OOOOOOOO..XOOoOO++++++++++++O       ",
"+++++++++++++++OOOOO..XOOooooo++OOOOOooo++      ",
"+++++++++++++++++++O..XOOooO++++++++OOOOOOO     ",
"++++++++++++++++OOOO..XOOoooOOO+++++++++++++OO  ",
"++++++++++++OOOOOOOO..XOOoOOOoooooO+OOOOOOoo    ",
"+++++++++++++++OOOOO..XOOoOOOOO+++++OOooo       ",
"++++++++++++++++++OO..XOOooooooo++++++++++++OOOO",
"++++++++++++OOOOOOOO..XOOoOOOOOOOOOO+OOOoooo    ",
"++++++++++++O       .XoOOo                      ",
"O++++++++++++O      .XoOoX                      ",
"O+++++++++OO++O     .XoOXX                      ",
" +++++++++OO.++OO  ..XooXX                      ",
" O+++++++++O..    ...XooX.           +          ",
"  +++++O++++...   ..XooX..          ++          ",
"  O+++++O+O++X.  ...XooX. +        O+           ",
"   ++++++O  ++X....XooXX   +       +            ",
"    ++++++O ..XX..XXoXX.    +     O+            ",
"     +++++O  .XXXXXoXXX      +O  ++             ",
"       ++++O  .XXXXXXX.       ++++              ",
"        O+++O   .XXXX.                          "
};
