/* XPM */
static char *_[] = {
/* columns rows colors chars-per-pixel */
"59 29 6 1 ",
"  c None",
". c #4061D6",
"X c #388AF5",
"o c #61D7FF",
"O c #69FFFF",
"+ c white",
/* pixels */
"                               .......                     ",
"                             .......XX..                   ",
"                            X       ..XX.                  ",
"                           X          .XX.                 ",
"                                       .XX.      +         ",
"                                        .oX.    +++        ",
"                         +++             XoX. +++ +        ",
"                        +   +            XoXX      +       ",
"                       +     +           XooX.      +      ",
"   OOOOOOOOOOOOOooo    +      +          XooXX      +      ",
" O+++++++++++++OOOOOOOOOOOOOooo+         XXooX             ",
"O+++++++++++++++OOOOOOOOOOOOOOOOOOOOOOOOOOXooX.OOoooo      ",
"++++++++++++++++++++++++++++++++++++++++++XoOXX+++++++++OOO",
"++++++++++++++++++++++++++++++++++++++++++XoOoXOOOOOoooo   ",
"++++++++++++++++++++++++++++++++++++++++++XoOoX++++++++++OO",
"++++++++++++++++++++++++++++++++++++++++++XoOoXOOOOOoooo   ",
"++++++++++++++++++++++++++++++++++++++++++XoOXX+++++++++OOO",
"O+++++++++++++++OOOOOOOOOOOOOOOOOOOOOOOOOOXooX.OOoooo      ",
" O+++++++++++++OOOOOOOOOOOOOoooo         XXooX             ",
"   OOOOOOOOOOOOOooo  +                   XooXX             ",
"             +      +                    XooX.             ",
"              ++    +                    XoXX              ",
"                +   +                    XoX.              ",
"                 +++                    .oX.               ",
"                                       .XX.                ",
"                           X          .XX.                 ",
"                            X       ..XX.                  ",
"                             .......XX..                   ",
"                               .......                     "
};
