/* XPM */
static char *_[] = {
/* columns rows colors chars-per-pixel */
"35 27 8 1 ",
"  c None",
". c #382121",
"X c #A04345",
"o c #BC4D4F",
"O c #4B9A27",
"+ c #D8B78F",
"@ c #FFD7A8",
"# c white",
/* pixels */
"  ...........................      ",
"  ...........................      ",
"..ooooooooooooooXXXXXXX..OO....    ",
"..ooooooooooooooXXXXXXX..OO....    ",
"..ooXXXXXXooooXXXXXXXXX....OO..    ",
"..ooXXXXXXooooXXXXXXXXX....OO..    ",
"....oooooo..ooXX##..##X..OO..      ",
"....oooooo..ooXX##..##X..OO..      ",
"..ooooooooooooXX##..##X....OO..    ",
"..ooooooooooooXX##..##X....OO..    ",
"..ooooooooooooXX##..##X........    ",
"..ooooooooooooXX##..##X........    ",
"..ooooooooooooXXXXXXXXX....        ",
"..............XXXXXXXX...XX........",
"..............XXXXXXXX...XX........",
"            ..@@@@@@@@+XXXXXXoooo..",
"            ..@@@@@@@@+XXXXXXoooo..",
"              ..oo+++++++XXXXXX..  ",
"              ..oo+++++++XXXXXX..  ",
"                ..oooooooooXX..    ",
"                ..oooooooooXX..    ",
"                ..ooXX...ooXX..    ",
"                ..ooXX...ooXX..    ",
"                  ..XX.  ..XX..    ",
"                  ..XX.  ..XX..    ",
"                    ...    ....    ",
"                    ...    ....    "
};
