/* XPM */
static char *Idle1[] = {
/* columns rows colors chars-per-pixel */
"80 80 183 2 ",
"   c None",
".  c #2F1E1E",
"X  c #331F1F",
"o  c #33201F",
"O  c #371E21",
"+  c #381E21",
"@  c #362220",
"#  c #3B2222",
"$  c #3B2C23",
"%  c #3B3322",
"&  c #3C3B22",
"*  c #432425",
"=  c #492627",
"-  c #4A2C27",
";  c #4C2728",
":  c #452D29",
">  c #4E2829",
",  c #442A27",
"<  c #52292A",
"1  c #5B2C2D",
"2  c #46332A",
"3  c #473829",
"4  c #543E2F",
"5  c #5D3030",
"6  c #622E2F",
"7  c #642F30",
"8  c #653131",
"9  c #6B3133",
"0  c #643C39",
"q  c #6B3D36",
"w  c #733435",
"e  c #793637",
"r  c #7B3738",
"t  c #7E383A",
"y  c #3D4423",
"u  c #3E4C23",
"i  c #3F5423",
"p  c #3F5823",
"a  c #474428",
"s  c #454A27",
"d  c #56422F",
"f  c #405523",
"g  c #415C24",
"h  c #544339",
"j  c #426423",
"k  c #436C24",
"l  c #447324",
"z  c #467C25",
"x  c #694B45",
"c  c #6C5244",
"v  c #75524D",
"b  c #675656",
"n  c #6A595A",
"m  c #6A5555",
"M  c #755353",
"N  c #7C6160",
"B  c #80373A",
"V  c #833A3B",
"C  c #8A3C3E",
"Z  c #913D3F",
"A  c #8D3E40",
"S  c #943F41",
"D  c #983F41",
"F  c #854C4C",
"G  c #874847",
"H  c #964142",
"J  c #9C4244",
"K  c #934748",
"L  c #9A4648",
"P  c #96494B",
"I  c #855453",
"U  c #995755",
"Y  c #A34446",
"T  c #A94447",
"R  c #A64548",
"E  c #AB4649",
"W  c #A54A4B",
"Q  c #AC494B",
"!  c #B04749",
"~  c #B4494B",
"^  c #BA4C4E",
"/  c #A8514F",
"(  c #B6504F",
")  c #A34F50",
"_  c #BE4E50",
"`  c #AA5452",
"'  c #A55A5C",
"]  c #AC5A5B",
"[  c #A75654",
"{  c #BD5453",
"}  c #B55754",
"|  c #B2635B",
" . c #B46B5F",
".. c #BC645C",
"X. c #9A5F60",
"o. c #B05F61",
"O. c #996866",
"+. c #957474",
"@. c #937C7C",
"#. c #95746A",
"$. c #AC6364",
"%. c #B16264",
"&. c #B56D60",
"*. c #B36A6B",
"=. c #BE7B69",
"-. c #BB7466",
";. c #BD7D7E",
":. c #B57A7A",
">. c #A07D67",
",. c #C04F51",
"<. c #C15B58",
"1. c #C3665E",
"2. c #C3685F",
"3. c #C56C62",
"4. c #C96860",
"5. c #C87366",
"6. c #CB7E6D",
"7. c #C37768",
"8. c #478225",
"9. c #A28269",
"0. c #C6816F",
"q. c #C48C74",
"w. c #CD8C75",
"e. c #CD8471",
"r. c #DC8D79",
"t. c #D48B76",
"y. c #CA947A",
"u. c #D2947A",
"i. c #DA977E",
"p. c #A07F80",
"a. c #8F8384",
"s. c #928484",
"d. c #928888",
"f. c #928887",
"g. c #AA8D8E",
"h. c #B48384",
"j. c #B78787",
"k. c #BB9B9C",
"l. c #BFA6A6",
"z. c #BDA7A9",
"x. c #C48C8D",
"c. c #C38889",
"v. c #CD9E80",
"b. c #D79F81",
"n. c #C79596",
"m. c #D3A584",
"M. c #D4AC89",
"N. c #DBAD8A",
"B. c #DEA586",
"V. c #D7B48E",
"C. c #DEB790",
"Z. c #E5AC8B",
"A. c #E5B18E",
"S. c #EDB391",
"D. c #E1BC93",
"F. c #EBBC95",
"G. c #CAA9AA",
"H. c #D4A8A9",
"J. c #C3B5B6",
"K. c #C5BDBD",
"L. c #CDB6B8",
"P. c #DBBBBC",
"I. c #D7B6B7",
"U. c #E4C197",
"Y. c #EBC59A",
"T. c #EDCA9D",
"R. c #F2C49B",
"E. c #F1CA9E",
"W. c #F5CDA1",
"Q. c #F8CDA2",
"!. c #F5D0A3",
"~. c #FAD3A5",
"^. c #FDD7A8",
"/. c #FFDAAA",
"(. c #C7C1C2",
"). c #C8C2C2",
"_. c #DFC0C1",
"`. c #DAC8C9",
"'. c #DFD3D4",
"]. c #E1C2C3",
"[. c #E2D4D5",
"{. c #E4D7D8",
"}. c #E4D8D8",
/* pixels */
"                                                                                                                                                                ",
"                                                                                                                                                                ",
"                                                                                                                                                                ",
"                                                                                                                                                                ",
"                                                                                                                                                                ",
"                                                                                                                                                                ",
"                                                                                                                                                                ",
"                                                                                                                                                                ",
"                                                                                                                                                                ",
"                                                                                                                                                                ",
"                                                                                                                                                                ",
"                                                                                                                                                                ",
"                                                                                                                                                                ",
"                                                    @                                                                 X X                                       ",
"                                                  # # # = = = = = = = = = = = = = = = = = = = = = = = = = = = = = = = # # = =                                   ",
"                                                # # # = ; ; ; ; ; ; ; ; ; ; ; - - - - - ; ; - - - - - - - - - - - - - < < - - -                                 ",
"                                              + # = = 1 7 9 8 7 7 7 7 7 7 8 8 9 w w w w w w w w w w w w w w w w w w w w w w 9 1 -                               ",
"                                            @ O # = 1 9 r V V V V V V t t V V C Z S S S S S S S S S S S H H H H J S S D S S V 8 - =                             ",
"                                          $ $ @ # = 6 t S J J J J J J H H J J J R E ! ! ! ! ! ! ! ! E E Q Q Q Q E ! ! ! ! E S w - =                             ",
"                                        u y & % $ - 8 V J Y Y Y Y Y Y Y Y Y Y Y E E ~ ~ ^ ^ ^ ^ ^ ^ ^ ~ ~ Q ~ ~ ! ! ~ ^ ^ ! S w - # X                           ",
"                                      u f g p y % - 8 V J R R R R R Y R R R R R E E ! ~ ^ _ _ ^ ^ ^ ~ ! E E E E E E E ^ ^ E S w < # X                           ",
"                                    $ u j l k f % - 6 V J W W W W W J J R W W W R E E E ~ ^ ~ ~ ! E E E R R R R R R E E ! E S w - =                             ",
"                                  # $ u k 8.l g 3 - 7 V L ] %.*.$.U K K U $.*.%.` Q E E ~ ~ E J J J Y R E E E E E E R Y J S r 6 ; =                             ",
"                                + # $ u k 8.z g & - 7 V ) *.c.n.j.O.F I O.j.n.c.*.` E E ~ Q J C t V J Y E ~ ~ ~ ~ Q R H V w 7 < = =                             ",
"                                  # $ u k z l p & - 7 V [ ;.H.P.l.@.M M +.l.I.H.;.] E E E R C w 9 r S Y ~ ~ ^ ^ ^ ~ E S w 1 - = # #                             ",
"                                  # $ y g k j u & - 7 V ' x.P.'.J.s.m n s.K.`.P.x.%.Q E E R C w 9 r H E ^ ^ ^ ^ ^ ^ E H t 6 < = # #                             ",
"                                + + # & u f u & $ - 7 V ' x.].{.K.f.b n a.).{.].x.%.Q E ! E S V V C J ~ ^ ,._ _ _ ^ ! Y A e 7 < = #                             ",
"                                  # # $ % & % % $ - 7 V ' x.].}.K.d.b n a.).{.].x.%.E E ! E Y Y J Y E ~ ^ ^ ^ ^ ^ ^ ~ E Y H t 6 = #                             ",
"                                    # # # # $ $ % 2 8 t U x._.}.K.d.b n a.(.{.].x.%.R E ! ~ ~ ~ ~ ~ ~ ^ ^ ^ ^ ^ ^ ^ ^ ^ ~ E Z 9 - =                             ",
"                                    # + + # $ & a a 4 q I h.P.{.K.s.b n a.(.{.].x.%.R T Q ^ ^ _ _ ^ ^ ^ ^ ^ ^ ^ ^ ^ ^ _ ^ ! S w - =                             ",
"                                      + + # % u g g s d v h.L.'.K.d.b n a.(.{._.x.%.R E Q ^ _ ,.^ ^ ^ ^ ^ ^ ^ ^ ^ ^ ^ ,.^ ! S w - =                             ",
"                                      O + # & g l l g a x +.z.`.J.s.m n @.J.`.I.c.o.R E ~ ^ ^ ^ ^ ^ ^ ^ ^ ^ ^ ^ ^ ^ ^ ,.^ ! S w - =                             ",
"                                          $ y j z z j a h N g.G.k.+.v M +.k.G.n.:.] R E ~ ^ ^ ^ ^ ^ ^ ^ ^ ^ _ _ _ _ _ ,.^ ! J w < =                             ",
"                                          $ y j 8.z j y 3 x O.j.:.O.F F X.:.j.;.%.` E E ~ ^ ^ ^ ^ ^ ^ ^ ^ _ _ ^ _ _ _ ,.^ ~ J w < =                             ",
"                                          $ y j z z j y 2 0 F ' ] [ H K U ' $.] ) W E E ~ ^ ^ ^ ^ ^ ^ ~ ~ ~ ~ ~ ~ ~ ^ ^ ^ E S w - =                             ",
"                                          # & g k k p & , 5 t J W W Y R R W W W J Y E E ~ ~ ^ ^ ~ ~ E Y Y Y Y Y Y Y Y Y Y J V 9 - =                             ",
"                                          # % y p p y % = 1 e Z Y R R R Y J J J J Y R E E E ~ ~ ~ Y J C V t t t V V V V V r 9 1 = #                             ",
"                                          # # $ & % $ # = 1 e S Y R R R Y J J J Y R R R E E E ! E J t 9 1 1 < 1 1 1 1 6 1 < < = # # #                           ",
"                                          # # # $ # = = < 7 V S Y R R E R Y Y Y E E E R R R E E J C 9 < = # # = = = = = = = = # # #                             ",
"                                          # + O # = = < 7 w C J Y R E E E E E E E E E E E R Y J C w 1 = @ X o @ # # # # # @ # # #                               ",
"                                      # # # # O # = < 9 r C H J Y E E ! ! ! ! ! E ! ! E E Y S r 9 1 -                                                           ",
"                                        # # # @ # = 1 e C J Y Y Y E ! ~ ~ ~ ~ ~ ~ ~ ~ ~ ~ Y C 9 < = ;                                                           ",
"                                          # # @ # = 8 V J Y R R T E ! ~ ^ ^ ^ ^ ^ ^ ^ ^ ~ Y V 1 = #                                                             ",
"                                            @ @ # ; 8 V J Y R Y T T ! ~ ^ ^ ^ ^ ^ ^ ^ ^ ~ Y r 1 = #                                                             ",
"                                              o # = 8 V J R W W Q ~ ( { { { { { { { { { { Q V 1 = #                                                             ",
"                                                # = 6 V J W ` ] ] ..1.4.4.4.4.4.4.4.4.4.1.] G 1 = #                                                             ",
"                                                # = 6 V L ` | -.7.e.t.r.r.r.r.r.r.r.r.r.t.-.U 0 = O                                                             ",
"                                                # = 7 V W | =.w.b.B.Z.S.S.S.S.S.S.S.S.S.Z.y.O.x , o                                                             ",
"                                              = - 1 9 C W  .q.m.C.Y.E.W.Q.Q.Q.Q.Q.Q.Q.~.R.M.>.c 2 @                                                             ",
"                                            = < 7 w r Z W  .q.M.U.E.~.^././././././././.!.V.9.c 2 @                                                             ",
"                                    # @ @ # < 9 r C Z D W  .q.M.U.W.~./././././././././.!.V.9.c 2 @                                                             ",
"                                # # # # # = 6 r S Y Y Y [ &.q.M.U.W.~./././././././././.!.V.9.c 2 @                                                             ",
"                                # # # = - 6 w C Y E E W ` &.q.M.U.W.~./././././././././.!.V.9.c 2 @                                                             ",
"                                @ @ # - 7 r C J R E E R ` &.q.M.U.W.~./././././././././.!.V.9.c 2 @                                                             ",
"                                  # = 1 e S J R E E R W `  .q.m.C.Y.W.~.~.^.^.^.~.^.^.^.E.M.9.c , @                                                             ",
"                                    ; 7 r S J Y Y R R R ` | =.y.m.N.F.R.E.W.~.~.~.~.W.W.F.v.>.x , X                                                             ",
"                                      6 9 e C S J Y R R W ]  .=.q.t.i.B.A.F.Y.T.T.Y.F.S.b.0.U 0 , #                                                             ",
"                                        1 6 w V S J Y Y R W ` | | 4.5.t.u.N.D.D.U.D.N.i.e.| G 8 = #                                                             ",
"                                          = 1 w V S J Y R R W Q Q ~ { 1.6.u.m.N.N.m.u.6...W V 1 = #                                                             ",
"                                          # - 6 w t C J Y R R E E ~ _ <.4.6.w.u.u.w.6.4.} W V 1 = #                                                             ",
"                                          # = - 1 9 r A J E E E ! ~ ^ { <.2.5.5.5.4.1.<.( R r 1 = #                                                             ",
"                                            # # = < 9 V J Q ~ ! ! ! ~ ~ ~ ( ( { { { { { ( R V 1 = #                                                             ",
"                                              # # ; 8 V J E ~ ~ E Y J S S H J Y Q ~ ~ _ ^ R V 1 = @ .                                                           ",
"                                                # = 6 V J E ~ ~ E H V w w w r C J Y ! ^ ~ Y t 1 = X .                                                           ",
"                                                # = 6 t J E ~ Q J V 7 < - - 1 9 V H E ~ E J t 1 = @                                                             ",
"                                              @ # = 1 w V S J J C 9 < = # # = < 9 V S J J C w 1 =                                                               ",
"                                              @ # = < 6 9 w r r w 6 = # X o # = 1 9 w r r w 7 1                                                                 ",
"                                                # # = ; < < 1 1 1 <     X @ # = = < < 1 1 < <                                                                   ",
"                                                # # # # = = = = =         @ # # # # # = = =                                                                     ",
"                                                # # @ @ @ @ @ @             # # # @ @ @ @                                                                       ",
"                                                                                                                                                                ",
"                                                                                                                                                                ",
"                                                                                                                                                                ",
"                                                                                                                                                                ",
"                                                                                                                                                                ",
"                                                                                                                                                                ",
"                                                                                                                                                                ",
"                                                                                                                                                                ",
"                                                                                                                                                                ",
"                                                                                                                                                                "
};
