/* XPM */
static char *_[] = {
/* columns rows colors chars-per-pixel */
"35 40 8 1 ",
"  c None",
". c #4A3B1F",
"X c #E5AB3D",
"o c #FDC760",
"O c #2379EA",
"+ c #D8B78F",
"@ c #FFD7A8",
"# c white",
/* pixels */
"                                   ",
"  ............................     ",
"  ............................     ",
"..oooooooooooooooooXXXXXXXXX.....  ",
"..oooooooooooooooooXXXXXXXXX.....  ",
"..oooXXXXXXXooooXXXXXXXXXXXX..OOO..",
"..oooXXXXXXXooooXXXXXXXXXXXX..OOO..",
"..oooXXXXXXXooooXXXXXXXXXXXX..OOO..",
".....ooooooo..ooXXX#######XX..OOO..",
".....ooooooo..ooXXX#######XX..OOO..",
"..ooooooooooooooXXX##..###XX.......",
"..ooooooooooooooXXX##..###XX.......",
"..ooooooooooooooXXX#######..OO...  ",
"..ooooooooooooooXXX#######..OO...  ",
"..ooooooooooooooXXX#######..OO...  ",
"..ooooooooooooooXXXXXXXXXX..OO...  ",
"..ooooooooooooooXXXXXXXXXX..OO...  ",
"............ooXXXXXXXXXXXX.......  ",
"............ooXXXXXXXXXXXX.......  ",
"       ..ooooooooooXXXX.....       ",
"       ..ooooooooooXXXX.....       ",
"       ..ooooooooooXXXX.....       ",
"       ..@@@@@@@@@@++XX...  ..     ",
"       ..@@@@@@@@@@++XX...  ..     ",
"       ..@@@@@@@@@@++XX.......     ",
"       ..@@@@@@@@@@++XX.......     ",
"       ..@@@@@@@@@@++XXooooo..     ",
"       ..@@@@@@@@@@++XXooooo..     ",
"       ..@@@@@@@@@@++XXooooo..     ",
"       ..ooo++++oooXXXXXXX....     ",
"       ..ooo++++oooXXXXXXX....     ",
"       ..ooooooooooooXX.....       ",
"       ..ooooooooooooXX.....       ",
"       ..oooXX.....ooXX...         ",
"       ..oooXX.....ooXX...         ",
"       ..oooXX.....ooXX...         ",
"         ...XX..   ..XX...         ",
"         ...XX..   ..XX...         ",
"            ....     .....         ",
"            ....     .....         "
};
