/* XPM */
static char *_[] = {
/* columns rows colors chars-per-pixel */
"35 40 8 1 ",
"  c None",
". c #3C4A1F",
"X c #AFE53D",
"o c #CAFD60",
"O c #5223EA",
"+ c #C8D88F",
"@ c #EDFFA8",
"# c white",
/* pixels */
"                                   ",
"                                   ",
"                                   ",
"                                   ",
"                                   ",
"     ......................        ",
"     ......................        ",
"    .ooooooooooooooXXXXXXX....     ",
"    .oooXXXXXoooXXXXXXXXXX.OOO.    ",
"    .oooXXXXXoooXXXXXXXXXX.OOO.    ",
"    .oooXXXXXoooXXXXXXXXXX.OOO.    ",
"    ....ooooo..oXXX#####XX.OOO.    ",
"    .oooooooooooXXX#..##XX.....    ",
"    .oooooooooooXXX#..##XX.....    ",
"    .oooooooooooXXX#####..O...     ",
"    .oooooooooooXXX#####..O...     ",
"    .oooooooooooXXXXXXXX..O...     ",
"    .oooooooooooXXXXXXXX..O...     ",
"    .........ooXXXXXXXXX......     ",
"         ..ooooooooXXX....         ",
"         ..ooooooooXXX....         ",
"         ..ooooooooXXX....         ",
"         ..@@@@@@@@+XX..  .        ",
"         ..@@@@@@@@+XX.....        ",
"         ..@@@@@@@@+XX.....        ",
"         ..@@@@@@@@+XXoooo.        ",
"         ..@@@@@@@@+XXoooo.        ",
"         ..oo+++oooXXXXX...        ",
"         ..oo+++oooXXXXX...        ",
"         ..oooooooooXX....         ",
"         ..ooXX....oXX..           ",
"         ..ooXX....oXX..           ",
"         ..ooXX....oXX..           ",
"           ..XX.   .XX..           ",
"             ...    ....           ",
"             ...    ....           ",
"                                   ",
"                                   ",
"                                   ",
"                                   "
};
