/* XPM */
static char *_[] = {
/* columns rows colors chars-per-pixel */
"35 40 8 1 ",
"  c None",
". c #204A1F",
"X c #3FE53D",
"o c #62FD60",
"O c #D623EA",
"+ c #98D88F",
"@ c #B3FFA8",
"# c white",
/* pixels */
"                                   ",
"                                   ",
"                                   ",
"                                   ",
"                                   ",
"                                   ",
"                                   ",
"                                   ",
"                                   ",
"        .................          ",
"       .ooooooooooXXXXXX...        ",
"       .ooXXXXoooXXXXXXX.OO.       ",
"       .ooXXXXoooXXXXXXX.OO.       ",
"       ...oooo.ooX#####X.OO.       ",
"       .oooooooooX##.##X....       ",
"       .oooooooooX#####.O..        ",
"       .oooooooooX#####.O..        ",
"       .oooooooooXXXXXX.O..        ",
"       .......oXXXXXXXX....        ",
"       .......oXXXXXXXX....        ",
"           .ooooooXXX...           ",
"           .@@@@@@++X.. .          ",
"           .@@@@@@++X.. .          ",
"           .@@@@@@++X....          ",
"           .@@@@@@++Xooo.          ",
"           .@@@@@@++Xooo.          ",
"           .oo+++oXXXXX..          ",
"           .ooooooooX...           ",
"           .ooX...ooX..            ",
"           .ooX...ooX..            ",
"            ..X.. ..X..            ",
"              ...   ...            ",
"                                   ",
"                                   ",
"                                   ",
"                                   ",
"                                   ",
"                                   ",
"                                   ",
"                                   "
};
