/* XPM */
static char *_[] = {
/* columns rows colors chars-per-pixel */
"35 40 8 1 ",
"  c None",
". c #1F4A2D",
"X c #3DE573",
"o c #EA23BB",
"O c #60FD92",
"+ c #8FD89F",
"@ c #A8FFBA",
"# c white",
/* pixels */
"                                   ",
"                                   ",
"                                   ",
"                                   ",
"                                   ",
"                                   ",
"                                   ",
"                                   ",
"                                   ",
"                                   ",
"                                   ",
"          ..............           ",
"         .OOOOOOOOXXXXX..          ",
"         .OXXXXOOXXXXXX.o.         ",
"         ..OOOO.OX####X.o.         ",
"         .OOOOOOOX#.##X...         ",
"         .OOOOOOOX####.o.          ",
"         .OOOOOOOX####.o.          ",
"         .OOOOOOOXXXXX.o.          ",
"         ......OXXXXXX...          ",
"            .OOOOOXX...            ",
"            .@@@@@+X.. .           ",
"            .@@@@@+X....           ",
"            .@@@@@+XOOO.           ",
"            .@@@@@+XOOO.           ",
"            .OO++OXXXX..           ",
"            .OOOOOOX...            ",
"            .OOX..OX..             ",
"             ..X. .X..             ",
"               ..  ...             ",
"                                   ",
"                                   ",
"                                   ",
"                                   ",
"                                   ",
"                                   ",
"                                   ",
"                                   ",
"                                   ",
"                                   "
};
