/* XPM */
static char *_[] = {
/* columns rows colors chars-per-pixel */
"35 40 8 1 ",
"  c None",
". c #1F4A3B",
"X c #EA2379",
"o c #3DE5AB",
"O c #60FDC6",
"+ c #8FD8B7",
"@ c #A8FFD7",
"# c white",
/* pixels */
"                                   ",
"                                   ",
"                                   ",
"                                   ",
"                                   ",
"                                   ",
"                                   ",
"                                   ",
"                                   ",
"                                   ",
"                                   ",
"                                   ",
"                                   ",
"            ..........             ",
"           .OOOOOOoooo.            ",
"           .OooOOoooooX.           ",
"           .OOOOOo#.#o..           ",
"           .OOOOOo###..            ",
"           .OOOOOoooo..            ",
"           ....Oooooo..            ",
"             .OOOOoo..             ",
"             .@@@@+o.              ",
"             .@@@@+o..             ",
"             .@@@@+oOO             ",
"             .O++Oooo.             ",
"             .Oo..Oo.              ",
"              .o. .o.              ",
"               ..  ..              ",
"                                   ",
"                                   ",
"                                   ",
"                                   ",
"                                   ",
"                                   ",
"                                   ",
"                                   ",
"                                   ",
"                                   ",
"                                   ",
"                                   "
};
