/* XPM */
static char *_[] = {
/* columns rows colors chars-per-pixel */
"35 40 7 1 ",
"  c None",
". c #1F4A49",
"X c #EA2336",
"o c #3DE5E2",
"O c #60FDFB",
"+ c #A8FFF4",
"@ c white",
/* pixels */
"                                   ",
"                                   ",
"                                   ",
"                                   ",
"                                   ",
"                                   ",
"                                   ",
"                                   ",
"                                   ",
"                                   ",
"                                   ",
"                                   ",
"                                   ",
"                                   ",
"                                   ",
"             ........              ",
"             OooOooo.X             ",
"             .OO.o@@.X             ",
"             OOOOo@@X.             ",
"             OOOOoooX.             ",
"               OOOo.               ",
"               +++o..              ",
"               +++oO.              ",
"               OOOo.               ",
"               Oo.o.               ",
"                . ..               ",
"                                   ",
"                                   ",
"                                   ",
"                                   ",
"                                   ",
"                                   ",
"                                   ",
"                                   ",
"                                   ",
"                                   ",
"                                   ",
"                                   ",
"                                   ",
"                                   "
};
