/* XPM */
static char *win0[] = {
/* columns rows colors chars-per-pixel */
"37 40 8 1 ",
"  c None",
". c #382121",
"X c #A04345",
"o c #BC4D4F",
"O c #4B9A27",
"+ c #D8B78F",
"@ c #FFD7A8",
"# c white",
/* pixels */
"                                     ",
"                                     ",
"        .........................    ",
"        .........................    ",
"     .....XXXXXXXXooooooooooooooo..  ",
"     .....XXXXXXXXooooooooooooooo..  ",
"     .....XXXXXXXXooooooooooooooo..  ",
"   ..OOO..XXXXXXXXXXooooXXXXXXooo..  ",
"   ..OOO..XXXXXXXXXXooooXXXXXXooo..  ",
"   ..OOO..XX##..##XXoo..oooooo.....  ",
"   ..OOO..XX##..##XXoo..oooooo.....  ",
"   .......XX##..##XXooooooooooooo..  ",
"   .......XX##..##XXooooooooooooo..  ",
"     ...OO..##..##XXooooooooooooo..  ",
"     ...OO..##..##XXooooooooooooo..  ",
"     ...OO..XXXXXXXXooooooooooooo..  ",
"     ...OO..XXXXXXXXooooooooooooo..  ",
"     .......XXXXXXXXXXoo...........  ",
"     .......XXXXXXXXXXoo...........  ",
"     .....XXXXoooooooo..             ",
"     .....XXXXoooooooo..             ",
"        ..XX++@@@@@@@@..             ",
"        ..XX++@@@@@@@@..             ",
"   .......XX++@@@@@@@@..             ",
"   .......XX++@@@@@@@@..             ",
"   ..oooooXX++@@@@@@@@..             ",
"   ..oooooXX++@@@@@@@@..             ",
"   .....XXXXXXoo++++oo..             ",
"   .....XXXXXXoo++++oo..             ",
"     .....XXoooooooooo..             ",
"     .....XXoooooooooo..             ",
"     .....XXoooooooooo..             ",
"        ..XXoo....XXoo..             ",
"        ..XXoo....XXoo..             ",
"        ..XX..  ..XX..               ",
"        ..XX..  ..XX..               ",
"        ....    ....                 ",
"        ....    ....                 ",
"                                     ",
"                                     "
};
