/* XPM */
static char *win3[] = {
/* columns rows colors chars-per-pixel */
"37 40 8 1 ",
"  c None",
". c #244216",
"X c #509030",
"o c #5EAA39",
"O c #6FC147",
"+ c #A6D98E",
"@ c #CCE9BE",
"# c white",
/* pixels */
"                                     ",
"                                     ",
"                                     ",
"                                     ",
"         ......................      ",
"         ......................      ",
"       ....oooooooOOOOOOOOOOOOO..    ",
"       ....oooooooOOOOOOOOOOOOO..    ",
"       ....oooooooOOOOOOOOOOOOO..    ",
"     ..XX..oooooooooOOOooooooOO..    ",
"     ..XX..oo##.##ooOO.OOOOOO....    ",
"     ..XX..oo##.##ooOO.OOOOOO....    ",
"     ......oo##.##ooOOOOOOOOOOO..    ",
"     ......oo##.##ooOOOOOOOOOOO..    ",
"       ..XX..##.##ooOOOOOOOOOOO..    ",
"       ..XX..##.##ooOOOOOOOOOOO..    ",
"       ..XX..oooooooOOOOOOOOOOO..    ",
"       ......oooooooooO..........    ",
"       ......oooooooooO..........    ",
"       ....ooooOOOOOOO.              ",
"       ....ooooOOOOOOO.              ",
"         ..oo++@@@@@@@.              ",
"         ..oo++@@@@@@@.              ",
"     ......oo++@@@@@@@.              ",
"     ..OOOOoo++@@@@@@@.              ",
"     ..OOOOoo++@@@@@@@.              ",
"     ....ooooooO++++OO.              ",
"     ....ooooooO++++OO.              ",
"       ....ooOOOOOOOOO.              ",
"       ....ooOOOOOOOOO.              ",
"       ....ooOOOOOOOOO.              ",
"         ..ooOO...ooOO.              ",
"         ..oo.. ..oo..               ",
"         ..oo.. ..oo..               ",
"         ....   ....                 ",
"         ....   ....                 ",
"                                     ",
"                                     ",
"                                     ",
"                                     "
};
