/* XPM */
static char *win4[] = {
/* columns rows colors chars-per-pixel */
"37 40 8 1 ",
"  c None",
". c #382121",
"X c #A04345",
"o c #BC4D4F",
"O c #4B9A27",
"+ c #D8B78F",
"@ c #FFD7A8",
"# c white",
/* pixels */
"                                     ",
"                                     ",
"                                     ",
"                                     ",
"                                     ",
"                                     ",
"                                     ",
"                                     ",
"                                     ",
"            ................         ",
"          ...XXXXXoooooooooo.        ",
"          ...XXXXXoooooooooo.        ",
"         .OO.XXXXXXXooXXXXoo.        ",
"         .OO.XX#.#XXo.oooo...        ",
"         ....XX#.#XXoooooooo.        ",
"         ....XX#.#XXoooooooo.        ",
"          ..O..#.#XXoooooooo.        ",
"          ..O..XXXXXoooooooo.        ",
"          .....XXXXXXo.......        ",
"          ...XXXooooo.               ",
"          ...XXXooooo.               ",
"            .XX+@@@@@.               ",
"         ....XX+@@@@@.               ",
"         .oooXX+@@@@@.               ",
"         ...XXXXo+++o.               ",
"         ...XXXXo+++o.               ",
"          ...XXoooooo.               ",
"            .XXo..XXo.               ",
"            .XXo..XXo.               ",
"            .XX. .XX.                ",
"            ...  ...                 ",
"                                     ",
"                                     ",
"                                     ",
"                                     ",
"                                     ",
"                                     ",
"                                     ",
"                                     ",
"                                     "
};
