/* XPM */
static char *win5[] = {
/* columns rows colors chars-per-pixel */
"37 40 7 1 ",
"  c None",
". c #234216",
"X c #4E9030",
"o c #5BAA39",
"O c #6DC147",
"+ c #A5D98E",
"@ c #CBE9BE",
/* pixels */
"                                     ",
"                                     ",
"                                     ",
"                                     ",
"                                     ",
"                                     ",
"                                     ",
"                                     ",
"                                     ",
"                                     ",
"                                     ",
"                                     ",
"                                     ",
"               .........             ",
"              .oooOOOOOO.            ",
"             .XoooooOooO.            ",
"             ..oo.ooOOOO.            ",
"             ..oo.ooOOOO.            ",
"              ...oooOOOO.            ",
"              .ooOOO.                ",
"              .ooOOO.                ",
"             ..oo@@@.                ",
"             ..ooO++.                ",
"             ..ooO++.                ",
"               oo.oo.                ",
"               oo oo                 ",
"               .. ..                 ",
"                                     ",
"                                     ",
"                                     ",
"                                     ",
"                                     ",
"                                     ",
"                                     ",
"                                     ",
"                                     ",
"                                     ",
"                                     ",
"                                     ",
"                                     "
};
