/* XPM */
static char *death0[] = {
/* columns rows colors chars-per-pixel */
"37 40 8 1 ",
"  c None",
". c #382121",
"X c #A04345",
"o c #BC4D4F",
"O c #4B9A27",
"+ c #D8B78F",
"@ c #FFD7A8",
"# c white",
/* pixels */
"                                     ",
"    ...................              ",
"    ...................              ",
"  ..oooooooooooooooXXXX......        ",
"  ..oooooooooooooooXXXX......        ",
"  ..oooXXXXXXooooXX......XX.....     ",
"  ..oooXXXXXXooooXX......XX.....     ",
"  ..oooXXXXXXooooXX......XX.....     ",
"  .....oooooo..oo..######....OOO..   ",
"  .....oooooo..oo..######....OOO..   ",
"  ..ooooooooooooo..######....OOO..   ",
"  ..ooooooooooooo..######....OOO..   ",
"  ..ooooooooooooo..######.........   ",
"  ..ooooooooooooo..######.........   ",
"  ..ooooooooooooooo..##....OO...     ",
"  ..ooooooooooooooo..##....OO...     ",
"  .......ooooooooXX..##....OO...     ",
"  .......ooooooooXX..##....OO...     ",
"         ....ooXXXXXX..XX.......     ",
"         ....ooXXXXXX..XX.......     ",
"             ..ooooooooXXXX.....     ",
"             ..ooooooooXXXX.....     ",
"             ..@@@@@@@@++XX..        ",
"             ..@@@@@@@@++XX..        ",
"             ..@@@@@@@@++XX..        ",
"             ..@@@@@@@@++XX..        ",
"           ....@@@@@@@@++XXoo.....   ",
"           ....@@@@@@@@++XXoo.....   ",
"           ..oooo++++ooXXXXXXooo..   ",
"           ..oooo++++ooXXXXXXooo..   ",
"           ..XXXXooooooooXX.......   ",
"           ..XXXXooooooooXX.......   ",
"           ..XXXXooooooooXX.......   ",
"             ..........ooXX..        ",
"             ..........ooXX..        ",
"                       ..XX..        ",
"                       ..XX..        ",
"                         ....        ",
"                         ....        ",
"                                     "
};
