/* XPM */
static char *exit3[] = {
/* columns rows colors chars-per-pixel */
"60 60 178 2 ",
"   c None",
".  c #000000",
"X  c #020A06",
"o  c #030E09",
"O  c #0C0B0B",
"+  c #04140D",
"@  c #051B12",
"#  c #161414",
"$  c #191614",
"%  c #1F1C1B",
"&  c #1B1817",
"*  c #100E0C",
"=  c #231E1B",
"-  c #062116",
";  c #062619",
":  c #07291B",
">  c #082D1E",
",  c #26211E",
"<  c #28221F",
"1  c #0B3C27",
"2  c #0B3F29",
"3  c #242120",
"4  c #2A2624",
"5  c #2D2A2A",
"6  c #322D2C",
"7  c #312A25",
"8  c #37302C",
"9  c #343131",
"0  c #393635",
"q  c #3D3A3A",
"w  c #3B3837",
"e  c #473D38",
"r  c #0C442C",
"t  c #0E4B2E",
"y  c #0D4B31",
"u  c #104E30",
"i  c #0F5235",
"p  c #0F5538",
"a  c #115534",
"s  c #105738",
"d  c #115C3B",
"f  c #13603C",
"g  c #4D423C",
"h  c #45403F",
"j  c #52453E",
"k  c #126945",
"l  c #126441",
"z  c #14734B",
"x  c #1C7D49",
"c  c #187A4A",
"v  c #167C51",
"b  c #464242",
"n  c #4B4645",
"m  c #4F4B4B",
"M  c #534740",
"N  c #564943",
"B  c #594C45",
"V  c #534D4D",
"C  c #5A4F49",
"Z  c #5D524C",
"A  c #555050",
"S  c #5D5553",
"D  c #5F5857",
"F  c #61544E",
"G  c #625651",
"H  c #655955",
"J  c #685D57",
"K  c #655D5B",
"L  c #695E5A",
"P  c #6C615E",
"I  c #70635E",
"U  c #676060",
"Y  c #6C6463",
"T  c #6F6868",
"R  c #6E6768",
"E  c #716662",
"W  c #746965",
"Q  c #756D6B",
"!  c #796E6B",
"~  c #786C67",
"^  c #7B716E",
"/  c #766F70",
"(  c #777070",
")  c #7C7473",
"_  c #7F7877",
"`  c #7F7878",
"'  c #7E7778",
"]  c #81746F",
"[  c #817672",
"{  c #847976",
"}  c #847C7C",
"|  c #897E7B",
" . c #1D844B",
".. c #1E864C",
"X. c #198554",
"o. c #1B8A55",
"O. c #1A8D59",
"+. c #178053",
"@. c #1C925C",
"#. c #1F9A5A",
"$. c #1E9054",
"%. c #208A4E",
"&. c #2B9E4E",
"*. c #249E4F",
"=. c #219C54",
"-. c #209659",
";. c #219C5A",
":. c #299E51",
">. c #2DA44D",
",. c #2EA84B",
"<. c #31A74C",
"1. c #34A949",
"2. c #3CAC4D",
"3. c #26A254",
"4. c #2BA353",
"5. c #23A15B",
"6. c #32A555",
"7. c #33A559",
"8. c #35A959",
"9. c #1C9961",
"0. c #40AF4D",
"q. c #42B04E",
"w. c #41AF50",
"e. c #45B153",
"r. c #4BB456",
"t. c #4EB55A",
"y. c #51B75C",
"u. c #55BA5C",
"i. c #59BC5D",
"p. c #53B760",
"a. c #56BA61",
"s. c #5DBD62",
"d. c #60BF62",
"f. c #61C062",
"g. c #6DC66A",
"h. c #68C467",
"j. c #70C76C",
"k. c #74CA6E",
"l. c #76CB70",
"z. c #7CCE74",
"x. c #87807F",
"c. c #8B817E",
"v. c #80CF77",
"b. c #80D077",
"n. c #82D179",
"m. c #8DD67F",
"M. c #867F80",
"N. c #878080",
"B. c #8B8484",
"V. c #8E8788",
"C. c #8F8888",
"Z. c #918683",
"A. c #948987",
"S. c #938B8A",
"D. c #988E8C",
"F. c #9B918F",
"G. c #978F90",
"H. c #979090",
"J. c #9D9595",
"K. c #9B9393",
"L. c #A19796",
"P. c #A29897",
"I. c #A2999A",
"U. c #A69D9D",
"Y. c #A59C9B",
"T. c #A99F9E",
"R. c #AAA09F",
"E. c #AEA5A5",
"W. c #ACA3A3",
"Q. c #B0A7A7",
"!. c #B6ACAC",
"~. c #B9AFAF",
"^. c #B1A7A7",
"/. c #BBB1B1",
"(. c #BCB3B3",
"). c #C1B7B7",
"_. c #8FD780",
"`. c #91D882",
/* pixels */
"                                                        (.(.(.(.(.(.                                                    ",
"                                                        I.W.W.W.W.Q.                                                    ",
"                                      B.B.B.I.Q.{ B j H } S.S.S.S.I.!.Z.F M B                                           ",
"                                    V.B.B.B.I.^.[ N j F ) B.B.B.B.H.!.A.F Z L W                                         ",
"                          (.P.P H } B.B.B.B.I.Q.{ B M F ) B.B.B.B.H.!.Z.F P } B.S.W.T.W N                               ",
"                        S.I.H.| ^ ! ^ ) } B.H.I.A.^ G F ) B.B.B.B.B.B.W Z E B.B.S.W.W.W N j                             ",
"                  N Z Q B.B.S.W.D.L S U ) B.B.S.I.T.~ F ^ B.B.B.B.^ H B Z W B.B.S.W.I.W N B L } C.                      ",
"                j N Z E } N.S.I.B.F N G U ) } B.W.!.] F W } } } } U B Z E ) B.H.I.S.^ G C L ^ } S.Q.                    ",
"              G Z B C K Q } B.B.[ H B B G U ) B.I.P.E N S U U U U H Z P } B.S.I.I.^ Z B H ) B.B.H.!.!.                  ",
"            B.Z.c.I B B H Q ` N.B.Z.^ F C H W ) U b 6 3 4 5 5 5 5 e H ) C.I.T.S.[ ! W W ^ } B.B.H.!.L.F                 ",
"            B.I.W.{ F Z H L Q } H.W.Z.C e g Z S 5 . . . . . . . . 3 A U ) S.H.! F Q B.B.B.C.S.S.H.W.c.H G               ",
"        B W B.H.H.c.) B.c.E P } H.I.Q 5 $ % , 3 O . . . . . . . . O 3 5 6 w b b Z E ` N.S.I.W.W.F.[ W ^ S.~.            ",
"        B P } N.} N.S.W.T.L M U ( Q b O . . . . . . . . . . . . . . . . . . . < g V K } H.I.W.R.B.L U B.I.^.!.          ",
"        B H Q ( ( } S.!.I.b $ 3 4 4 % . . . . . . . . . . . . . . . . . . . . O $ $ 0 B.T.{ W W W ^ } B.S.H.W.(.        ",
"      N B Z K K P Q B.L.c.5 . . . . . . . . . . . . . . . . . . . . . . . . . . . . # U } N e N U } B.B.B.B.H.I.        ",
"    B B B B C C Z P Q W Z % . . . . . . . . . . . . . . . . . . . . . . . . . . . . . % 3 # 4 Z Q B.B.B.B.B.^ I         ",
"    B B B Z H P E P G g 7 * . . . . . . . . . . . . . . . . . . . . . . . . . . . . . . . . % S ) B.B.B.} ^ H M         ",
"    B N B L { H.P.[ N < O . . . . . . . . . . . . . . . . . . . . . . . . . . . . . . . . . % S ) B.B.B.Q F B N         ",
"    B B S W B.I.T.S.P 4 . . . . . . . . . . . . . . . . . . . . . . . . . . . . . . . . . . # 0 D ) { Q H N Z P c.      ",
"    B Z P ) B.B.S.T.F.q . . . . . . . . . . . . . . . . . . . . . . . . . . . . . . . . . . . O 6 K U F B C E B.I.(.    ",
"    N Z U ( ` } B.I.G.q . . . . . . . . . . . . . . . . . . . . . . . . . . . . . . . . . . . . = V P P P E ) S.W.(.    ",
"    B G U U T ) B.S.) 9 . . . . . . . . . . . . . . . . . . . . . . . . . . . . . . . . . . . . % M E } B.B.B.S.I.!.    ",
"  } W P H G H L E Q K 4 . . . . . . . . . . . . ; y y y y y y y y > . . . . . . . . . . . . . . = Z ^ B.S.C.V.B.| {     ",
"B.B.B.^ G B B B B B e & . . . . . . . . . X . + s O.@.@.@.@.@.@.@.f @ . X . . . . . . . . . . . 3 S ( M.B.x.B.} E H     ",
") } B.} Q H N j j 8 = O . . . . . . . . - y p d  .3.3.3.3.3.3.3.3. .d p p ; . . . . . . . . . . O 5 V Q Q P P E [ A.T.(.",
"U Q } B.B.^ H H Z 4 . . . . . . . . . + t o.#.-.6.w.e.w.w.w.w.e.w.6.;.#.O.s + . . . . . . . . . . . 5 K L Z C J S.!.(.(.",
"Z K Q } B.S.S.F.c.e . . . . . . . . @ p  .3.3.3.s.z.z.z.z.z.z.z.z.s.6.3.3.%.d ; . . . . . . . . . . , C U Q Q ) B.I.!.(.",
"N Z K Q } H.Q.(.W.V . . . . . . . + r o.3.1.2.r.j.m._.m.m.m.m._._.l.y.2.1.3.$.s + . . . . . . . . . , N Q B.B.B.B.S.P.R.",
"B B Z K Q N.H.!.W.V . . . . . . @ p  .&.>.1.s.z.g.u.u.u.u.u.u.u.u.h.z.f.2.,.3. .d - . . . . . . . . 4 H ) B.B.B.B.c.^ E ",
"B B N Z K W ) D.S.b . . . . . + r X.3.1.2.t.j.v.a.>.>.>.>.>.>.>.>.t.z.j.u.0.1.3.o.u @ . . . . . . . 5 U } B.B.B.} Q F j ",
"B N N B C Z G L H 6 . . . . @ d  .&.1.1.i.v.j.t.6.;.#.;.;.;.;.#.#.3.t.g.n.d.1.,.>...d - . . . . . . 5 U } B.C.x.E F B M ",
"Z G H H H P E H g = . . . . - z 5.<.0.u.g.z.s.3.#.@.v k k k k z O.#.3.y.z.j.u.q.1.5.v ; . . . . . . 4 H Q ^ ) ^ W W W W ",
"U W ) } } S.I.{ N = . . . . - z ;.<.u.n.j.r.6.;.9.X.r + + + + 1 +.9.#.3.e.g.n.s.1.5.v ; . . . . . . 3 N F F Z L B.R.R.T.",
"K W } B.B.H.W.D.W 6 . . X - u  .8.y.g.l.s.3.#.@.v s @ . . . . + y z @.#.3.p.l.g.u.8.%.s ; X . . . . 4 C H L H E S.Q.(.(.",
"B L } B.B.B.S.I.L.n . . + d o.&.y.n.z.r.3.;.9.O.t + . . . . . . o r X.9.@.3.e.j.n.s.>.$.l @ . . . . 5 K ) } } } B.H.W.(.",
"N G Q } B.B.B.W.!.A . . @ k 5.>.i.`.z.2.;.@.z p @ . . . . . . . . @ y z O.;.2.l.`.f.1.5.z - . . . . 5 U } B.C.B.B.S.W.(.",
"B Z U ) } B.B.I.I.m . . @ k ;.>.u.m.z.w.3.@.y o . . . . . . . . . . X r O.3.2.l.`.s.<.;.z - . . . . 5 K ) B.B.B.B.S.W.!.",
"B Z U U W Q ) | ) 0 . . @ k ;.>.u.m.z.w.3.@.r . . . . . . . . . . . . 1 o.3.2.l.`.s.<.;.z - . . . . 4 Z W ) ' ) W W ^ { ",
"B Z P K Z H U L N , . . @ k ;.>.u.m.z.e.3.@.y . . . . . . . . . . . . 2 o.3.2.l.`.s.<.;.z - . . . . < N L U U U H F G G ",
"N B Z C N N Z Z g = . . @ k ;.>.u.m.z.e.3.@.r . . . . . . . . . . . . 1 o.3.2.l.`.s.<.;.z - . . . . 6 P P S Z H ) Z.B.c.",
"Z Z Z F G H G F j , . . @ k ;.>.u.m.z.w.3.@.p + . . . . . . . . . . + y O.3.2.j.`.s.<.;.z - . . . . q ` ! F B J S.!.~.~.",
"^ ^ ! { S.F.A.~ j = . . @ k ;.>.i.`.z.2.;.@.v d - . . . . . . . . @ p v @.;.2.l.`.f.1.5.z - . . . . q } c.^ Q ) A.I.~.).",
"N.B.B.H.W.!.Q.Z.H 4 . . + p  .&.t.z.z.t.6.;.9.O.y + . . . . . . + r X.9.;.6.r.j.n.u.&...d @ . . . . 0 ) B.N.B.B.} c.H.R.",
"/ ) B.S.H.H.H.I.S.b . . . @ r  .8.t.h.z.s.6.;.@.+.d - . . . . @ s v @.#.3.s.z.g.t.8...t @ X . . . . 9 R ) ) M.B.W J P E ",
"U Q } B.B.} { S.D.b . . . . @ z ;.>.u.z.j.y.6.;.9.O.y - @ - @ r X.9.;.6.t.j.b.i.<.5.v ; . . . . . . 5 H P P Q ^ H B H P ",
"U T Q ) B.^ H L H 6 . . . . - z 5.<.2.r.g.b.s.>.;.@.v z z z z v O.#.>.a.b.j.t.2.<.5.v ; . . . . . . 3 N Z Z F F B H B.I.",
"K P U Q ^ P B N g = . . . . + p x &.,.1.u.z.j.u.8.;.;.;.;.;.;.;.;.8.y.g.z.s.1.,.&. .s @ . . . . . . 4 Z L H I I Z G c.P.",
"C G U P G C B B j , . . . . . + 1 X.3.<.2.r.g.n.s.<.>.<.<.<.<.>.>.u.n.j.r.2.1.3.o.r + . . . . . . . 0 ) } } H.L.W B G J ",
"N C H Z B H ! [ E 8 . . . . . . + y x :.,.1.i.z.g.s.s.s.s.s.s.s.s.g.z.s.1.>.3. .p @ . . . . . . . . q } S.C.I.I.Z.W Z j ",
"N B C B B ^ T.!.I.b . . . . . . . o r X.3.<.2.e.g._.`.`.`.`.`.`.`.l.r.2.1.3.o.t + . . . . . . . . . q } S.B.B.S.I.H.E N ",
"N Z L P U } I.(.Q.V . . . . . . . . @ y x :.3.3.a.j.z.j.l.l.l.z.l.s.6.3.3.x p @ . . . . . . . . . . 9 ( B.B.B.B.I.I.Z.{ ",
"N H ) B.B.B.S.W.W.V . . . . . . . . . X r X.@.@.3.2.2.2.2.2.2.2.2.6.-.@.o.y o . . . . . . . . . . . 5 U } B.B.B.B.S.I.Q.",
"N J } S.C.B.B.H.H.b . . . . . . . . . . @ r y p x 3.3.3.3.3.3.3.3. .p y r - . . . . . . . . . . . . 4 Z Q ) B.B.! E [ | ",
"N H [ B.c.x.x.B._ 0 . . . . . . . . . . . . . + p o.O.o.o.o.o.O.O.d + . . . . . . . . . . . . . . . , M H U ) } E F F G ",
"N Z L P P P P U H 5 . . . . . . . . . . . . . . - 2 r 2 2 2 2 r 2 ; . . . . . . . . . . . . . . . . = j Z S H E { Z.B.c.",
"Z Z Z Z Z F G F M , . . . . . . . . . . . . . . . . . . . . . . . . . . . . . . . . . . . . . . . . , N Z Z C J S.!.~.~.",
"^ ^ ! Q ! | A.! M = . . . . . . . . . . . . . . . . . . . . . . . . . . . . . . . . . . . . . . . . 4 S Q ! ! ) Z.I.~.).",
"} } } N.B.I.W.| N = . . . . . . . . . . . . . . . . . . . . . . . . . . . . . . . . . . . . . . . . 5 K ) } B.B.B.S.L.T.",
"( Q Q ) B.S.S.^ N = . . . . . . . . . . . . . . . . . . . . . . . . . . . . . . . . . . . . . . . . 4 C U ( } B.B.} ! E ",
"U U U ( B.B.B.W N = . . . . . . . . . . . . . . . . . . . . . . . . . . . . . . . . . . . . . . . . = M H U ` B.B.} H j "
};
