/* XPM */
static char *exit7[] = {
/* columns rows colors chars-per-pixel */
"60 60 208 2 ",
"   c None",
".  c None",
"X  c #030C05",
"o  c #0B0607",
"O  c #041207",
"+  c #061509",
"@  c #081C0C",
"#  c #061909",
"$  c #1F1E19",
"%  c #231D1A",
"&  c #221618",
"*  c #0A250F",
"=  c #0E2D13",
"-  c #0C2710",
";  c #0E3214",
":  c #113617",
">  c #103817",
",  c #123E1A",
"<  c #143718",
"1  c #102D14",
"2  c #26211E",
"3  c #2A2524",
"4  c #2D2A2A",
"5  c #272220",
"6  c #312C2A",
"7  c #37302C",
"8  c #393635",
"9  c #3D3A3A",
"0  c #373334",
"q  c #2C3829",
"w  c #14441C",
"e  c #15491E",
"r  c #194D21",
"t  c #175222",
"y  c #375436",
"u  c #1C6A2B",
"i  c #1F732F",
"p  c #24692E",
"a  c #21722F",
"s  c #2C6B34",
"d  c #237B32",
"f  c #287935",
"g  c #4E423B",
"h  c #45403F",
"j  c #52453E",
"k  c #3D7C41",
"l  c #4A4645",
"z  c #4B4746",
"x  c #544740",
"c  c #564A43",
"v  c #594C45",
"b  c #524D4D",
"n  c #5C4E49",
"m  c #4A5742",
"M  c #575447",
"N  c #5D524C",
"B  c #5D594B",
"V  c #51504E",
"C  c #5F5450",
"Z  c #5A5453",
"A  c #61544E",
"S  c #625651",
"D  c #655A54",
"F  c #685D57",
"G  c #665C5A",
"H  c #695E5A",
"J  c #5D6553",
"K  c #587456",
"L  c #4D6D4B",
"P  c #65645B",
"I  c #6C615E",
"U  c #646756",
"Y  c #70635E",
"T  c #62715F",
"R  c #6D5F62",
"E  c #6C6463",
"W  c #6B6C65",
"Q  c #6F6868",
"!  c #696363",
"~  c #726662",
"^  c #746966",
"/  c #756D6B",
"(  c #7A6E6C",
")  c #786A69",
"_  c #6C7767",
"`  c #7B716E",
"'  c #74786A",
"]  c #766E70",
"[  c #796E71",
"{  c #777170",
"}  c #7D7474",
"|  c #7F7878",
" . c #7D7876",
".. c #827673",
"X. c #847975",
"o. c #847C7C",
"O. c #897E7C",
"+. c #837679",
"@. c #268136",
"#. c #2B8439",
"$. c #2B8B3B",
"%. c #288237",
"&. c #34853D",
"*. c #34893F",
"=. c #2F903F",
"-. c #388941",
";. c #2D9D41",
":. c #3A9345",
">. c #2FA043",
",. c #3BAD4C",
"<. c #34A948",
"1. c #3AB14D",
"2. c #458E4D",
"3. c #45844A",
"4. c #4A8C53",
"5. c #4B8552",
"6. c #549C5D",
"7. c #59995D",
"8. c #4C8E4F",
"9. c #6A8A5B",
"0. c #40AD4F",
"q. c #40B04F",
"w. c #42AF50",
"e. c #4AAA55",
"r. c #56A85A",
"t. c #43B251",
"y. c #4AB656",
"u. c #4EBA59",
"i. c #46BA55",
"p. c #55BE5D",
"a. c #59BD5F",
"s. c #5A9A61",
"d. c #679B64",
"f. c #7A9B68",
"g. c #749974",
"h. c #708C70",
"j. c #5BA967",
"k. c #5CBD61",
"l. c #5AB663",
"z. c #66A66A",
"x. c #69BC66",
"c. c #63B764",
"v. c #78AB70",
"b. c #7EBD75",
"n. c #57C05F",
"m. c #5EC362",
"M. c #61C264",
"N. c #6BC86A",
"B. c #6CC36A",
"V. c #71C96E",
"C. c #74CD70",
"Z. c #7ACF73",
"A. c #7FCE78",
"S. c #7CD175",
"D. c #7FD478",
"F. c #86817F",
"G. c #8B817E",
"H. c #828A7E",
"J. c #818877",
"K. c #809D75",
"L. c #8AA877",
"P. c #88B579",
"I. c #81A06D",
"U. c #86C879",
"Y. c #83D379",
"T. c #8AD67E",
"R. c #8AD87E",
"E. c #92CA7F",
"W. c #867F80",
"Q. c #878080",
"!. c #8B8484",
"~. c #8E8788",
"^. c #8F8888",
"/. c #918683",
"(. c #948A87",
"). c #938B8A",
"_. c #988E8C",
"`. c #8C9785",
"'. c #9C918F",
"]. c #909A89",
"[. c #9C9393",
"{. c #989892",
"}. c #9D8E91",
"|. c #A19796",
" X c #A39897",
".X c #A39599",
"XX c #A69D9D",
"oX c #A49B9B",
"OX c #A99F9D",
"+X c #91A08E",
"@X c #8AB984",
"#X c #9DA498",
"$X c #A3A49B",
"%X c #AAA19F",
"&X c #ADA4A4",
"*X c #ACA3A3",
"=X c #AAAFA3",
"-X c #B0A7A6",
";X c #B2A7A9",
":X c #B6ACAC",
">X c #B9AFAF",
",X c #B2A8A7",
"<X c #BCB2B2",
"1X c #C1B7B7",
"2X c #8ED880",
"3X c #94D883",
"4X c #95CC85",
"5X c #A4E28E",
/* pixels */
"                                                        <X<X<X<X<X<X                                                    ",
"                                                         X*X*X*X*X-X                                                    ",
"                                      !.!.!. X-XX.v j D o.).).).). X:X/.N x v                                           ",
"                                    ~.!.!.!. X,X..c j A } !.!.!.!.[.:X/.A N H ^                                         ",
"                          <X XI D o.!.!.!.!. X-XX.v x A } !.!.!.!.[.:X/.A I o.!.).*XXX^ c                               ",
"                        ). X[.O.` ( ` } o.!.[. X).` S A } !.!.!.!.!.!.^ N Q !.!.).*X*X^ c j                             ",
"                  c N / !.!._.*X_.H C Q } !.!.). XXX) A ` !.!.!.!.` D v N ^ !.!.).*X X^ c v H o.^.                      ",
"                j c N Q | Q.). X!.A c S Q } o.!.*X;X( n ~ } } } } Q v N ~ } !.[. X).` S n H ` o.).-X                    ",
"              S N v n G / o.!.!...D v v S Q } !.$X$X' N P W W W W P N I o.!.). X X` N v D } !.!.[.:X:X                  ",
"            !./.G.Y v v D / | Q.!./.( n v S R { g.z.4.3.3.4.4.4.4.K D ) !..X X)...( ^ ^ ` o.!.!.[.:X|.A                 ",
"            !. X*XX.A N D H / o.[.*X(.B m M P _ 7.w.t.w.w.w.w.w.w.6._  .H.{.$X` A / !.!.!.).).).[.%XG.D S               ",
"        v ^ !.[.[.G.} !.G.I H +.).[.g.5.&.3.d.P.U.Z.S.S.Z.Z.Z.S.S.U.P.v.6.j.z.K v H } W.). X*X*X'.} ^ ` ).>X            ",
"        v I o.Q.o.Q.).*X%X_ J ' !.`.g.e.t.y.N.T.2X2X2X2X2X2X2X2X2X2XT.N.y.t.e.5.P U _ F.[. X*XXX!.H Q !. X-X:X          ",
"        v D / { { o.).;X=Xd.:.2.z.@X4XY.Y.Y.N.n.a.a.a.a.a.a.a.a.a.a.n.N.S.Y.Y.U.P.6.6.+X.X..~ ~ ^ ` o.!.).[.*X<X        ",
"      c v N G G I / !.}.].r.<.t.m.S.R.T.2XY.r.#.d @.@.@.@.@.@.@.@.d %.r.Y.2XT.R.Y.m.l.@X`.K m M I o.!.!.!.!.[. X        ",
"    v v v v n n N I / ~ U 2.t.C.Z.a.u.u.a.y.s = * * * * * * * * * * - p e.a.u.y.a.C.Z.c.e.:.3.J / !.!.!.!.!.` Y         ",
"    v c c N D I ~ I G U 9.r.M.S.x.*.a d d a > . . . . . . . . . . . . ; a d d i #.c.S.M.a.a.r._ [ !.!.!.o.` D j         ",
"    v c v H X.[. X( D f.E.3XS.a.*.< + @ @ @ X . . . . . . . . . . . . X # @ @ + = f a.Z.2X2XP.' ] !.!.!./ A v c         ",
"    v v C ^ !. XXX/.' v.S.Y.x.*.w X . . . . . . . . . . . . . . . . . . . . . . . , f c.D.S.b.K.J.o.} / D c N I G.      ",
"    c N I } !.!.). X$Xz.t.t.*.< X . . . . . . . . . . . . . . . . . . . . . . . . . 1 *.t.t.k.U.L.' H A v n ~ !. X<X    ",
"    c N Q ] | o.!..X#Xz.>.d w + . . . . . . . . . . . . . . . . . . . . . . . . . . X , a ;.i.N.z.P G I I ~ } ).*X<X    ",
"    v S Q Q Q } !./.H.6.$.> . . . . . . . . . . . . . . . . . . . . . . . . . . . . . . = %.<.,.2.B I o.!.!.!.). X:X    ",
"  o.^ I D S D I ~ / I y w + . . . . . . . . . . . . . . . . . . . . . . . . . . . . . . X , a >.2.J ) !.).^.~.!.O.X.    ",
"!.!.!.` S v v v v v g $ . . . . . . . . . . . . . . . . . . . . . . . . . . . . . . . . . . ; #.2.T } F.!.F.!.o.~ D     ",
"} o.!.o./ D c j j 7 % o . . . . . . . . . . . . . . . . . . . . . . . . . . . . . . . . . . + , s 4.9.{ / I H ~ ..(.XX<X",
"Q / o.!.!.` D D N 3 . . . . . . . . . . . . . . . . . . . . . . . . . . . . . . . . . . . . . . < #.5.P G N n F ).:X<X<X",
"N G / o.!.).).'.G.9 . . . . . . . . . . . . . . . . . . . . . . . . . . . . . . . . . . . . . . + < y N I / / } !. X:X<X",
"c N G / o.[.-X<X*Xb . . . . . . . . . . . . . . . . . . . . . . . . . . . . . . . . . . . . . . . . % c / !.!.!.!.). X%X",
"v v N G / W.[.:X*Xb . . . . . . . . . . . . . . . . . . . . . . . . . . . . . . . . . . . . . . . . 3 D } !.!.!.!.G.` ^ ",
"v c c N G ^ } ).).l . . . . . . . . . . . . . . . . . . . . . . . . . . . . . . . . . . . . . . . . 4 ! o.!.!.!.o./ A j ",
"v c c v n N S H D 6 . . . . . . . . . . . . . . . . . . . . . . . . . . . . . . . . . . . . . . . . 4 ! o.!.^.F.~ A v j ",
"N S D D D I ~ D g % . . . . . . . . . . . . . . . . . . . . . . . . . . . . . . . . . . . . . . . . 3 D / ` } ` ^ ^ ^ ^ ",
"Q ^ } o.o.). XX.c % . . . . . . . . . . . . . . . . . . . . . . . . . . . . . . . . . . . . . . . . 2 c A A N H !.%X%XXX",
"G ^ o.!.!.[.*X_.^ 6 . . . . . . . . . . . . . . . . . . . . . . . . . . . . . . . . . . . . . . . . 3 n D H D ~ ).-X<X<X",
"v H o.!.!.!.). X|.z . . . . . . . . . . . . . . . . . . . . . . . . . . . . . . . . . . . . . . . . 4 G } o.o.o.!.[.*X<X",
"c S / o.!.!.!.*X:XV . . . . . . . . . . . . . . . . . . . . . . . . . . . . . . . . . . . . . . . . 4 Q o.!.^.!.!.).*X<X",
"c N Q } o.!.!. X Xb . . . . . . . . . . . . . . . . . . . . . . . . . . . . . . . . . . . . . . . . 4 G } !.!.!.!.).%X:X",
"c N Q Q ~ / } o.} 8 . . . . . . . . . . . . . . . . . . . . . . . . . . . . . . . . . . . . . . . . 3 N ^ } | } / ^ ` X.",
"v N I G N S Q H c 2 . . . . . . . . . . . . . . . . . . . . . . . . . . . . . . . . . . . . . . . . 2 c H Q Q Q D A S S ",
"c v N n x c N n g % . . . . . . . . . . . . . . . . . . . . . . . . . . . . . . . . . . . . . . . . 6 I I C N D } /.!.G.",
"N N N A S D S A j 2 . . . . . . . . . . . . . . . . . . . . . . . . . . . . . . . . . . . . . . . . 9 | ( A v F (.:X>X>X",
"` ` ( X.).'.(.) j % . . . . . . . . . . . . . . . . . . . . . . . . . . . . . . . . . . . . . . . . 9 o.G.` / } (. X>X1X",
"o.Q.!.[.*X:X-X/.D 3 . . . . . . . . . . . . . . . . . . . . . . . . . . . . . . . . . . . . . . . . 8 } !.Q.!.!.o.G.[.%X",
"/ } !.).[.[.[. X).l . . . . . . . . . . . . . . . . . . . . . . . . . . . . . . . . . . . . . . . . 7 Q } } W.!.^ F I ~ ",
"Q / o.!.!.o.X.)._.z . . . . . . . . . . . . . . . . . . . . . . . . . . . . . . . . . . . . . . . . 4 B I I / ` D v D I ",
"Q Q / } !.` D H D 6 . . . . . . . . . . . . . . . . . . . . . . . . . . . . . . . . . . . . . . . . 5 c N N A A v D !. X",
"G I Q / ` I v c g % . . . . . . . . . . . . . . . . . . . . . . . . . . . . . . . . . . . . . . . . 3 N H D Y Y N S G. X",
"n S Q I S n v v j 2 . . . . . . . . . . . . . . . . . . . . . . . . . . . . . . . . . . . . . . . . 8 } o.o.[.|.^ v S H ",
"c n D N c D ( ..~ 7 . . . . . . . . . . . . . . . . . . . . . . . . . . . . . . . . . . . . . . . . 9 o.).^. X X/.^ N j ",
"c v n v v ` XX:X Xz . . . . . . . . . . . . . . . . . . . . . . . . . . . . . . . . . . . . . . . . 9 o.^.!.!.). X[.~ c ",
"c N H I Q o. X<X-Xb . . . . . . . . . . . . . . . . . . . . . . . . . . . . . . . . . . . . . . + , m { !.!.!.!. X X/.X.",
"c D } !.!.!.).*X*XV X . . . . . . . . . . . . . . . . . . . . . . . . . . . . . . . . . . . . . , *.4.W } !.!.!.!.). X-X",
"c F o.).^.!.!.[.[.K r # . . . . . . . . . . . . . . . . . . . . . . . . . . . . . . . . . . + w -.c.d.P Q } !.!.( ~ ..O.",
"c D } !.G.F.F.!.F.s.=.w X . . . . . . . . . . . . . . . . . . . . . . . . . . . . . . . . . < $.m.T.I.B S Q } o.~ A A S ",
"c N H I I I I H I 4.>.@.r + . . . . . . . . . . . . . . . . . . . . . . . . . . . . . . + e d >.m.2XI.N c C D ~ X./.!.G.",
"N N N N N A S n M 5.0.1.$., X . . . . . . . . . . . . . . . . . . . . . . . . . . . . X < #.,.,.M.T.f.B n N n F ).:X>X>X",
"` ` ( / ( o./.~ N d.V.u.>.@.t + . . . . . . . . . . . . . . . . . . . . . . . . . . X e d ;.y.V.C.M.7.P ~ ( ( } !. X:X1X",
"o.o.o.Q.!.[.*X..A f.Y.M.t.y.:.w + . . . . . . . . . . . . . . . . . . . . . . . . X < -.y.t.k.Y.x.:.L P [ o.!.!.!.).|.XX",
"{ / / } !.).).( N 5.a.V.Y.Y.N.:.t + . . . . . . . . . . . . . . . . . . . . . . X e -.x.Y.Y.C.k.*., q N Q { o.!.!.o.( ~ ",
"Q Q Q { !.!.!.~ M k 0.Z.5X5XT.a.d @ . . . . . . . . . . . . . . . . . . . . . . + u y.Y.5X5XY.t.u + & j D Q | !.!.o.D j "
};
