/* XPM */
static char *exit6[] = {
/* columns rows colors chars-per-pixel */
"60 60 214 2 ",
"   c None",
".  c #000000",
"X  c #030B04",
"o  c #0C090A",
"O  c #0B0609",
"+  c #061408",
"@  c #071B0A",
"#  c #091C0C",
"$  c #041006",
"%  c #191413",
"&  c #1E1B1B",
"*  c #191416",
"=  c #120D10",
"-  c #231C1B",
";  c #0A230E",
":  c #07250D",
">  c #0C2610",
",  c #0D2C12",
"<  c #0E3214",
"1  c #0F3A17",
"2  c #113E19",
"3  c #103216",
"4  c #26211E",
"5  c #28221F",
"6  c #252121",
"7  c #292524",
"8  c #2D2A2A",
"9  c #2A2A25",
"0  c #322D2D",
"q  c #312925",
"w  c #3B3636",
"e  c #463D3A",
"r  c #1C5525",
"t  c #1A5D26",
"y  c #1D4F24",
"u  c #225B2A",
"i  c #334F34",
"p  c #1D6429",
"a  c #1E6A2C",
"s  c #1F702D",
"d  c #24652D",
"f  c #216B2D",
"g  c #28642F",
"h  c #21712F",
"j  c #2A6C32",
"k  c #266D30",
"l  c #237531",
"z  c #257B34",
"x  c #2A7936",
"c  c #367039",
"v  c #4E433D",
"b  c #52453E",
"n  c #514C3F",
"m  c #4B4644",
"M  c #4A4645",
"N  c #534740",
"B  c #564943",
"V  c #594C45",
"C  c #5B4E49",
"Z  c #564A48",
"A  c #5D524C",
"S  c #5C594D",
"D  c #525648",
"F  c #5D5553",
"G  c #5B5853",
"H  c #554F50",
"J  c #61544E",
"K  c #625651",
"L  c #655955",
"P  c #695C57",
"I  c #655C5B",
"U  c #695E5A",
"Y  c #486F4B",
"T  c #6B625D",
"R  c #676459",
"E  c #70635E",
"W  c #6D7757",
"Q  c #666060",
"!  c #6C6463",
"~  c #6B6C64",
"^  c #6C6865",
"/  c #716662",
"(  c #746965",
")  c #756D6B",
"_  c #796E6B",
"`  c #786C67",
"'  c #7B716E",
"]  c #72726C",
"[  c #786E70",
"{  c #777170",
"}  c #7C7473",
"|  c #7F7878",
" . c #7C7A76",
".. c #637160",
"X. c #817673",
"o. c #847976",
"O. c #847C7C",
"+. c #897E7B",
"@. c #807579",
"#. c #81746F",
"$. c #298639",
"%. c #2B8D3B",
"&. c #278136",
"*. c #2B943D",
"=. c #2F9540",
"-. c #2E9A40",
";. c #309540",
":. c #309E43",
">. c #3F8145",
",. c #33A446",
"<. c #32AA47",
"1. c #36AC49",
"2. c #3AAC4B",
"3. c #3AA54A",
"4. c #3DB14E",
"5. c #3FB450",
"6. c #47884B",
"7. c #439C4B",
"8. c #489B4D",
"9. c #488A51",
"0. c #4E9655",
"q. c #53945A",
"w. c #559458",
"e. c #528D51",
"r. c #41AB4E",
"t. c #44A34E",
"y. c #40B04F",
"u. c #4CA452",
"i. c #45AB50",
"p. c #4CAC54",
"a. c #55A657",
"s. c #55AC59",
"d. c #43B452",
"f. c #4AB455",
"g. c #4FB658",
"h. c #4FB959",
"j. c #43B853",
"k. c #51B659",
"l. c #54BC5C",
"z. c #5BB85F",
"x. c #5B9C63",
"c. c #769E6A",
"v. c #608163",
"b. c #5DA166",
"n. c #5CBF61",
"m. c #6BA56A",
"M. c #79A16B",
"N. c #6BB868",
"B. c #58C15F",
"V. c #5CC362",
"C. c #5FC864",
"Z. c #62C365",
"A. c #6BC66A",
"S. c #67C869",
"D. c #6DCA6C",
"F. c #63C766",
"G. c #72CB6F",
"H. c #73C56E",
"J. c #76CC71",
"K. c #7BCC74",
"L. c #77C770",
"P. c #7DD176",
"I. c #85817E",
"U. c #8B817E",
"Y. c #82887D",
"T. c #89AC79",
"R. c #81CE77",
"E. c #84D47A",
"W. c #8AD67E",
"Q. c #86D47B",
"!. c #887E80",
"~. c #878180",
"^. c #8B8484",
"/. c #8F8888",
"(. c #8C8986",
"). c #918683",
"_. c #948987",
"`. c #938B8A",
"'. c #988D8B",
"]. c #958789",
"[. c #9A918E",
"{. c #9D9595",
"}. c #9B9393",
"|. c #9B9893",
" X c #9A8F92",
".X c #A09796",
"XX c #A39897",
"oX c #A69D9D",
"OX c #A49B9B",
"+X c #A99F9E",
"@X c #85BA83",
"#X c #97B686",
"$X c #AAA09F",
"%X c #AEA5A5",
"&X c #ACA3A3",
"*X c #ACA8A1",
"=X c #B0A7A6",
"-X c #B2A6A8",
";X c #B6ACAC",
":X c #B9AFAF",
">X c #B2A8A7",
",X c #B6B3AC",
"<X c #BCB2B2",
"1X c #BCB8B2",
"2X c #BAAEB1",
"3X c #C1B7B7",
"4X c #8ED780",
"5X c #93DA84",
"6X c #99DC87",
"7X c #97DA85",
"8X c #A6C997",
"9X c #A2C18F",
"0X c #A8E490",
"qX c #B5D2A2",
/* pixels */
"                                                        <X<X<X<X<X<X                                                    ",
"                                                        OX&X&X&X&X=X                                                    ",
"                                      ^.^.^.OX=Xo.V b L O.`.`.`.`.OX;X).A N V                                           ",
"                                    /.^.^.^.OX>XX.B b J } ^.^.^.^.}.;X).J A U (                                         ",
"                          <XXXT L O.^.^.^.^.OX=Xo.V N J } ^.^.^.^.}.;X).J T O.^.`.&X+X( B                               ",
"                        `.OX}.+.' _ ' } O.^.}.OX_.' K J } ^.^.^.^.^.^.( A / ^.^.`.&X&X( N b                             ",
"                  B A ) ^.^.`.&X'.U A Q } ^.^.`.OXOX` J ' ^.^.^.^.' L V A ( ^.^.`.&XOX( B V U O./.                      ",
"                b B A Q O.~.`.OX^.J B K Q } O.^.&X;X#.J ( O.O.O.O.Q V A / } ^.}.OX`.' K V U ' O.`.=X                    ",
"              K A V C I ) O.^.^.X.L V V K Q } ^.OXXX/ B F Q Q Q Q L A T O.^.`.OXOX' A V L } ^.^.}.;X;X                  ",
"            ^.).U.E V V L ) | ~.^.).' J C L ( } Q M 0 5 9 8 8 8 8 e L } /.OX+X`.X._ ( ( ' O.^.^.}.;X.XJ                 ",
"            ^.OX&Xo.J A L U ) O.}.&X).C e v A F 8 . . . . . . . . 6 Z Q } `.}._ J ) ^.^.^./.`.`.}.$XU.L K               ",
"        V ( ^.}.}.U.} ^.U./ T O.}.OX) 8 % & - - O . . . . . . . . O - 8 0 w M M A / | ~.`.OX&X&X[.} ( ' `.:X            ",
"        V T O.~.O.~.`.&X+XU N Q { ) M o . . X @ # # # # # # # # # # # X . . . 5 e Z I O.}.OX&X$X^.U Q ^.OX>X;X          ",
"        V L ) { { O.`.;XOXM % 6 9 6 * . . . 1 s z l l l l l l l l z h 2 . . . O % % w ^.+Xo.( ( ( ' O.^.`.}.&X<X        ",
"      B V A I I T ) ^..XU.8 . . . @ ; > ; , j f.l.h.h.h.h.h.h.h.h.l.g.x 1 ; > > # . * Q O.Z e B Q O.^.^.^.^.}.OX        ",
"    V V V V C C A T ) ( A & . . ; f $.&.z $.s.Q.4XW.W.W.W.W.W.W.W.W.W.z.%.z &.$.l , . & 6 * 9 A ) ^.^.^.^.^.' E         ",
"    V V V A L T / T K v q o . ; r -.j.l.l.V.D.Q.Q.Q.Q.Q.Q.Q.Q.Q.Q.Q.Q.G.V.l.l.j.:.t ; . . . & F } ^.^.^.O.' L b         ",
"    V B V U o.}.XXX.B 5 o . # f -.,.l.Q.5XW.A.f.d.f.f.f.f.f.f.f.f.d.f.F.W.5XQ.n.,.-.l ; . . & F } ^.^.^.) J V B         ",
"    V V F ) ^.OX+X`.T 6 . : u u.F.V.A.P.Q.K.8.f a a a a a a a a a a f 8.J.Q.P.A.V.F.s.g , . = w G } o.) L B A T U.      ",
"    V A T } ^.^.`.+X[.w @ p i.K.5X5XG.f.y.3.d # X + + + + + + + + $ + r 3.d.d.A.5X5XR.p.l ; . o 0 I Q J V C / ^.OX<X    ",
"    B A Q { | O.^.OX}.Y u u.D.G.J.J.a.k t t , . . . . . . . . . . . . ; r t d 8.J.K.G.D.s.d : . & Z T T T / } `.&X<X    ",
"    V K Q Q ^ } ^.^.Y.q.i.K.Q.l.3.3.k # . X . . . . . . . . . . . . . . X . # d 3.3.f.K.K.f.h ; & N / O.^.^.^.`.OX;X    ",
"  O.( T L K L U / / ~ m.D.G.F.d.*.p 1 . . . . . . . . . . . . . . . . . . . . , t %.4.V.G.G.s.d i F _ ^.`././.^.+.o.    ",
"^.^.^.' K V V V V C R T.Q.l.1.,.l ; . . . . . . . . . . . . . . . . . . . . . . # d ,.1.g.R.K.p.9...} ~.^.I.^.O./ L     ",
"} O.^.O.) L B b B W M.N.V.d.*.p , . . . . . . . . . . . . . . . . . . . . . . . . , t *.5.n.A.G.N.q.v.{ ) T T / X._.+X<X",
"Q ) O.^.^.' L J R T.4XV.,.:.l ; . . . . . . . . . . . . . . . . . . . . . . . . . . # f :.,.l.W.K.i.9.R I A C P `.;X<X<X",
"A I ) O.^.`.`.`.[.9X5XV.-.t , X . . . . . . . . . . . . . . . . . . . . . . . . . . . > r *.V.5XP.3.>.S U ) ) } ^.OX;X<X",
"B A I ) O.}.=X2X,X8XR.p.l ; . . . . . . . . . . . . . . . . . . . . . . . . . . . . . . # f u.K.J.g.6.S / ^.^.^.^.`.XX$X",
"V V A I ) !.}.-X,X@Xp.d > X . . . . . . . . . . . . . . . . . . . . . . . . . . . . . . . ; u u.S.K.c.T _ ^.^.^.^.U.' / ",
"V B B A I ( } ].|.m.=.1 . . . . . . . . . . . . . . . . . . . . . . . . . . . . . . . . . . , %.V.5XT.] } ^.^.^.O.) J b ",
"V B B V C A K P T 0.=.2 . . . . . . . . . . . . . . . . . . . . . . . . . . . . . . . . . . , %.C.5XT.] } ^./.I./ J V N ",
"A K L L L T / K n c f , . . . . . . . . . . . . . . . . . . . . . . . . . . . . . . . . . . ; p 8.L.M.T / } } ' ( ( ( ( ",
"Q ( } O.O.`.OXX.B 9 # X . . . . . . . . . . . . . . . . . . . . . . . . . . . . . . . . . . . + r 7.e.A C J A U ).$X&X+X",
"I ( O.^.^.}.&X'.( 0 . . . . . . . . . . . . . . . . . . . . . . . . . . . . . . . . . . . . . . 1 *.6.S K U L / `.=X<X<X",
"V U O.^.^.^.`.OX.XM . . . . . . . . . . . . . . . . . . . . . . . . . . . . . . . . . . . . . . 2 =.0.~ [ O.O.O.^.}.&X<X",
"B K ) O.^.^.^.&X;XH . . . . . . . . . . . . . . . . . . . . . . . . . . . . . . . . . . . . . . 2 ;.q.~ @.^./.^.^.`.&X<X",
"B A Q } O.^.^.OXOXZ . . . . . . . . . . . . . . . . . . . . . . . . . . . . . . . . . . . . . . 2 ;.0.~ } ^.^.^.^.`.$X;X",
"V A Q Q ( ) } +.} w . . . . . . . . . . . . . . . . . . . . . . . . . . . . . . . . . . . . . . 2 ;.6.G / } | } ( ( ' o.",
"V A T I A L Q U B 5 . . . . . . . . . . . . . . . . . . . . . . . . . . . . . . . . . . . . . . 2 =.6.S L Q Q Q L J K K ",
"B V A A B B A A v - . . . . . . . . . . . . . . . . . . . . . . . . . . . . . . . . . . . . . . 2 ;.q.~ U F A L } ).^.U.",
"A A A J K L K J b 5 . . . . . . . . . . . . . . . . . . . . . . . . . . . . . . . . . . . . . . 2 ;.b.I.) J V P _.;X:X:X",
"' ' _ o._.[._.` b - . . . . . . . . . . . . . . . . . . . . . . . . . . . . . . . . . . . . . . 2 ;.b.(.O.' ) } _.OX:X3X",
"!.~.^.}.&X;X=X).L 9 . . . . . . . . . . . . . . . . . . . . . . . . . . . . . . . . . . . . . . 2 ;.x.I.!.~.^.^.O.U.}.+X",
") } ^.`.}.}.}.OX`.e . . . . . . . . . . . . . . . . . . . . . . . . . . . . . . . . . . . . . . 1 *.q.] [ } O.^.( P T / ",
"Q ) O.^.^.O.o.`.[.D > X . . . . . . . . . . . . . . . . . . . . . . . . . . . . . . . . . . X # u t.w.R I T ) ' L V L T ",
"Q ^ ) } ^.' L P T Y l 1 . . . . . . . . . . . . . . . . . . . . . . . . . . . . . . . . . . ; f u.K.c.S C A J J V L ^.OX",
"I T Q ) } T B b n 6.=.2 . . . . . . . . . . . . . . . . . . . . . . . . . . . . . . . . . . , %.C.5XT.T K L E E A K U.XX",
"A K Q T K C B N V 6.=.2 . . . . . . . . . . . . . . . . . . . . . . . . . . . . . . . . . . , %.V.5X#XI.X.O.}..X( V K P ",
"B C L A B L _ _ ' m.s.j 1 X . . . . . . . . . . . . . . . . . . . . . . . . . . . . . . X , g u.S.J.T.(.^./.OXOX).( A b ",
"B V C V V ' +X-X*X9XQ.k.z , . . . . . . . . . . . . . . . . . . . . . . . . . . . . . . ; l p.R.J.f.x.~.^.^.^.`.OX}./ B ",
"B A U T Q O.OX;X<XqX6XV.-.p 3 X . . . . . . . . . . . . . . . . . . . . . . . . . . . , p *.B.5XP.d.q. .!.^.^.^.OXOX).o.",
"B L } ^.^.^.`.OX,X8X4Xn.3.,.z , . . . . . . . . . . . . . . . . . . . . . . . . . . ; l ,.1.l.W.J.r.9.~ } ^.^.^.^.`.OX=X",
"B P O.`./.^.^. X|.@XD.D.F.d.-.f 2 X . . . . . . . . . . . . . . . . . . . . . . . 1 p *.d.F.G.D.u.d i G / } ^.^._ / X.+.",
"B L } ^.U.U.I.^.I.q.t.H.Q.l.3.,.l > . . . . . . . . . . . . . . . . . . . . . . # f ,.3.l.Q.K.i.p # - B L Q } O./ J J K ",
"B A U T T T T T R i r 7.D.J.S.d.*.a 1 . . . . . . . . . . . . . . . . . . . . 1 p *.4.F.J.D.u.u : . - b A F L / o.).^.U.",
"A A A A A J K J N - + t t.K.Q.l.d.r.j > X + X . . . . . . . . . . . . X + X # j 3.y.g.K.K.p.f # . . 5 B J A C U `.;X:X:X",
"' ' _ ) _ +._._ N - . @ r 8.S.J.P.P.s.j a p 1 . . . . . . . . . . . . , p a l a.P.Q.K.D.u.u ; . . . 9 K ) _ _ } ^.OX:X3X",
"O.O.O.~.^.OX&X+.B - . . + p 7.L.5X4XJ.l.d.i.j > @ # # # # # # # # # # u r.d.f.A.W.5XK.u.a # . . . . 8 I } O.^.^.^.`..X+X",
"{ ) ) } ^.`.`.' B - . . . @ y 7.l.l.F.P.Q.K.a.x l z z z z z z z z l z u.K.Q.P.A.l.l.u.u ; . . . . . 9 C Q { O.^.^.O._ / ",
"Q Q Q { ^.^.^.( B - . . . . ; &.<.<.l.5X0X6XA.4.1.1.1.1.1.1.1.1.1.1.3.F.6X0X6XF.<.<.%., . . . . . . - N L Q | ^.^.O.L b "
};
