/* XPM */
static char *exit1[] = {
/* columns rows colors chars-per-pixel */
"60 60 173 2 ",
"   c None",
".  c #000000",
"X  c #020906",
"o  c #020E09",
"O  c #0C0B0B",
"+  c #100E0C",
"@  c #03140D",
"#  c #051A11",
"$  c #161414",
"%  c #191614",
"&  c #1F1C1B",
"*  c #1B1817",
"=  c #231E1B",
"-  c #062116",
";  c #07281A",
":  c #082D1C",
">  c #26211E",
",  c #28221F",
"<  c #0A3622",
"1  c #0B3B25",
"2  c #0B3E28",
"3  c #242120",
"4  c #2A2624",
"5  c #2D2A2A",
"6  c #322D2C",
"7  c #312A25",
"8  c #37302C",
"9  c #343131",
"0  c #393635",
"q  c #3D3A3A",
"w  c #3B3837",
"e  c #473D38",
"r  c #0C422B",
"t  c #0D482F",
"y  c #0D4A31",
"u  c #0E5236",
"i  c #0F5538",
"p  c #15693D",
"a  c #4D423C",
"s  c #45403F",
"d  c #52453E",
"f  c #146C45",
"g  c #177042",
"h  c #187543",
"j  c #15744B",
"k  c #17794D",
"l  c #197B49",
"z  c #187847",
"x  c #167D52",
"c  c #464242",
"v  c #4B4645",
"b  c #4F4B4B",
"n  c #534740",
"m  c #564943",
"M  c #594C45",
"N  c #534D4D",
"B  c #5A4F49",
"V  c #5D524C",
"C  c #555050",
"Z  c #5D5553",
"A  c #5F5857",
"S  c #61544E",
"D  c #625651",
"F  c #655955",
"G  c #685D57",
"H  c #655D5B",
"J  c #695E5A",
"K  c #6C615E",
"L  c #70635E",
"P  c #676060",
"I  c #6C6463",
"U  c #6F6868",
"Y  c #6E6768",
"T  c #716662",
"R  c #746965",
"E  c #786C67",
"W  c #756D6B",
"Q  c #796E6B",
"!  c #7B716E",
"~  c #766F70",
"^  c #777070",
"/  c #7C7473",
"(  c #7F7877",
")  c #7F7878",
"_  c #7E7778",
"`  c #81746F",
"'  c #817672",
"]  c #847976",
"[  c #847C7C",
"{  c #897E7B",
"}  c #1A814F",
"|  c #198251",
" . c #1B8F5A",
".. c #1A8A57",
"X. c #1C935C",
"o. c #1E9E5F",
"O. c #26954C",
"+. c #269A4E",
"@. c #259B52",
"#. c #2A9D56",
"$. c #219D5B",
"%. c #229750",
"&. c #1FA05E",
"*. c #2FA644",
"=. c #2EA64D",
"-. c #30A745",
";. c #33A847",
":. c #31A74C",
">. c #3BAC4D",
",. c #34A948",
"<. c #26A355",
"1. c #29A354",
"2. c #24A05B",
"3. c #2BA35A",
"4. c #3DAC52",
"5. c #1C9760",
"6. c #1E9F61",
"7. c #1EA060",
"8. c #40AF4F",
"9. c #41AF51",
"0. c #43B051",
"q. c #45B25C",
"w. c #4BB55E",
"e. c #56BA5C",
"r. c #59BB5E",
"t. c #5EBE61",
"y. c #63C164",
"u. c #6DC66C",
"i. c #72C96E",
"p. c #70C76E",
"a. c #75CA71",
"s. c #7BCD74",
"d. c #87807F",
"f. c #8B817E",
"g. c #80D075",
"h. c #86D37B",
"j. c #8BD57E",
"k. c #867F80",
"l. c #878080",
"z. c #8B8484",
"x. c #8E8788",
"c. c #8F8888",
"v. c #918683",
"b. c #948987",
"n. c #958E8E",
"m. c #938A8A",
"M. c #988E8C",
"N. c #9B918F",
"B. c #978F90",
"V. c #979090",
"C. c #999292",
"Z. c #9D9595",
"A. c #9C9393",
"S. c #A19796",
"D. c #A29897",
"F. c #A2999A",
"G. c #A69D9D",
"H. c #A59C9B",
"J. c #A99F9E",
"K. c #AAA09F",
"L. c #AEA5A5",
"P. c #ACA3A3",
"I. c #B0A7A6",
"U. c #B0A7A7",
"Y. c #B7ACAC",
"T. c #B5ACAC",
"R. c #B9AFAF",
"E. c #B1A7A7",
"W. c #BBB1B1",
"Q. c #BCB3B3",
"!. c #C1B7B7",
"~. c #8FD780",
"^. c #91D982",
/* pixels */
"                                                        Q.Q.Q.Q.Q.Q.                                                    ",
"                                                        F.P.P.P.P.I.                                                    ",
"                                      z.z.z.F.I.] M d F [ m.m.m.m.F.T.v.S n M                                           ",
"                                    x.z.z.z.F.E.' m d S / z.z.z.z.C.T.v.S V J R                                         ",
"                          Q.D.K F [ z.z.z.z.F.I.] M n S / z.z.z.z.C.T.v.S K [ z.m.P.J.R m                               ",
"                        m.F.C.{ ! Q ! / [ z.C.F.b.! D S / z.z.z.z.z.z.R V T z.z.m.P.P.R m d                             ",
"                  m V W z.z.m.P.M.J Z P / z.z.m.F.F.E S ! z.z.z.z.! F M V R z.z.m.P.F.R m M J [ c.                      ",
"                d m V T [ l.m.F.z.S m D P / [ z.P.T.` S W [ [ [ [ P M V T / z.C.F.m.! D B J ! [ m.I.                    ",
"              D V M B H W [ z.z.' F M M D P / z.F.D.T m Z P P P P F V K [ z.m.F.F.! V M F / z.z.C.T.T.                  ",
"            z.v.f.L M M F W ) l.z.v.! S B F R / P c 6 3 3 5 5 5 5 e F / c.F.J.m.' Q R R ! [ z.z.C.T.S.S                 ",
"            z.F.P.] S V F J W [ C.P.v.B e a V Z 5 . . . . . . . . 3 C P / m.C.Q S W z.z.z.m.m.m.C.P.f.F D               ",
"        M R z.C.C.f./ z.f.T K [ C.F.W 5 % & > 3 O . . . . . . . . O 3 5 6 w c c V T ) l.m.F.P.P.N.' R ! m.R.            ",
"        M K [ l.[ l.m.P.J.J n P ^ W c O . . . . . . . . . . . . . . . . . . . , a N H [ C.F.P.K.z.J P z.F.E.T.          ",
"        M F W ^ ^ [ m.T.F.c % 3 4 3 & . . . . . . . . . . . . . . . . . . . . O % % 0 z.J.] R R R ! [ z.m.C.P.Q.        ",
"      m M V H H K W z.S.f.5 . . . . . . . . . . . . . . . . . . . . . . . . . . . . $ P [ N e m P [ z.z.z.z.C.F.        ",
"    M M M M B B V K W R V & . . . . . . . . . . . . . . . . . . . . . . . . . . . . . & 3 $ 3 V W z.z.z.z.z.! L         ",
"    M M M V F K T K D a 7 + . . . . . . . . . . . . . . . . . . . . . . . . . . . . . . . . & Z / z.z.z.[ ! F n         ",
"    M m M J ] C.D.' m , O . . . . . . . . . . . . . . . . . . . . . . . . . . . . . . . . . & Z / z.z.z.W S M m         ",
"    M M Z R z.F.J.m.K 3 . . . . . . . . . . . . . . . . . . . . . . . . . . . . . . . . . . $ 0 A / ] W F M V K f.      ",
"    M V K / z.z.m.J.N.q . . . . . . . . . . . . . . . . . . . . . . . . . . . . . . . . . . . O 6 H P S M B T z.F.Q.    ",
"    m V P ^ ) [ z.F.B.q . . . . . . . . . . . . . . . . . . . . . . . . . . . . . . . . . . . . = N K K K T / m.P.Q.    ",
"    M D P P U / z.m./ 9 . . . . . . . . . . . . . . . . . . . . . . . . . . . . . . . . . . . . & n T [ z.z.z.m.F.T.    ",
"  [ R K F D F J T W H 3 . . . . . . . . . . . . . . . . . . . . . . . . . . . . . . . . . . . . = V ! z.m.c.x.z.{ ]     ",
"z.z.z.! D M M M M M a * . . . . . . . . . . . . . . . . . . . . . . . . . . . . . . . . . . . . 3 Z ^ [ z.d.z.[ T F     ",
"/ [ z.[ W F m d d 8 = O . . . . . . . . . . . . . . . . . . . . . . . . . . . . . . . . . . . . O 5 N W W K K T ' b.J.Q.",
"P W [ z.z.! F F V 3 . . . . . . . . . . . . . . . . . . . . . . . . . . . . . . . . . . . . . . . . 5 H J V B J m.T.Q.Q.",
"V H W [ z.m.m.N.f.e . . . . . . . . . . . . . . . . . . . . . . . . . . . . . . . . . . . . . . . . > B P W W / z.F.T.Q.",
"m V H W [ C.I.Q.P.N . . . . . . . . . . . . . . . . . . . . . . . . . . . . . . . . . . . . . . . . > m W z.z.z.z.m.S.K.",
"M M V H W k.C.T.P.N . . . . . . . . . . . . . . . . . . . . . . . . . . . . . . . . . . . . . . . . 3 F / z.z.z.z.f.! T ",
"M M m V H R / m.m.c . . . . . . . . . . . . . . . . @ - - - - @ . . . . . . . . . . . . . . . . . . 5 P [ z.z.z.[ Q S d ",
"M m m M B V D J F 6 . . . . . . . . . . . . . . . X t j j j j u @ . . . . . . . . . . . . . . . . . 5 P [ z.c.d.T S M n ",
"V D F F F K T F a = . . . . . . . . . . . . @ ; ; < h $.2.$.2.l < ; : # . . . . . . . . . . . . . . 3 F W ! / ! R R R R ",
"P R / [ [ m.F.] m = . . . . . . . . . . . . 2 j x } O.:.:.:.:.+.} x k r X . . . . . . . . . . . . . 3 m S S V J z.K.P.J.",
"H R [ z.z.C.P.M.R 6 . . . . . . . . . . . . y X.7.3.w.t.t.t.t.w.3.&.5.i X . . . . . . . . . . . . . 3 B F J F T m.I.Q.Q.",
"M J [ z.z.z.m.F.S.c . . . . . . . . . . . X y X.<.4.p.^.^.^.^.a.0.3.X.i o . . . . . . . . . . . . . 5 H / [ [ [ z.C.P.Q.",
"m D W [ z.z.z.P.T.C . . . . . . . . . . # < f #.w.y.i.a.a.a.a.i.y.w.3.h r # . . . . . . . . . . . . 5 P [ z.c.z.z.m.P.Q.",
"M V P / [ z.z.F.F.b . . . . . . . . . . < | @.>.i.j.t.>.>.>.>.r.j.a.4.@.| r . . . . . . . . . . . . 5 H / z.z.z.z.m.K.T.",
"M V P P R W / { / 0 . . . . . . . . . . r  .<.>.s.^.t.-.*.-.*.e.^.g.0.3.X.y . . . . . . . . . . . . 3 V R / _ / R R ! ] ",
"M V K H V F P J m > . . . . . . . . . . 2 ..<.>.i.^.t.,.;.;.;.e.j.s.9.<.X.y . . . . . . . . . . . . , m J P P P F S D D ",
"m M V B m m V V a = . . . . . . . . . . r  .<.>.s.^.t.-.*.-.*.e.^.g.0.3.X.y . . . . . . . . . . . . 6 K K Z V F / v.z.f.",
"V V V S D F D S d > . . . . . . . . . . < k @.>.u.h.y.9.8.8.8.t.h.a.4.@.| r . . . . . . . . . . . . q ) Q S M G b.T.R.R.",
"! ! Q ] m.N.b.E d = . . . . . . . . . . @ < p @.q.t.i.s.s.s.s.i.y.q.#.g < @ . . . . . . . . . . . . q [ f.! W / b.F.R.!.",
"l.l.z.C.P.T.I.v.F 3 . . . . . . . . . . . . y X.<.4.u.~.~.~.~.a.9.<.X.u X . . . . . . . . . . . . . 0 / z.l.z.z.[ f.C.K.",
"W / z.m.C.C.C.F.m.c . . . . . . . . . . . . y X.6.2.q.e.e.e.e.q.3.o.5.i X . . . . . . . . . . . . . 9 U / / k.z.R G K T ",
"P W [ z.z.[ ] m.M.c . . . . . . . . . . . . < f j k O.=.=.=.=.O.l j j r X . . . . . . . . . . . . . 5 F K K W ! F M F K ",
"P U W / z.! F J F 6 . . . . . . . . . . . . @ - # : g $.$.$.$.h < # - @ . . . . . . . . . . . . . . 3 m V V S S M F z.F.",
"H K P W / K M m a = . . . . . . . . . . . . . . . X r f f f f y o . . . . . . . . . . . . . . . . . 3 V J F L L V D f.D.",
"V D P K D B M M d > . . . . . . . . . . . . . . . . o # # # # @ . . . . . . . . . . . . . . . . . . 0 / [ [ C.S.R M D J ",
"m B F V M F Q ' T 8 . . . . . . . . . . . . . . . . . . . . . . . . . . . . . . . . . . . . . . . . q [ m.c.F.F.v.R V d ",
"m M B M M ! J.T.F.c . . . . . . . . . . . . . . . . . . . . . . . . . . . . . . . . . . . . . . . . q [ m.z.z.m.F.C.T m ",
"m V J K P [ F.Q.I.N . . . . . . . . . . . . . . . . . . . . . . . . . . . . . . . . . . . . . . . . 9 ^ z.z.z.z.F.F.v.] ",
"m F / z.z.z.m.P.P.N . . . . . . . . . . . . . . . . . . . . . . . . . . . . . . . . . . . . . . . . 5 P [ z.z.z.z.m.F.I.",
"m G [ m.c.z.z.C.V.c . . . . . . . . . . . . . . . . . . . . . . . . . . . . . . . . . . . . . . . . 3 V W / z.z.Q T ' { ",
"m F ' z.f.d.d.z.( 0 . . . . . . . . . . . . . . . . . . . . . . . . . . . . . . . . . . . . . . . . > n F P / [ T S S D ",
"m V J K K K K P F 5 . . . . . . . . . . . . . . . . . . . . . . . . . . . . . . . . . . . . . . . . = d V Z F T ] v.z.f.",
"V V V V V S D S n > . . . . . . . . . . . . . . . . . . . . . . . . . . . . . . . . . . . . . . . . > m V V B G m.T.R.R.",
"! ! Q W Q { b.Q n = . . . . . . . . . . . . . . . . . . . . . . . . . . . . . . . . . . . . . . . . 4 D W Q Q / v.F.R.!.",
"[ [ [ l.z.F.P.{ m = . . . . . . . . . . . . . . . . . . . . . . . . . . . . . . . . . . . . . . . . 5 H / [ z.z.z.m.S.J.",
"^ W W / z.m.m.! m = . . . . . . . . . . . . . . . . . . . . . . . . . . . . . . . . . . . . . . . . 3 B P ^ [ z.z.[ Q T ",
"P P P ^ z.z.z.R m = . . . . . . . . . . . . . . . . . . . . . . . . . . . . . . . . . . . . . . . . = n F P ) z.z.[ F d "
};
