/* XPM */
static char *exit4[] = {
/* columns rows colors chars-per-pixel */
"60 60 193 2 ",
"   c None",
".  c #000000",
"X  c #030B05",
"o  c #0C0B0B",
"O  c #041207",
"+  c #061409",
"@  c #08150A",
"#  c #071A0B",
"$  c #081C0C",
"%  c #161414",
"&  c #191614",
"*  c #1F1C1B",
"=  c #1B1817",
"-  c #100E0C",
";  c #231D1B",
":  c #201617",
">  c #09220E",
",  c #0B2610",
"<  c #0C2C12",
"1  c #102D14",
"2  c #0F3215",
"3  c #0E3816",
"4  c #0F3C18",
"5  c #113B19",
"6  c #123617",
"7  c #26211E",
"8  c #28221F",
"9  c #242120",
"0  c #2A2524",
"q  c #2D2A2A",
"w  c #322D2C",
"e  c #312A25",
"r  c #37302C",
"t  c #343131",
"y  c #393435",
"u  c #3D3A3A",
"i  c #3B3837",
"p  c #463D3A",
"a  c #13451C",
"s  c #154A1F",
"d  c #18481F",
"f  c #1A4B21",
"g  c #184B20",
"h  c #165321",
"j  c #1B5324",
"k  c #1B5C26",
"l  c #1C5B26",
"z  c #235A2A",
"x  c #1C6429",
"c  c #1D6A2B",
"v  c #1B6027",
"b  c #1F732F",
"n  c #22652C",
"m  c #227631",
"M  c #247A33",
"N  c #2C7836",
"B  c #317638",
"V  c #347D3B",
"C  c #2C6C33",
"Z  c #4D423C",
"A  c #52453E",
"S  c #464242",
"D  c #4B4544",
"F  c #4D4548",
"G  c #534740",
"H  c #564943",
"J  c #594C45",
"K  c #534D4D",
"L  c #5A4F49",
"P  c #5D524C",
"I  c #5D5553",
"U  c #5C5555",
"Y  c #61544E",
"T  c #625651",
"R  c #655955",
"E  c #685D57",
"W  c #655D5B",
"Q  c #695E5A",
"!  c #6C615E",
"~  c #70635E",
"^  c #676060",
"/  c #6C6463",
"(  c #6F6868",
")  c #6E6768",
"_  c #716662",
"`  c #746965",
"'  c #756D6B",
"]  c #796E6B",
"[  c #786C67",
"{  c #7B716E",
"}  c #766F70",
"|  c #777070",
" . c #7C7473",
".. c #7F7877",
"X. c #7F7878",
"o. c #7E7778",
"O. c #817672",
"+. c #847976",
"@. c #847C7C",
"#. c #897E7B",
"$. c #81746F",
"%. c #268236",
"&. c #288237",
"*. c #2C8339",
"=. c #2B8D3C",
"-. c #278638",
";. c #34823D",
":. c #338A3E",
">. c #2E933F",
",. c #3B8B43",
"<. c #3C8642",
"1. c #2F9840",
"2. c #319541",
"3. c #359D44",
"4. c #3D9647",
"5. c #34A246",
"6. c #3AAC4B",
"7. c #38A549",
"8. c #3BB14D",
"9. c #2FA043",
"0. c #428F47",
"q. c #439B4B",
"w. c #46964B",
"e. c #41A34C",
"r. c #40AD4F",
"t. c #44AD50",
"y. c #4DA051",
"u. c #57AD5A",
"i. c #45B353",
"p. c #48B454",
"a. c #4ABA57",
"s. c #4FBA59",
"d. c #52BC5C",
"f. c #59BC5F",
"g. c #59B35C",
"h. c #5DBC61",
"j. c #62B461",
"k. c #64BB64",
"l. c #6ABC67",
"z. c #57C05F",
"x. c #5AC261",
"c. c #63C365",
"v. c #67C668",
"b. c #6BC369",
"n. c #67C869",
"m. c #6DCB6D",
"M. c #61C866",
"N. c #72C56D",
"B. c #71CC6F",
"V. c #75CE71",
"C. c #79CC73",
"Z. c #77C770",
"A. c #7CD276",
"S. c #79D274",
"D. c #87807F",
"F. c #8B817E",
"G. c #80D077",
"H. c #84D47A",
"J. c #8AD67E",
"K. c #8AD87E",
"L. c #867F80",
"P. c #878080",
"I. c #8B8484",
"U. c #8F8888",
"Y. c #8E8788",
"T. c #918683",
"R. c #948987",
"E. c #938B8A",
"W. c #988E8C",
"Q. c #9B918F",
"!. c #979090",
"~. c #9D9595",
"^. c #9B9393",
"/. c #978F90",
"(. c #A09796",
"). c #A29897",
"_. c #A2999A",
"`. c #A69D9D",
"'. c #A59C9B",
"]. c #A99F9E",
"[. c #AAA09F",
"{. c #AEA5A5",
"}. c #ACA3A3",
"|. c #B0A7A7",
" X c #B6ACAC",
".X c #B9AFAF",
"XX c #B1A7A7",
"oX c #BCB2B2",
"OX c #C1B7B7",
"+X c #8DD980",
"@X c #8ED780",
"#X c #93DA83",
"$X c #98DD87",
/* pixels */
"                                                        oXoXoXoXoXoX                                                    ",
"                                                        _.}.}.}.}.|.                                                    ",
"                                      I.I.I._.|.+.J A R @.E.E.E.E._. XT.Y G J                                           ",
"                                    Y.I.I.I._.XXO.H A Y  .I.I.I.I.!. XT.Y P Q `                                         ",
"                          oX).! R @.I.I.I.I._.|.+.J G Y  .I.I.I.I.!. XT.Y ! @.I.E.}.].` H                               ",
"                        E._.!.#.{ ] {  .@.I.!._.R.{ T Y  .I.I.I.I.I.I.` P _ I.I.E.}.}.` H A                             ",
"                  H P ' I.I.E.}.W.Q I ^  .I.I.E._._.[ Y { I.I.I.I.{ R J P ` I.I.E.}._.` H J Q @.U.                      ",
"                A H P _ @.P.E._.I.Y H T ^  .@.I.}. X$.Y ' @.@.@.@.^ J P _  .I.!._.E.{ T L Q { @.E.|.                    ",
"              T P J L W ' @.I.I.O.R J J T ^  .I._.)._ H I ^ ^ ^ ^ R P ! @.I.E._._.{ P J R  .I.I.!. X X                  ",
"            I.T.F.~ J J R ' X.P.I.T.{ Y L R `  .^ D w 9 0 q q q q p R  .U._.[.E.O.] ` ` { @.I.I.!. X(.Y                 ",
"            I._.}.+.Y P R Q ' @.!.}.T.L p Z P I q . . . . . . . . 9 K ^  .E.!.] Y ' I.I.I.U.E.E.!.}.F.R T               ",
"        J ` I.!.!.F. .I.F._ ! @.!._.' q & * 7 9 o . . . . . . . . o 9 q w i S D P _ X.P.E._.}.}.Q.O.` { E..X            ",
"        J ! @.P.@.P.E.}.].Q G ^ | ' D o . . . . . . . . . . . . . . . . . . . 8 Z K W @.!._.}.[.I.Q ^ I._.XX X          ",
"        J R ' | | @.E. X_.D & 9 0 0 * . . . . . . . . . . . . . . . . . . . . o & & y I.].+.` ` ` { @.I.E.!.}.oX        ",
"      H J P W W ! ' I.(.F.q . . . . . . . . . . . . . . . . . . . . . . . . . . . . % ^ @.K p H ^ @.I.I.I.I.!._.        ",
"    J J J J L L P ! ' ` P * . . . . . . . . . . . . . . . . . . . . . . . . . . . . . * 9 % 0 P ' I.I.I.I.I.{ ~         ",
"    J J J P R ! _ ! T Z e - . . . . . . . . . . . . . . . . . . . . . . . . . . . . . . . . * I  .I.I.I.@.{ R G         ",
"    J H J Q +.!.).O.H 8 o . . . . . . . . . . . . . . . . . . . . . . . . . . . . . . . . . * I  .I.I.I.' Y J H         ",
"    J J I ` I._.].E.! 0 . . . . . . . . . . . . . . . . . . . . . . . . . . . . . . . . . . % y U  .+.' R H P ! F.      ",
"    J P !  .I.I.E.].Q.u . . . . . . . . . . . . . . . . . . . . . . . . . . . . . . . . . . . o w W ^ Y J L _ I._.oX    ",
"    H P ^ | X.@.I._./.u . . . . . . . . . . . . , a s a a a a s a < . . . . . . . . . . . . . . ; K ! ! ! _  .E.}.oX    ",
"    J T ^ ^ (  .I.E. .t . . . . . . . . . . . O l 3.5.3.3.3.3.5.5.n @ . . . . . . . . . . . . . * G _ @.I.I.I.E._. X    ",
"  @.` ! R T R Q _ ' W 0 . . . . . . . . > s h l w.m.V.m.m.m.m.B.B.y.n h g , . . . . . . . . . . 7 P { I.E.U.Y.I.#.+.    ",
"I.I.I.{ T J J J J J p = . . . . . X X X f 3.6.r.b.#X#X#X#X#X#X#X#XN.t.6.7.z O X X . . . . . . . 9 I  .L.I.D.I.@._ R     ",
" .@.I.@.' R H A A r ; o . . . . O f v v 0.N.S.V.m.n.n.n.n.n.n.n.n.m.V.S.B.w.v v j @ . . . . . . o q K ' ' ! ! _ O.R.].oX",
"^ ' @.I.I.{ R R P 0 . . . . . X 5 =.6.r.c.J.#XJ.g.2.>.2.2.2.2.>.2.u.H.#X@Xb.t.6.1.s X . . . . . . . q W Q P L E E. XoXoX",
"P W ' @.I.E.E.Q.F.u . . . . @ j %.5.s.V.V.c.M.f.B 5 3 5 5 5 5 3 5 C g.M.c.B.V.d.5.-.l @ . . . . . . 7 K ^ ' '  .I._. XoX",
"H P W ' @.!.|.oX}.K . . . . > &.8.i.c.H.k.2.=.&.5 . . . . . . . . 3 m =.=.g.H.b.i.8.=.3 . . . . . . 7 H ' I.I.I.I.E.(.[.",
"J J P W ' P.!. X|.K . . . . > %.s.V.S.x.;.5 < < O . . . . . . . . X < < 6 B d.V.Z.z.=.< . . . . . . 0 R  .I.I.I.I.F.{ _ ",
"J J H P W `  .W.E.D . . . O g 4.c.G.l.:.a . . . . . . . . . . . . . . . . 5 *.j.H.n.q.j @ . . . . . q ^ @.I.I.I.@.] Y A ",
"J H H J L P T Q R w . . O l q.N.S.f.;.6 X . . . . . . . . . . . . . . . . X < N d.V.Z.q.v @ . . . . q ^ @.I.U.D._ Y J G ",
"P T R R R ! _ R Z ; . . # m d.+XH.i.c O . . . . . . . . . . . . . . . . . . X l 6.H.#Xx.%.> . . . . 0 R ' {  .{ ` ` ` ` ",
"^ `  .@.@.E._.+.H ; . . @ m s.J.H.p.c O . . . . . . . . . . . . . . . . . . X l r.S.+Xz.%.> . . . . 9 H Y Y P Q I.[.}.].",
"W ` @.I.I.!.}.W.` w X # j q.c.V.j.V a X . . . . . . . . . . . . . . . . . . X 5 N u.V.v.y.z , X . . 0 L R Q R _ E.|.oXoX",
"J Q @.I.I.I.E._.(.D @ k e.Z.H.d.*.1 X . . . . . . . . . . . . . . . . . . . . . , N d.S.Z.t.c # . . q W  .@.@.@.I.!.}.oX",
"H T ' @.I.I.I.}. XK @ c a.K.J.s.b O . . . . . . . . . . . . . . . . . . . . . . X v i.H.+Xd.m @ . . q ^ @.I.U.I.I.E.}.oX",
"J P ^  .@.I.I._._.F @ v p.H.J.s.m @ . . . . . . . . . . . . . . . . . . . . . . O c p.H.J.s.m @ . . q W  .I.I.I.I.E.[. X",
"J P ^ ^ ` '  .#. .y @ v p.H.J.s.m @ . . . . . . . . . . . . . . . . . . . . . . O c p.H.J.s.m @ . . 0 P `  .o. .` ` { +.",
"J P ! W P R ^ Q H ; O c p.H.J.s.m @ . . . . . . . . . . . . . . . . . . . . . . O c p.H.J.d.m @ . . 8 H Q ^ ^ ^ R Y T T ",
"H J P L H H P P Z ; O c p.H.J.s.m @ . . . . . . . . . . . . . . . . . . . . . . O c p.H.J.d.m @ . . w ! ! I P R  .T.I.F.",
"P P P Y T R T Y A ; O c p.H.J.s.m @ . . . . . . . . . . . . . . . . . . . . . . O c p.H.J.d.m @ . . u X.] Y J E E. X.X.X",
"{ { ] +.E.Q.R.[ A : O c a.K.J.s.b O . . . . . . . . . . . . . . . . . . . . . . X v i.H.+Xd.m @ . . u @.F.{ '  .R._..XOX",
"P.I.I.!.}. X|.T.R 0 O h 4.N.H.h.;.6 X . . . . . . . . . . . . . . . . . . . . X 1 N d.S.Z.e.v # . . y  .I.P.I.I.@.F.!.[.",
"}  .I.E.!.!.!._.E.p . O f 4.c.Z.l.:.s X . . . . . . . . . . . . . . . . . . X a ;.j.Z.c.q.j @ X . . t )  . .L.I.` E ! _ ",
"^ ' @.I.I.@.+.E.W.D . . # m s.K.H.p.c O . . . . . . . . . . . . . . . . . . X l i.H.#Xz.%.> . . . . q R ! ! ' { R J R ! ",
"^ ( '  .I.{ R Q R w . . # m d.K.H.i.c O . . . . . . . . . . . . . . . . . . X l r.A.#Xx.%.> . . . . 9 H P P Y Y J R I._.",
"W ! ^ ' { ! J H Z ; . . O j ,.l.Z.h.,.5 O . . . . . . . . . . . . . . . . O 5 V f.V.N.0.l @ . . . . 0 P Q R ~ ~ P T F.).",
"L T ^ ! T L J J A 7 . . . X 5 2.x.H.b.2.s X . . . . . . . . . . . . . . . a :.k.H.c.3.f O . . . . . y  .@.@.!.(.` J T E ",
"H L R P J R ] O._ r . . . . > %.a.B.V.c.,.a 3 3 O . . . . . . . . O 3 3 a V h.V.V.s.=.< . . . . . . u @.E.U._._.T.` P A ",
"H J L J J { ]. X_.D . . . . , &.6.6.c.H.l.3.1.=.a . . . . . . . . 6 *.1.3.k.H.c.i.6.=.3 . . . . . . u @.E.I.I.E._.!._ H ",
"H P Q ! ^ @._.oX|.K . . . . O g m 9.s.m.V.m.m.k.V s a a a a a a a B h.m.m.B.B.d.5.m j @ . . . . . . t | I.I.I.I._._.T.+.",
"H R  .I.I.I.E.}.}.K . . . . . . 5 =.7.7.k.J.$XJ.h.5.3.3.3.3.3.3.3.g.H.$X@Xc.6.7.>.a X . . . . . . . q ^ @.I.I.I.I.E._.|.",
"H E @.E.U.I.I.!.!.S . . . . . . O a j j <.b.V.m.m.m.m.m.m.m.m.m.m.m.m.V.b.0.l j s @ . . . . . . . . 0 P '  .I.I.] _ O.#.",
"H R O.I.F.D.D.I...y . . . . . . . . . X d 2.5.7.b.#X#X#X#X#X#X#X#XN.e.5.3.j X . . . . . . . . . . . 7 G R ^  .@._ Y Y T ",
"H P Q ! ! ! ! ^ R q . . . . . . . . . . # a a j 0.v.m.n.n.n.n.m.m.w.j a a > . . . . . . . . . . . . ; A P I R _ +.T.I.F.",
"P P P P P Y T Y G 7 . . . . . . . . . . . . . X j 2.3.2.2.2.2.3.2.v O . . . . . . . . . . . . . . . 7 H P P L E E. X.X.X",
"{ { ] ' ] #.R.] G ; . . . . . . . . . . . . . . > 5 5 5 5 5 5 5 5 > . . . . . . . . . . . . . . . . 0 I ' ] ]  .T._..XOX",
"@.@.@.P.I._.}.#.H ; . . . . . . . . . . . . . . . . . . . . . . . . . . . . . . . . . . . . . . . . q W  .@.I.I.I.E.(.].",
"| ' '  .I.E.E.{ H ; . . . . . . . . . . . . . . . . . . . . . . . . . . . . . . . . . . . . . . . . 0 L ^ | @.I.I.@.] _ ",
"^ ^ ^ | I.I.I.` H ; . . . . . . . . . . . . . . . . . . . . . . . . . . . . . . . . . . . . . . . . ; G R ^ X.I.I.@.R A "
};
