/* XPM */
static char *run0[] = {
/* columns rows colors chars-per-pixel */
"37 40 169 2 ",
"   c None",
".  c #2E1D1D",
"X  c #35201F",
"o  c #371F21",
"O  c #381E21",
"+  c #362020",
"@  c #3A2221",
"#  c #3B2B22",
"$  c #3C3522",
"%  c #3C3A22",
"&  c #442525",
"*  c #492627",
"=  c #4A2D27",
"-  c #4C2728",
";  c #4E2829",
":  c #52292A",
">  c #5C2C2E",
",  c #443226",
"<  c #453B29",
"1  c #51322E",
"2  c #543A34",
"3  c #5F3231",
"4  c #612E2F",
"5  c #642F30",
"6  c #663132",
"7  c #6B3233",
"8  c #6D3C3A",
"9  c #743436",
"0  c #783637",
"q  c #7A3638",
"w  c #713C3B",
"e  c #7D3B3C",
"r  c #3D4522",
"t  c #3E4B23",
"y  c #3F5423",
"u  c #454F25",
"i  c #55462C",
"p  c #485527",
"a  c #415B24",
"s  c #4B4230",
"d  c #5B4839",
"f  c #71433D",
"g  c #426324",
"h  c #436C24",
"j  c #447324",
"k  c #467C25",
"l  c #6A4743",
"z  c #724441",
"x  c #794A44",
"c  c #7B574A",
"v  c #6B5A59",
"b  c #795554",
"n  c #7F6050",
"m  c #7C625F",
"M  c #823A3C",
"N  c #8C3C3E",
"B  c #8F3E40",
"V  c #853E40",
"C  c #923F40",
"Z  c #8D4D4C",
"A  c #954243",
"S  c #9C4244",
"D  c #974847",
"F  c #9F4748",
"G  c #904F4A",
"H  c #9B4B4B",
"J  c #944748",
"K  c #994F51",
"L  c #855C50",
"P  c #9B5455",
"I  c #945F5F",
"U  c #A44446",
"Y  c #A64648",
"T  c #A94748",
"R  c #A54B4B",
"E  c #AD484A",
"W  c #B44A4C",
"Q  c #BA4C4E",
"!  c #A8514F",
"~  c #BD4E50",
"^  c #A55152",
"/  c #AA5552",
"(  c #AD5C5C",
")  c #AA5D56",
"_  c #BC5553",
"`  c #B15955",
"'  c #816453",
"]  c #8F695A",
"[  c #98605F",
"{  c #94685A",
"}  c #AC655A",
"|  c #A36559",
" . c #B7655C",
".. c #B05F60",
"X. c #926C6B",
"o. c #996261",
"O. c #8A7877",
"+. c #8A7D7C",
"@. c #8E7372",
"#. c #927776",
"$. c #AB6A6A",
"%. c #B06162",
"&. c #B56E61",
"*. c #B26A6A",
"=. c #B07967",
"-. c #B57667",
";. c #B47F7F",
":. c #B77475",
">. c #C14F51",
",. c #C5655E",
"<. c #C8665F",
"1. c #C96C63",
"2. c #C37B6B",
"3. c #A7816A",
"4. c #B98670",
"5. c #BF9076",
"6. c #BD987A",
"7. c #C98973",
"8. c #D68E78",
"9. c #D48A76",
"0. c #C39478",
"q. c #C29D7E",
"w. c #CB997C",
"e. c #CA967B",
"r. c #DE927C",
"t. c #8E8382",
"y. c #AB8988",
"u. c #BC8283",
"i. c #BF8C8D",
"p. c #B99797",
"a. c #B79394",
"s. c #BEA7A7",
"d. c #C18787",
"f. c #C08383",
"g. c #C68D8E",
"h. c #D29D80",
"j. c #C78F91",
"k. c #CB9697",
"l. c #C99394",
"z. c #C6A281",
"x. c #CAA583",
"c. c #D3AA87",
"v. c #D9B38D",
"b. c #DEB992",
"n. c #E2AA8A",
"m. c #E3B48F",
"M. c #E1BB93",
"N. c #EABB95",
"B. c #F4BE98",
"V. c #F0BC96",
"C. c #CA9FA0",
"Z. c #C4AEAE",
"A. c #D4ADAE",
"S. c #C5BBBB",
"D. c #C1B1B2",
"F. c #D4BABA",
"G. c #E7C298",
"H. c #F3C19A",
"J. c #F0CA9E",
"K. c #F3CDA0",
"L. c #F6D0A3",
"P. c #FCD5A6",
"I. c #FFD7A8",
"U. c #FFD8A9",
"Y. c #CEC6C6",
"T. c #CCC1C1",
"R. c #DDC2C3",
"E. c #E3CECF",
"W. c #E0C9CA",
/* pixels */
"          + + + + + + + + + + + + @ @ @ @ @ @ @ + + @ @ + @ @ @ @ +       ",
"        o + @ & & * & & & & * * - ; ; : : - ; ; - - ; ; - ; ; ; ; ;       ",
"        o + & : 5 7 7 7 7 7 7 7 7 9 0 q q 0 0 q 0 9 0 q 0 q 0 0 0 9 7     ",
"      @ + @ * 6 M N N N N N N N N S U U U U U U U U U U U U U U U D 9 ; @ ",
"  % % % $ # * 7 N S U U S U U U U E W W W Q ~ Q W W W W W W W Q Q Y q : @ ",
"@ $ r g y % = 7 B S Y U U U U Y U E E W Q Q Q Q W W E E E E E W W U q ; @ ",
"@ % a k h r = 7 A ^ ( ( R D H ( ( ^ R E W W E U E E E E E U E E U C 7 * + ",
"@ % g k j r = 7 J *.u.u.o.Z o.u.d.*.^ Y W U C N C U E W W W E S N 9 : & + ",
"@ $ a j h r = 7 H u.A.Z.#.b @.s.F.d.( E W S M 9 M U W Q Q Q W S q > & @ + ",
"@ $ r a y % = 7 P g.R.T.t.v +.S.W.l.( E W U N q N E Q Q Q Q W U M 5 * @ + ",
"o @ $ % $ # = 7 P j.R.T.t.v +.S.W.l.%.E W E S D U W Q Q Q Q Q W S M 4 & @ ",
"+ @ @ @ @ # , 6 Z i.R.T.t.v +.S.W.l.%.E W Q Q W W Q Q Q Q Q Q Q W U 9 ; @ ",
"+ o o + $ r u i x y.F.T.t.v +.S.W.l.%.E W Q Q ~ ~ Q Q Q Q Q Q Q Q U q : @ ",
"    O @ r g g p d #.Z.S.+.v +.D.R.g.( E W Q Q Q Q Q Q Q Q Q Q ~ ~ E q : @ ",
"      # r j j a s m y.p.X.b X.a.Z.:.^ E W Q Q Q Q Q Q Q Q Q ~ >.~ E q : @ ",
"      # r j j a < l o.$.P Z P $.:.%.! E Q Q Q Q Q Q Q Q Q Q Q ~ Q U 0 : @ ",
"      # r g g r , 3 V R Y S F R R R U Y W Q Q Q W E U U U U U Y U C 9 ; + ",
"      @ $ r r % # > q S U U U U S S U U E W Q W U N q 9 9 9 0 q 0 9 > & + ",
"      + @ # # # & 4 M S U U U U S S U U U E E U N 5 : * - - ; : ; ; & @ + ",
"      + + + @ & > 9 N S U U U U U U U U U U S N 7 ; @ + + + @ @ + + + + + ",
"      + o + & > q N S U E W W W W W W W W S M 7 >                         ",
"      + o + * 7 N H ! `  .,.,.<.,.,.,.,.,.^ w :                           ",
"      + + + * 7 D ^ &.2.9.r.r.r.r.r.r.r.8.-.z ;                           ",
"          + * 7 D } 7.c.m.V.B.B.B.B.H.H.N.0.c 2                           ",
"        . X * 7 D &.e.b.J.P.P.P.P.P.P.P.K.z.' 2                           ",
"+ + + + X @ - 7 D &.w.M.K.P.U.U.U.U.U.U.L.x.' 2                           ",
"+ @ & * ; : > q H &.w.M.K.P.U.I.I.I.U.U.L.x.' 2                           ",
"+ & > 9 q q e N R &.w.b.J.P.I.I.I.I.U.U.L.x.' 2                           ",
"+ & 6 N U Y U U R  .0.v.G.J.L.P.P.P.U.P.J.z.n 2                           ",
"+ & 4 M S E E E R ( -.5.6.q.c.G.K.L.K.H.m.4.c 1                           ",
"+ @ ; 6 M S U Y R ! ) | ] ] 3.x.M.G.M.n.9.} w ;                           ",
"+ + @ & > q N S U R R D e z L 3.q.x.h.9.,.H 6 *                           ",
"+ + + @ & > 9 N S E E U N M x L { =.2.1._ S 6 *                           ",
"    + + @ & : 9 C Y W W E S M 8 f G ^ _ W C 5 *                           ",
"      + + X * > q D E Q Q W N > : 7 N D D q 5                             ",
"              ; > 9 C E W E N > @ * > 5 5 >                               ",
"                * > q C S D 0 : @ @ @ & &                                 ",
"                  : > 7 9 9 > * @ + + +                                   ",
"                  & & * ; ; & @ + + + +                                   ",
"                  @ @ + @ + + + + + + +                                   "
};
