/* XPM */
static char *run2[] = {
/* columns rows colors chars-per-pixel */
"35 40 166 2 ",
"   c None",
".  c #331E1E",
"X  c #341F20",
"o  c #391F21",
"O  c #372020",
"+  c #3B2222",
"@  c #3B2D22",
"#  c #3B3422",
"$  c #3C3B22",
"%  c #432425",
"&  c #4A2627",
"*  c #412C24",
"=  c #4D2728",
"-  c #452D2A",
";  c #4E2928",
":  c #512729",
">  c #54292A",
",  c #5B2B2D",
"<  c #423B24",
"1  c #47302C",
"2  c #50342C",
"3  c #573230",
"4  c #612C2F",
"5  c #652E30",
"6  c #682F31",
"7  c #6C3233",
"8  c #723335",
"9  c #793537",
"0  c #7D3739",
"q  c #7E383A",
"w  c #753B3C",
"e  c #3E4A23",
"r  c #3D4523",
"t  c #3F5223",
"y  c #404424",
"u  c #474927",
"i  c #405623",
"p  c #415C24",
"a  c #574137",
"s  c #514930",
"d  c #684237",
"f  c #426224",
"g  c #436A24",
"h  c #447324",
"j  c #457A25",
"k  c #724A42",
"l  c #655048",
"z  c #765A4B",
"x  c #7B5B4D",
"c  c #715F5E",
"v  c #7C5B58",
"b  c #6F605F",
"n  c #6F6060",
"m  c #803739",
"M  c #833A3C",
"N  c #8B3C3E",
"B  c #903D3F",
"V  c #8F3F40",
"C  c #943F41",
"Z  c #944042",
"A  c #9D4244",
"S  c #964749",
"D  c #9E4648",
"F  c #924B4C",
"G  c #86584D",
"H  c #9E514E",
"J  c #835858",
"K  c #985354",
"L  c #A34446",
"P  c #A94547",
"I  c #A54648",
"U  c #AA4648",
"Y  c #A54B4C",
"T  c #AD494B",
"R  c #B34A4C",
"E  c #BB4D4F",
"W  c #A5514E",
"Q  c #AC504E",
"!  c #A14F50",
"~  c #B74F50",
"^  c #BE4E50",
"/  c #A65953",
"(  c #AC5C55",
")  c #AD5A5B",
"_  c #A95754",
"`  c #B45452",
"'  c #B85050",
"]  c #B55854",
"[  c #BB5B56",
"{  c #BC5F59",
"}  c #B15E5F",
"|  c #B56B5F",
" . c #A25F60",
".. c #B25F61",
"X. c #8C6565",
"o. c #956664",
"O. c #817372",
"+. c #A96264",
"@. c #AA6A6B",
"#. c #A56869",
"$. c #B16162",
"%. c #BB6C60",
"&. c #B26D6E",
"*. c #B87968",
"=. c #A37E7F",
"-. c #BD7C7C",
";. c #B77475",
":. c #C04F51",
">. c #C0695F",
",. c #C0625B",
"<. c #C56C62",
"1. c #CD7267",
"2. c #CA7A6A",
"3. c #C67667",
"4. c #BD8971",
"5. c #BC9B7B",
"6. c #BC9578",
"7. c #C1846F",
"8. c #CB826F",
"9. c #CA8772",
"0. c #D48A75",
"q. c #CC947A",
"w. c #D3957B",
"e. c #9C7F80",
"r. c #A68282",
"t. c #B28C8D",
"y. c #A79C9C",
"u. c #B79C9D",
"i. c #B7A7A7",
"p. c #B7ADAD",
"a. c #B8ABAB",
"s. c #C48C8D",
"d. c #DB9B80",
"f. c #C88F90",
"g. c #CB9696",
"h. c #CA9394",
"j. c #C69C9D",
"k. c #D8A384",
"l. c #DAAC8A",
"z. c #D4A584",
"x. c #E5A487",
"c. c #E6A688",
"v. c #E1AC8A",
"b. c #E3B08D",
"n. c #E9B591",
"m. c #E5BC94",
"M. c #ECBF97",
"N. c #CAAAAB",
"B. c #D3A6A7",
"V. c #D6AFB0",
"C. c #CCBDBE",
"Z. c #DAB0B1",
"A. c #E9C59A",
"S. c #EBC89D",
"D. c #F2C69C",
"F. c #F4C99E",
"G. c #F4CEA1",
"H. c #F5D0A2",
"J. c #FAD6A6",
"K. c #FEDAA9",
"L. c #D4BFC0",
"P. c #D6C8C8",
"I. c #D9C9CA",
"U. c #DDC0C1",
"Y. c #E0C7C7",
"T. c #E0CBCC",
/* pixels */
"          + + + + + + + + + + + + + + + + + + + + + + + + + + +       ",
"        o + + % & = = = = = = > > > > > > > > > > > > > > > > > :     ",
"        o + % , 7 8 8 8 8 8 8 8 8 0 q q 0 0 0 q q q q 0 0 q q 9 4 :   ",
"      @ + % > 8 N C C C C C C C D L U U P U U U U U U L U U U D 9 > + ",
"  r e e $ * , 0 D L L L L L L L L U R E E E E E R R R R R R R U q > + ",
"+ $ t g t < , m D Y Y Y L I Y Y Y U T R E E R R U U U U U T T L 0 > + ",
"+ $ f j f < , m ! $.&. .F K #.&.) Y U R U L D D L U U U U L D N 7 = + ",
"+ $ f j f < > m  .s.j.=.J X.t.j.-.) U R D m 0 B U R R R R L N 7 > % + ",
"+ # i g t < > m &.B.L.y.c O.i.U.f.} L I C 0 8 B T E E E E L m 4 % + + ",
"+ @ $ e $ * , m &.Z.I.y.n O.p.T.g.$.P T L C N D R ^ ^ ^ E R D 0 , % + ",
"+ + @ @ @ * > q @.V.I.y.b O.i.I.g.$.U R R T U R E E ^ ^ E E R D 8 > + ",
"+ + + + # y u d o.N.P.y.b O.i.T.g.$.P R E ^ ^ ^ E E E E E ^ ^ U q > + ",
"      @ e f f s v u.C.y.b O.i.Y.g...U R E ^ ^ E E E E E E ^ ^ U q > + ",
"      # i h g u l e.u.r.v X.t.B.-.) U E E E E E ^ ^ ^ ^ ^ :.^ T q > + ",
"      # i h h u a J @.+.F K @.;.$.T U E E E E E E R E E R E E U 0 > + ",
"      @ t g f y > w S Y D D Y Y Y I L R E E E R L D D D D L U Z 8 = + ",
"      + $ e e # ; 7 C L L L L D D L L U R R T C m 8 7 7 7 8 9 7 , % + ",
"      + @ @ @ * > 8 C L L L L L L L L L U U D 9 , & & & & & = & % + + ",
"      + + + % > 7 m C L P P P P P P P L L C 0 , % O + + + + + + + + + ",
"      + o + & 7 N D I T R ' ' ' R ' ' R D 0 , =                       ",
"      + + % > 0 D W ( %.3.1.1.1.1.1.1.<.H 7 =                         ",
"        + + , m W | 7.w.x.x.x.x.x.c.x.d.*.k -                         ",
"        . + > q / *.k.m.D.D.D.D.D.F.G.A.6.z 1                         ",
"+ + + . . + > q / 7.l.A.G.H.H.H.H.J.K.G.5.z 1                         ",
"+ + + % % & 4 m / 7.l.A.G.H.H.H.H.J.K.G.5.z 1                         ",
"+ % > 5 7 7 9 Z ( 7.l.S.G.H.H.H.H.J.K.G.5.z - .                       ",
"+ & 6 m C C C D ( 7.z.A.F.G.H.H.H.J.J.F.6.z - O O                     ",
"+ & 7 N L I L I _ *.q.l.n.D.F.G.G.G.F.n.4.G 3 % + +                   ",
"+ % > 8 N D L L Y ( %.3.0.d.b.A.A.m.v.0.%.H q > % +                   ",
"+ + % ; 6 m C L L Y Q ' ,.2.w.k.l.k.0.<.[ T B 4 % +                   ",
"+ + + + = 5 0 C L P U R R { 3.8.9.2.>.' R U Z 7 % +                   ",
"      + % = 5 m D T R R T R ] [ { ] T L D D N 5 %                     ",
"      + O + , m D R R I C N N Z Z V N m 0 0 8 ,                       ",
"        O + , m L R T C 8 , , , , , , > > > >                         ",
"        O % , m D L C 9 > % % % % % % % % %                           ",
"          % > 0 N m 8 , &                                             ",
"          % > 8 0 6 : &                                               ",
"          + % , 4 > %                                                 ",
"          + + % % %                                                   ",
"          + + + +                                                     "
};
