/* XPM */
static char *enemy2[] = {
/* columns rows colors chars-per-pixel */
"60 60 117 2 ",
"   c None",
".  c #382121",
"X  c #3A2D22",
"o  c #3B3322",
"O  c #3C3D22",
"+  c #442525",
"@  c #492727",
"#  c #4B2728",
"$  c #432D2D",
"%  c #4E2829",
"&  c #552B2B",
"*  c #5D2D2E",
"=  c #4E322E",
"-  c #4C2F30",
";  c #543132",
":  c #583E37",
">  c #602E2F",
",  c #632F30",
"<  c #653031",
"1  c #6C3233",
"2  c #6E3C39",
"3  c #743536",
"4  c #793637",
"5  c #793738",
"6  c #76393A",
"7  c #7D3839",
"8  c #3D4223",
"9  c #3F4A23",
"0  c #405424",
"q  c #415B24",
"w  c #594038",
"e  c #67443C",
"r  c #6E413C",
"t  c #74453F",
"y  c #426224",
"u  c #446C25",
"i  c #457325",
"p  c #477F26",
"a  c #6D4B41",
"s  c #6D5245",
"d  c #75574A",
"f  c #7A5549",
"g  c #833A3B",
"h  c #8B3C3E",
"j  c #903E3F",
"k  c #933F41",
"l  c #8E4342",
"z  c #8B4C46",
"x  c #974042",
"c  c #9C4244",
"v  c #8D514A",
"b  c #9A5A51",
"n  c #975758",
"m  c #955C5D",
"M  c #A14446",
"N  c #AA4749",
"B  c #A54C4E",
"V  c #AE494A",
"C  c #B34A4C",
"Z  c #BB4D4F",
"A  c #A25750",
"S  c #A95456",
"D  c #AA5759",
"F  c #AB5A5B",
"G  c #8B6B58",
"H  c #926B59",
"J  c #9F6061",
"K  c #9F6768",
"L  c #8B7373",
"P  c #887A7A",
"I  c #B26768",
"U  c #B46A6C",
"Y  c #AB7161",
"T  c #AD7A66",
"R  c #B66F70",
"E  c #B97374",
"W  c #BB7C7D",
"Q  c #C3685F",
"!  c #478026",
"~  c #499027",
"^  c #A18168",
"/  c #A8876C",
"(  c #A98A6F",
")  c #BA876F",
"_  c #AE8D71",
"`  c #B88C72",
"'  c #B49375",
"]  c #BD9B7B",
"[  c #CC8873",
"{  c #C09377",
"}  c #D0987D",
"|  c #9E8484",
" . c #9E8B8B",
".. c #9E9393",
"X. c #BE898A",
"o. c #C08485",
"O. c #C89495",
"+. c #CD9B9C",
"@. c #CCA584",
"#. c #D1AF89",
"$. c #D8B48E",
"%. c #DDBB92",
"&. c #E5BE95",
"*. c #D1A5A6",
"=. c #D5ACAD",
"-. c #D7AFB0",
";. c #DBB8B9",
":. c #E6C398",
">. c #F0CB9F",
",. c #F7CBA0",
"<. c #D6C2C3",
"1. c #DCD0D0",
"2. c #E1C4C5",
"3. c #E8D7D7",
"4. c #E2DFDF",
"5. c #F0E6E7",
"6. c #F9F8F8",
/* pixels */
"                                                                                                                        ",
"                                                                                                                        ",
"                                                                                                                        ",
"                                                                                                                        ",
"                                                                                                                        ",
"                                                                                                                        ",
"                                                                                                                        ",
"                                                                                                                        ",
"                                                                                                                        ",
"                                                                                                                        ",
"                                                                                                                        ",
"                                                                                                                        ",
"                                                                                                                        ",
"                                                                                                                        ",
"                                                                                                                        ",
"                                                                                                                        ",
"                                                                                                                        ",
"                                                                                                                        ",
"                                                                                                                        ",
"                          . . . . . . . . . . . . . . . . . . . . . . . . . . . . . .                                   ",
"                          % % % % % % % % % % % % % % % # @ @ @ @ @ @ @ + . . X o X . .                                 ",
"                      . , g h h h h h h h h h h h h h g 7 4 4 4 4 4 4 4 , + o 0 y O . . .                               ",
"                      . 1 N Z Z Z Z Z Z Z Z Z Z Z Z Z C N M M M M M M M 7 % O u ! 0 X . . .                             ",
"                      . 1 N C C V V V V V C Z Z Z C C N M M M M M M M M 7 % X 9 q q q 8 . .                             ",
"                      . 1 N C M M M M M M V Z Z Z C M M M M M M M M M M 7 % . . o u ~ q . .                             ",
"                      . & 3 h M N N N N N x g c C C M D W X.m 6 K O.E B 7 % X 8 q q y 9 .                               ",
"                      . . + 1 c Z Z Z Z C g @ 3 V C M U ;.1.L -  .5.*.D 7 % O u p 0 X X                                 ",
"                      . @ > g N Z Z Z Z Z k 1 h C C M R 2.4.P $ ..6.-.F 7 % o q u q 9 O                                 ",
"                      . , k N C Z Z Z Z Z C M V Z C M R 2.4.P $ ..6.-.F 7 % . o 8 y p 0 .                               ",
"                      . 1 N Z Z Z Z Z Z Z Z Z Z Z C M R 2.4.P $ ..6.-.F 7 % . . X 0 i 9 . .                             ",
"                      . 1 N Z Z Z Z Z Z Z Z Z Z Z C M R 2.4.P $ ..6.-.F 7 % . . . o 8 o . .                             ",
"                      . 1 N Z Z Z Z Z Z Z Z Z Z Z C M I =.<.L ; | 3.+.S 7 % . . . . . . .                               ",
"                      . 1 N Z Z Z Z Z Z Z Z Z Z Z C M S E W n 7 J o.U B 7 % . . . .                                     ",
"                      . < c V V V V V V V V V V V N M M M M M M M M c x 3 # . . +                                       ",
"                      . % 1 3 3 3 3 3 3 3 3 3 3 3 g x M M M M M M M h 1 & + + > 1 & . . . . . . .                       ",
"                      . . . . . . . . . . . . . . * h M M M M M M M 3 + . . & g j > . . . . . . . .                     ",
"                      . . . . . . . . . . . . . . e Y [ [ [ [ [ [ [ T G f 2 3 h x 7 1 1 3 3 3 > + .                     ",
"                                                . d @.,.,.,.,.,.,.,.&.#.) A c c c c c M C C C g % .                     ",
"                                                . s ^ ' ' ] $.>.>.>.:.%.` v g k M M M N C M h 3 %                       ",
"                                                    : w w s ( %.%.%.%.%./ e * g M M M M M 7 & %                         ",
"                                                    . . . = H } } } { _ H r 3 k M M c k g < +                           ",
"                                                        . % z Q Q Q b a t l M V C N c 3 & %                             ",
"                                                        . # g Z Z C g + < M Z Z Z N c 1 . .                             ",
"                                                        . # g Z C N 5 + < M Z Z Z N c 1 . .                             ",
"                                                        . @ g V M k 1 + < M Z Z C M h < .                               ",
"                                                          @ < 3 1 < & . < M Z C M g , &                                 ",
"                                                            . . . . . . , c C M h * .                                   ",
"                                                              . . . . . % 1 5 3 < % .                                   ",
"                                                                      . . . + . . . .                                   ",
"                                                                      . . . . . . . .                                   ",
"                                                                                                                        ",
"                                                                                                                        ",
"                                                                                                                        ",
"                                                                                                                        ",
"                                                                                                                        ",
"                                                                                                                        ",
"                                                                                                                        ",
"                                                                                                                        ",
"                                                                                                                        ",
"                                                                                                                        "
};
