/* XPM */
static char *enemy1[] = {
/* columns rows colors chars-per-pixel */
"60 60 106 2 ",
"   c None",
".  c #392121",
"X  c #392A21",
"o  c #3B3322",
"O  c #3C3B22",
"+  c #442525",
"@  c #4A2727",
"#  c #462C2A",
"$  c #4C2A29",
"%  c #542A2B",
"&  c #5B2C2D",
"*  c #48302C",
"=  c #573B34",
"-  c #612F2F",
";  c #632F30",
":  c #643131",
">  c #6A3233",
",  c #6F3937",
"<  c #6F3D3A",
"1  c #793637",
"2  c #7B3738",
"3  c #743838",
"4  c #7D3839",
"5  c #3E4623",
"6  c #3F4B23",
"7  c #3F5023",
"8  c #405323",
"9  c #415B24",
"0  c #67433C",
"q  c #7D403D",
"w  c #436324",
"e  c #446C25",
"r  c #457525",
"t  c #467925",
"y  c #754F4F",
"u  c #765B4B",
"i  c #7C5F4F",
"p  c #665454",
"a  c #765050",
"s  c #833A3B",
"d  c #8B3C3E",
"f  c #933F41",
"g  c #804943",
"h  c #814C4D",
"j  c #964042",
"k  c #9B4244",
"l  c #904749",
"z  c #904849",
"x  c #9C4D4A",
"c  c #815349",
"v  c #83594D",
"b  c #A24446",
"n  c #A44748",
"m  c #AB4749",
"M  c #A34B4C",
"N  c #AE484A",
"B  c #B44A4C",
"V  c #BC4D4F",
"C  c #A1504D",
"Z  c #A9514F",
"A  c #A75052",
"S  c #AA5759",
"D  c #AB585A",
"F  c #B25A55",
"G  c #8B6D59",
"H  c #8F715C",
"J  c #997B63",
"K  c #A96365",
"L  c #B56C6E",
"P  c #A37461",
"I  c #AB7663",
"U  c #BB7C69",
"Y  c #B66F71",
"T  c #BC7B7C",
"R  c #C15F5A",
"E  c #488A26",
"W  c #9F8067",
"Q  c #A38369",
"!  c #AC816A",
"~  c #B0856D",
"^  c #BA997A",
"/  c #C78D75",
"(  c #CD8F77",
")  c #CB9078",
"_  c #D4957C",
"`  c #B28383",
"'  c #B79899",
"]  c #B8999A",
"[  c #BFB7B7",
"{  c #BFB8B8",
"}  c #C68E8F",
"|  c #C68E90",
" . c #C79091",
".. c #CC9A9B",
"X. c #D3B18B",
"o. c #DBB991",
"O. c #E1BE94",
"+. c #C1BABA",
"@. c #DCB9BA",
"#. c #E8C499",
"$. c #EAC69B",
"%. c #EDC89C",
"&. c #F3CCA0",
"*. c #F9D2A4",
"=. c #FED6A8",
"-. c #F2E5E6",
/* pixels */
"                                                                                                                        ",
"                                                                                                                        ",
"                                                                                                                        ",
"                                                                                                                        ",
"                                                                                                                        ",
"                                                                                                                        ",
"                                                                                                                        ",
"                                                                                                                        ",
"                                                                                                                        ",
"                                                                                                                        ",
"                                                                                                                        ",
"                                                                                                                        ",
"                                                                                                                        ",
"                                                                                                                        ",
"                                                                                                                        ",
"                                                                                                                        ",
"                                                                                                                        ",
"                        . . . . . . . . . . . . . . . . . . . . . . . . . . . . . .                                     ",
"                      % & & & & & & & & & & & & & & % % % % % % % % % + . X O o X .                                     ",
"                    + 1 j j j j j j j j j j j j j j d s s s s s s s 4 & . 5 e 9 o . . .                                 ",
"                  . + s V V V B B B B V V V V V V V N b b b b b b b k > . 6 t e 5 o . .                                 ",
"                  . + s V B m m m m m N B V V V B m b b b b b b b b k > . o 6 9 w 9 O .                                 ",
"                  . + 4 B m b b b b b b N B V V N b M A M k k M A M k > . . X 6 t r 5 .                                 ",
"                  . . & 1 f m N N N N b d 4 k V N b L ..` h h ` ..L k > . O 9 9 9 8 O                                   ",
"                  . . . . 1 B V V V V b : @ s V N b } -.+.p p [ -.| k > . 8 E r O .                                     ",
"                  . . & 1 j B V V V V N d 4 k V N b | -.+.p p { -. .k > . O 9 w 9 7 O                                   ",
"                  . + 2 B B V V V V V V B B B V N b | -.+.p p { -. .k > . . X 6 t r 5 .                                 ",
"                  . + s V V V V V V V V V V V V N b | -.+.p p { -. .k > . . . O 9 9 O .                                 ",
"                  . + s V V V V V V V V V V V V N b | -.+.p p { -. .k > . . . X o o X .                                 ",
"                  . + s V V V V V V V V V V V V N b T @.] a y ' @.T k > . . . . . . . .                                 ",
"                  . + s V V V V V V V V V V V V N b S Y K z l K Y D k > . . . .                                         ",
"                  . + 1 b b b b b b b b b b b b b b b b b b b b k f d ; . + @ @                                         ",
"                  . . % > > > > > > > > > > > > s k b b b b b b j 1 & @ . % 1 > $ . . . . . . .                         ",
"                  . . . . . . . . . . . . . . . , M Z Z Z Z Z Z x < # # + > f s % + + + + + . . .                       ",
"                                          . . . v ( _ _ _ _ _ _ ) ! H c 1 s k f 2 1 4 s s 4 & . .                       ",
"                                            . . J &.*.*.*.=.=.=.*.#.X.U n b b b b b B V V B 1 . .                       ",
"                                              . i W Q Q ^ o.%.%.#.O.X.P 3 s k b b b m m f 4 : .                         ",
"                                                # $ * * u ^ o.o.o.o.X.G # > f b b b b f > + +                           ",
"                                                  . . . 0 I ( ( / ~ J v > s b n b j s 1 & .                             ",
"                                                    . . : C R R F g = q b N B B b d ; @                                 ",
"                                                      . & s j j d & . 2 B V B b d 1 % .                                 ",
"                                                          % & & % + . 2 B B m d : %                                     ",
"                                                          . . . . . . > k k d 1 $ .                                     ",
"                                                              . . . . $ : - & %                                         ",
"                                                              . . . . . . . . .                                         ",
"                                                                                                                        ",
"                                                                                                                        ",
"                                                                                                                        ",
"                                                                                                                        ",
"                                                                                                                        ",
"                                                                                                                        ",
"                                                                                                                        ",
"                                                                                                                        ",
"                                                                                                                        ",
"                                                                                                                        ",
"                                                                                                                        ",
"                                                                                                                        ",
"                                                                                                                        ",
"                                                                                                                        ",
"                                                                                                                        "
};
