/* XPM */
static char *enemy0[] = {
/* columns rows colors chars-per-pixel */
"60 60 114 2 ",
"   c None",
".  c #392121",
"X  c #3A2C22",
"o  c #3B3222",
"O  c #3C3A22",
"+  c #452526",
"@  c #492727",
"#  c #4B2728",
"$  c #442F2F",
"%  c #4E2829",
"&  c #532A2B",
"*  c #5B2D2D",
"=  c #4D3131",
"-  c #563533",
";  c #573D36",
":  c #612F2F",
">  c #632F30",
",  c #663031",
"<  c #6D3233",
"1  c #743536",
"2  c #793637",
"3  c #7B3738",
"4  c #773A3B",
"5  c #7D393A",
"6  c #3D4423",
"7  c #3F4E23",
"8  c #405324",
"9  c #415C24",
"0  c #5E433A",
"q  c #66443C",
"w  c #71423D",
"e  c #426124",
"r  c #436A25",
"t  c #457525",
"y  c #7D5B4D",
"u  c #823A3B",
"i  c #8A3C3E",
"p  c #903E3F",
"a  c #933F41",
"s  c #8D4945",
"d  c #964142",
"f  c #9A4243",
"g  c #98544D",
"h  c #975658",
"j  c #955B5C",
"k  c #A14345",
"l  c #A74648",
"z  c #A54C4E",
"x  c #AE484A",
"c  c #B44A4C",
"v  c #BC4D4F",
"b  c #A95454",
"n  c #AA5759",
"m  c #AB585A",
"M  c #BB5754",
"N  c #996557",
"B  c #946E5B",
"V  c #A86358",
"C  c #BD645C",
"Z  c #B26A5E",
"A  c #B9685E",
"S  c #8B6F6F",
"D  c #967761",
"F  c #897374",
"G  c #867878",
"H  c #A06061",
"J  c #A06768",
"K  c #B36A6B",
"L  c #B67E69",
"P  c #B77071",
"I  c #B87374",
"U  c #B77B7C",
"Y  c #BE7D7F",
"T  c #C1645D",
"R  c #C8665F",
"E  c #C3685F",
"W  c #478026",
"Q  c #498B26",
"!  c #4A9427",
"~  c #B69175",
"^  c #BA9477",
"/  c #C08670",
"(  c #CC8973",
")  c #D28F78",
"_  c #C09477",
"`  c #CB957A",
"'  c #D0997D",
"]  c #9F8585",
"[  c #9F8C8C",
"{  c #9F9494",
"}  c #BD8889",
"|  c #C08586",
" . c #C89596",
".. c #CC9A9B",
"X. c #D0A785",
"o. c #D2AA87",
"O. c #D6B38C",
"+. c #DDB790",
"@. c #DDBB92",
"#. c #E6A487",
"$. c #EBB692",
"%. c #D1A4A5",
"&. c #D6AEAF",
"*. c #DCB9BA",
"=. c #EAC399",
"-. c #F0CA9E",
";. c #F7CBA0",
":. c #D5C1C2",
">. c #DBCFCF",
",. c #E2C5C6",
"<. c #E1DEDE",
"1. c #E9D8D8",
"2. c #F1E8E8",
"3. c #FAF9F9",
/* pixels */
"                                                                                                                        ",
"                                                                                                                        ",
"                                                                                                                        ",
"                                                                                                                        ",
"                                                                                                                        ",
"                                                                                                                        ",
"                                                                                                                        ",
"                                                                                                                        ",
"                                                                                                                        ",
"                                                                                                                        ",
"                                                                                                                        ",
"                                                                                                                        ",
"                                                                                                                        ",
"                                                                                                                        ",
"                                                                                                                        ",
"                        . . . . . . . . . . . . . . . . . . . . . . . . . . . . . .                                     ",
"                        % % % % % % % % % % % % % % % # @ @ @ @ @ @ @ + . . X o X . .                                   ",
"                    . & 3 i i i i i i i i i i i i i i u 2 2 2 2 2 2 2 < % X 7 r 6 . . .                                 ",
"                    . * f v v v v v v v v v v v v v c l k k k k k k k i * X e Q 9 X . . .                               ",
"                    . * f v c x x x x x c v v v v c l k k k k k k k k i * X 6 9 9 e 6 X .                               ",
"                    . * f c l k k k k k l c v v c l k k k k k k k k k i * . . . 9 ! r o .                               ",
"                    . % < i f l l l l l f i a x c l z I  .J 4 j } Y n i * X 6 9 9 e 8 o                                 ",
"                    . . + * p v v v v v i * , f c l n %.2.[ = F >.*.K i * X e Q 9 o X                                   ",
"                    . + * 1 f v v v v v f 1 u l c l m &.3.{ $ G <.,.P i * X 7 r 9 7 6                                   ",
"                    . & u l c v v v v v c l l c c l m &.3.{ $ G <.,.P i * . X O 9 W e o .                               ",
"                    . * f v v v v v v v v v v v c l m &.3.{ $ G <.,.P i * . . . 7 t 8 X .                               ",
"                    . * f v v v v v v v v v v v c l m &.3.{ $ G <.,.P i * . . . o 6 o . .                               ",
"                    . * f v v v v v v v v v v v c l b ..1.] - S :.&.K i * . . . . . . . .                               ",
"                    . * f v v v v v v v v v v v c l z K | H 5 h U I b i * . . . .                                       ",
"                    . * i x x x x x x x x x x x x k k k k k k k k f f u & . . + +                                       ",
"                    . @ > 1 1 1 1 1 1 1 1 1 1 1 5 a k k k k k k k i 1 * + . * 1 * . . . . . . .                         ",
"                    . . . . . . . . . . . . . . % 5 k k k k k k k u & . . + 1 f < . . . . . . . .                       ",
"                      . . . . . . . . . . . . . - N ( ( ( ( ( ( ( L B y w 1 i f u < < 1 1 1 , # .                       ",
"                                              . 0 ~ ;.;.;.;.;.;.;.=.O._ V f f k f f k x c c d * .                       ",
"                                                0 D ^ ' #.$.-.-.-.=.@.X./ Z b k k k l x k a 5 * .                       ",
"                                                  ; q g R ) +.@.@.@.@.O.o.` Z k k k k k i : %                           ",
"                                                    + 1 d Z ` ' ' ' ' ' ' ( A l k k a u < % .                           ",
"                                                      & * s C E E E E E E T M c l k u * &                               ",
"                                                      . . 2 c v c c l k k k c v x k 1 + .                               ",
"                                                      . . 2 c c l d 1 , , 1 f v x k 1 + .                               ",
"                                                      . . 1 l l k u & . . @ u x k k 1 + .                               ",
"                                                          * < u f u & . . + , 1 i f 1 + .                               ",
"                                                            . : i 5 & .     . . < f 1 + .                               ",
"                                                              & < * + .       . * < * . .                               ",
"                                                                . . . .         . . . . .                               ",
"                                                                . . . .           . . . .                               ",
"                                                                                                                        ",
"                                                                                                                        ",
"                                                                                                                        ",
"                                                                                                                        ",
"                                                                                                                        ",
"                                                                                                                        ",
"                                                                                                                        ",
"                                                                                                                        ",
"                                                                                                                        ",
"                                                                                                                        ",
"                                                                                                                        ",
"                                                                                                                        ",
"                                                                                                                        ",
"                                                                                                                        "
};
