/* XPM */
static char *enemy6[] = {
/* columns rows colors chars-per-pixel */
"60 60 108 2 ",
"   c None",
".  c #382121",
"X  c #3A2C22",
"o  c #3B3422",
"O  c #3C3D22",
"+  c #432525",
"@  c #492727",
"#  c #4B2728",
"$  c #462D2A",
"%  c #4E2929",
"&  c #532A2A",
"*  c #5B2C2D",
"=  c #49312D",
"-  c #52312E",
";  c #612E2F",
":  c #632F30",
">  c #653030",
",  c #6A3232",
"<  c #6B3A37",
"1  c #783637",
"2  c #773C3A",
"3  c #7D3839",
"4  c #3D4123",
"5  c #3F4C23",
"6  c #3F5023",
"7  c #405424",
"8  c #415C24",
"9  c #6B473E",
"0  c #426324",
"q  c #436B25",
"w  c #457125",
"e  c #594646",
"r  c #6C4545",
"t  c #7A4445",
"y  c #714B42",
"u  c #7F4F46",
"i  c #785D4D",
"p  c #7E595A",
"a  c #726262",
"s  c #833A3B",
"d  c #8B3D3E",
"f  c #943F41",
"g  c #8D4445",
"h  c #964042",
"j  c #9B4244",
"k  c #954A47",
"l  c #934B4D",
"z  c #875354",
"x  c #A24446",
"c  c #AB4749",
"v  c #A34B4D",
"b  c #AE484A",
"n  c #B44A4C",
"m  c #BB4D4F",
"M  c #A5524E",
"N  c #A9514F",
"B  c #A64F51",
"V  c #A75153",
"C  c #AA5553",
"Z  c #A05A51",
"A  c #AC5B5D",
"S  c #826553",
"D  c #8F6153",
"F  c #8D6C59",
"G  c #916D5A",
"H  c #A55F61",
"J  c #AC6768",
"K  c #B16567",
"L  c #B56C6D",
"P  c #AF7965",
"I  c #A87F68",
"U  c #B87464",
"Y  c #B57D69",
"T  c #AA7B7C",
"R  c #B87274",
"E  c #C15F5A",
"W  c #478026",
"Q  c #4A9227",
"!  c #A4846A",
"~  c #AE8F72",
"^  c #BE9D7D",
"/  c #C78E76",
"(  c #CD8F77",
")  c #D4957C",
"_  c #AE8F8F",
"`  c #B88A8B",
"'  c #B4ABAB",
"]  c #C08384",
"[  c #C99394",
"{  c #CC9B9C",
"}  c #C3A380",
"|  c #D0A986",
" . c #DAB78F",
".. c #DBBA91",
"X. c #E1BD94",
"o. c #C1A3A4",
"O. c #CFA0A1",
"+. c #D7B0B1",
"@. c #E4C197",
"#. c #EDC89C",
"$. c #F7D0A3",
"%. c #FDD6A7",
"&. c #FFD7A8",
"*. c #CDC7C7",
"=. c #E0C1C2",
"-. c #EBD8D8",
";. c #F7EFEF",
":. c #F8F1F1",
/* pixels */
"                                                                                                                        ",
"                                                                                                                        ",
"                                                                                                                        ",
"                                                                                                                        ",
"                                                                                                                        ",
"                                                                                                                        ",
"                                                                                                                        ",
"                                                                                                                        ",
"                                                                                                                        ",
"                                                                                                                        ",
"                                                                                                                        ",
"                                                                                                                        ",
"                                                                                                                        ",
"                                                                                                                        ",
"                                                                                                                        ",
"                                                                                                                        ",
"                                                                                                                        ",
"                                                                                                                        ",
"                                                                                                                        ",
"                        . . . . . . . . . . . . . . . . . . . . . . . . . . . . . . .                                   ",
"                        & * * * * * * * * * * * * * * & & & & & & & & % + . o O o . .                                   ",
"                    . % 1 h h h h h h h h h h h h h h d s s s s s s s 1 * . 5 w 7 X . . .                               ",
"                    . % d m m n n n n n m m m m m m n c x x x x x x j f > . 7 W 0 4 X . .                               ",
"                    . % d m n c c c c c b n m m m n c x x x x x x x x f > . o 5 8 q 7 o .                               ",
"                    . % s n c x x x x x x b n m m c x v V v j j v B v f > . . X 7 W w O .                               ",
"                    . + * 1 h b b b b b j s s x m c x R O.T t z ` [ K f > . 4 8 8 8 6 o                                 ",
"                    . . . + 3 m m m m m j * & d m c x { ;.' e a *.-.] f > . 8 Q q o .                                   ",
"                    . + * 1 j m m m m m c s s x m c x { :.' e a *.-.] f > . 4 0 8 8 5 o                                 ",
"                    . % s n n m m m m m m n n n m c x { :.' e a *.-.] f > . . X 7 W q O .                               ",
"                    . % d m m m m m m m m m m m m c x { :.' e a *.-.] f > . . . 4 0 7 o .                               ",
"                    . % d m m m m m m m m m m m m c x { :.' e a *.-.] f > . . . X o o . .                               ",
"                    . % d m m m m m m m m m m m m c x ] =._ r p o.+.R f > . . . . . . . .                               ",
"                    . % d m m m m m m m m m m m m c x A R H g l J L C f > . . . .                                       ",
"                    . @ 3 x x x x x x x x x x x x x x x x x x x x j f s * . + @ @                                       ",
"                    . + & , , , , , , , , , , , , s x x x x x x x f 1 * @ . * 1 > + . . . . . . .                       ",
"                    . . . . . . . . . . . . . . + 2 N N N N N N N k < $ $ + , j 1 & + + + + + . . .                     ",
"                                            . . $ D ) ) ) ) ) ) ) / I F u 1 d j d 1 1 3 s s 1 & . .                     ",
"                                              . = ! %.%.%.%.&.&.&.$.@.| U x x x x x c n m m c , .                       ",
"                                                = S ! ! ! ^ X.#.#. .~ G Z b b b c x x c x d 1 ; .                       ",
"                                                  $ = = = S } ....^ i - d m m m b x x x d ; +                           ",
"                                                    . . . y Y ( ( P 9 + 3 n n n c x f s , & .                           ",
"                                                      . . < C E E M > + 1 x x x x x s * @                               ",
"                                                        . : d x n x > + : s s s s s 1 % .                               ",
"                                                          & * 1 x x > . + & & & & & &                                   ",
"                                                            . * d f , @ + . . . . . .                                   ",
"                                                              & ; , 1 1 & . .                                           ",
"                                                                . % 1 d ; . .                                           ",
"                                                                  @ * ; # . .                                           ",
"                                                                    . . . . .                                           ",
"                                                                      . . .                                             ",
"                                                                                                                        ",
"                                                                                                                        ",
"                                                                                                                        ",
"                                                                                                                        ",
"                                                                                                                        ",
"                                                                                                                        ",
"                                                                                                                        ",
"                                                                                                                        ",
"                                                                                                                        ",
"                                                                                                                        "
};
