/* XPM */
static char *enemy3[] = {
/* columns rows colors chars-per-pixel */
"60 60 116 2 ",
"   c None",
".  c #382121",
"X  c #3A2C22",
"o  c #3B3422",
"O  c #3C3B22",
"+  c #432525",
"@  c #492727",
"#  c #442827",
"$  c #4B2728",
"%  c #472F2B",
"&  c #4C2828",
"*  c #542A2A",
"=  c #5B2D2E",
"-  c #4F322E",
";  c #50322F",
":  c #4F3A3A",
">  c #543B34",
",  c #612F2F",
"<  c #642F30",
"1  c #653031",
"2  c #683132",
"3  c #643936",
"4  c #653D3D",
"5  c #743536",
"6  c #7B3738",
"7  c #743E3F",
"8  c #7E393A",
"9  c #3D4323",
"0  c #3F4E23",
"q  c #3F5123",
"w  c #405423",
"e  c #415B24",
"r  c #426324",
"t  c #436A25",
"y  c #457625",
"u  c #7D4C44",
"i  c #7C6D6D",
"p  c #82393B",
"a  c #8D3D3E",
"s  c #923F40",
"d  c #874542",
"f  c #8A4142",
"g  c #964042",
"h  c #9B4244",
"j  c #904946",
"k  c #9D4648",
"l  c #964E50",
"z  c #8D5A5A",
"x  c #A14446",
"c  c #A44648",
"v  c #AB4749",
"b  c #A44B4C",
"n  c #AF484A",
"m  c #B54A4C",
"M  c #BB4D4F",
"N  c #A9514F",
"B  c #A64F51",
"V  c #A75254",
"C  c #A95450",
"Z  c #AC5C55",
"A  c #A35C5E",
"S  c #AD5E5F",
"D  c #BD5654",
"F  c #B15954",
"G  c #BC5D58",
"H  c #876957",
"J  c #8B6957",
"K  c #976758",
"L  c #B9665C",
"P  c #BB685E",
"I  c #866262",
"U  c #AF6062",
"Y  c #AF6A6B",
"T  c #B56F61",
"R  c #B46A6C",
"E  c #A47D66",
"W  c #B87565",
"Q  c #A57575",
"!  c #B97576",
"~  c #BA7779",
"^  c #BB797B",
"/  c #C15F5A",
"(  c #488526",
")  c #4B9827",
"_  c #A6846B",
"`  c #B08F72",
"'  c #C1846F",
"]  c #CC826F",
"[  c #C48D74",
"{  c #CC8E76",
"}  c #C59076",
"|  c #D4957C",
" . c #DE967E",
".. c #A78687",
"X. c #A99F9F",
"o. c #BD9091",
"O. c #C58C8D",
"+. c #CFA584",
"@. c #D3AD88",
"#. c #D8AE8A",
"$. c #D6B38D",
"%. c #DBBA91",
"&. c #E5AC8B",
"*. c #C8ABAC",
"=. c #D1A4A5",
"-. c #D4A9AA",
";. c #E3C096",
":. c #EAC499",
">. c #EDC89C",
",. c #F5CFA1",
"<. c #FED6A7",
"1. c #FFD7A8",
"2. c #D7D2D2",
"3. c #E6CECF",
"4. c #E7CFD0",
"5. c #FCF9F9",
/* pixels */
"                                                                                                                        ",
"                                                                                                                        ",
"                                                                                                                        ",
"                                                                                                                        ",
"                                                                                                                        ",
"                                                                                                                        ",
"                                                                                                                        ",
"                                                                                                                        ",
"                                                                                                                        ",
"                                                                                                                        ",
"                                                                                                                        ",
"                                                                                                                        ",
"                                                                                                                        ",
"                                                                                                                        ",
"                                                                                                                        ",
"                                                                                                                        ",
"                                                                                                                        ",
"                                                                                                                        ",
"                                                                                                                        ",
"                        . . . . . . . . . . . . . . . . . . . . . . . . . . . . . . .                                   ",
"                        * = = = = = = = = = = = = = = * * * * * * * * & + . o 9 o . .                                   ",
"                    . * 8 g g g g g g g g g g g g g g a p p p p p p p 5 * X 0 y q X . . .                               ",
"                    . * s M M m m m m m M M M M M M m v x x x x x x x a = X w ( r O X . .                               ",
"                    . * s M m v v v v v m M M M M m v x x x x x x x x a = . O 0 e t w X .                               ",
"                    . * a n v x x x x x c n m M m v x b V b h k B B c a = . . X e ( t o .                               ",
"                    . + , 8 g n n n n n h p p x m v b ~ =.Q 7 z o.O.U a = . 9 r e e 0 o                                 ",
"                    . . . @ p M M M M M s * = g M v B =.5.X.: i 2.3.^ a = X r ) r X .                                   ",
"                    . + , 8 h M M M M M x p p x M v B =.5.X.: i 2.4.^ a = . 9 r e e 0 o                                 ",
"                    . * a m m M M M M M M m m M M v B =.5.X.: i 2.4.^ a , . . X e ( t o .                               ",
"                    . * s M M M M M M M M M M M M v B =.5.X.: i 2.4.^ a = . . . 9 r w X .                               ",
"                    . * s M M M M M M M M M M M M v B =.5.X.: i 2.4.^ a = . . . X o X . .                               ",
"                    . * s M M M M M M M M M M M M v b O.3...4 I *.-.R a = . . . . . . . .                               ",
"                    . * s M M M M M M M M M M M M v c S ! A f l Y R V a = . . . .                                       ",
"                    . * p x x x x x x x x x x x x x x x x x x x x h s 8 = . + $ @                                       ",
"                    . + = 2 2 2 2 2 2 2 2 2 2 2 5 a x x x x x x x a 5 * + . = 6 < + . . . . . . .                       ",
"                    . . . . . . . . . . . . . . & 8 N N N N N N N j 3 % # @ 5 h 5 $ + + + + + . .                       ",
"                                            . . ; K | | | | | | | [ E J u 5 a x a 5 5 8 p p 5 * .                       ",
"                                              . > ` <.<.<.1.1.1.1.,.;.+.T x x x x x v m M M x 2 .                       ",
"                                                > H _ [  .&.:.>.>.:.%.@.} W Z x x x x v x a 5 =                         ",
"                                                  % - d D ] #.%.%.%.%.$.$.+.W x x x x x a = +                           ",
"                                                  . + 5 n L ' [ { { { { { { P v x x s p 2 * .                           ",
"                                                  . . 5 x b C F G / / / / / D m n x p = @                               ",
"                                                    . 1 p p p a s g g g g h v M n x 6 $ .                               ",
"                                                      & * * * * = = = = = , a M n x 6 $ .                               ",
"                                                        . . . . . . . . . + 5 x x x 6 $ .                               ",
"                                                                            = 1 p h 6 $ .                               ",
"                                                                              . < a 5 @ .                               ",
"                                                                                * < * + .                               ",
"                                                                                  . . . .                               ",
"                                                                                    . .                                 ",
"                                                                                                                        ",
"                                                                                                                        ",
"                                                                                                                        ",
"                                                                                                                        ",
"                                                                                                                        ",
"                                                                                                                        ",
"                                                                                                                        ",
"                                                                                                                        ",
"                                                                                                                        ",
"                                                                                                                        "
};
