/* XPM */
static char *xpm___4[] = {
/* columns rows colors chars-per-pixel */
"45 38 149 2 ",
"   c None",
".  c #E6310E",
"X  c #EB3F12",
"o  c #C65913",
"O  c #CA5B13",
"+  c #DF5914",
"@  c #E24711",
"#  c #E54B11",
"$  c #E35312",
"%  c #F15A17",
"&  c #D66114",
"*  c #D96214",
"=  c #E06515",
"-  c #EC6315",
";  c #E26B15",
":  c #EA6E17",
">  c #E46B18",
",  c #E96A18",
"<  c #F3601C",
"1  c #F56A1B",
"2  c #FA6E1D",
"3  c #E67416",
"4  c #E77915",
"5  c #E87D15",
"6  c #E77718",
"7  c #E77E18",
"8  c #FE751F",
"9  c #FF7D1E",
"0  c #F37F22",
"q  c #FF7E21",
"w  c #EA8115",
"e  c #EE8B15",
"r  c #ED8518",
"t  c #ED8A1B",
"y  c #F3871A",
"u  c #F18C1A",
"i  c #ED931C",
"p  c #EE9C1D",
"a  c #F39915",
"s  c #F4951E",
"d  c #F59F1C",
"f  c #F4A01A",
"g  c #FCA41F",
"h  c #F7B71F",
"j  c #F08E24",
"k  c #FF8E22",
"l  c #FF9424",
"z  c #F29921",
"x  c #FF9629",
"c  c #FE9C2A",
"v  c #EFA525",
"b  c #FEA325",
"n  c #F6AD22",
"m  c #F4A229",
"M  c #FDA22C",
"N  c #FFAA2B",
"B  c #F4B722",
"V  c #FCB022",
"C  c #FBB926",
"Z  c #F1B429",
"A  c #FFB52B",
"S  c #F7BC2D",
"D  c #FAB92B",
"F  c #F6A630",
"G  c #FFA331",
"H  c #FFAA3C",
"J  c #FFB132",
"K  c #FBBE32",
"L  c #F7BA3B",
"P  c #F7C024",
"I  c #FBC625",
"U  c #FFC825",
"Y  c #FEC72C",
"T  c #FFCB29",
"R  c #FBD226",
"E  c #FCD228",
"W  c #FEC932",
"Q  c #FFC13B",
"!  c #FFCA3B",
"~  c #FFD334",
"^  c #FDDC32",
"/  c #FFD33B",
"(  c #FEDC3E",
")  c #FFE32A",
"_  c #FFF22B",
"`  c #FFF92E",
"'  c #FFE432",
"]  c #FFED37",
"[  c #FFE53B",
"{  c #FEED3C",
"}  c #FFF035",
"|  c #FFFF30",
" . c #FDF33B",
".. c #FFFE3F",
"X. c #F7A746",
"o. c #FFB442",
"O. c #FFD643",
"+. c #FFDD44",
"@. c #FFDE48",
"#. c #FFD654",
"$. c #FBDC57",
"%. c #FFE444",
"&. c #FFEC43",
"*. c #FFF443",
"=. c #FFFD44",
"-. c #FFF44B",
";. c #FFFD4C",
":. c #FFE751",
">. c #FFEE53",
",. c #FFFD54",
"<. c #FFF659",
"1. c #FFFE5C",
"2. c #FFD960",
"3. c #FFEC61",
"4. c #FFEB69",
"5. c #FFF260",
"6. c #FFFE63",
"7. c #FFFF6B",
"8. c #FFFF74",
"9. c #FFFF7B",
"0. c #FFFF83",
"q. c #FFFF8C",
"w. c #FFFF93",
"e. c #FFFF9B",
"r. c #FFFFA1",
"t. c #FFFFA5",
"y. c #FFFFA6",
"u. c #FFFFA7",
"i. c #FFFFA8",
"p. c #FFFFA9",
"a. c #FFFFAB",
"s. c #FFFFAC",
"d. c #FFFFAE",
"f. c #FFFFB0",
"g. c #FFFFB3",
"h. c #FFFFB6",
"j. c #FFFFB9",
"k. c #FFFFBB",
"l. c #FFFFBE",
"z. c #FFFFC0",
"x. c #FFFFC3",
"c. c #FFFFC7",
"v. c #FFFFC8",
"b. c #FFFFC9",
"n. c #FFFFCA",
"m. c #FFFFCC",
"M. c #FFFFCE",
"N. c #FFFFDA",
"B. c #FFFFDF",
/* pixels */
"                                                                                          ",
"                                                                                          ",
"                              e e                                                         ",
"                            e e e                                                         ",
"                          e e e e e                                                       ",
"                          e e e e e                                                       ",
"                            e e e                                                         ",
"                                                                                          ",
"                                                                                          ",
"                                                                                          ",
"                                          = =         5 5 5 5         . .                 ",
"                                      = = = = = = ; 4 5 r y $ D { =.-.L F M x 8           ",
"                                    = = = = = = = ; 4 ; y V j ( -.-.&.O.%.+.Q N 0         ",
"                                    = = = = *       5 - s ' =.1.6.<.@.o.:.1.1.*.G < X     ",
"                                    = = = =   o = ; 4 h ' =.,.6.6.7.9.q.9.9.9.6.6.H 8     ",
"                                    = = = =     O = # S ..;.8.,.6.0.e.w.0.9.8.1.6.3.X..   ",
"                                    = = = =     & = % K *.,.7.6.9.w.i.j.f.e.q.0.1.6.$.m   ",
"                                      =   =   = = > c / -.,.6.8.w.u.u.M.f.i.u.w.1.6.6.;.  ",
"                                        = = = = =   =.;.,.1.7.9.i.f.q.e.0.u.j.0.8.8.7.1.  ",
"                                                  k  .( %.1.0.w.M.B.f.M.f.i.u.8.0.9.6.,.  ",
"                                                - 9 ~ [ -.6.q.e.z.M.j.j.w.e.i.0.9.0.4.!   ",
"                                              $ : b W &.,.6.9.e.z.M.e.0.8.w.i.9.8.9.2.c   ",
"                                          ;   ; i ) ~ &.,.1.7.w.z.z.q.8.9.e.u.7.8.7.#.q   ",
"                                    ; ; ; ; ; z T ) ~ ~ [ ;.9.0.9.e.B.B.M.z.f.w.9.,.*.    ",
"                        w w     w   ; ;   ; ; Z ' T }  .[ O.7.8.8.7.8.q.w.q.8.:.,.Q l     ",
"                        w w w w w ; ; ;          .^ v W ~ W Q 5.7.6.,.7.6.#.H M J c       ",
"                        w w w w w ; ; 6           ' r D W D A O.>.,.,.,.+.G 2 1 8         ",
"                        w w w w w   3 y Y .... .  I C ' Y b ] N Y { =.{ M q 2 @           ",
"                          w w w     g I ` ..| _ P 3 3 n z =   l l b   >                   ",
"                                    r d U ' ) B r     f r + + = , = +                     ",
"                                    4 r g n E P p     w 5 3 + + + +                       ",
"                                      4   4 R ) I ; ; ; 5 a                               ",
"                                        4   ) ) )     ; ;                                 ",
"                                              i 7 ;                                       ",
"                                                                                          ",
"                                                                                          ",
"                                                                                          ",
"                                                                                          "
};
