/* XPM */
static char *xpm___6[] = {
/* columns rows colors chars-per-pixel */
"45 38 145 2 ",
"   c None",
".  c #BF5912",
"X  c #C95E13",
"o  c #DF5C15",
"O  c #E24711",
"+  c #E34A12",
"@  c #EB4D18",
"#  c #E55114",
"$  c #E45B15",
"%  c #F65418",
"&  c #DF6115",
"*  c #D37917",
"=  c #E06515",
"-  c #E36D15",
";  c #E36718",
":  c #EC6718",
">  c #EC6818",
",  c #F1681A",
"<  c #E47316",
"1  c #E87C17",
"2  c #E67319",
"3  c #E6791A",
"4  c #EA7C1B",
"5  c #F17A1C",
"6  c #EE8C15",
"7  c #E9821B",
"8  c #EC881D",
"9  c #F08F1F",
"0  c #EF9417",
"q  c #EC911D",
"w  c #EE991D",
"e  c #F59E15",
"r  c #F0921F",
"t  c #E6A41D",
"y  c #EDA31E",
"u  c #F6A215",
"i  c #F3AB1D",
"p  c #F7B21D",
"a  c #EF8320",
"s  c #EC8D21",
"d  c #F28521",
"f  c #FC8421",
"g  c #F58C25",
"h  c #FF8B23",
"j  c #EE9A24",
"k  c #F79723",
"l  c #FE9323",
"z  c #F29C22",
"x  c #F89B24",
"c  c #FF972A",
"v  c #FD9B2D",
"b  c #F4A424",
"n  c #FCA426",
"m  c #FCA925",
"M  c #F4A528",
"N  c #FEA42D",
"B  c #F2AB2E",
"V  c #FFA828",
"C  c #FFB526",
"Z  c #F7B229",
"A  c #FFB12A",
"S  c #FFBD2C",
"D  c #FCA730",
"F  c #F1A830",
"G  c #FDAB32",
"H  c #FDB232",
"J  c #FDBE33",
"K  c #FFB639",
"L  c #FFC61F",
"P  c #FBC624",
"I  c #F6C922",
"U  c #FFC229",
"Y  c #F5CB2D",
"T  c #FBCA2B",
"R  c #EDDF25",
"E  c #FFD62B",
"W  c #FFD92A",
"Q  c #FEC535",
"!  c #FECC34",
"~  c #F6C438",
"^  c #FFC639",
"/  c #F6CA38",
"(  c #FFCE3B",
")  c #FFD432",
"_  c #FEDC32",
"`  c #FFD439",
"'  c #FEDE3B",
"]  c #FDE627",
"[  c #FEE636",
"{  c #FFE33C",
"}  c #FEEC38",
"|  c #FFF337",
" . c #FFFD3B",
".. c #FFD441",
"X. c #FFDC45",
"o. c #FFD44C",
"O. c #FFD855",
"+. c #FFE244",
"@. c #FFEB45",
"#. c #FFEB4B",
"$. c #FFF546",
"%. c #FFFE45",
"&. c #FFF34A",
"*. c #FFFE4C",
"=. c #FCE552",
"-. c #FFE05A",
";. c #FFF350",
":. c #FFFE53",
">. c #FFFF5B",
",. c #FFEF64",
"<. c #FFF462",
"1. c #FFFF64",
"2. c #FFFF6C",
"3. c #FFFF73",
"4. c #FFFF7C",
"5. c #FFFF83",
"6. c #FFFF8C",
"7. c #FFFF94",
"8. c #FFFF9F",
"9. c #FFFF9D",
"0. c #FFFF99",
"q. c #FFFFA6",
"w. c #FFFFA8",
"e. c #FFFFAB",
"r. c #FFFFAC",
"t. c #FFFFAD",
"y. c #FFFFB0",
"u. c #FFFFB2",
"i. c #FFFFB4",
"p. c #FFFFB6",
"a. c #FFFFB7",
"s. c #FFFFBB",
"d. c #FFFFBD",
"f. c #FFFFBF",
"g. c #FFFFC4",
"h. c #FFFFCC",
"j. c #FFFFD2",
"k. c #FFFFD3",
"l. c LightYellow",
"z. c #FFFFE2",
"x. c #FFFFE5",
"c. c #FFFFE8",
"v. c #FFFFE9",
"b. c ivory",
"n. c #FFFFF8",
/* pixels */
"                                                                                          ",
"                                                                                          ",
"                                                                                          ",
"                                                                                          ",
"                                                                                          ",
"                                                                                          ",
"                                                                                          ",
"        e                                                                                 ",
"      e e                                                                                 ",
"        e                               = = = = = =       O O +     @ v n n n             ",
"                                        =   = =   - n > O O + d J +.=.&.&.&.@.( n         ",
"                                      =   =   = q Y _ x : $ g H X.:.:.:.*.%.*.@.^ ^       ",
"                                    = =   = = 4 b ) _ k d F o.-.<.1.1.>.>.:.*.*.@.X.H     ",
"                                    = =   = 3 b S A S d B :.2.6.4.4.6.4.4.2.>.:.>.@.D %   ",
"                                        = = T |  . .*.{ @.1.1.0.6.5.0.u.6.4.2.>.*.*.@.(   ",
"                                        2 m [  .%.:.%.:.1.2.5.5.7.t.u.g.t.4.:.*.1.>.@.`   ",
"                                        2 7 j Z ` :.%.>.2.4.6.7.d.k.d.u.u.7.4.2.1.>.&.@.  ",
"                                          4 4 5 n $.*.@.,.4.4.u.x.c.h.g.q.6.5.5.1.:.:.:.  ",
"                                  - - q U U U 9 s { ;.^ o.2.1.g.x.c.b.n.0.2.1.5.4.1.>.>.  ",
"                                  -     U U U _ } [ A X.>.4.0.t.d.k.x.h.t.7.6.4.1.>.:.*.  ",
"                                P < .     U   E _ } { $.:.2.6.7.7.6.5.5.4.4.2.>.>.:.&.{   ",
"                                p i * X 3 r 2 8 z M Q ! ( O.4.6.6.4.2.1.4.4.1.*.>.:.$.    ",
"                                0 ] y < 7 2 = = $ # l l l G 2.5.7.7.5.2.4.5.2.*.>.@.+.    ",
"                          6 6 6 0 ]     E E 7 = o ; ! n l C } *.2.6.6.4.4.4.2.*.>.K f     ",
"                            6 6     W E P 7 < - -     h V _ %.*.:.>.1.4.4.1.&.) n c       ",
"                                    q w q - - - -       A T ! J +.*.:.>.;...V a f         ",
"                                  - - - - - - - -         C C m J / ~ ' ) n , +           ",
"                                  -       - - - -           W T w = $ x n 5 +             ",
"                                  - - - - - - - -             - = & o =                   ",
"                                    - w I i 1 -                                           ",
"                                      t R L 6                                             ",
"                                            6                                             ",
"      u                                   6 6                                             ",
"      u                                                                                   ",
"                                                                                          ",
"                                                                                          ",
"                                                                                          ",
"                                                                                          "
};
