/* XPM */
static char *xpm___5[] = {
/* columns rows colors chars-per-pixel */
"45 38 138 2 ",
"   c None",
".  c #E34010",
"X  c #E14E12",
"o  c #E35213",
"O  c #EA5414",
"+  c #E25913",
"@  c #FF5D16",
"#  c #DE6C15",
"$  c #E36415",
"%  c #EC6217",
"&  c #E36E15",
"*  c #EA6E1B",
"=  c #F46B1B",
"-  c #FF6C1E",
";  c #E57315",
":  c #EB721C",
">  c #E7791E",
",  c #F2721F",
"<  c #F17B1C",
"1  c #FF7C22",
"2  c #EB8315",
"3  c #EE8B15",
"4  c #EB801B",
"5  c #ED8D1B",
"6  c #F3851E",
"7  c #EF951D",
"8  c #F19415",
"9  c #F49C15",
"0  c #F19719",
"q  c #F2A51E",
"w  c #F6AB19",
"e  c #F6B51D",
"r  c #F18322",
"t  c #FF8626",
"y  c #FC8D22",
"u  c #EC9221",
"i  c #EC9923",
"p  c #FC9427",
"a  c #FC9C24",
"s  c #F79D28",
"d  c #FF9E2B",
"f  c #FEA426",
"g  c #FFAA26",
"h  c #F6A62D",
"j  c #FFA52A",
"k  c #FFAA2C",
"l  c #F7B327",
"z  c #FEB727",
"x  c #FCBB26",
"c  c #F3B12B",
"v  c #FEB42D",
"b  c #FFB82B",
"n  c #FFAD33",
"m  c #FFB232",
"M  c #F5BB37",
"N  c #FFBC31",
"B  c #FFB63B",
"V  c #FFBC3C",
"C  c #F4C42C",
"Z  c #FFC62C",
"A  c #FFC929",
"S  c #FFD12E",
"D  c #F5C733",
"F  c #FFC333",
"G  c #FFCC34",
"H  c #FFC738",
"J  c #FFCC3D",
"K  c #FFD533",
"L  c #FFDC33",
"P  c #FFD539",
"I  c #FFDC3D",
"U  c #FEE335",
"Y  c #FFEC34",
"T  c #FFE53B",
"R  c #FFEC3F",
"E  c #FFF237",
"W  c #FFF63C",
"Q  c #FFFE3D",
"!  c #FFCD44",
"~  c #FACD4D",
"^  c #FFE446",
"/  c #FFEC42",
"(  c #FFE44C",
")  c #FFEC4C",
"_  c #FFF445",
"`  c #FFFC45",
"'  c #FFF44A",
"]  c #FFFC4D",
"[  c #FFEF53",
"{  c #FFF451",
"}  c #FFFE54",
"|  c #FFFE5C",
" . c #FFDE61",
".. c #FFFE63",
"X. c #FFFF6B",
"o. c #FFFF73",
"O. c #FFFF7B",
"+. c #FFFF84",
"@. c #FFFF8B",
"#. c #FFFF96",
"$. c #FFFF95",
"%. c #FFFF92",
"&. c #FFFF9A",
"*. c #FFFF9C",
"=. c #FFFFA0",
"-. c #FFFFA1",
";. c #FFFFA2",
":. c #FFFFA3",
">. c #FFFFA4",
",. c #FFFFA5",
"<. c #FFFFA6",
"1. c #FFFFA8",
"2. c #FFFFAA",
"3. c #FFFFAC",
"4. c #FFFFAD",
"5. c #FFFFAE",
"6. c #FFFFB1",
"7. c #FFFFB4",
"8. c #FFFFB5",
"9. c #FFFFB6",
"0. c #FFFFB7",
"q. c #FFFFB9",
"w. c #FFFFBA",
"e. c #FFFFBB",
"r. c #FFFFBC",
"t. c #FFFFBD",
"y. c #FFFFBE",
"u. c #FFFFBF",
"i. c #FFFFC3",
"p. c #FFFFC4",
"a. c #FFFFD0",
"s. c #FFFFD1",
"d. c #FFFFD3",
"f. c #FFFFD5",
"g. c #FFFFD6",
"h. c #FFFFDB",
"j. c #FFFFDD",
"k. c #FFFFE3",
/* pixels */
"                                                                                          ",
"                                                                                          ",
"                                                                                          ",
"                                                                                          ",
"                                                                                          ",
"                                                                                          ",
"                                                                                          ",
"                                                                                          ",
"                                                                                          ",
"                        2 2 2 2                                                           ",
"                        2 2 2 2 2                   X X X O @ - t m P j d , . .           ",
"                        2 2 2 2 2             9 2 X X X * s N N J ^ [  . .~ M M p         ",
"                        2 2 2 2 2           9 w 0 X X : h I _ { ..X...X.X...} ] H N       ",
"                        2 2     2           9 e q o   F I } | o.+.+.X.| ..X...} ] I G     ",
"                                              o o   G I / } o.&.@.+.2.@.@.@.O.| ^ _ `     ",
"                                              X % j R { | ..X.+.O.$.e.<.<.$.O.+...| ) N   ",
"                                              < 6 j ' ] } ..O.@.@.2.h.2.2.<.$.+.o.| ' I   ",
"                                              y a d ' } ] | +.<.8.i.h.2.e.8.<.@.O.| ` W   ",
"                                            o < a k { ..} { O.8.d.d.e.i.d.e.<.2.+.| _ T   ",
"                                            O %   _ | ....X.O.<.d.d.8.k.d.8.<.<.$.o.! 1   ",
"                                          & + 6 L ` } ..X.o.O.8.i.e.8.2.2.e.e.$.O...J -   ",
"                                          & i l Z K ] } | X.+.<.&.<.e.$.2.e.8.@.X.( n -   ",
"                                        &   U S z v ' ` ] ..$.+.o.+.2.$.8.2.@.O.| V t -   ",
"                                        & & a g Z Q ] T / | +.$.+...} ..X.X.| ] / d -     ",
"                                        &   z K L v u a k V o.O.X.....} | { / _ G k       ",
"                                          # 4 u c K C A K P   } ] ] ) I B n v v r         ",
"                                          & + o > D U Y E W   L U L G z y y y = o         ",
"                        2 2 2                 + + $ x A A   A z g f f a f f y X           ",
"      9 9 9 9         2   2 2 2               ; $ $ x A A A A         o                   ",
"                      2 2 2 2                 ; ; &   7 5 5 5                             ",
"                      2 2 2                     ; ; ; ; ; ; ;                             ",
"                        2   3 2                   ; ;     ;                               ",
"                          8       3 3 3                                                   ",
"                        8 8     3   3 3 3                                                 ",
"                        8 8     3 3 3 3 3                                                 ",
"                        8 8     3 3 3 3                                                   ",
"                                  3 3                                                     ",
"                                                                                          "
};
