/* XPM */
static char *xpm___8[] = {
/* columns rows colors chars-per-pixel */
"45 38 136 2 ",
"   c None",
".  c #E5350F",
"X  c #AD5410",
"o  c #CA400F",
"O  c #DE5113",
"+  c #E24711",
"@  c #EA4613",
"#  c #E44A12",
"$  c #EB4D16",
"%  c #E15413",
"&  c #E85214",
"*  c #E35C15",
"=  c #ED5A19",
"-  c #C16112",
";  c #CB6413",
":  c #DA6A14",
">  c #E46315",
",  c #E36E15",
"<  c #EA6D19",
"1  c #F16B1D",
"2  c #FF691E",
"3  c #E57315",
"4  c #E77815",
"5  c #E87C15",
"6  c #EA721B",
"7  c #FB761E",
"8  c #F37D1D",
"9  c #EF7720",
"0  c #EF7925",
"q  c #FF7320",
"w  c #FA7B20",
"e  c #D18B1A",
"r  c #EC8515",
"t  c #EF8E15",
"y  c #EC841D",
"u  c #E98F1A",
"i  c #EF9F1D",
"p  c #F09015",
"a  c #F49C15",
"s  c #F0981C",
"d  c #EEA01B",
"f  c #F6A215",
"g  c #F38022",
"h  c #FF8824",
"j  c #FF8D28",
"k  c #EF9A21",
"l  c #F59426",
"z  c #FC9222",
"x  c #F39E26",
"c  c #FF9B25",
"v  c #EFA321",
"b  c #FFA427",
"n  c #F3A827",
"m  c #FCA32C",
"M  c #F6AF2A",
"N  c #FFAD2D",
"B  c #ECB322",
"V  c #F4B42D",
"C  c #FEB32D",
"Z  c #F2A736",
"A  c #F7AE33",
"S  c #F8AF36",
"D  c #FFB331",
"F  c #FDBA32",
"G  c #FFBA3D",
"H  c #FCC325",
"J  c #FECB27",
"K  c #F7CC2E",
"L  c #FDCC2A",
"P  c #FAD722",
"I  c #F5C333",
"U  c #FFC435",
"Y  c #F8C930",
"T  c #FFCA3D",
"R  c #FFD432",
"E  c #FFDD35",
"W  c #FED33C",
"Q  c #FFDC3C",
"!  c #FBE425",
"~  c #FFE730",
"^  c #FFE33C",
"/  c #FFEC3F",
"(  c #FFB940",
")  c #FFC64A",
"_  c #FDD543",
"`  c #FEDE41",
"'  c #FFD34C",
"]  c #FFD457",
"[  c #FFDC55",
"{  c #FFDD5A",
"}  c #FFE343",
"|  c #FFEB45",
" . c #FFE34C",
".. c #F7F043",
"X. c #FFF44A",
"o. c #FFFE4D",
"O. c #FFF453",
"+. c #FFFF55",
"@. c #FFF55C",
"#. c #FFFF5C",
"$. c #FFEC61",
"%. c #FFF663",
"&. c #FFFF63",
"*. c #FFF56A",
"=. c #FFFF6B",
"-. c #FFFF73",
";. c #FFFF7B",
":. c #FFFF84",
">. c #FFFF8D",
",. c #FFFF93",
"<. c #FFFF9D",
"1. c #FFFFA4",
"2. c #FFFFA9",
"3. c #FFFFAA",
"4. c #FFFFAB",
"5. c #FFFFB0",
"6. c #FFFFB1",
"7. c #FFFFB2",
"8. c #FFFFB4",
"9. c #FFFFB5",
"0. c #FFFFB9",
"q. c #FFFFBB",
"w. c #FFFFBC",
"e. c #FFFFBD",
"r. c #FFFFBE",
"t. c #FFFFC0",
"y. c #FFFFC2",
"u. c #FFFFC3",
"i. c #FFFFC5",
"p. c #FFFFC9",
"a. c #FFFFCC",
"s. c #FFFFCD",
"d. c #FFFFD2",
"f. c #FFFFDB",
"g. c #FFFFDF",
"h. c #FFFFEB",
/* pixels */
"                                                                                          ",
"                                                                                          ",
"                                                                                          ",
"          a a                                                                             ",
"            a a                                                                           ",
"                                                                                          ",
"                                4 4 4 4 4                                                 ",
"                              4 4 4 4 4 4                           . . .                 ",
"                            4 4 4   4 4 4                         g = = = 1               ",
"                              4 4 4 4 4 4             + + + + w N U D D D N m h           ",
"                                  4   4 4           + + + & 7 W X.| Q Q Q U D Q ^         ",
"                                  4 4 4           + + + k I ' X.#.&.@.@.*.$. ./ / U       ",
"                                    4             + +   I o.;.-.-.;.>.>.,.:.=.O.O._ m     ",
"                                                o +   * Z =.,.2.<.<.q.6.2.<.,.-.;.@.A @   ",
"                t t t   r   r r               + + + + l [ :.;.6.q.t.t.:.,.2.2.;.>.-.) 2   ",
"              t t t t r r r r r r             + + % M ` %.;.;.;.<.q.a.q.,.2.q.,.,.:.] j   ",
"              t t t t     r r r 5 3 3           6 x C | &.-.-.>.6.a.t.d.2.,.<.,.,.;.[ N   ",
"              t t t       r r 5 3 3 3 3         n R b Q &.-.=.,.a.f.t.a.2.>.:.,.,.-. .F   ",
"                          r 5 3   3     3     % y R N ^ #.;.&.-.q.h.f.q.2.,.>.,.:.=. .N   ",
"                            3 3 3   3 3 3     % < b R O.&.&.&.,.,.<.q.>.t.6.:.;.#.+.T q   ",
"  f f                       3 3 3 3 - ; 3     % < c N } #.-.=.,.2.<.,.2.6.<.:.-.#.} F     ",
"f f f                       3 3 3 3   e i     * > 8 z Q #.-.=.-.,.2.,.q.<.:.;.=.#.S 9     ",
"  f f                         3 3     B B , , > * * z ` #.=.-.+.-.>.,.2.:.-.=.O._ 0       ",
"                                  3 3 ; X , , , > * z E #.-.#.;.-.#.+.-.=.=.*.W $         ",
"                                  ,   : : , , , ,   > K o.#.+.-.;.=.+.&.-.{ G             ",
"                                  ,     , , , , ,     v Y ^ ^ o.O.O.o.+.' (               ",
"                                  ,       , , u d     5 s L L ~ L V I ..C                 ",
"                                    , , , ,   ! P a   5 5   H J y % O                     ",
"                                    , , , , , t f         5 r                             ",
"                                              p a                                         ",
"                                                                                          ",
"                                                                                          ",
"                                                                                          ",
"                                                                                          ",
"                                                                                          ",
"                                                                                          ",
"                                                                                          ",
"                                                                                          "
};
