/* XPM */
static char *xpm___7[] = {
/* columns rows colors chars-per-pixel */
"45 38 155 2 ",
"   c None",
".  c #E93A11",
"X  c #DF5C14",
"o  c #E74616",
"O  c #FF4C15",
"+  c #E45414",
"@  c #E15E14",
"#  c #ED5C16",
"$  c #EA591B",
"%  c #F55518",
"&  c #DE6115",
"*  c #E56617",
"=  c #EA6716",
"-  c #E26B15",
";  c #EE661B",
":  c #EF6B18",
">  c #F4621E",
",  c #E57315",
"<  c #E77A16",
"1  c #E87B16",
"2  c #E47518",
"3  c #EB721A",
"4  c #E77C19",
"5  c #EC7C1B",
"6  c #F97117",
"7  c #F07B1C",
"8  c #FF7E1F",
"9  c #FE7C24",
"0  c #EB8315",
"q  c #EE8B15",
"w  c #ED8C1D",
"e  c #F3801F",
"r  c #F38B1F",
"t  c #FB881D",
"y  c #EF9E1E",
"u  c #F5911F",
"i  c #F5A31C",
"p  c #F7B31E",
"a  c #F48F20",
"s  c #F98A21",
"d  c #FF8528",
"f  c #FE8B28",
"g  c #F59723",
"h  c #F99025",
"j  c #F49B27",
"k  c #F99E24",
"l  c #F2982B",
"z  c #FF9D2C",
"x  c #F08A31",
"c  c #F18F38",
"v  c #EFAA25",
"b  c #F2A222",
"n  c #FCA524",
"m  c #F2AA21",
"M  c #FFAC26",
"N  c #FFA32C",
"B  c #FDAC28",
"V  c #F5B722",
"C  c #FCB526",
"Z  c #F5BB25",
"A  c #FCBA25",
"S  c #F3B129",
"D  c #FDB42A",
"F  c #FDBD2B",
"G  c #FFB136",
"H  c #FAC424",
"J  c #F9C826",
"K  c #F5C229",
"L  c #FEC329",
"P  c #FFCB2A",
"I  c #FED226",
"U  c #FCD926",
"Y  c #F7D02F",
"T  c #FFD52F",
"R  c #FFD92A",
"E  c #FFC534",
"W  c #FFCB34",
"Q  c #FFC73A",
"!  c #F7C83A",
"~  c #FFD931",
"^  c #FFD23A",
"/  c #FFD93C",
"(  c #FFE134",
")  c #FFE936",
"_  c #FFE33B",
"`  c #FFEF3B",
"'  c #FFF136",
"]  c #FFF53A",
"[  c #FFFC3A",
"{  c #FDB740",
"}  c #FFC141",
"|  c #F8C549",
" . c #FBD143",
".. c #FBDE46",
"X. c #FFD049",
"o. c #F7C555",
"O. c #F8C95E",
"+. c #FFE342",
"@. c #FFEB44",
"#. c #FFE64A",
"$. c #FFEC4F",
"%. c #FFF347",
"&. c #FFF941",
"*. c #FFF14C",
"=. c #FFFD4C",
"-. c #FFE557",
";. c #FCE45B",
":. c #FEEB5A",
">. c #FFF350",
",. c #FFFE54",
"<. c #FFF05C",
"1. c #FFFE5C",
"2. c #FFF467",
"3. c #FFFE64",
"4. c #FFF16B",
"5. c #FFFE6C",
"6. c #FFF075",
"7. c #FFFF74",
"8. c #FFFF7B",
"9. c #FFFF85",
"0. c #FFFF82",
"q. c #FFFF88",
"w. c #FFFF89",
"e. c #FFFF8A",
"r. c #FFFF8B",
"t. c #FFFF8C",
"y. c #FFFF8D",
"u. c #FFFF8E",
"i. c #FFFF8F",
"p. c #FFFF90",
"a. c #FFFF91",
"s. c #FFFF93",
"d. c #FFFF94",
"f. c #FFFF96",
"g. c #FFFF97",
"h. c #FFFF98",
"j. c #FFFF99",
"k. c #FFFF9C",
"l. c #FFFF9D",
"z. c #FFFF9E",
"x. c #FFFF9F",
"c. c #FFFFA0",
"v. c #FFFFA1",
"b. c #FFFFA2",
"n. c #FFFFA4",
"m. c #FFFFA5",
"M. c #FFFFA7",
"N. c #FFFFA9",
"B. c #FFFFAA",
"V. c #FFFFAC",
"C. c #FFFFAD",
"Z. c #FFFFB1",
"A. c #FFFFB2",
"S. c #FFFFB5",
"D. c #FFFFBE",
/* pixels */
"                                                                                          ",
"                                                                                          ",
"                                                                                          ",
"                                                                                          ",
"                                                                                          ",
"                                                                                          ",
"                          0 0 0 0                                                         ",
"                              0 0 0             X X X                                     ",
"                              0 0 0           @ X X X X                                   ",
"                          0 0 0 0 0       @ @ @ X X X X @     . % 9 z z d > o o           ",
"                          0 0   0         @   @ X X   X 3 8 O 9 f G *.*.$.:.;...$         ",
"                                          b t = X   X : s z 9 E / #.3.8.8.7.5.3.o.{       ",
"                                        w K n u w   X # h E z $.3.7.0.f.w.0.5.<.5.-. .    ",
"                                    4 2 4 K K K F   @ + l +.{ 6.w.x.M.w.f.w.5.#.3.3.1.    ",
"                                  2 V m 4 C M F M 6 @ j / 1.0.x.x.w.0.M.D.f.3.7.,.3.3.,.  ",
"                                < i F J H K ( T F C K +.>.1.5.f.x.w.8.x.w.w.0.7.7.5.1.,.  ",
"                              2 2 w F R R P ~ P K P ` =.1.5.3.B.Z.M.w.B.w.f.x.0.w.2.*.,.  ",
"                            2 2 2 2 y H R P K K K K &.@.:.7.5.M.Z.M.x.Z.w.w.f.w.w.4.>.=.  ",
"                            2 2 2 2 - 2   P   C C D ' E X.5.7.8.0.w.w.f.8.5.5.8.w.0.3.&.  ",
"                      0 0   2 2   2 2 v ' K K w 5 D ) %.,.1.3.3.f.B.f.5.f.M.x.f.8.7.:.W   ",
"                    0 0 0 0     2 2 2 w   5 n n r 5 B _ =.,.3.3.w.B.x.0.f.x.f.w.f.8.| ;   ",
"                  0 0 0 0 0     2 2 2     X 5 k k 5 7 D +.,.5.5.0.f.x.M.x.x.f.8.w.O.x     ",
"                    0 0   0               X * a M n 3 g ^ ,.3.5.5.7.w.B.f.f.w.5.2.c       ",
"                      0 0                   M M M M M ~ ' ' =.3.,.=.1.0.5.1.1.,.^         ",
"                                            * * 5 i I ' [ ' _ 1.1.,.1.5.1.,.#.N           ",
"                                              + 1 H   J Z K ` Q ^ @.@.} +.! l             ",
"                                                5 V   p i b Y r g S S e F b               ",
"                                                  * U I H C 1 - & & & &                   ",
"                        q q                           0 0 0   <                           ",
"                      q q q q                                                             ",
"                      q q q q q                                                           ",
"                      q q q q q                                                           ",
"                        q q                                                               ",
"                                                                                          ",
"                                                                                          ",
"                                                                                          ",
"                                                                                          ",
"                                                                                          "
};
