/* XPM */
static char *_[] = {
/* columns rows colors chars-per-pixel */
"63 48 6 1 ",
"  c None",
". c #4061D6",
"X c #388AF5",
"o c #61D7FF",
"O c #69FFFF",
"+ c white",
/* pixels */
"                                                               ",
"                                                               ",
"                                                               ",
"                                                               ",
"                                                               ",
"                                                               ",
"                                                               ",
"                                                               ",
"                                                               ",
"                                                               ",
"              ++                                               ",
"             ++ ++                         ...XXXXX            ",
"             +                            .oXXXoXXX.X          ",
"             +                       oo..XoXXXooXX.XXXX        ",
"                       +        oooooo...oXXXoooX.XooooX       ",
"                        ++      XX......ooXXoooX.XooOoooX      ",
"                             oooooXX....oXXoooX.XooOoooooX     ",
"         +                    .........ooXXoooX.XoOooOOOoX     ",
"                            oooXXXX...ooXXoooX.XoOooOOOOOoX    ",
"                           ...X.......ooXXoooX.XoOooOOOOOoX    ",
"               +          OOooXX.....oooXXXoo..ooOooOOOOOooX   ",
"                           ..XX......oooXXXoo.XoOOoOOOOOOOoX   ",
"                           XXXXXX....oooXXXoX.XoOOoOOOOOOOoX   ",
"                           X.........ooXXXXoX.XoOOoOOOOOOOoX   ",
"                          OooXXXX....ooXXXXXX.XoOOoOOOOOOOoX   ",
"                           XXX.......ooXXXXXX.XoOOoOOOOOOOoX   ",
"                           XXXXXXX...ooXXXX...XoOOoOOOOOOOoX   ",
"                          OOOooXXXX..oooXXoXX.XooOooOOOOOooX   ",
"        +                   XXXX......ooXXooX.XXoOooOOOOOoX    ",
"         +                 oooOOooXXX.ooXXXoX.XXoOooOOOOOoX    ",
"         +                  OOooo.....oooXXooX.XXoOooOOOoX     ",
"         +  +++                XXXXX....oXXooX.XXooOoooooX     ",
"          ++   +                oOOoXX..ooXXooX.XXooOoooX      ",
"               +          +       .......oXXXooX.XXooooX       ",
"                +                ooOooo...oXXXooX..XXXX        ",
"                                          ..XXXooX.XX          ",
"                       +                    ..XXXXX            ",
"                       +                                       ",
"                      +                                        ",
"                                                               ",
"                                                               ",
"                                                               ",
"                                                               ",
"                                                               ",
"                                                               ",
"                                                               ",
"                                                               ",
"                                                               "
};
