/* XPM */
static char *_[] = {
/* columns rows colors chars-per-pixel */
"63 48 4 1 ",
"  c None",
". c #61D7FF",
"X c #69FFFF",
"o c white",
/* pixels */
"                                                               ",
"                                                               ",
"                                                               ",
"                                                               ",
"                                                               ",
"                                                               ",
"                                                               ",
"                                                               ",
"                                                               ",
"                                                               ",
"                                                               ",
"                                                               ",
"                                                               ",
"           o                                   ..XXXX          ",
"                                        ...XXXXooooooXX        ",
"                                     ..XXooooooooooooooX       ",
"                                  ..XoooooooooooooooooooX      ",
"      .                     ..XXXXXXXooooooooooooooooooooX     ",
"                              XXooooooooooooooooooooooooooX    ",
"                               ..XXXXXooooooooooooooooooooo    ",
"                            ...XXXXooooooooooooooooooooooooX   ",
"                           ooooooooooooooooooooooooooooooooo   ",
"                  .....XXXXXXXXXXXoooooooooooooooooooooooooo   ",
"                       ooooooooooooooooooooooooooooooooooooo   ",
"                           ....XXooooooooooooooooooooooooooo   ",
"                     ..XXXXXXXXooooooooooooooooooooooooooooo   ",
"                             ..ooooooooooooooooooooooooooooo   ",
"                          ..XXXXXXoooooooooooooooooooooooooo   ",
"                             ooooooooooooooooooooooooooooooX   ",
"                  .        ..XXXXXXXXXooooooooooooooooooooo    ",
"                              ..ooooooooooooooooooooooooooX    ",
"                            ...XXXXXXooooooooooooooooooooX     ",
"         .                       ..oooooooooooooooooooooX      ",
"                                     ..XXooooooooooooooX       ",
"                                         ..XXXXooooooXX        ",
"                                               .XXXXX          ",
"                                                               ",
"                                                               ",
"                                                               ",
"                                                               ",
"                                                               ",
"                                                               ",
"                                                               ",
"                                                               ",
"                                                               ",
"                                                               ",
"                                                               ",
"                                                               "
};
