/* XPM */
static char *_[] = {
/* columns rows colors chars-per-pixel */
"63 48 6 1 ",
"  c None",
". c #4061D6",
"X c #388AF5",
"o c #61D7FF",
"O c #69FFFF",
"+ c white",
/* pixels */
"                                                               ",
"                                                               ",
"                                                               ",
"                                                               ",
"                                                               ",
"                                                               ",
"                                          XXXXXXX              ",
"                                       XXXXXXoooOooo           ",
"                                      XXooooXXXoOOOOO          ",
"                     .XXX            XX..oOOOoOooOOOOo         ",
"                       .XXX         XXXX.XoOOOoOooO++Oo        ",
"                         .oo       XXXooooooOOOOOOoO++Oo       ",
"                 ..XX     Xooo    XX...oOOOoooo++OOOO++Oo      ",
"                   .XXXX....XXXX.XXX...XoOOOooOO++OOO+++Oo     ",
"                     .ooo........XX.....XoOOOooOO++OO++++Oo    ",
"                      .Xooo.....XX......XXoO+OoOOO++OO++++O    ",
"                       ..XXXXX.XoX....X..Xooo++OOOO++O++++Oo   ",
"             .XX      .........Xo...XXXXX.XoO+++OOO++++++++O   ",
"              ..XXX  ..XXX.....oo...XooOXXXoOO+++OOO+++++++O   ",
"               ..Xooo....XX....oo..XXXooOOXoOO++++OO+++++++O   ",
"                 .Xooo....XXX.XoX....XXXoO+++OO++++O++++++++o  ",
"                  ..XXXX......XoX.....XXXoo+++O+++++++++++++o  ",
"              ........XXXX....oo......XXXooo++++++++++++++++O  ",
"        ......................oO..oo++++++++++++++++++++++++O  ",
"               ...............oO..XXXooO++++++++++++++++++++O  ",
"              ........XXXX....oO...XXXXXXooo++++++++++++++++O  ",
"                  .XoooX...XX.Xo........Xoo+++O+++++++++++++o  ",
"                 .XooX...XX...XoX.....XXoO+++OO++++O++++++++o  ",
"               ..ooXX...XX.....oX....XooOOXoOO++++OO+++++++O   ",
"              ..XXX  ..X.......oo...XooOXXXoOO+++OOO+++++++O   ",
"             .XX      .........ooX..XXXXXXXoO+++OOO++++++++O   ",
"                       ..XXXXX.XoX...XX..Xooo++OOOO++O++++Oo   ",
"                      .oooX.....XX......XXoO+OoOOO++OO++++O    ",
"                     oooX........XX....XXoOOOooOO++OO++++Oo    ",
"                   .XXXX....XXXX.XX...XXoOOOooOO++OOO+++Oo     ",
"                 ..XX     XXXX    XX..XoOOOoooo++OOOO++Oo      ",
"                         .oo       XX.ooooooOOOOOOoO++Oo       ",
"                       .ooo         X...XXoOOOoOooO++Oo        ",
"                     .XXX            X.XXoOOOoOooOOOOo         ",
"                                      XXooooXXXoOOOOO          ",
"                                       XXXXXXoooOooo           ",
"                                          XXXXXXX              ",
"                                                               ",
"                                                               ",
"                                                               ",
"                                                               ",
"                                                               ",
"                                                               "
};
