/* XPM */
static char *_[] = {
/* columns rows colors chars-per-pixel */
"63 48 6 1 ",
"  c None",
". c #4061D6",
"X c #388AF5",
"o c #61D7FF",
"O c #69FFFF",
"+ c white",
/* pixels */
"                                                               ",
"                                                               ",
"                                                               ",
"                                                               ",
"                                                               ",
"                                                               ",
"                                                               ",
"                                                               ",
"                                   .XXXX.   O+++O              ",
"                                  .XXXXXXX.  O++++             ",
"                                  XXXoXXXXX.  O+++++           ",
"                                 .XXoXX..XX.. O++++++          ",
"                             +   XXooX....X++  O++++++         ",
"                    +++     +   .XooX...  .X++O+O+++++O        ",
"                   ++OO+   +    XXooX..   ...++++O+++++        ",
"                  ++O  O+ +    .XooX...    ..O+++++++++O       ",
"                 +      O++    XXooX..  OO++.OO+++++++++       ",
"                               XXOoX.     O++OO+++++++++O      ",
"                               XoOoX.      O++++++++++++O      ",
"                               oOOoX.       O++++++++++++      ",
"                O++++++++++++OOoOOX..OOOOOOOO++++++++++++      ",
"               ++oooOOOOO++oooooOOX..OOOOO+++++++++++++++      ",
"              OOOOOOO++++++++OooOOX..O+++++++++++++++++++      ",
"           OO+++++++++++++OOOoooOOX..OOOO++++++++++++++++      ",
"             ooOOOOOO+OoooooOOOoOOX..OOOOOOOO++++++++++++      ",
"                oooOO+++++OOOOOoOOX..OOOOO+++++++++++++++      ",
"         OOOO++++++++++++oooooooOOX..OO++++++++++++++++++      ",
"             ooooOOO+OOOOOOOOOOoOOX..OOOOOOOO++++++++++++      ",
"                               oOOoX.       O++++++++++++      ",
"                               XoOoX.      O++++++++++++O      ",
"                               XXOoX.     O++OO+++++++++O      ",
"                               XXooX..  OO++.OO+++++++++       ",
"                   +           .XooX...    ..O+++++++++O       ",
"                   ++          ..XooX..   ...++++O+++++        ",
"                    +O        + .XooX...  .X++O+O+++++O        ",
"                     +       +   XXooX....X++  O++++++         ",
"                     +O     +    .XXoXX..XX.. O++++++          ",
"                      ++  O+      XXXoXXXXX.  O+++++           ",
"                       ++++       .XXXXXXX.  O++++             ",
"                                   .XXXX.   O+++O              ",
"                                                               ",
"                                                               ",
"                                                               ",
"                                                               ",
"                                                               ",
"                                                               ",
"                                                               ",
"                                                               "
};
