/* XPM */
static char *_[] = {
/* columns rows colors chars-per-pixel */
"63 48 6 1 ",
"  c None",
". c #4061D6",
"X c #388AF5",
"o c #61D7FF",
"O c #69FFFF",
"+ c white",
/* pixels */
"                                                               ",
"                                                               ",
"                                                               ",
"                                                               ",
"                                                               ",
"                                                               ",
"                                                               ",
"             ..                                                ",
"           ..                                                  ",
"         ..                                                    ",
"        .     OOO                                              ",
"       .     OO +O                OO+                          ",
"       .    OO   +O              O++++                         ",
"      ..   O      +O            O+  ++O                        ",
"      .   O       +O            O      O    XXXXXXXXX          ",
"     .   O        +O           O              XXXXooooX        ",
"    .X             O          O         XXXXXXXXooooXXXoX      ",
"    XX             O                    OOOXXoooOOOXXXXXoX     ",
"    XX             +O                XXXXXXXXXXoooXXXXoXXX     ",
"    X.             O+     O              OXXXXOOooXXooooXoX    ",
"   .X               OO  OO                OXoooooXXXXoooXXX    ",
"   X.                OOO              XXXXXXXOOOoXXXooOooXoX   ",
"   X.                 O                  XXXXooooXooOOOOoXoX   ",
"   X.                              XXXXXXXXXXoOOOXXXooOOoXoX   ",
"   XX                                XXXXXXooooooXXXooOOoXoX   ",
"   ..                              XXXXXXXXXXOOOoXooOOOOoXoX   ",
"    .            OOO                   XXXXooooooXXXooOooXoX   ",
"    .              OOO                    XXXXoooXXXXoooXXX    ",
"                    +OO                   XXXoOOOoXXooooXoX    ",
"    .                +OO               XXXXXXXXoooXXXXoXXX     ",
"    X                 +OO                  XXooOOooXXXXXoX     ",
"    X.                 +OO                  XXXXooooXXXoX      ",
"    .X                  +OO               XXX XXXXooooX        ",
"     X.                  +O       O             XXXXX          ",
"     .X                  +O       O                            ",
"      .                  +O      O                             ",
"                          O     OO                             ",
"         .                ++O OOO                              ",
"         X                 ++OOO                               ",
"         ..                O++O                                ",
"           ..                                                  ",
"             .                                                 ",
"                                                               ",
"                                                               ",
"                                                               ",
"                                                               ",
"                                                               ",
"                                                               "
};
