/* XPM */
static char *exit1[] = {
/* columns rows colors chars-per-pixel */
"60 60 209 2 ",
"   c None",
".  c #52443D",
"X  c #524A3F",
"o  c #3B794A",
"O  c #357452",
"+  c #367A5A",
"@  c #3D7F62",
"#  c #544740",
"$  c #564A42",
"%  c #594C45",
"&  c #5C4E49",
"*  c #555246",
"=  c #595345",
"-  c #55554A",
";  c #5D524C",
":  c #5C594B",
">  c #545E48",
",  c #5F5450",
"<  c #5C5C54",
"1  c #61544E",
"2  c #615C4E",
"3  c #625651",
"4  c #655A54",
"5  c #685C57",
"6  c #665C5A",
"7  c #6A5D5A",
"8  c #614F4A",
"9  c #496A42",
"0  c #437D43",
"q  c #59614F",
"w  c #65645B",
"e  c #6B625D",
"r  c #676859",
"t  c #70635E",
"y  c #716B5F",
"u  c #61604D",
"i  c #6B5E61",
"p  c #5C7468",
"a  c #6C6463",
"s  c #6B6C64",
"d  c #6B6766",
"f  c #726663",
"g  c #736965",
"h  c #756D6B",
"j  c #7A6E6B",
"k  c #776967",
"l  c #6A7865",
"z  c #73726B",
"x  c #7B716E",
"c  c #78796A",
"v  c #796E71",
"b  c #766F70",
"n  c #777170",
"m  c #7C7474",
"M  c #7B7B74",
"N  c #7F7878",
"B  c #7E7778",
"V  c #817572",
"C  c #837975",
"Z  c #847C7C",
"A  c #887B7A",
"S  c #1E9757",
"D  c #1F9857",
"F  c #1C955D",
"G  c #1F9859",
"H  c #269E4F",
"J  c #289F4D",
"K  c #379A47",
"L  c #239B55",
"P  c #299F52",
"I  c #20965C",
"U  c #219959",
"Y  c #299F58",
"T  c #339654",
"R  c #3D884C",
"E  c #2DA545",
"W  c #2CA34C",
"Q  c #25A14A",
"!  c #32A646",
"~  c #32A847",
"^  c #31A64B",
"/  c #35A94A",
"(  c #3CAD4C",
")  c #2CA152",
"_  c #2DA258",
"`  c #25A053",
"'  c #32A555",
"]  c #34A558",
"[  c #3CAB59",
"{  c #39AB54",
"}  c #138E66",
"|  c #108C69",
" . c #169064",
".. c #1A9360",
"X. c #398461",
"o. c #448145",
"O. c #49864B",
"+. c #489A4D",
"@. c #448753",
"#. c #508C53",
"$. c #518458",
"%. c #4B9556",
"&. c #56965A",
"*. c #6C925E",
"=. c #40AE4E",
"-. c #42B04E",
";. c #41AF51",
":. c #4EA757",
">. c #52AD5A",
",. c #46B253",
"<. c #4BB456",
"1. c #4DB55B",
"2. c #4BB658",
"3. c #51B75C",
"4. c #55BA5C",
"5. c #5ABD5E",
"6. c #478C6D",
"7. c #569864",
"8. c #589D75",
"9. c #4E997A",
"0. c #7C876A",
"q. c #779C68",
"w. c #689D61",
"e. c #53B760",
"r. c #56B961",
"t. c #5DBD62",
"y. c #55AD60",
"u. c #68A46A",
"i. c #77A76D",
"p. c #61B864",
"a. c #6DAC74",
"s. c #78A872",
"d. c #78B278",
"f. c #5DC160",
"g. c #63C164",
"h. c #68C467",
"j. c #65C369",
"k. c #6CC66A",
"l. c #70C76D",
"z. c #74CA6E",
"x. c #76CA71",
"c. c #7CCE74",
"v. c #7DD175",
"b. c #86807F",
"n. c #8B807E",
"m. c #828779",
"M. c #85A16E",
"N. c #84A471",
"B. c #8CAC7C",
"V. c #86A975",
"C. c #83B778",
"Z. c #90B57D",
"A. c #90AD7B",
"S. c #85CF7A",
"D. c #81D077",
"F. c #83D179",
"G. c #8CD67F",
"H. c #88D87C",
"J. c #887E80",
"K. c #7F8780",
"L. c #878180",
"P. c #8B8484",
"I. c #8D8C84",
"U. c #8F8888",
"Y. c #8B8886",
"T. c #918583",
"R. c #948987",
"E. c #938B8A",
"W. c #988C8B",
"Q. c #9A938E",
"!. c #959F8B",
"~. c #9C9393",
"^. c #9A9893",
"/. c #938F8A",
"(. c #A19697",
"). c #A39996",
"_. c #A39699",
"`. c #A49B9B",
"'. c #A99E9E",
"]. c #9ABA8A",
"[. c #96B685",
"{. c #9BA19B",
"}. c #9BB391",
"|. c #A6A59D",
" X c #AAA09F",
".X c #A5A899",
"XX c #AA9DA1",
"oX c #ADA4A4",
"OX c #ACA3A3",
"+X c #ADABA3",
"@X c #B0A6A6",
"#X c #B6ACAC",
"$X c #B9AFAF",
"%X c #B3A6A8",
"&X c #B4B3AC",
"*X c #B9B6AF",
"=X c #BCAEB2",
"-X c #BCB2B2",
";X c #C1B7B7",
":X c #95C486",
">X c #8ED680",
",X c #91D782",
"<X c #92D982",
"1X c #99DD87",
"2X c #9CDE89",
"3X c #9DC694",
"4X c #A8C896",
"5X c #9FE08B",
"6X c #A1E18C",
/* pixels */
"                                                        -X-X-X-X-X-X                                                    ",
"                                                        ).OXOXOXOX@X                                                    ",
"                                      P.P.P.).@XC % . 4 Z E.E.E.E.).#XT.; # %                                           ",
"                                    U.P.P.P.).%XV $ . 1 m P.P.P.P.~.#XT.1 ; 7 g                                         ",
"                          -X).e 4 Z P.P.P.P.).@XC % # 1 m P.P.P.P.~.#XP.1 e Z P.E.OX'.g $                               ",
"                        E.).~.A x j x m Z P.~.).R.x 3 1 m P.P.P.P.P.P.g ; a P.P.E.OXOXg $ .                             ",
"                  $ ; h P.P.E.OXW.7 ; a m P.P.E.).'.k 1 x P.P.P.P.x 4 % ; g P.P.E.OX).g $ % 7 Z U.                      ",
"                . $ ; f Z L.E.).P.1 $ 3 a m Z P.OX@Xj & a m m m m a % ; f m P.~.).E.x 3 & 7 x Z E.@X                    ",
"              3 ; % & 6 h Z P.P.V 4 % % 3 a m P. X+Xx 2 e z z z z e ; e Z P.E.).).x ; % 4 m P.P.~.#X#X                  ",
"            P.T.n.t % % 4 h N L.P.T.j & # , i m }.4XZ.N.V.B.B.B.B.0.e k P.~.).R.V j g g x Z P.P.~.#X(.1                 ",
"            P.).OXC 1 ; 4 7 h Z ~.OXE.r : 2 w l V.,X<X,X,X,X,X<X<XC.l z I.|.+XC 1 h L.P.P.U.E.E.~. Xn.4 3               ",
"        % g P.~.~.n.m P.n.e 6 m E.~.!.V.V.V.w.%.>.5.f.f.f.f.f.f.f.>.%.u.].4X4X0.& 7 m Z E.).OXOXQ.m g x E.$X            ",
"        % e Z L.Z L.E.OXOXc r m.I.m.V.G.<XH.t.^ W ^ ^ ^ ^ ^ ^ ^ ^ W ^ r.F.<XG.*.> r M P.~.).OX XP.7 a P.).@X#X          ",
"        % 4 h n n Z E.OX&X].Z.:XC.y.:.4.4.4.[ U G U U G U U U U U G U ] 4.4.3.=.+.i.]..X(.V f f g x Z P.E.~.OX-X        ",
"      $ % ; 6 6 e h P.W.{.:XH.H.k.{ W W W W P G G G G G G G G G G G G P W W W W { h.>X].!.c u ; e Z P.P.P.P.~.).        ",
"    % % % % & & ; e h f r &.2.2.;.Y G G G G P W W W W W W W W W W W W P U G G G U [ 1.>.p.C.N.s h L.P.P.P.P.x t         ",
"    % $ % ; 4 e f e 4 > 9 K ~ W P G G G G U [ 4.5.4.4.4.4.4.5.4.4.4.4.[ U G U G G P W E ,.z.d.z v P.P.P.Z x 4 #         ",
"    % $ % 7 C ~.).x : 0 K ! W P G G U W W ^ t.H.<XH.>X>X>X>X>X>X>X>XH.h.' W W P G G P W ( ,.&.l v P.P.P.h 1 % $         ",
"    % % , h P.).).T.z %.) ) ) P U P ] r.t.t.k.x.x.x.x.x.x.x.x.x.x.x.x.k.g.p.t.[ P P P P ) Q T $.l M m h 4 $ ; e n.      ",
"    $ ; e m P.P.E.).{.9.G G U W ^ ^ r.F.<X>Xk.,.( ;.;.;.;.;.,.,.;.{ ;.g.H.<XH.t.^ ^ W U G G P K #.l 7 1 % & f P.).-X    ",
"    $ ; a n B Z P._.{.9.G D P W =.t.k.z.x.z.1.P P P P P H P H P P P P <.l.x.z.k.p.,.W H D G G ` R < 7 e e f m E.OX-X    ",
"    % 3 a a d m P.T.K.6.U ) ( ^ 4.F.x.,.( ( ) G G G G G G G G G G G G Y ( ( ;.l.F.t.( ^ ' U G G + * t Z P.P.P.E.).#X    ",
"  Z g e 4 3 4 7 f f s @.' r.k.k.k.k.r.) P P G ........................G P P P 1.k.k.k.k.t.[ P G + < j P.E.U.U.P.A C     ",
"P.P.P.x 3 % % % % & > R ,.v.2X1Xx.,.) G G G G G G G G G G G G G G G G G G G G P ;.z.<X2XF.<.W U X.p m L.P.b.P.Z f 4     ",
"m Z P.Z h 4 $ . X 9 o.K ,.F.1Xx.3.) S G ......G P P P P P P P P P P G ......G G ) 1.z.1XH.<.E W T X.p n h e e f V R.'.-X",
"a h Z P.P.x 4 1 4 O.^ ( 1.x.x.1.) G ....G G G U ' ;.;.;.;.;.,.,.,.' U G G G ....G P ,.x.F.4.( ^ ) I @ d 6 ; & 5 E.#X-X-X",
"; 6 h Z P.E.E.W.R.7.( g.x.h.1.) G } } ..U ) J ) r.x.x.x.x.x.x.x.x.t.' H ) U ..} } G ) 1.g.x.h.( Q G + < 7 h h m T.).#X-X",
"$ ; 6 h Z ~.@X=X&Xd.3.z.x.1.W G  .| } G P ^ ( <.k.H.>X>XH.H.H.>X>Xx.3.( ^ ) G } | } G P <.x.x.4.' U O ; f P.P.P.P.E.). X",
"% % ; 6 h J.~.%X-X3Xx.g.1._ G G .. .G ) W ^ t.x.k.4.4.4.4.4.4.4.4.h.x.g.( W ) G  ...G G _ 1.g.x.h.{ @.w v P.P.P.P.n.x g ",
"% $ $ ; 6 g m T.).4X<X5.W P ....G U P ^ ( 1.k.D.r.W W W W W W W W 1.x.z.3.=.^ P U G ....G W 4.>Xv.=.@.s m P.P.P.Z h 1 . ",
"% $ $ % & ; 3 3 g B.<Xf.W P ....U ) W ^ 5.D.z.1.' U G U U U U U G ) <.k.F.p.^ W W U ....G W 4.<Xv.;.@.s C P.U.b.f ; % # ",
"; 3 4 4 4 e f 1 = *.x.1.) G ....U W ( 4.k.x.t.) D G ..............S W 3.x.z.4.=.^ P ....G P <.x.z.5.&.w f m m x g g g g ",
"a g m Z Z E.).V ; O.;._ G G G ..U ^ 5.F.z.<.' U G ......G G G G G G G ) ,.k.F.t.^ P ....G G Y { g.F.q.: & 1 ; 7 P.'.OX'.",
"6 g Z P.P.~.OXW.x #.W P ....G U ] 3.k.x.t.) D G ..G U U P P P U G ....G ) e.x.k.4.] U G ....D W f.<XV.4 3 7 4 f E.@X-X-X",
"% 7 Z P.P.P.E._.|.a.^ P ....G W 3.F.x.<.) U G G ..G P ^ ^ ^ ^ ) G ......G ) ,.z.F.r.W U ....U W f.,XB.s h Z Z Z P.~.OX-X",
"$ 3 h Z P.P.P.XX&Xd.^ P ....G W 5.<Xx.( H G ..G U P W ( 5.5.( W P U G ..G P ( x.<Xg.^ P ....P W f.,XB.z m P.U.P.P.E.OX-X",
"$ ; a m Z P.P._.+Xa.^ P ....G W 4.H.x.;.P G ..G P ^ ^ <.x.D.1.^ ^ ) G ..G P ( x.<Xt.W G ....P ^ f.,XB.h v P.P.P.P.E.OX#X",
"$ ; a a g h m Z m.&.^ P ....G W 4.>Xx.;.P G ..G P ( 5.k.k.k.k.t.( W G ..G P ( x.<Xt.W G ....P ^ f.,XN.w a m B m g g x C ",
"% ; e 6 ; 3 a 6 ; o.^ P G ..G W 4.>Xx.;.P G ..G P =.z.F.5.4.F.x.,.W G ..G P ( x.<Xt.W G ....P ^ f.,XN.4 3 a a a 4 1 3 3 ",
"$ % ; & $ $ ; & $ 0 ^ P G ..G W 4.>Xx.;.P G ..G ) ( 4.h.k.l.k.5.( W G ..G P ( x.<Xt.W P ....P ^ f.,XZ.z 7 , ; 4 m T.P.n.",
"; ; ; 1 3 3 3 & = o.^ P G ..G W 4.H.x.,.P G ..G P ^ ~ ,.x.x.<.^ ^ P G ..G P ( x.<Xt.^ P ....P ^ 5.,X].I.f 1 % 5 E.#X=X$X",
"x x j C E.Q.R.f = 0 ^ P G ..G W 5.<Xx.( H G ..G G P W ( 4.4.( W P G G ..G P ( x.<Xg.^ P ....U W 5.<X].I.Z x h m R.).$X;X",
"Z L.P.~.OX#X@XT.e O.^ P ....G ) 1.x.x.1.' U G ....G P ^ ^ ^ ^ ) G ..G G U ' <.z.F.4.W G ....D W 5.<X].P.Z L.P.P.Z n.~. X",
"h m P.E.~.~.~.(.Q.u.^ D ....G G ] 1.h.x.t.' P ....G U U P P U U G ....D ) t.x.k.1.] U G ....S W f.<X[.M h m J.P.g 5 e f ",
"a h Z P.P.Z C R.^.s.1.) G G ....P W 4.x.z.3.' U G G ..............G G ] 1.z.D.5.^ P ....G G _ ,.g.x.s.e 6 e h x 4 % 4 e ",
"a d h m P.x 4 4 g N.x.4.) G ....U ^ ( <.k.F.t.W D G ..............G W r.x.k.1.( ^ P ....G P 1.x.x.3.#.; & ; 1 1 % 4 P.).",
"6 e a h x e $ . = M.<Xf.W D ....U ) W ^ 4.x.z.4.] U G U P P P D P ] 3.k.x.t.^ W ) U ....G W 4.<Xv.=.o.w 5 4 t t ; 3 n.).",
"& 3 a e 3 ; $ # ; M.,Xf.W P ....G G P ^ ( <.k.F.t.^ W W ^ ^ ^ W W e.F.z.<.( ^ P G G G ..G W 4.>Xx.;.&.M C Z ~.(.g % 3 5 ",
"$ & 4 ; $ 4 j j x s.x.k.4.] D G .. .G P W ^ 5.x.k.t.t.t.t.t.t.t.t.k.x.t.^ W ) G  ...G G _ 1.h.x.t.' 7.Y.R.U.).).T.g ; . ",
"$ % & % % x '.%X|.a.<.z.F.3.W U  .| } G P ^ ( ,.k.>X<X<X<X<X<X<X<Xx.<.( ^ P G } |  .G ) 1.x.x.1.) U 6.L.P.P.P.E.).~.f $ ",
"$ ; 7 e a Z ).=X&Xa.( 5.z.k.4.' G } } ..U P P ) e.x.x.x.x.x.x.x.x.t.) H ) U ..} } G ) 3.k.z.g.( Q G 6.M J.P.P.P.).).T.C ",
"$ 4 m P.P.P.E.'.+Xa.^ ^ <.x.F.1.) G ..G G G G G ) ( ( ( ( ( ( ( ( ' U G G G G ..G ) <.x.F.4.( ^ ) G @ d m P.P.P.P.E.).@X",
"$ 5 Z E.U.P.P.~.^.8.P Q ,.F.2Xx.t.' D G ......G G P P P P P P P P P G ......G S ) e.x.1XH.<.E P U G + < f m P.P.j f V A ",
"$ 4 m P.n.b.b.P.b.6.I Q ,.x.1X<Xx.<.) I G G G G G G G G G G G G G G G G G G G ) ,.z.<X1XD.<.W G G G O * 3 a m Z f 1 1 3 ",
"$ ; 7 e e e e 7 w @ G G ' 3.g.g.k.z.t.) H P G ........................G P H ) e.z.k.g.g.r.] U G G P o = & , 4 f C T.P.n.",
"; ; ; ; ; 1 3 8 * O G ..U ) ^ ^ 4.F.x.<.( { ) G G G G G G G G G G G G _ { ( ,.z.F.5.^ ^ ) U ..G P ^ o.; & ; & 5 E.#X=X$X",
"x x j h j Z T.k * O ....G G P W ( 4.k.x.D.x.e.) H W W J W W W W H H P 1.x.D.x.k.5.-.^ P G G ....P W O.w f j h m P.).#X;X",
"Z Z Z L.P.^.OXA ; O I G ....U ) W W 3.F.<XH.k.<.,.,.<.,.,.,.,.,.,.,.,.g.F.<XF.r.^ W W U ....G G _ ;.&.s v Z P.P.P.E.(.'.",
"n h h m P.E.E.j * o ) U ....G U U P ] 1.4.4.k.x.F.D.D.D.D.D.D.D.F.F.v.k.5.4.3.] P U U G ....G ) 1.x.q.4 7 n Z P.P.Z j f ",
"a a a n P.P.P.f = o.^ P ....G G ....P W ! ^ k.2X6X6X6X6X6X6X6X6X6X6X2Xz.( E ^ P G ....G ....P ^ f.<XM.; , a N P.P.Z 4 # "
};
