/* XPM */
static char *exit4[] = {
/* columns rows colors chars-per-pixel */
"60 60 212 2 ",
"   c None",
".  c #53453E",
"X  c #3E7C42",
"o  c #36754D",
"O  c #347454",
"+  c #3B7C5C",
"@  c #377A56",
"#  c #3C7E61",
"$  c #544740",
"%  c #564A42",
"&  c #594C45",
"*  c #5C4E49",
"=  c #594741",
"-  c #4B5845",
";  c #565346",
":  c #5D524C",
">  c #5D594B",
",  c #57554B",
"<  c #5F5450",
"1  c #5C5A51",
"2  c #4F4C41",
"3  c #61544E",
"4  c #625651",
"5  c #655A54",
"6  c #695B57",
"7  c #665C5A",
"8  c #6A5E5B",
"9  c #604F4B",
"0  c #5D6553",
"q  c #587354",
"w  c #4C7149",
"e  c #64635B",
"r  c #6B625D",
"t  c #646756",
"y  c #70635E",
"u  c #6D5F62",
"i  c #6C6463",
"p  c #6B6C65",
"a  c #6B6A68",
"s  c #666862",
"d  c #726663",
"f  c #746965",
"g  c #756D6B",
"h  c #7A6E6C",
"j  c #776969",
"k  c #6A7665",
"l  c #74736B",
"z  c #7B716E",
"x  c #747969",
"c  c #766E70",
"v  c #796E71",
"b  c #777170",
"n  c #7D7474",
"m  c #797B75",
"M  c #7F7878",
"N  c #7E7778",
"B  c #827574",
"V  c #847976",
"C  c #847C7C",
"Z  c #857A7A",
"A  c #80706D",
"S  c #38833F",
"D  c #17945F",
"F  c #1C955D",
"G  c #1F985A",
"H  c #269F4D",
"J  c #289F4E",
"K  c #239B55",
"L  c #289F54",
"P  c #239A59",
"I  c #299E59",
"U  c #20965D",
"Y  c #3A954C",
"T  c #2EA546",
"R  c #26A14D",
"E  c #2BA24C",
"W  c #2EA847",
"Q  c #31A747",
"!  c #33A847",
"~  c #32A64C",
"^  c #36A94B",
"/  c #3AAC4C",
"(  c #2AA152",
")  c #26A054",
"_  c #34A753",
"`  c #37A852",
"'  c #3BAA54",
"]  c #36A658",
"[  c #3DAB59",
"{  c #0C896D",
"}  c #0E8D65",
"|  c #138E66",
" . c #118C69",
".. c #1C8461",
"X. c #169163",
"o. c #199360",
"O. c #3D8062",
"+. c #418246",
"@. c #47874B",
"#. c #4B8C53",
"$. c #438657",
"%. c #548A52",
"&. c #459551",
"*. c #57995C",
"=. c #498D4C",
"-. c #6A955F",
";. c #678057",
":. c #40AF4F",
">. c #42B04F",
",. c #42AF51",
"<. c #42AE5A",
"1. c #4AA855",
"2. c #56A75C",
"3. c #45B252",
"4. c #4CB556",
"5. c #4CB45B",
"6. c #47B459",
"7. c #50B757",
"8. c #55BA5B",
"9. c #59BC5E",
"0. c #51B758",
"q. c #468868",
"w. c #4B8E71",
"e. c #5A9B78",
"r. c #549569",
"t. c #669B64",
"y. c #7A9B68",
"u. c #7D887B",
"i. c #749974",
"p. c #638363",
"a. c #5BA665",
"s. c #5DBE61",
"d. c #57B762",
"f. c #64A46C",
"g. c #67A669",
"h. c #61BF64",
"j. c #63B869",
"k. c #6CAC74",
"l. c #78AB70",
"z. c #7EBD75",
"x. c #5EC161",
"c. c #65C265",
"v. c #68C467",
"b. c #65C268",
"n. c #6CC66B",
"m. c #6EC96C",
"M. c #71C76D",
"N. c #72C96D",
"B. c #75CA70",
"V. c #7BCE73",
"C. c #7FCE78",
"Z. c #7CD075",
"A. c #86817F",
"S. c #8B817E",
"D. c #828A7E",
"F. c #828477",
"G. c #809D75",
"H. c #8AA877",
"J. c #88B579",
"K. c #81A06C",
"L. c #86C879",
"P. c #80D077",
"I. c #84D279",
"U. c #8BD57D",
"Y. c #92CA7F",
"T. c #8A7E81",
"R. c #867F80",
"E. c #61A284",
"W. c #868180",
"Q. c #8B8484",
"!. c #8F8888",
"~. c #8C8987",
"^. c #918583",
"/. c #948A87",
"(. c #938A8A",
"). c #9A8D8B",
"_. c #8C9785",
"`. c #9A938E",
"'. c #909A89",
"]. c #9C9393",
"[. c #999993",
"{. c #9D8E91",
"}. c #A19697",
"|. c #A39897",
" X c #A39699",
".X c #A69D9D",
"XX c #A49B9B",
"oX c #A99E9E",
"OX c #8AB984",
"+X c #97A193",
"@X c #A3A39C",
"#X c #AAA19F",
"$X c #AA9DA1",
"%X c #ADA4A4",
"&X c #ACA3A3",
"*X c #ACADA6",
"=X c #B0A7A6",
"-X c #B4A7A9",
";X c #B6ACAC",
":X c #B9AFAF",
">X c #B2A8A7",
",X c #B3B2AE",
"<X c #BCB2B2",
"1X c #BCAEB0",
"2X c #C1B7B7",
"3X c #8FD780",
"4X c #8FD880",
"5X c #93D983",
"6X c #98DC86",
"7X c #92D581",
"8X c #95CC85",
"9X c #A4E28E",
/* pixels */
"                                                        <X<X<X<X<X<X                                                    ",
"                                                        XX&X&X&X&X=X                                                    ",
"                                      Q.Q.Q.XX=XV & . 5 C (.(.(.(.XX;X^.: $ &                                           ",
"                                    !.Q.Q.Q.XX>XB % . 3 n Q.Q.Q.Q.].;X^.3 : 7 f                                         ",
"                          <X|.r 5 C Q.Q.Q.Q.XX=XV & $ 3 n Q.Q.Q.Q.].;X^.3 r C W.(.&X.Xf %                               ",
"                        (.XX].C z h z n C Q.].XX(.z 4 3 n Q.Q.Q.Q.Q.Q.f : i Q.Q.(.&X&Xf % .                             ",
"                  % : g Q.Q.(.&X).7 : i n Q.Q.(.XX.Xj 3 z Q.Q.Q.Q.z 5 & : f Q.Q.(.&XXXf % & 7 C !.                      ",
"                . % : d C W.(.XXQ.3 % 4 i n C Q.&X-Xh * d n n n n i & : d n Q.].XX(.z 4 & 7 z C (.=X                    ",
"              4 : & * 7 g C Q.Q.V 5 & & 4 i n Q.@X@Xl : e p p p p e : r C Q.(.XXXXz : & 5 n Q.Q.].;X;X                  ",
"            Q.^.S.y & & 5 g N W.Q.^.z * & 4 u b i.f.#.+.@.#.#.#.#.q 5 j Q. XXX(.B h f f z C Q.Q.].;X}.3                 ",
"            Q.XX&XV 3 : 5 7 g C ].&X/.0 . ; e x *.,.3.,.,.,.,.3.,.*.x m D.[.@Xz : g Q.Q.Q.(.(.(.].#XS.5 4               ",
"        & f Q.].].S.n Q.S.r 7 V (.].u.@.S +.t.J.L.V.Z.Z.V.V.V.Z.Z.L.J.l.*.a.f.q & 7 n R.(.XX&X&X`.n f z (.:X            ",
"        & r C W.C W.(.&X#Xk 0 x D._.i.0.3.4.n.U.3XU.U.U.U.U.U.U.U.4XU.n.4.3.1.%.e t l A.].XX&X.XQ.7 i Q.XX=X;X          ",
"        & 5 g b b C (.-X*Xt.Y &.g.OX8XI.I.I.n.8.8.8.8.8.8.8.8.8.8.8.8.v.Z.I.P.L.J.*.*.'. XB d d f z C Q.(.].&X<X        ",
"      % & : 7 7 r g Q.{.'.2.^ 3.x.Z.U.U.U.I.s.~ E E E E E E E E E E E d.I.U.U.U.I.x.d.OX_.q - ; r C Q.Q.Q.Q.].XX        ",
"    & & & & * * : r g d t &.3.B.V.9.4.4.0.4.] P G G P P P P P P P G P ] 4.0.4.4.8.B.V.j.1.Y @.0 g Q.Q.Q.Q.Q.z y         ",
"    & & & : 5 r d r 7 t ;.2.c.V.n.' R E E E K o.o.o.o.o.o.o.o.o.o.o.o.P E E E J _ b.V.c.8.8.2.k v Q.Q.Q.C z 5 $         ",
"    & % & 7 V ].|.h 5 y.Y.7XV.9.' P G G G G G G o.o.o.o.G G o.o.G G G G G G G G P _ 8.V.4X4XJ.x c Q.Q.Q.g 4 & %         ",
"    & & < f Q.XX.X^.m l.Z.Z.n.' K G o.o.o.o.G K K K K K K K K K K K K P o.o.o.o.G K _ b.Z.Z.z.G.F.C n g 5 % : r S.      ",
"    % : r n Q.Q.(.XX@Xk.>.>.' P G G G G G G K ~ ~ ~ ~ ~ ~ ~ ~ ~ ~ ~ ~ L G o.G G G G P _ ,.:.s.L.H.l 7 3 & * d Q.XX<X    ",
"    % : i b N C Q. X@Xa.T R K X.| o.G K K K E ^ 0.c.v.c.c.c.c.c.c.8./ E K K K P o.| X.K E T 3.n.g.e 7 r r d n (.&X<X    ",
"    & 4 i i a n Q.^.D.*.E K o. . .o.K ~ ^ ^ ^ :.n.5X5X5X5X5X5X5X5XM.3.^ ^ ^ ~ K o. .{ X.P E ^ / @.> r C Q.S.Q.(.XX;X    ",
"  C f r 5 4 5 r d d p $.K G o.| X.K E ~ 4.n.M.n.n.n.n.n.n.n.n.n.n.n.n.n.n.7.^ E K o.| X.G K E Q @.0 j Q.(.!.!.Q.C V     ",
"Q.Q.Q.z 4 & & & & & - @ o.o.G G P ` / / c.U.6XU.s./ ^ ^ / ^ ^ ^ ^ s.U.6X3Xc.,./ ' P G o.G o.P E &.k n A.Q.A.Q.C d 5     ",
"n C Q.C g 5 % . % - O ..| X.G K [ n.V.B.n.c.v.h.<.K K K K K K K K [ s.v.c.n.B.V.n.<.K G o.| X.P Y #.p.b g r r d B /..X<X",
"i g C Q.Q.z 5 3 1 + o. . .o.P ` 9.I.5X3Xn.' ~ ~ K G o.G G G G G G P ~ ~ ^ h.3X5XI.s.' P o. . .o.K ~ #.s 7 : * 6 (.;X<X<X",
": 7 g C Q.(.(.).~.w.o.X.X.K ' n.M.c.s.s.<.K K K G o.o.o.o.o.o.o.o.G K K K [ s.s.c.M.n.<.K o.X.o.G K @ 1 7 g g n ^.XX;X<X",
"% : 7 g C ].=X<X,XE.o.G K E 4.U.I.3.T E K G o.G G G G G G G G G G G G o.G K E T :.V.3X8.E K G G o.G O : f Q.Q.Q.Q.(.|.#X",
"& & : 7 g R.].-X,XE.G K E T 4.U.I.3.E K G o.o.G K E E E E E E E E K G o.o.G K E :.P.5X8.T E L G o.G + e v Q.Q.Q.Q.S.z f ",
"& % % : 7 f n (.].e.U E / 3.s.V.n.' K G G P G P [ 4.7.4.4.4.4.4.4.[ P G G o.G K ' n.V.h.3./ E G X.G O.a B Q.Q.Q.C g 3 . ",
"& % % & * : 4 6 e + G R 3.M.V.s.' I G G P E E _ h.I.U.U.U.U.U.U.U.n.` K G o.G G P ' 8.V.B.4.E G X.o.O.a B Q.!.A.d : & $ ",
": 4 5 5 5 r d 4 % o K E 3.I.U.4.E G G P ( ^ >.9.M.I.I.I.I.I.I.I.I.M.s.[ P G G o.G J 3.I.U.4.E K G G + e d n n z f f f f ",
"i f n C C (.XXB ; X ~ W 3.I.U.4.E G P E ~ / c.I.n.4.3.3.4.3.4.3.3.c.I.n.` K G o.G J 3.I.U.4.Q ~ ) G O , 9 3 : 7 ^..X&X.X",
"7 f C Q.Q.].&X(.z %./ 4.c.M.n.[ K G K ~ 3.9.n.B.8.Q E E E E E E Q 4.M.M.s.[ P G G K ' b.B.c.4./ ( G @ 1 4 7 5 d (.-X<X<X",
"& 7 C Q.Q.Q.(. X@Xf.,.M.I.9.' P G o.K ~ h.U.n.3./ ~ K G G G G K ~ / ,.b.U.c.~ K G G P _ 8.I.V.3.R G # s v C C C Q.].&X<X",
"% 4 g C Q.Q.Q.$X,Xk.3.V.5X8.E G o.o.K ~ v.5Xn.^ E K G | | | | o.K E ~ c.5XM./ K G o.G J 4.U.I.4.R G # a V Q.!.Q.Q.(.&X<X",
"% : i n C Q.Q. X*Xk.3.V.U.8.E G o.o.K ~ c.5Xn./ K G | { { { {  .o.K ~ c.5Xn.^ K G o.G E 4.U.I.4.R G # p n Q.Q.Q.Q.(.#X;X",
"% : i i f g n C F.*.,.V.U.8.E G o.G K ~ c.5Xn.^ K o. .{ { { { { X.K ~ c.5Xn./ K G o.G E 4.U.I.4.R G @ 1 d n N n f f z V ",
"& : r 7 : 4 i 7 : +.,.Z.U.8.E P o.G K ~ c.5Xn.^ K o. .{ { { {  .o.K ~ c.5Xn./ K G o.G E 4.U.I.3.R G O : 5 i i i 5 3 4 4 ",
"% & : : $ % : & % X ,.Z.U.8.E P o.G K ~ c.5Xn.^ K o. .{ { { { { o.K ~ c.5Xn./ K G o.G E 4.U.I.3.R G q.p 7 < : 5 n ^.Q.S.",
": : : 3 4 4 4 * ; X :.Z.U.8.E G o.o.K ~ c.5Xn.^ K G | { { { {  .o.K ~ c.5Xn.^ K G o.G E 4.U.I.3.R G w.A.h : & 6 /.;X:X:X",
"z z h V (.`./.d ; X ,.Z.4X8.E G o.o.K ^ v.5Xn.^ E ( G | | | | X.o.K ~ c.5XM./ K G o.G J 4.U.I.4.R G w.W.C z g n /.XX:X2X",
"C W.Q.].&X;X=X^.r @.:.m.I.s.' P G G K E s.I.n.4./ ~ K G G G G G G ( 3.n.I.h._ K G G P ' 9.V.B.3.R G w.u.T.R.Q.Q.C S.]..X",
"g n Q.(.].].].}.`.f./ 3.s.B.n.<.K G G P ] 0.M.V.8.! E E E E E E E 4.V.M.8.[ P G G K ' n.V.s.4./ E G q.l v n R.Q.f 6 r d ",
"i g C Q.Q.C V (.[.f.~ T 3.I.U.4.E G o.o.G E s.I.n.4.4.4.4.4.4.4.4.c.I.c./ K G o.G J 4.I.U.4.T E K G + e 7 r g z 5 & 5 r ",
"i a g n Q.n 5 6 r $.K R 3.I.U.4.E G o.o.G P _ 0.M.U.U.U.U.U.U.U.U.B.8.>.^ K G o.G J 3.I.U.4.E K G G O , * : 3 3 & 5 Q.XX",
"7 r i g n r % . 2 O G E 3.n.V.h.<.I G G o.G K / c.I.I.I.I.I.I.I.I.c./ E E P G G I <.s.B.M.4.E G o.G + 5 6 5 y y : 4 S.|.",
"* 4 i r 4 * % = % O G ( / :.9.V.B.,.K G o.G K ^ :.3.4.4.3.3.3.4.4.:.^ ( P G G K ' n.I.s.:./ E G D G q.m C C ].}.f & 4 6 ",
"% * 5 : % 5 h A l q.G K E T 4.U.I.3.E K G G P ( E E J J J J J J E E ( P G G K R :.P.5X8.T E K G D o.w.W.!.!.XXXX^.f : . ",
"% & * & & z .X;X@Xe.o.G P E 4.U.I.4.! ~ L G G G G G G G G G G G G G G G G K ~ Q 3.V.U.8.E K G G G G w.W.Q.Q.Q.(.XX].d % ",
"% : 7 r i C XX1X,XE.o.| X.P [ h.M.n.c.c.4.K K K G o.o.o.o.o.o.o.o.G K K K <.c.c.c.M.b.<.K X.| o.G K q.m T.Q.Q.Q.XXXX^.V ",
"% 5 n Q.Q.Q.(..X*XE.o.}  .X.P _ 8.I.5X5Xn.' ^ ^ L G G G G G G G G P ~ ^ / b.3X6XU.s.` P o. . .o.K ~ #.p n Q.Q.Q.Q.(.XX=X",
"% 6 C (.!.Q.Q.].[.e.K D | X.G K [ c.M.n.n.n.M.n.<.K K K K K K K K [ c.M.n.n.n.M.b.[ K G o.| X.K <.h.-.e i n Q.Q.g d B C ",
"% 5 n Q.S.C S.T.A.*.~ K G G G G P _ ^ / s.U.6XU.c./ / / / / / / / s.U.6X3Xc./ ^ ~ P o.o.G G K E s.U.K.> 4 i n C d 3 3 4 ",
"% : 7 r r r r 7 e #.Q E L G X.| X.G E Q 4.c.c.c.n.M.M.M.M.M.B.B.M.M.c.c.c.4.^ E K X.| X.G K E Q x.5XK.: % < 5 d V ^.Q.S.",
": : : : : 3 4 9 ; @.,./ ~ K o. . .o.K ~ ~ ~ ~ / n.5X5X5X5X5X5X5X5XM.:.~ ~ ~ ~ K o. . .o.K E ^ / c.U.y.> * : * 6 (.;X:X:X",
"z z h g h C ^.d : -.M.7.Q E K o.| o.G P K K E ^ 4.s.s.s.s.s.s.s.s.4./ E K K P G o.| X.K E T 4.M.M.h.*.e d h h n ^.XX:X2X",
"C C C W.Q.].&XB 3 y.I.c.3.3.' I G G G G o.G K ~ ~ ~ ~ ~ E E E E ~ ~ ~ K G o.o.o.o.G P ' 3.3.s.I.m.' $.s v C Q.Q.Q.(.}..X",
"b g c n Q.(.(.h : %.9.M.I.I.n.,.K G o.o.o.o.G P K K P K K P K K K K P G G o.G o.G K ' n.I.I.B.s.[ P @ 1 7 l C Q.Q.C h d ",
"i i i b Q.Q.Q.d ; X :.V.9X9XU.4.E G o.G o.o.o.o.G o.o.o.o.o.o.o.o.o.o.G G G G o.G E 4.I.9X9XP.3.R G O ; 4 i n Q.Q.C 5 $ "
};
