/* XPM */
static char *exit2[] = {
/* columns rows colors chars-per-pixel */
"60 60 212 2 ",
"   c None",
".  c #53453E",
"X  c #514D3F",
"o  c #3A784A",
"O  c #347352",
"+  c #377B56",
"@  c #3C664C",
"#  c #544740",
"$  c #564A42",
"%  c #594C45",
"&  c #5C4E49",
"*  c #584642",
"=  c #545245",
"-  c #56544A",
";  c #5D524C",
":  c #5C594E",
">  c #53574B",
",  c #5F5450",
"<  c #5E5E55",
"1  c #4F5740",
"2  c #604F4A",
"3  c #61544E",
"4  c #625651",
"5  c #655955",
"6  c #695C57",
"7  c #665C5A",
"8  c #6A5D5B",
"9  c #417B45",
"0  c #5C6154",
"q  c #597553",
"w  c #5A644E",
"e  c #64645B",
"r  c #6B625D",
"t  c #666658",
"y  c #70635E",
"u  c #667358",
"i  c #527763",
"p  c #6C6463",
"a  c #636B61",
"s  c #6B6C65",
"d  c #6C6A68",
"f  c #726563",
"g  c #746965",
"h  c #756C6B",
"j  c #7A6D6C",
"k  c #796965",
"l  c #667466",
"z  c #73736B",
"x  c #7B716E",
"c  c #717968",
"v  c #7A6E71",
"b  c #766F70",
"n  c #777170",
"m  c #7C7474",
"M  c #7F7878",
"N  c #7C7A77",
"B  c #827674",
"V  c #847976",
"C  c #847C7C",
"Z  c #867A79",
"A  c #80706E",
"S  c #1E9957",
"D  c #16935E",
"F  c #1C955D",
"G  c #1E985A",
"H  c #3D8747",
"J  c #259E4E",
"K  c #289F4F",
"L  c #278659",
"P  c #388559",
"I  c #239C54",
"U  c #299F53",
"Y  c #20965C",
"T  c #21995A",
"R  c #279859",
"E  c #3C964F",
"W  c #2EA546",
"Q  c #2CA24D",
"!  c #2AA44C",
"~  c #30A745",
"^  c #35A947",
"/  c #32A64B",
"(  c #35A949",
")  c #3BAC4C",
"_  c #2CA153",
"`  c #2DA258",
"'  c #26A152",
"]  c #32A554",
"[  c #3DAC51",
"{  c #32A458",
"}  c #3AAA59",
"|  c #37A755",
" . c #0F8C6A",
".. c #0F8E65",
"X. c #138F66",
"o. c #118C69",
"O. c #169063",
"+. c #199361",
"@. c #388762",
"#. c #399668",
"$. c #258D60",
"%. c #448246",
"&. c #4D8A4F",
"*. c #48844A",
"=. c #4C8B53",
"-. c #458756",
";. c #479556",
":. c #529156",
">. c #56975D",
",. c #498D4B",
"<. c #40AF4E",
"1. c #42B04F",
"2. c #41AF51",
"3. c #42AC5A",
"4. c #45B153",
"5. c #4BB456",
"6. c #47B15A",
"7. c #4CB45B",
"8. c #50B757",
"9. c #51B75D",
"0. c #55BA5C",
"q. c #59BC5E",
"w. c #448764",
"e. c #5C9864",
"r. c #569A77",
"t. c #689B65",
"y. c #769D69",
"u. c #7C897E",
"i. c #6C8B6C",
"p. c #58A665",
"a. c #52B760",
"s. c #54B961",
"d. c #5DBE62",
"f. c #69A46A",
"g. c #79A06B",
"h. c #60BF63",
"j. c #63BA66",
"k. c #71B86A",
"l. c #5CC05F",
"z. c #5DC060",
"x. c #65C265",
"c. c #68C467",
"v. c #6CC66A",
"b. c #6BC66B",
"n. c #70C76D",
"m. c #73C96E",
"M. c #75CA70",
"N. c #7BCD74",
"B. c #7ED176",
"V. c #85817E",
"C. c #8B817E",
"Z. c #81887D",
"A. c #81927B",
"S. c #8EAD7C",
"D. c #85AB75",
"F. c #84B47F",
"G. c #80CF77",
"H. c #80D076",
"J. c #84D279",
"K. c #8AD57D",
"L. c #897E81",
"P. c #867F80",
"I. c #5FA081",
"U. c #6FA888",
"Y. c #878180",
"T. c #8B8484",
"R. c #8F8888",
"E. c #8C8986",
"W. c #918583",
"Q. c #948A87",
"!. c #938B8A",
"~. c #988B8A",
"^. c #958789",
"/. c #9A918D",
"(. c #919B8B",
"). c #9C8F92",
"_. c #9C9393",
"`. c #9C9B94",
"'. c #979390",
"]. c #899A8B",
"[. c #A19696",
"{. c #A39897",
"}. c #A39599",
"|. c #A69D9D",
" X c #A49B9B",
".X c #A99F9D",
"XX c #9BA198",
"oX c #90B188",
"OX c #A3A39C",
"+X c #AAA19F",
"@X c #AB9EA0",
"#X c #ADA4A4",
"$X c #ACA3A3",
"%X c #AAAAA3",
"&X c #B0A7A6",
"*X c #B3A6A9",
"=X c #B6ACAC",
"-X c #B9AFAF",
";X c #B2A8A7",
":X c #B5B3AD",
">X c #BCB2B2",
",X c #BCB8B2",
"<X c #BAAEB1",
"1X c #C1B7B7",
"2X c #8FD780",
"3X c #92D983",
"4X c #99DC87",
"5X c #97DA85",
"6X c #A6C897",
"7X c #A2C18F",
"8X c #A8E490",
"9X c #B5D2A2",
/* pixels */
"                                                        >X>X>X>X>X>X                                                    ",
"                                                         X$X$X$X$X&X                                                    ",
"                                      T.T.T. X&XV % . 5 C !.!.!.!. X=XW.3 # %                                           ",
"                                    R.T.T.T. X;XB $ . 3 m T.T.T.T.'.=XW.3 ; 8 g                                         ",
"                          >X{.r 5 C T.T.T.T. X&XV % # 3 m T.T.T.T.'.=XW.3 r C T.!.$X|.g $                               ",
"                        !. X'.C.x j x m C T.'. X!.x 5 3 m T.T.T.T.T.T.g ; f T.T.!.$X$Xg # .                             ",
"                  $ ; h T.T.!.$X~.8 ; p m T.T.!. X|.k 3 x T.T.T.T.x 5 % ; g T.T.!.$X Xg $ % 8 C R.                      ",
"                . # ; p C Y.!. XT.3 $ 4 p m C T.$X*Xj & f m m m m p % ; f m T.'. X!.x 4 % 8 x C !.&X                    ",
"              4 ; % & 7 h C T.T.B 5 % % 4 p m T.OXOXz ; e s s s s e ; r C T.!. X Xx ; % 5 m T.T.'.=X=X                  ",
"            T.W.C.y % % 5 h M Y.T.W.j & % 4 f m y.f.:.*.&.=.=.=.=.q 7 j T._. X!.B j g g x C T.T.'.=X[.3                 ",
"            T. X$XV 3 ; 5 8 h C '.$XQ.0 = = < a =./ / / / / / / / ;.l z V.XXOXx 3 h T.T.T.!.!.!.'.$XC.5 4               ",
"        % g T.'.'.C.m T.C.r 8 V !.[.A.&.H %.P @.R I I I I I I I I R @.w.>.p.f.q % r m P.!. X$X$X/.B g x !.-X            ",
"        % r C Y.C Y.!.$X+Xc w c u.u.e.| ! / I G G G G G G G G G G G G I ! ( / 9 > 0 c V.'. X$X+XT.8 p T. X&X=X          ",
"        % 5 h n n C !.*X%Xt.,.;.;.#.#.I I I I ! ! ! ! ! ! ! ! ! ! ! ! I I G I L L H >.(.}.B f f g x C T.!.'.$X>X        ",
"      $ % ; 7 7 r h T.).(.p.! ! _ I G G G I | 5.8.5.5.5.5.5.5.5.5.9.5.} I G G G I ' 3.U.].q 1 - r C T.T.T.T.'. X        ",
"    % % % % & & ; r h f e P G G I ! ! ! ! / d.J.K.K.K.K.K.K.K.K.K.K.J.h.] ! ! ! _ I I #.#.E *.0 h T.T.T.T.T.x y         ",
"    % $ % ; 5 r f r 7 > @ L +.G I / <.8.8.q.c.J.J.J.J.J.J.J.J.J.J.J.J.n.q.8.8.1./ I G G G ' E l v T.T.T.C x 5 #         ",
"    % $ % 8 V '.{.x - O L G G _ / / 8.J.3XK.c.5.4.5.4.5.4.4.4.4.4.4.5.x.K.3XJ.q.( / ! I G G P a v T.T.T.h 4 % $         ",
"    % % , g T. X XW.z @.G G | 9.d.d.c.N.H.N.a._ J ! ! ! K ! K K K J ! 5.M.H.N.c.d.h.8.| G G $.i l M B h 5 $ ; r C.      ",
"    % ; r m T.T.!. XXXr.G ' 5.N.3X3XM.5.) 2._ G G G G G G G G G G G G _ [ <.4.c.3X3XJ.9.! G +.$.w.s 8 3 % & f T. X>X    ",
"    $ ; p b m C T.}.XXr._ 9.c.m.M.M.d.] J I G X.O.+.+.+.+.+.+.+.+.O.X.G I J _ a.m.N.m.c.s.] S G + 0 8 r r f m !.$X>X    ",
"    % 4 p p d m T.T.Z.>.4.N.J.8.) ) ] I G G X. .O.G G G G G G G G O.o.X.G G G _ ) ) 5.N.G.5._ I + - r C T.C.T.!. X=X    ",
"  C g r 5 4 5 r f f s f.c.n.h.<.W J G X.X.+.X.X.G I I I I I I I I G X.X.+.X.X.G I ! ) d.n.m.d.] P < h T.!.R.R.T.C V     ",
"T.T.T.x 4 % % % % & t D.J.8.( ( _ I O.o.X.G G G _ ) ) ) ) ) ) ) ) ] Y G G X. .X.G _ ( ( 5.G.N.5.;.l n Y.T.V.T.C f 5     ",
"m C T.C h 5 $ . $ u g.k.d.1.! U I G O.X.G I J _ a.m.N.M.M.M.M.M.M.d.] J I G X.O.G I U ! ) q.c.m.j.:.i.n h r 8 f B Q.|.>X",
"p h C T.T.x 5 3 t D.2Xz.( / ! I +.G G G _ [ <.4.c.2X3X3X3X3X3X3X3XM.5.<.2._ G G G G Y _ / ( 8.K.N.2.=.e 7 ; & 6 !.=X>X>X",
"; 7 h C T.!.!.!./.7X3Xl.~ K I G G U ! ! 5.M.H.N.c.d.d.d.d.d.d.d.d.c.N.H.N.a.! ! _ I G I I ! 8.3XB.) H : 8 h h m T. X=X>X",
"$ ; 7 h C '.&X<X:X6XJ.8.! G +.+.I / ) 4.x.K.3XJ.d./ ! / / / / ! ! 9.J.3XK.c.5.) / I +.+.G _ 5.N.M.5.*.: f T.T.T.T.!.{.+X",
"% % ; 7 h P.'.*X:XoX5.] G X.o.O.I ! 9.N.m.q.8.9.| I S I I I I I I | 9.8.q.c.N.8./ I +.o.X.G | 5.x.N.y.r j T.T.T.T.C.x g ",
"% $ $ ; 7 f m ^.`.f./ I +.o.X.G ` 6.x.G.x.) W ! G O.+.+.G +.+.+.+.G ! W ( h.G.c.5.` G X.o.O.I ! l.3XS.z m T.T.T.C h 3 . ",
"% $ $ % & ; 4 6 r =./ I +.O.G U 5.N.M.8.<.( ! G X.o.X.+.+.+.G O.o.X.G U ( <.9.m.N.9._ G O.+.I ! z.3XS.z m T.R.V.f 3 % # ",
"; 4 5 5 5 r f 4 $ o U G O.+.G ! 8.3XN.<.W ! I +.X.o.G I I I I G X.o.+.I _ W ) M.3Xd.! I +.O.G _ 5.M.g.r f m m x g g g g ",
"p g m C C !.{.B - O G O.o.O.I ! 8.2XN.2.K I G G +.G I / / / / U G +.+.G I J ) M.3Xd.! I O.o.X.G ` 2.&.; & 3 ; 8 W.|.$X|.",
"7 g C T.T.'.$X~.z w.+.X.X.G | 5.x.M.d.] G O.O.+.G U 5.d.h.d.d.5._ G G O.O.G ] d.M.c.9.| G X.X.+.I ! *.: 4 8 5 f !.*X>X>X",
"% 8 C T.T.T.!.}.OXr.+.D G U 5.N.N.9.] I O.o.X.G I [ n.3X3X3X3XM.2.U G X. .X.Y ] 5.N.J.9.! G +.+.I / =.s v C C C T.'.$X>X",
"$ 4 h C T.T.T.@X:XI.+.D G ! 9.K.J.4.J G O.X.G U 5.x.n.M.M.M.M.m.x.5.` G X.X.G J ) N.3Xq.! I +.G I / =.s V T.R.T.T.!.$X>X",
"$ ; p m C T.T. X%XI.+.D G ! 5.K.J.4.K G +.+.I [ n.K.d.) ) ) ) q.K.M.[ I G +.G I 2.N.K.8.! G +.+.I / =.s m T.T.T.T.!.+X=X",
"$ ; p p g h m C C w.+.G G ! 5.K.J.4.K G +.G I ) N.3Xd.~ W ~ W 8.2XG.4.J G +.G I 2.N.K.8.! G +.+.I / *.< f m M m g g x V ",
"% ; r 7 ; 4 p 5 ; O G +.G ! 5.K.J.4.K G +.G I ) M.3Xd.( ^ ^ ^ 8.2XN.2.I G +.G J 2.N.K.8.! I +.+.I / %.; 5 p p p 5 3 4 4 ",
"$ % ; & # $ ; % $ O G +.G ! 5.K.J.4.K G +.G I ) N.3Xd.~ W ~ W 8.2XG.4.J G +.G J 4.N.K.8.! Y +.+.I / :.s 8 , ; 5 m W.T.C.",
"; ; ; 3 4 4 4 2 = O G +.G ! 5.K.J.5.! G +.+.I [ c.K.x.2.<.2.<.d.J.M.[ I +.+.G J 4.N.K.8.! G +.+.I / e.V.h 3 % 6 Q.=X-X-X",
"x x j V Q./.Q.k = O G +.G ! 9.K.J.4.J G X.X.+.I 3.d.m.N.N.N.N.m.x.6.U G X.X.G J <.N.3Xq.! I +.+.I / e.E.C x h m Q. X-X1X",
"P.T.T.'.$X=X&XW.e + +.O.G I 6.N.N.8.] I O.o.X.G I [ c.2X2X2X2XM.2.I G X.o.O.I ] 9.N.N.5._ G +.+.I / >.V.L.Y.T.T.C C.'.|.",
"b m T.!.'.'.'.[.'.r.+...X.G ` 6.x.N.x.| I +.O.G G U 3.8.8.8.q.6.U G G O.O.G ] d.N.c.5.| G X.o.+.I / :.z v m C T.g 6 r f ",
"p h C T.T.C V !.`.r.Y X.o.O.G ! 8.3XN.2.! I G +.+.+.I ! ! ! ! I +.O.+.G I J ) N.3Xd.! I +.o.X.G | 5.>.e 7 r h x 5 % 5 r ",
"p d h m T.x 5 6 r =._ G +.+.G ! 8.3XN.<.W ! I +.X.o.+.I I I I G o.o.+.I ! W ) M.3Xd.! I +.O.G _ 8.N.y.: & ; 3 3 % 5 T. X",
"7 r p h x r $ . X 9 / I +.O.G I 6.M.M.d.4.( ! I O.o.O.+.+.+.+.O.o.O.G K ( 4.8.m.M.5.U G O.+.I ! z.3XS.r 4 5 y y ; 4 C.{.",
"& 4 p r 4 ; % * = %./ I +.o.o.G U 2.x.J.c.) ~ ! I +.+.+.+.+.+.+.+.I ! ~ ) x.J.c.2._ G X.o.O.I / l.3XoXV.B C '.[.g % 4 8 ",
"$ & 5 ; $ 5 j j x t.8.} I O.o.O.I ! 5.m.m.d.d.d.} I I I I I I I I } s.d.d.n.M.8./ I +.o.X.G | 9.x.M.F.E.T.R. X XW.g ; . ",
"$ % & % % x |.*X%X7XJ.8.! G +.+.I / ) 2.x.K.3XK.d.( / / / / / / / 8.J.3X2Xc.4.) / I +.+.G _ 9.J.M.5.e.Y.T.T.T.!. X'.f $ ",
"$ ; 8 r p C  X=X,X9X4Xq./ ! I G G I I U 5.n.N.m.c.x.x.x.x.x.x.x.x.c.m.N.m.5._ J U G G I U W 8.3XB.<.:.N L.T.T.T. X XW.V ",
"$ 5 m T.T.T.!. X:X6X2Xd.) ( ! I G G G G U ) ) 2.c.3X3X3X3X3X3X3X3XM.4.) ) _ G G G G I _ ( ( 8.K.N.2.=.s m T.T.T.T.!. X&X",
"$ 6 C !.R.T.T.).`.oXc.c.x.4.! _ I G X.X.G I J _ a.c.c.c.c.c.c.n.c.a._ I I G X.X.G I _ ! ) d.c.c.s.] + < f m T.T.j f B C ",
"$ 5 m T.C.V.V.L.V.e.2.M.J.q.) ( ! I O. .X.G G G _ ( ( ( ( ( ) ) ( _ G G G X. .X.I _ ( ) 9.G.N.4._ Y O - 4 p m C f 3 3 4 ",
"$ ; 8 r r r r 8 e -.U 5.c.m.x.<.W K G O.X.+.X.X.G I I I I I I I I G X.X.+.O.X.G K W ) x.m.c.a._ G G O $ % , 5 f V W.T.C.",
"; ; ; ; ; 3 4 2 = O G ' 4.N.G.8.<.2.] I G G X. .O.G G G G G G G G O. .X.G G I ] 2.<.9.N.N.5._ G G G + - & ; & 6 !.=X-X-X",
"x x j h j C W.k - O G G _ 5.x.M.N.N.d.] J K G O.O.+.+.+.+.+.+.+.+.O.X.G I J _ d.N.H.N.c.9.| G G G U -.e f x j m T. X=X1X",
"C C C Y.T.`.$XZ ; O Y G G I 4.N.3X2XM.5.4.4.| I G I I I Y Y Y Y Y G I | 4.4.5.c.K.3XN.5._ G +.G ' / =.a v C T.T.T.!.[.|.",
"n h h m T.!.!.j - o _ I G G ` 5.8.8.x.N.J.N.d.] ! ! ! ! ! ! ! ! ! ! ! a.N.J.N.x.8.8.5.| G G I _ ( / *.: 8 n C T.T.C j f ",
"p p p n T.T.T.f = %./ I +.+.G ! ~ ~ q.3X8X4Xc.) ~ ( ( ( ( ( ( ( ( ^ ( x.4X8X4Xx.^ ~ ! I +.+.I / ^ / 9 = 4 p M T.T.C 5 . "
};
