/* XPM */
static char *_[] = {
/* columns rows colors chars-per-pixel */
"35 38 8 1 ",
"  c None",
". c #4A3B1F",
"X c #E5AB3D",
"o c #FDC760",
"O c #2379EA",
"+ c #D8B78F",
"@ c #FFD7A8",
"# c white",
/* pixels */
"    .............................  ",
"    .............................  ",
"    .............................  ",
"  .....XXXXXXXXXooooooooooooooooo..",
"  .....XXXXXXXXXooooooooooooooooo..",
"..OO...XXXXXXXXXXXXooooXXXXXXXooo..",
"..OO...XXXXXXXXXXXXooooXXXXXXXooo..",
"..OO...XX#######XXXoo..ooooooo.....",
"..OO...XX#######XXXoo..ooooooo.....",
"..OO...XX#######XXXoo..ooooooo.....",
".......XX###..##XXXoooooooooooooo..",
".......XX###..##XXXoooooooooooooo..",
"  ..OOO..#######XXXoooooooooooooo..",
"  ..OOO..#######XXXoooooooooooooo..",
"  ..OOO..#######XXXoooooooooooooo..",
"  ..OOO..XXXXXXXXXXoooooooooooooo..",
"  ..OOO..XXXXXXXXXXoooooooooooooo..",
"  .......XXXXXXXXXXXXoo............",
"  .......XXXXXXXXXXXXoo............",
"       .....XXXXoooooooooo..       ",
"       .....XXXXoooooooooo..       ",
"       .....XXXXoooooooooo..       ",
"         ...XX++@@@@@@@@@@..       ",
"         ...XX++@@@@@@@@@@..       ",
"    ........XX++@@@@@@@@@@..       ",
"    ........XX++@@@@@@@@@@..       ",
"    ...oooooXX++@@@@@@@@@@..       ",
"    ...oooooXX++@@@@@@@@@@..       ",
"    ...oooooXX++@@@@@@@@@@..       ",
"    .....XXXXXXXooo++++ooo..       ",
"    .....XXXXXXXooo++++ooo..       ",
"       .....XXoooooooooooo..       ",
"       .....XXoooooooooooo..       ",
"       .....XXoooooooooooo..       ",
"         ...XXoo.....XXooo..       ",
"         ...XXoo.....XXooo..       ",
"         .......   .......         ",
"         .......   .......         "
};
