/* XPM */
static char *_[] = {
/* columns rows colors chars-per-pixel */
"34 40 8 1 ",
"  c None",
". c #4A3B1F",
"X c #E5AB3D",
"o c #FDC760",
"O c #2379EA",
"+ c #D8B78F",
"@ c #FFD7A8",
"# c white",
/* pixels */
"   .............................  ",
"   .............................  ",
" .....XXXXXXXXXooooooooooooooooo..",
" .....XXXXXXXXXooooooooooooooooo..",
" .....XXXXXXXXXooooooooooooooooo..",
".OO...XXXXXXXXXXXoooooXXXXXXXooo..",
".OO...XXXXXXXXXXXoooooXXXXXXXooo..",
".OO...XX#######XXooo..ooooooo.....",
".OO...XX#######XXooo..ooooooo.....",
"......XX##...##XXooooooooooooooo..",
"......XX##...##XXooooooooooooooo..",
"......XX##...##XXooooooooooooooo..",
" ..OOO..#######XXooooooooooooooo..",
" ..OOO..#######XXooooooooooooooo..",
" ..OOO..XXXXXXXXXooooooooooooooo..",
" ..OOO..XXXXXXXXXooooooooooooooo..",
" ..OOO..XXXXXXXXXooooooooooooooo..",
" .......XXXXXXXXXXXXoo............",
" .......XXXXXXXXXXXXoo............",
"      ....XXXXXoooooooooo..       ",
"      ....XXXXXoooooooooo..       ",
"        ..XXX++@@@@@@@@@@..       ",
"        ..XXX++@@@@@@@@@@..       ",
"        ..XXX++@@@@@@@@@@..       ",
"   .......XXX++@@@@@@@@@@..       ",
"   .......XXX++@@@@@@@@@@..       ",
"   ...ooooXXX++@@@@@@@@@@..       ",
"   ...ooooXXX++@@@@@@@@@@..       ",
"   .....XXXXXXXoo+++++ooo..       ",
"   .....XXXXXXXoo+++++ooo..       ",
"   .....XXXXXXXoo+++++ooo..       ",
"      ....XXXoooooooooooo..       ",
"      ....XXXoooooooooooo..       ",
"        ..XXXoo.....XXooo..       ",
"        ..XXXoo.....XXooo..       ",
"        ..XXXoo.....XXooo..       ",
"        ..XXX..  ...XX...         ",
"        ..XXX..  ...XX...         ",
"        .....    .....            ",
"        .....    .....            "
};
