/* XPM */
static char *_[] = {
/* columns rows colors chars-per-pixel */
"33 38 2 1 ",
"  c None",
". c white",
/* pixels */
"  ....................           ",
"  ....................           ",
".............................    ",
".............................    ",
".............................    ",
"...............................  ",
"...............................  ",
".................................",
".................................",
".................................",
".................................",
".................................",
".................................",
".................................",
"...............................  ",
"...............................  ",
"...............................  ",
"...............................  ",
"      .........................  ",
"      .........................  ",
"      ..................         ",
"      ..................         ",
"      ..................         ",
"    ..................           ",
"    ..................           ",
"  ........................       ",
"  ........................       ",
"  ........................       ",
"  ........................       ",
"  ........................       ",
"  ........................       ",
"    ..................           ",
"    ..................           ",
"    ..................           ",
"               .......           ",
"               .......           ",
"                 .....           ",
"                 .....           "
};
