/* XPM */
static char *_[] = {
/* columns rows colors chars-per-pixel */
"46 46 9 1 ",
"  c None",
". c #584B44",
"X c #6D6666",
"o c #1B945F",
"O c #35A948",
"+ c #0C896D",
"@ c #8B8484",
"# c #BAB0B0",
"$ c #9EDF8A",
/* pixels */
"               @@@##...@@@@#...               ",
"               @@@##...@@@@#...               ",
"           #..@@@@##...@@@@#..@@@#..          ",
"        .@@@##.XX@@@#..@@@@...@@@#...@@       ",
"        .@@@##.XX@@@#..@@@@...@@@#...@@       ",
"      ...XX@@@...X@@#..XXXX.@@@##...@@@#      ",
"     @##...X@@#...XXOOOOOOOX@@#..@@@@@@#..    ",
"     @##...X@@#...XXOOOOOOOX@@#..@@@@@@#..    ",
"   ..@@@@##.@@@OOO$$$$$$$$$$OOO..X@@###.@@#   ",
"   ..XXX@##OOO$$$$OOOOOOOOOO$$$$$O##...@@@@## ",
"   ..XXX@##OOO$$$$OOOOOOOOOO$$$$$O##...@@@@## ",
"  ......X..O$$OOOOooooooooooOOOOO$OOOXX@@@@.. ",
"  ...@##.$$$OOooooOOOOOOOOOOoooooO$$$XX@@@... ",
"  ...@##.$$$OOooooOOOOOOOOOOoooooO$$$XX@@@... ",
"  .XX@@@#OOOoooOOO$$$$$$$$$$OOOoooOOO$$X...@@#",
"  .XXX@@@OOoooO$$$OOOOOOOOOO$$$OOoooOOO.@@@@@#",
"  .XXX@@@OOoooO$$$OOOOOOOOOO$$$OOoooOOO.@@@@@#",
"@@@......ooOOO$OOOOOoooooooOOOO$$OOOoOOX@@@@@.",
"XX@@@...oooO$$OOOoooooooooooooOOO$OOoooOXX...#",
"XX@@@...oooO$$OOOoooooooooooooOOO$OOoooOXX...#",
"..X@@###oOO$OOooooooOOOOOOOooooooO$$Oooo..@@@@",
"...XX@##O$$OOOooooOO$$$$$$$OoooooOOO$OOoXX@@@@",
"........O$$OoooooO$$OOOOOOO$OOooooOO$OOoXX@@@.",
"........O$$OoooooO$$OOOOOOO$OOooooOO$OOoXX@@@.",
"XX@@@#..$OOOoooOO$OOOoooooOO$$OoooOOO$$O.....#",
"..@@@@##$OOoooO$$OOOo++o++oOOO$OOoooO$$OXX@@@@",
"..@@@@##$OOoooO$$OOOo++o++oOOO$OOoooO$$OXX@@@@",
"..X@@@##$OOoooO$$Ooo+ooOoo+oOO$OOoooO$$OXX@@@@",
"..X..X..$OOoooO$$OoooOO$OOooOO$OOoooO$$O..XXX.",
"..X..X..$OOoooO$$OoooOO$OOooOO$OOoooO$$O..XXX.",
"........$OOoooO$$Ooo+ooOoo+oOO$OOoooO$$O@@...#",
"@@@###..$OOoooO$$OOOo++o++oOOO$OOoooO$$O@@@@@@",
"@@@###..$OOoooO$$OOOo++o++oOOO$OOoooO$$O@@@@@@",
"XX@@@@##$OOOoooOO$OOOoooooOO$$OoooOOO$$OXXX@@.",
"XXX@@...O$$OoooooO$$OOOOOOO$OOooooOO$OOo......",
"XXX@@...O$$OoooooO$$OOOOOOO$OOooooOO$OOo......",
"..X.....O$$OOOooooOO$$$$$$$OoooooOOO$OOo@@@##.",
".....###oOO$OOooooooOOOOOOOooooooO$$Oooo@@@@@#",
".....###oOO$OOooooooOOOOOOOooooooO$$Oooo@@@@@#",
"..@@@@##oooO$$OOOoooooooooooooOOO$OOoooOXX@@@@",
"..@@@@@@OooOOO$OOOOOoooooooOOOO$$OOOoOO$..X@@.",
"..@@@@@@OooOOO$OOOOOoooooooOOOO$$OOOoOO$..X@@.",
"........OOOoooO$$$OOOOOOOOOO$$$OOoooOOO$.....#",
"@@@@@#..$OOOoooOOO$$$$$$$$$$OOOoooOOO$$OXX@@@@",
"@@@@@#..$OOOoooOOO$$$$$$$$$$OOOoooOOO$$OXX@@@@",
"XXX@@@..O$$$OOooooOOOOOOOOOOoooooO$$$OOo..X@@@"
};
