/* XPM */
static char *_[] = {
/* columns rows colors chars-per-pixel */
"46 46 9 1 ",
"  c None",
". c #584B44",
"X c #6D6666",
"o c #1B945F",
"O c #35A948",
"+ c #0C896D",
"@ c #8B8484",
"# c #BAB0B0",
"$ c #9EDF8A",
/* pixels */
"              @@@##...@@@@##..                ",
"              @@@##...@@@@##..                ",
"          #..@@@@##...@@@@##.@@@#..           ",
"       .@@@##.XX@@@#..@@@@...@@@#...@@        ",
"       .@@@##.XX@@@#..@@@@...@@@#...@@        ",
"     ...XX@@@...X@@#..XXXX..@@##...@@@#       ",
"    @##...X@@#...XX$$$$$$$XX@#..@@@@@@#..     ",
"    @##...X@@#...XX$$$$$$$XX@#..@@@@@@#..     ",
"   .@@@@##.@@@$$$OOOOOOOOOOO$$..X@@###.@@#    ",
"   .XXX@##$$$OOOOoooooooooooOOOO$##...@@@@##  ",
"   .XXX@##$$$OOOOoooooooooooOOOO$##...@@@@##  ",
" ......X..OOOooooOOOOOOOOOOOooooOOO$XX@@@@..  ",
" ...@##.OOOoooOOO$$$$$$$$$$$OOoooOOOXX@@@...  ",
" ...@##.OOOoooOOO$$$$$$$$$$$OOoooOOOXX@@@...  ",
" ..X@@@#oooOOO$$$OOOOOOOOOOO$$OOOoooOOX...@@# ",
" ..XX@@@ooOOO$OOOoooooooooooOO$$OOOooo.@@@@@# ",
" ..XX@@@ooOOO$OOOoooooooooooOO$$OOOooo.@@@@@# ",
"@@@.....OO$$$OooooooooooooooooOO$$$OooX@@@@@. ",
"X@@@...OOO$OOooooooOOOOOOOooooooO$$OOOoXX...##",
"X@@@...OOO$OOooooooOOOOOOOooooooO$$OOOoXX...##",
".XX@###O$$Ooo+ooOOO$$$$$$$OOOo++oOO$OOo..@@@@#",
"...X@##$OOooooOOO$$OOOOOOO$$OOoooooO$$OXX@@@@.",
".......$OOoooOOO$OOoooooooOO$OOOoooO$$OXX@@@..",
".......$OOoooOOO$OOoooooooOO$OOOoooO$$OXX@@@..",
"X@@@#..OoooooO$$OoooooooooooO$OOooooOO$.....##",
".@@@@##OoooOO$OOooooOOOOOooooO$$OoooOO$XX@@@@#",
".@@@@##OoooOO$OOooooOOOOOooooO$$OoooOO$XX@@@@#",
".XX@@##OoooOO$OOoooOOO$OOOoooO$$OoooOO$XX@@@@#",
".XX.X..OoooOO$OOoooO$$O$$OoooO$$OoooOO$..XXX..",
".XX.X..OoooOO$OOoooO$$O$$OoooO$$OoooOO$..XXX..",
".......OoooOO$OOoooOOO$OOOoooO$$OoooOO$@@...##",
"@@@##..OoooOO$OOooooOOOOOooooO$$OoooOO$@@@@@@#",
"@@@##..OoooOO$OOooooOOOOOooooO$$OoooOO$@@@@@@#",
"X@@@@##OoooooO$$OoooooooooooO$OOooooOO$XXX@@..",
"XXX@...$OOoooOOO$OOoooooooOO$OOOoooO$$O......#",
"XXX@...$OOoooOOO$OOoooooooOO$OOOoooO$$O......#",
".XX....$OOooooOOO$$OOOOOOO$$OOoooooO$$O@@@##..",
"....###O$$Ooo+ooOOO$$$$$$$OOOo++oOO$OOo@@@@@#.",
"....###O$$Ooo+ooOOO$$$$$$$OOOo++oOO$OOo@@@@@#.",
".@@@@##OOO$OOooooooOOOOOOOooooooO$$OOOoXX@@@@#",
".@@@@@@oOO$$$OooooooooooooooooOO$$$Oooo..X@@..",
".@@@@@@oOO$$$OooooooooooooooooOO$$$Oooo..X@@..",
".......oooOOO$OOOoooooooooooOO$$OOOoooO.....##",
"@@@@#..ooooOOO$$$OOOOOOOOOOO$$OOOoooooOXX@@@@#",
"@@@@#..ooooOOO$$$OOOOOOOOOOO$$OOOoooooOXX@@@@#",
"XXX@@..OooooooOOO$$$$$$$$$$$OOooooooOO$..X@@@."
};
