/* XPM */
static char *_[] = {
/* columns rows colors chars-per-pixel */
"46 46 9 1 ",
"  c None",
". c #584B44",
"X c #6D6666",
"o c #1B945F",
"O c #35A948",
"+ c #0C896D",
"@ c #8B8484",
"# c #BAB0B0",
"$ c #9EDF8A",
/* pixels */
"               @@@##...@@@@##...              ",
"               @@@##...@@@@##...              ",
"           #..@@@@##...@@@@##.@@@#..          ",
"        .@@@##.XX@@@#..@@@@...@@@#...@@       ",
"        .@@@##.XX@@@#..@@@@...@@@#...@@       ",
"       ..XX@@@...X@@#..XXXX..@@@#...@@@#      ",
"     @@#...X@@#...XXOOOOOOOXX@##.@@@@@@#..    ",
"     @@#...X@@#...XXOOOOOOOXX@##.@@@@@@#..    ",
"    .@@@@##.@@@OOOoooooooooooOOO.X@@###.@@#   ",
"    .XXX@##OOOooooOOOOOOOOOOOooooO##...@@@@## ",
"    .XXX@##OOOooooOOOOOOOOOOOooooO##...@@@@## ",
"  ......X..oooOOOO$$$$$$$$$$$OOOOoooOXX@@@@.. ",
"  ...@@#.oooOOO$$$OOOOOOOOOOO$$$OOoooXX@@@... ",
"  ...@@#.oooOOO$$$OOOOOOOOOOO$$$OOoooXX@@@... ",
"  ..X@@@#ooO$$$OOOoooooooooooOOO$$OOoooX...@@#",
"  ..XXX@@OO$OOOooo++ooooooo++oooOO$$Ooo.@@@@@#",
"  ..XXX@@OO$OOOooo++ooooooo++oooOO$$Ooo.@@@@@#",
" @@@.....$$OOOo++oooOOOOOOOooo++oOOO$OOX@@@@@.",
"#X@@@...$OOOoooooOOO$$$$$$$OOOooooOOO$$OXX...#",
"#X@@@...$OOOoooooOOO$$$$$$$OOOooooOOO$$OXX...#",
"#.XX@###$OOoooOOO$$$OOOOOOO$$$OOOoooO$$O..@@@@",
"....X@@#Ooo+ooO$$OOOoooooooOOO$$Oo++oOO$XX@@@@",
"........OoooOO$OOOoo+ooooo+ooOOO$OoooOO$XX@@@.",
"........OoooOO$OOOoo+ooooo+ooOOO$OoooOO$XX@@@.",
"#X@@@##.o++oOO$OOooooOOOOOooooOO$Ooo+ooO.....#",
"#.@@@@@#oooO$$Ooo+ooO$$$$$Ooo+ooO$OOoooOXX@@@@",
"#.@@@@@#oooO$$Ooo+ooO$$$$$Ooo+ooO$OOoooOXX@@@@",
"#.XX@@@#oooO$$OoooOO$OOOOO$OOoooO$OOoooOXX@@@@",
"..XX.XX.oooO$$OoooOO$OOOOO$OOoooO$OOoooO..XXX.",
"..XX.XX.oooO$$OoooOO$OOOOO$OOoooO$OOoooO..XXX.",
"#.......oooO$$OoooOO$OOOOO$OOoooO$OOoooO@@...#",
"#@@@###.oooO$$Ooo+ooO$$$$$Ooo+ooO$OOoooO@@@@@@",
"#@@@###.oooO$$Ooo+ooO$$$$$Ooo+ooO$OOoooO@@@@@@",
".X@@@@@#o++oOO$OOooooOOOOOooooOO$Ooo+ooOXXX@@.",
"#XXX@...OoooOO$OOOoo+ooooo+ooOOO$OoooOO$......",
"#XXX@...OoooOO$OOOoo+ooooo+ooOOO$OoooOO$......",
"..XX....Ooo+ooO$$OOOoooooooOOO$$Oo++oOO$@@@##.",
".....###$OOoooOOO$$$OOOOOOO$$$OOOoooO$$O@@@@@#",
".....###$OOoooOOO$$$OOOOOOO$$$OOOoooO$$O@@@@@#",
"#.@@@@@#$OOOoooooOOO$$$$$$$OOOooooOOO$$OXX@@@@",
"..@@@@@@O$$OOOo++oooOOOOOOOooo++oOOO$OOo..X@@.",
"..@@@@@@O$$OOOo++oooOOOOOOOooo++oOOO$OOo..X@@.",
"#.......oOO$OOOooo++ooooooo++oooOO$$Oooo.....#",
"#@@@@##.oooO$$$OOOoooooooooooOOO$$OOoooOXX@@@@",
"#@@@@##.oooO$$$OOOoooooooooooOOO$$OOoooOXX@@@@",
".XXX@@@.OoooOOO$$$OOOOOOOOOOO$$$OOoooOOO..X@@@"
};
