/* XPM */
static char *_[] = {
/* columns rows colors chars-per-pixel */
"46 46 9 1 ",
"  c None",
". c #584B44",
"X c #6D6666",
"o c #1B945F",
"O c #35A948",
"+ c #0C896D",
"@ c #8B8484",
"# c #BAB0B0",
"$ c #9EDF8A",
/* pixels */
"              @@@##...@@@@##...               ",
"              @@@##...@@@@##...               ",
"          #..@@@@##...@@@@##.@@@##..          ",
"       ..@@##.XX@@@#..@@@@...@@@##...@@       ",
"       ..@@##.XX@@@#..@@@@...@@@##...@@       ",
"      ...X@@@...X@@#..XXXX..@@@#....@@@#      ",
"    @@#...X@@#...XXoooooooXX@##.@@@@@@@#..    ",
"    @@#...X@@#...XXoooooooXX@##.@@@@@@@#..    ",
"   .@@@@@#.@@@oooOOOOOOOOOOOooo.XX@@###.@@#   ",
"   .XXX@@#oooOOOO$$$$$$$$$$$OOOOoo##...@@@@## ",
"   .XXX@@#oooOOOO$$$$$$$$$$$OOOOoo##...@@@@## ",
" ......XX.oOO$$$$OOOOOOOOOOO$$$$OOoooXX@@@@.. ",
" ...@@#..OO$$OOOOoooooooooooOOOO$$OOOXX@@@... ",
" ...@@#..OO$$OOOOoooooooooooOOOO$$OOOXX@@@... ",
" ..X@@@##O$OOOoooooooooooooooooOOO$$OOOX...@@#",
" ..XXX@@@$OooooooooOOOOOOOooooooooOO$OO.@@@@@#",
" ..XXX@@@$OooooooooOOOOOOOooooooooOO$OO.@@@@@#",
"@@@......OooooooOOO$$$$$$$OOOoooooooO$$X@@@@@.",
"X@@@...OOooooOOO$$$OOOOOOO$$$OOOoooooOO$XX...#",
"X@@@...OOooooOOO$$$OOOOOOO$$$OOOoooooOO$XX...#",
".XX@###OOooOOO$$OOOoooooooOOO$$OOOoooOOO..@@@@",
"...X@@#ooooOO$OOoooooooooooooOO$OOoooooOXX@@@@",
".......oooO$$Ooo+oooOOOOOooo+ooO$$OOoooOXX@@@.",
".......oooO$$Ooo+oooOOOOOooo+ooO$$OOoooOXX@@@.",
"X@@@##.oooO$$o++oOOO$$$$$OOOo++o$$OOoooo.....#",
".@@@@@#ooO$OOooooOO$OOOOO$OOooooOO$$OoooXX@@@@",
".@@@@@#ooO$OOooooOO$OOOOO$OOooooOO$$OoooXX@@@@",
".XX@@@#ooO$oo+ooO$$OoooooO$$Ooo+oo$$OoooXX@@@@",
".XX.XX.ooO$oo+ooO$$Ooo+ooO$$Ooo+oo$$Oooo..XXX.",
".XX.XX.ooO$oo+ooO$$Ooo+ooO$$Ooo+oo$$Oooo..XXX.",
".......ooO$oo+ooO$$OoooooO$$Ooo+oo$$Oooo@@...#",
"@@@###.ooO$oo+oooOO$OOOOO$OOooo+oo$$Oooo@@@@@@",
"@@@###.ooO$oo+oooOO$OOOOO$OOooo+oo$$Oooo@@@@@@",
"X@@@@@#oooO$$o++oOOO$$$$$OOOo++o$$OOooooXXX@@.",
"XXX@...oooO$$o+++oooOOOOOooo+++o$$OOoooO......",
"XXX@...oooO$$o+++oooOOOOOooo+++o$$OOoooO......",
".XX....ooooOO$oo+++ooooooo+++oo$OOoooooO@@@##.",
"....###OOooOOO$$ooo+++++++ooo$$OOOoooOOO@@@@@#",
"....###OOooOOO$$ooo+++++++ooo$$OOOoooOOO@@@@@#",
".@@@@@#OOooooOOO$$$ooooooo$$$OOOoooooOO$XX@@@@",
".@@@@@@$$OooooooOOO$$$$$$$OOOoooooooO$$O..X@@.",
".@@@@@@$$OooooooOOO$$$$$$$OOOoooooooO$$O..X@@.",
".......OO$OooooooooOOOOOOOooooooooOO$OOO.....#",
"@@@@##.OOO$OOOoooooooooooooooooOOO$$OOOoXX@@@@",
"@@@@##.OOO$OOOoooooooooooooooooOOO$$OOOoXX@@@@",
"XXX@@@.ooOO$$OOOOoooooooooooOOOO$$OOOoo+..X@@@"
};
