/* XPM */
static char *win2[] = {
/* columns rows colors chars-per-pixel */
"37 40 8 1 ",
"  c None",
". c #382121",
"X c #A04345",
"o c #BC4D4F",
"O c #4B9A27",
"+ c #D8B78F",
"@ c #FFD7A8",
"# c white",
/* pixels */
"                                     ",
"                                     ",
"    .........................        ",
"    .........................        ",
"  ..oooooooooooooooXXXXXXXX.....     ",
"  ..oooooooooooooooXXXXXXXX.....     ",
"  ..oooooooooooooooXXXXXXXX.....     ",
"  ..oooXXXXXXooooXXXXXXXXXX..OOO..   ",
"  ..oooXXXXXXooooXXXXXXXXXX..OOO..   ",
"  .....oooooo..ooXX##..##XX..OOO..   ",
"  .....oooooo..ooXX##..##XX..OOO..   ",
"  ..oooooooooooooXX##..##XX.......   ",
"  ..oooooooooooooXX##..##XX.......   ",
"  ..oooooooooooooXX##..##..OO...     ",
"  ..oooooooooooooXX##..##..OO...     ",
"  ..oooooooooooooXXXXXXXX..OO...     ",
"  ..oooooooooooooXXXXXXXX..OO...     ",
"  ...........ooXXXXXXXXXX.......     ",
"  ...........ooXXXXXXXXXX.......     ",
"             ..ooooooooXXXX.....     ",
"             ..ooooooooXXXX.....     ",
"             ..@@@@@@@@++XX..        ",
"             ..@@@@@@@@++XX..        ",
"             ..@@@@@@@@++XX.......   ",
"             ..@@@@@@@@++XX.......   ",
"             ..@@@@@@@@++XXooooo..   ",
"             ..@@@@@@@@++XXooooo..   ",
"             ..oo++++ooXXXXXX.....   ",
"             ..oo++++ooXXXXXX.....   ",
"             ..ooooooooooXX.....     ",
"             ..ooooooooooXX.....     ",
"             ..ooooooooooXX.....     ",
"             ..ooXX....ooXX..        ",
"             ..ooXX....ooXX..        ",
"               ..XX..  ..XX..        ",
"               ..XX..  ..XX..        ",
"                 ....    ....        ",
"                 ....    ....        ",
"                                     ",
"                                     "
};
