/* XPM */
static char *run1[] = {
/* columns rows colors chars-per-pixel */
"80 80 185 2 ",
"   c None",
".  c #331F1F",
"X  c #34201F",
"o  c #371E21",
"O  c #381F21",
"+  c #372120",
"@  c #3B2322",
"#  c #3B2C22",
"$  c #3B3322",
"%  c #3D3C23",
"&  c #442525",
"*  c #492727",
"=  c #442A27",
"-  c #4A2B27",
";  c #4B2728",
":  c #452D29",
">  c #4D2928",
",  c #542B2B",
"<  c #5C2D2D",
"1  c #46322A",
"2  c #483728",
"3  c #4D3D33",
"4  c #5B3932",
"5  c #5A392B",
"6  c #622E2F",
"7  c #62302E",
"8  c #642E30",
"9  c #663031",
"0  c #6B3233",
"q  c #643E3B",
"w  c #733435",
"e  c #793637",
"r  c #7A3738",
"t  c #7E3839",
"y  c #743A37",
"u  c #3D4323",
"i  c #3E4C23",
"p  c #3F5423",
"a  c #3F5A23",
"s  c #494528",
"d  c #425524",
"f  c #415B23",
"g  c #57463D",
"h  c #65433C",
"j  c #7D423F",
"k  c #416323",
"l  c #436E24",
"z  c #437424",
"x  c #457A24",
"c  c #7E3F40",
"v  c #694C43",
"b  c #764C45",
"n  c #6D5245",
"m  c #7B574E",
"M  c #675655",
"N  c #6B5A59",
"B  c #6A5555",
"V  c #745352",
"C  c #785554",
"Z  c #843A3B",
"A  c #8C3C3E",
"S  c #913E3F",
"D  c #8B3F40",
"F  c #943F40",
"G  c #854D4D",
"H  c #874744",
"J  c #944041",
"K  c #9C4244",
"L  c #9B4B4C",
"P  c #974748",
"I  c #825048",
"U  c #8A5552",
"Y  c #995753",
"T  c #A44446",
"R  c #A84547",
"E  c #A64648",
"W  c #AB4649",
"Q  c #A34B4B",
"!  c #AD484A",
"~  c #B1474A",
"^  c #B3494B",
"/  c #BB4C4E",
"(  c #A4504D",
")  c #AB504F",
"_  c #A44F50",
"`  c #BE4E50",
"'  c #A95353",
"]  c #AD5855",
"[  c #A35758",
"{  c #A5595A",
"}  c #AC5B5C",
"|  c #A35854",
" . c #B95050",
".. c #BB5B57",
"X. c #B55854",
"o. c #836253",
"O. c #8C6556",
"+. c #946B5A",
"@. c #AF635A",
"#. c #B5645C",
"$. c #AC5E60",
"%. c #996565",
"&. c #9A7963",
"*. c #957475",
"=. c #937B7B",
"-. c #9D7879",
";. c #806968",
":. c #AD6363",
">. c #A56465",
",. c #B06163",
"<. c #B66E61",
"1. c #B66B68",
"2. c #A07E67",
"3. c #B77062",
"4. c #BC7566",
"5. c #B97C69",
"6. c #BC7B7C",
"7. c #B57A79",
"8. c #AF797A",
"9. c #C04F51",
"0. c #C25051",
"q. c #C3655E",
"w. c #C96860",
"e. c #C76C63",
"r. c #C37C6A",
"t. c #478225",
"y. c #A3826A",
"u. c #A9876E",
"i. c #B38F73",
"p. c #BB9578",
"a. c #B59678",
"s. c #B3876F",
"d. c #C8816E",
"f. c #C58D75",
"g. c #CB8873",
"h. c #DC8D78",
"j. c #D68975",
"k. c #C79077",
"l. c #C89A7D",
"z. c #8F8483",
"x. c #938484",
"c. c #928887",
"v. c #A78080",
"b. c #B88788",
"n. c #B69A9B",
"m. c #BDA2A3",
"M. c #C58A8C",
"N. c #C48889",
"B. c #D89D81",
"V. c #C99899",
"C. c #CBA684",
"Z. c #D3AC89",
"A. c #D7A887",
"S. c #D6B38D",
"D. c #DFB992",
"F. c #E5AB8B",
"G. c #ECB18F",
"H. c #EEB390",
"J. c #E5BC94",
"K. c #CFADAE",
"L. c #D2A4A5",
"P. c #C2AFB0",
"I. c #C3B5B5",
"U. c #C5BDBD",
"Y. c #CAB2B3",
"T. c #DEBBBB",
"R. c #D5B6B6",
"E. c #E5C097",
"W. c #EBC399",
"Q. c #EBC59B",
"!. c #F2C99E",
"~. c #F4CEA1",
"^. c #FACFA3",
"/. c #F5D1A3",
"(. c #F9D2A4",
"). c #FCD7A8",
"_. c #FFDBAB",
"`. c #E1BFC0",
"'. c #C7C2C2",
"]. c #C8C1C1",
"[. c #DCCACB",
"{. c #E1C1C2",
"}. c #E2CECE",
"|. c #E3D6D6",
" X c #E5D8D8",
/* pixels */
"                                                                                                                                                                ",
"                                                                                                                                                                ",
"                                                                                                                                                                ",
"                                                                                                                                                                ",
"                                                                                                                                                                ",
"                                                                                                                                                                ",
"                                                                                                                                                                ",
"                                                                                                                                                                ",
"                                                                                                                                                                ",
"                                                                                                                                                                ",
"                                                                                                                                                                ",
"                                                                                                                                                                ",
"                                                                                                                                                                ",
"                                                                                                                                                                ",
"                                                                                                                                                                ",
"                                                                                                                                                                ",
"                                                    +                                                                 . .                                       ",
"                                                  @ @ @                                                               @ @                                       ",
"                                                @ @ @ @ & & & & & & & & & & & & * * * * * * * * * * * * * * * * * * * * * * & &                                 ",
"                                              O @ & * , , , , , , , , , , , , , 9 9 9 9 9 9 9 9 9 9 9 9 9 9 9 9 9 9 9 9 9 9 , , *                               ",
"                                            o o @ & , 9 w r r r t r e r r r r t Z A A A A A A A A A A A A A A A A A A A A A r 8 * &                             ",
"                                          # @ + @ * 6 r A J J J J F S J J J J K K T W W W W W W W W W W W W W T T W W W W T A 9 - @                             ",
"                                        u % $ # # - 9 Z K T T K K K K K K K T T W ! ^ ^ / / / / / / ^ ^ ^ ^ ^ ^ ! ^ ^ / / ^ K w - @ .                           ",
"                                      i p a i % $ - 9 Z K T T T T T E E T T T T W W ~ ^ / ` 9.9.` / / ^ W W W W W W ^ / / / K w - @ .                           ",
"                                    # i k l k p % - 8 Z K T T T T T T T E T T T E W W ^ ^ / / / ^ ^ ! W E E E E E W W ^ ^ ^ J w - @                             ",
"                                  @ # p l x z f % - 6 Z K ' } $.} _ L L Y } } } ' ! W ~ ^ ^ ^ W T T T E W W W E W W W W T K Z 9 ; &                             ",
"                                o @ # p z t.x f % - 8 Z L ,.6.b.8.%.G U %.8.b.6.,.! W W ~ ~ T J A S K T ! ! ! ! ! ! W T F Z 9 , & &                             ",
"                                  @ $ p z t.x f % - 8 Z | 6.L.R.n.*.V C *.m.K.V.7.' T W ~ W F t w r F T ^ ^ ^ ^ ^ ^ W J t 9 , & & @                             ",
"                                    # i l x l p % - 8 Z [ N.T.}.I.x.B N =.I.[.R.N.} E W ~ E A w 9 w F W / / / / / / W J r 6 - & @ @                             ",
"                                    @ % a k f u $ - 8 Z { M.`. XU.x.M N x.]. X{.M.,.E W ~ W J Z e Z K ^ / ` ` ` 9./ ~ K A 9 , - @ @                             ",
"                                  @ @ $ % i u $ # * 8 Z { M.{. XU.c.M N z.]. X{.M.,.E R W W T K J K R ^ / / / / / / ^ W K A w , & @                             ",
"                                @ @ @ @ # # # # # - 7 Z { M.`. XU.c.M N z.'. X{.M.,.E R W ^ ^ ^ ^ ^ ^ / / / / / / / / / ~ T Z 9 ; &                             ",
"                                  @ @ @ @ @ # $ % 2 5 y Y b.T. XU.x.M N z.'. X{.M.,.E R ! / / / / / / / / / / / / / / / / W F w - &                             ",
"                                    @ O O @ $ u d d s 4 m v.R. XU.x.M N z.'. X{.M.,.E R ^ / / / / / / / / / / / / / / 9.` ^ F w - &                             ",
"                                      o O @ % d l l f s v =.P.[.I.x.B N z.U.[.T.M.,.E W ^ / / / / / / / / / / / / / / 9./ ~ F w - &                             ",
"                                        @ # u f x z k s g ;.n.Y.m.=.V C *.m.R.L.6.} E W ^ / / / / / / / ` ` ` / / ` ` 0./ ~ F w - &                             ",
"                                          # u k x x k u 3 V -.b.b.%.G G %.b.V.M.1.' T W ^ / / / / / / / ` ` ` ` 9.9.9.0./ ~ F w - @                             ",
"                                          # u k x x k u 1 h U >.:.[ P J Y :.1.,.' Q W W ^ / / / / / / / / / / / / ` ` 9./ ~ F 9 - @                             ",
"                                          # u f z l a % = 4 c L Q Q K K E Q _ Q Q T E W ^ ^ / / / ^ ^ ! W W W W ! ! ! ! W T A 9 - &                             ",
"                                          # % i a a i $ = , e S T T T T T T T K K T E W W ~ ^ / / ! K J A A A A A A S S A Z w , * @                             ",
"                                          @ # % u u $ # & , e S T E E T T T T T T T E E W W ^ / ^ T Z w 8 8 9 9 9 9 9 9 9 6 , - & @ +                           ",
"                                          @ @ # # # # & - 6 r F T E E T T T T T T T T E E W ! ^ T A w , & & & * * * * * * * & & @ @ +                           ",
"                                          @ @ O @ @ & , , 9 Z J T T E T T T T R T T T E E T T K A e 6 & @ + + @ @ @ @ @ @ @ @ @ @ @                             ",
"                                      @ @ @ O o @ & , 9 w Z A K T T W W W W W W W W W W W T F Z w , , &                                                         ",
"                                        @ @ O o @ & , w A J K Q Q ! ^  . . . . . . . . .^ Q D 9 , - -                                                           ",
"                                          @ @ o @ * 6 Z K T ( ] ] ..q.q.w.w.w.w.w.w.w.w.q.] H 9 & @                                                             ",
"                                            o o @ * 8 Z K ' @.4.r.d.j.h.h.h.h.h.h.h.h.h.j.4.U q = +                                                             ",
"                                              X @ * 6 Z L @.5.k.B.A.F.G.H.H.H.H.H.H.H.H.F.k.+.h : @                                                             ",
"                                                @ * 8 Z Q #.f.A.D.W.!.^.^.^.^.^.^.^.^.(.Q.Z.2.n 1 +                                                             ",
"                                                @ * 6 Z Q <.f.Z.E.~.)._._._._._._._._._./.S.y.n 1 +                                                             ",
"                                                @ * 8 Z Q <.f.Z.E.~._._._._._._._._._._./.S.y.n 1 +                                                             ",
"                                              & & , 9 Z ( <.f.Z.D.W.!.~./._._._._._._._./.S.y.n 1 +                                                             ",
"                                            & - , 9 r A ( 3.k.Z.S.Z.Z.S.J.~._._._._._._./.S.y.n 1 +                                                             ",
"                                          @ ; 6 w Z A F ( 3.k.C.C.i.y.u.l.J./._._._._._./.S.y.n 1 +                                                             ",
"                                    @ @ @ & , e A K T T ( <.f.l.a.&.o.o.y.C.W.(._._._._.!.Z.2.n : +                                                             ",
"                                  @ @ @ & , 9 A T W W E ) #.d.f.s.+.b b O.i.Z.E.~.(.(.~.J.l.&.v : +                                                             ",
"                                + @ @ - , w A K W ! W E ! X.3.4.<.Y H b I +.u.l.S.E.W.H.B.r.Y h = @                                                             ",
"                                  @ & , w A K T T T T T ! ) ..#.X.) K J j b o.&.p.Z.A.B.d.@.H 9 & @                                                             ",
"                                  @ & , e F K K K K K T T ! ^  . .^ W K t 9 h m 2.p.l.d.q.! Z , & @                                                             ",
"                                + @ & , 9 Z A A Z Z A K T W ^ ^ / ` ^ T t , 4 h O.5.r.w...E Z , & @                                                             ",
"                                + + @ * , 9 9 9 9 9 t A K W W ^ / 9./ T t , - 4 I | #...` T Z , & @                                                             ",
"                                    @ @ & * & & & , 9 Z J W W ^ / 9./ E Z , - , y J Q ^ W K t , & @                                                             ",
"                                      @ @     @ @ * , w Z K T ^ / ` / E Z , - - 6 e A F S A w , &                                                               ",
"                                      + +       @ & , , 9 Z K W ^ / ^ T Z , ; & , 6 9 w w 9 8 ,                                                                 ",
"                                                  @ & & , 9 Z K W ^ ! K t , & @ & & - - - - -                                                                   ",
"                                                    @ @ & , 9 Z F K K A w , & @ + @ @ @ @ @                                                                     ",
"                                                      + @ - , 9 w r t w , ; @ + . o + . .                                                                       ",
"                                                      @ @ & * - , , , , * & @ @                                                                                 ",
"                                                      @ @ @ @ @ @ @ & @ @ @ @ @                                                                                 ",
"                                                      @ @ @ @ @ + + @ + @ @                                                                                     ",
"                                                                                                                                                                ",
"                                                                                                                                                                ",
"                                                                                                                                                                ",
"                                                                                                                                                                ",
"                                                                                                                                                                ",
"                                                                                                                                                                ",
"                                                                                                                                                                ",
"                                                                                                                                                                ",
"                                                                                                                                                                ",
"                                                                                                                                                                "
};
