/* XPM */
static char *run3[] = {
/* columns rows colors chars-per-pixel */
"80 80 185 2 ",
"   c None",
".  c #331F1F",
"X  c #371D21",
"o  c #381E21",
"O  c #362220",
"+  c #3B2322",
"@  c #372820",
"#  c #3B2C23",
"$  c #3B3323",
"%  c #3C3B22",
"&  c #432525",
"*  c #492727",
"=  c #432A26",
"-  c #4A2D27",
";  c #4C2728",
":  c #442C28",
">  c #4E2829",
",  c #52292A",
"<  c #5B2C2D",
"1  c #46342A",
"2  c #443525",
"3  c #58372B",
"4  c #4C3D30",
"5  c #5C3030",
"6  c #622E2F",
"7  c #642F30",
"8  c #653131",
"9  c #6B3132",
"0  c #643C38",
"q  c #743436",
"w  c #793637",
"e  c #7C3738",
"r  c #7E383A",
"t  c #3D4423",
"y  c #3E4C23",
"u  c #3F5223",
"i  c #464726",
"p  c #405523",
"a  c #415B23",
"s  c #554333",
"d  c #66463D",
"f  c #426423",
"g  c #436D24",
"h  c #457524",
"j  c #467C25",
"k  c #5F4B42",
"l  c #6B4C45",
"z  c #6D5345",
"x  c #675656",
"c  c #6A5A5A",
"v  c #6A5555",
"b  c #765353",
"n  c #72514C",
"m  c #7D6260",
"M  c #843A3B",
"N  c #8B3C3E",
"B  c #913E3F",
"V  c #8D3E40",
"C  c #943F40",
"Z  c #983F41",
"A  c #8B4B4C",
"S  c #874847",
"D  c #964143",
"F  c #9B4243",
"G  c #9E4A4A",
"H  c #974749",
"J  c #855353",
"K  c #9C5354",
"L  c #985C57",
"P  c #8D574E",
"I  c #A34446",
"U  c #A94547",
"Y  c #A64648",
"T  c #AC4649",
"R  c #A44A4B",
"E  c #AC4A4B",
"W  c #B14749",
"Q  c #B4494B",
"!  c #BA4C4E",
"~  c #A4514E",
"^  c #AB514F",
"/  c #A34F50",
"(  c #BE4E50",
")  c #A45353",
"_  c #A95453",
"`  c #A55A5C",
"'  c #AC5A5B",
"]  c #AC5A55",
"[  c #BC5553",
"{  c #BE5856",
"}  c #B45854",
"|  c #996E5C",
" . c #B1635A",
".. c #BC635C",
"X. c #B36A5F",
"o. c #AE6159",
"O. c #9A5F60",
"+. c #996768",
"@. c #9C7260",
"#. c #947474",
"$. c #957A7A",
"%. c #8D7373",
"&. c #AD6263",
"*. c #B16264",
"=. c #B56D61",
"-. c #B36A6B",
";. c #A17E67",
":. c #BC7A69",
">. c #B97365",
",. c #B87B7C",
"<. c #C04F51",
"1. c #C15856",
"2. c #C2655E",
"3. c #C36B61",
"4. c #CD7267",
"5. c #CA7669",
"6. c #C67B6B",
"7. c #478325",
"8. c #A38369",
"9. c #C6816F",
"0. c #C68E75",
"q. c #CC8974",
"w. c #C88470",
"e. c #D18D76",
"r. c #D48F78",
"t. c #CC987C",
"y. c #D8957D",
"u. c #9F7F80",
"i. c #BE7F80",
"p. c #8F8484",
"a. c #928484",
"s. c #928888",
"d. c #928887",
"f. c #B48384",
"g. c #B78687",
"h. c #BB9B9C",
"j. c #AB8D8F",
"k. c #BFA6A6",
"l. c #BDA7A9",
"z. c #C28788",
"x. c #C48C8D",
"c. c #C58A8B",
"v. c #D39D80",
"b. c #C79596",
"n. c #E29B81",
"m. c #D4A584",
"M. c #DAA585",
"N. c #D6AC89",
"B. c #D7B38D",
"V. c #DCB38E",
"C. c #DFBA92",
"Z. c #E2AB8A",
"A. c #E2B18E",
"S. c #E4BA93",
"D. c #EDB994",
"F. c #E8B591",
"G. c #F1BC97",
"H. c #F3BF99",
"J. c #CAA9AA",
"K. c #D4A8A9",
"L. c #C3B5B6",
"P. c #C5BDBD",
"I. c #CDB6B8",
"U. c #DBBBBC",
"Y. c #D7B6B7",
"T. c #E4C197",
"R. c #EAC499",
"E. c #EAC59A",
"W. c #F2C39B",
"Q. c #F2CA9E",
"!. c #F3CEA1",
"~. c #F8CEA1",
"^. c #F5D0A3",
"/. c #FAD3A5",
"(. c #FDD7A8",
"). c #FFDAAA",
"_. c #C7C1C2",
"`. c #C8C2C2",
"'. c #DFC0C1",
"]. c #DAC8C9",
"[. c #DFD3D4",
"{. c #E1C2C3",
"}. c #E2D4D5",
"|. c #E4D7D8",
" X c #E4D8D8",
/* pixels */
"                                                                                                                                                                ",
"                                                                                                                                                                ",
"                                                                                                                                                                ",
"                                                                                                                                                                ",
"                                                                                                                                                                ",
"                                                                                                                                                                ",
"                                                                                                                                                                ",
"                                                                                                                                                                ",
"                                                                                                                                                                ",
"                                                                                                                                                                ",
"                                                                                                                                                                ",
"                                                                                                                                                                ",
"                                                                                                                                                                ",
"                                                    +                                                                 . .                                       ",
"                                                  + + + * * * * * * * * * * * * * * * * * * * * * * * * * * * * * * * + + * *                                   ",
"                                                + + + * ; ; ; ; ; ; ; ; ; ; ; - - - - - ; ; ; - - - - - - , , - - - - , , - - -                                 ",
"                                              o + * ; < 7 9 8 7 7 7 7 7 8 8 8 9 9 q q q q q q q q q q q q q q q q q q q q q 9 < -                               ",
"                                            + o + * < 9 e M M M M M M M M M M N B C C C C C C C C C C C D D F F F C C Z C C M 9 - *                             ",
"                                          # # + + * 6 e C F F F F F F D D F F F I T T W W W W W W W W W T E T W W W W W W T C q - *                             ",
"                                        y t % $ # - 8 M F I I I I I I I I I I I T T Q Q ! ! ! ! ! ! ! W W Q Q W W W Q ! ! Q F q - + .                           ",
"                                      y p a u t $ - 8 M F Y Y Y Y Y I I I Y Y Y T T W Q ! ( <.<.! ! Q Q T T T T T T T Q ! Q F q , + .                           ",
"                                    $ y f h g p $ - 6 M F R R R R R F F F R R R Y T T W Q ! ! ! Q T T T Y Y Y Y Y Y Y T W T C 9 - *                             ",
"                                  + $ y g 7.h a 2 - 7 M G ' *.-.&.K D A K &.-.*._ R T T Q Q E I F F I Y T T T T T T I I F C e 7 ; *                             ",
"                                X + $ u g 7.j a % - 7 M / -.z.b.g.+.S J +.g.b.z.-._ Y T Q E F N e M F I T Q E T Q E U F M q 6 , * *                             ",
"                                  + # y g j h u % - 7 M ) i.K.U.k.$.b b $.k.Y.K.,.' T T T Y N q 9 q B I Q Q ! Q ! Q T C q < * + + +                             ",
"                                  + # t a g f y % - 7 M ` x.U.|.L.a.v c a.P.].U.x.*.T T T Y N q 9 e C T ! ! ! ! ! ! T D e 6 - * + +                             ",
"                                X o + % y p y % $ - 6 M ` x.{.|.P.s.x c p.`.|.{.x.*.T T W T C M M N I Q ! <.( ( ( ! W I V e 7 , * +                             ",
"                                  + + # $ % $ $ # - 6 M ` x.{. XP.s.x c p.`.|.{.x.*.E T W T I I F I T Q ! ! ! ! ! ! Q T I D e 6 * +                             ",
"                                    + + + + # # $ 1 5 e K x.'. XP.s.x c p.`.|.{.x.&.Y U W Q Q Q Q Q Q ! ! ! ! ! ! ! ! ! Q T B 9 - *                             ",
"                                    + o o + # % t i 3 0 J f.U.|.P.a.x c p.`.|.{.x.&.Y U Q ! ! ( ! ! ! ! ! ! ! ! ! ! ! ( ! W C q - *                             ",
"                                      X o + $ y a a i s n u.I.[.P.s.x c p.`.|.'.x.*.R T Q ! ! ! ! ! ! ! ! ! ! ! ! ! ! <.! W C q - *                             ",
"                                      X o + % p h g a i l %.l.].L.a.v c $.L.].Y.z.&.Y T Q ! ! ! ! ! ! ! ! ! ! ! ! ! ! <.! W C q - *                             ",
"                                          # t f j j f i s m j.J.h.#.b b $.h.J.b.,.' Y T Q ! ! ! ! ! ! ( ( ( ( ( ( ( ( <.( W F q , *                             ",
"                                          # t f 7.j f t 4 n +.g.,.+.A A O.,.g.,.*._ T T Q ! ! ! ! ! ! ( ( ( ( ( ( ( ( <.( Q F q , *                             ",
"                                          # t f j h f t 1 0 S ` ' ) H H K ` &.' / R U T Q ! ! ! ! ! ! Q Q Q Q Q Q Q Q ! ! T C q - *                             ",
"                                          + % p g f u % = 5 e D R R Y Y Y G R R F I Y E Q Q ! ! Q Q E I I I I I I I I I I F M 9 - *                             ",
"                                          + $ t u u t $ = < q B I Y Y Y I I F F F I Y E T T Q Q Q I F N M M e e e M M M M e 9 < * +                             ",
"                                          + # # % $ # + * < q C I Y Y Y Y Y F F I Y Y Y Y T T W T F e 9 < < < < < < < < < < - * + + +                           ",
"                                          + + + # # * * , 8 e C I Y Y Y Y Y I I Y Y Y Y Y Y T T F N 9 , * + + * * * * * * * + + + +                             ",
"                                          + o X + * ; , 7 q N F I Y Y Y Y Y Y Y Y Y Y Y Y Y I F N q < * O . O O + + + + + O + + +                               ",
"                                      + + + o X + * < 9 e N C F I T E T T T T T T T T T T Y D e 9 < -                                                           ",
"                                        + + + + + * 6 e N F G R ^ } [ [ [ [ [ [ [ [ [ [ } E S 9 , * ;                                                           ",
"                                          + + + + * 6 M F R _  ...3.4.4.4.4.4.4.4.4.4.4.3. .S 8 * +                                                             ",
"                                            + + + * 7 M G ] =.6.q.r.y.n.n.n.n.n.n.n.n.n.y.9.L 0 = O                                                             ",
"                                            O O + * 7 M G  .:.t.M.A.D.D.G.G.G.G.G.G.W.W.F.t.@.l : O                                                             ",
"                                            . . + * 7 M R X.0.M.C.E.!./././././././.(.).Q.N.;.z 1 O                                                             ",
"                                    + + + O . . + * 6 M ~ =.0.N.T.!./.).).).).).).).).).^.B.8.z 1 @                                                             ",
"                                  + + + + + O O + - 8 M ~ =.0.N.T.!./.).).).).).).).).).^.B.8.z 1 @                                                             ",
"                                + + + * * * * * - < 9 N R =.0.N.T.!./.).).).).).).).).).^.B.8.z 1 @                                                             ",
"                                  + + * , 7 8 9 9 q e C ~ =.0.N.T.!./.).).).).).).).).).^.B.8.z 1 @                                                             ",
"                                    + , 9 M N N N B C F ~ X.0.N.S.Q./.(.).).).).).).).).!.B.8.z 1 O                                                             ",
"                                    * < w C I I I I I Y ) X.w.M.B.R.Q.~./././.(.).)././.W.N.;.l : O                                                             ",
"                                  + * < q N F T W T T R ^ o.:.0.v.M.Z.D.W.Q.!.^.^.^.!.W.F.t.| d : .                                                             ",
"                                + + + - < q M F I T T Y R _  .>.6.w.e.y.Z.S.E.E.E.E.S.Z.r.:.P 0 * X                                                             ",
"                                  + + * * , 9 M C I I I Y R _ ] } ..3.5.r.M.B.C.C.B.M.r.5.} S 8 * +                                                             ",
"                                    + + + * , 8 e N D I I Y R R E Q [ 2.5.e.v.M.M.v.e.5.2.E N 9 , ,                                                             ",
"                                      O + + * , 6 q M D I Y Y T T Q ( 1.2.5.w.q.q.w.5.3.{ Q F M q 7 <                                                           ",
"                                      + + + + * , 6 q N F Y T T W Q ! ! [ 2.2.3.3.2...{ [ Q T F N q < -                                                         ",
"                                      + + + + * - < q N F T W W Q W T T E E E E E E Q Q ! ! ! Q I M 7 * +                                                       ",
"                                        + + * ; < 9 e B I T Q Q Q I F N M M M M M N D I T Q ! ! T N 9 * O .                                                     ",
"                                          + * < 9 e N D I T Q Q Y C e 9 6 7 7 7 6 9 q N F T ! ! T N 9 * O .                                                     ",
"                                          + * 6 w N D F F I T I C e < - * * ; ; * - < q V I T T I M 7 * +                                                       ",
"                                        + + * < q e M M M N N N M 9 , *           * - 7 w N B B N q < * + O                                                     ",
"                                      + + + * , 6 9 9 9 9 9 9 9 9 < -               * , 6 9 9 9 9 < - * + O                                                     ",
"                                          + + * * - ; ; ; ; - - ; ;                   * ; - - - - * + + +                                                       ",
"                                          + + + * * * * * * + + *                       + + + * * + + +                                                         ",
"                                            + +             . .                           .         +                                                           ",
"                                                                                                                                                                ",
"                                                                                                                                                                ",
"                                                                                                                                                                ",
"                                                                                                                                                                ",
"                                                                                                                                                                ",
"                                                                                                                                                                ",
"                                                                                                                                                                ",
"                                                                                                                                                                ",
"                                                                                                                                                                ",
"                                                                                                                                                                ",
"                                                                                                                                                                ",
"                                                                                                                                                                ",
"                                                                                                                                                                "
};
