/* XPM */
static char *_[] = {
/* columns rows colors chars-per-pixel */
"35 35 8 1 ",
"  c None",
". c #4A3B1F",
"X c #E5AB3D",
"o c #FDC760",
"O c #2379EA",
"+ c #D8B78F",
"@ c #FFD7A8",
"# c white",
/* pixels */
"     ............................  ",
"     ............................  ",
"     ............................  ",
"  .....XXXXXXXXXooooooooooooooooo..",
"  .....XXXXXXXXXooooooooooooooooo..",
"..OOO..XXXXXXXXXXXXoooooXXXXXXXoo..",
"..OOO..XXXXXXXXXXXXoooooXXXXXXXoo..",
"..OOO..XX#######XXXoo...ooooooo....",
"..OOO..XX#######XXXoo...ooooooo....",
"..OOO..XX#######XXXoo...ooooooo....",
".......XX###..##XXXoooooooooooooo..",
".......XX###..##XXXoooooooooooooo..",
"  ...OO..#######XXXoooooooooooooo..",
"  ...OO..#######XXXoooooooooooooo..",
"  ...OO..XXXXXXXXXXoooooooooooooo..",
"  ...OO..XXXXXXXXXXoooooooooooooo..",
"  ...OO..XXXXXXXXXXoooooooooooooo..",
"  .......XXXXXXXXXXXXooo...........",
"  .......XXXXXXXXXXXXooo...........",
"       .....XXXXoooooooooo..       ",
"       .....XXXXoooooooooo..       ",
"         ...XX++@@@@@@@@@@..       ",
"         ...XX++@@@@@@@@@@..       ",
"         ...XX++@@@@@@@@@@..       ",
"         ...XX++@@@@@@@@@@..       ",
"         ...XX++@@@@@@@@@@..       ",
"     ....oooXX++...@@@@@@@..       ",
"     ....oooXX++...@@@@@@@..       ",
"     ..ooXXXXXooooo..+++oo..       ",
"     ..ooXXXXXooooo..+++oo..       ",
"     ..ooXXXXXooooo..+++oo..       ",
"     .......XXooooo..XXXoo..       ",
"     .......XXooooo..XXXoo..       ",
"            ..XXooo.......         ",
"            ..XXooo.......         "
};
