/* XPM */
static char *_[] = {
/* columns rows colors chars-per-pixel */
"34 37 8 1 ",
"  c None",
". c #4A3B1F",
"X c #E5AB3D",
"o c #FDC760",
"O c #2379EA",
"+ c #D8B78F",
"@ c #FFD7A8",
"# c white",
/* pixels */
"    ............................  ",
"    ............................  ",
"  ....XXXXXXXXXXoooooooooooooooo..",
"  ....XXXXXXXXXXoooooooooooooooo..",
"  ....XXXXXXXXXXoooooooooooooooo..",
"..OO..XXXXXXXXXXXXoooooXXXXXXXoo..",
"..OO..XXXXXXXXXXXXoooooXXXXXXXoo..",
"..OO..XXX#######XXoo...ooooooo....",
"..OO..XXX#######XXoo...ooooooo....",
"......XXX##..###XXoooooooooooooo..",
"......XXX##..###XXoooooooooooooo..",
"......XXX##..###XXoooooooooooooo..",
"  ..OO...#######XXoooooooooooooo..",
"  ..OO...#######XXoooooooooooooo..",
"  ..OO...XXXXXXXXXoooooooooooooo..",
"  ..OO...XXXXXXXXXoooooooooooooo..",
"  .......XXXXXXXXXXXooo...........",
"  .......XXXXXXXXXXXooo...........",
"  .......XXXXXXXXXXXooo...........",
"      .....XXXXXooooooooo..       ",
"      .....XXXXXooooooooo..       ",
"         ..XX+++@@@@@@@@@..       ",
"         ..XX+++@@@@@@@@@..       ",
"    .......XX+++@@@@@@@@@..       ",
"    .......XX+++@@@@@@@@@..       ",
"    .......XX+++@@@@@@@@@..       ",
"    ..oooooXX+++@@@@@@@@@..       ",
"    ..oooooXX+++@@@@@@@@@..       ",
"    .....XXXXXXXoo+++++oo..       ",
"    .....XXXXXXXoo+++++oo..       ",
"      .....XXoooooooooooooo...    ",
"      .....XXoooooooooooooo...    ",
"      .....XXoooooooooooooo...    ",
"      ...XXXXooo.......XXoo...    ",
"      ...XXXXooo.......XXoo...    ",
"      ..........       .......    ",
"      ..........       .......    "
};
