/* XPM */
static char *run1[] = {
/* columns rows colors chars-per-pixel */
"37 40 152 2 ",
"   c None",
".  c #341F1F",
"X  c #34201F",
"o  c #361F21",
"O  c #381E21",
"+  c #362020",
"@  c #3A2221",
"#  c #3B2B22",
"$  c #3C3A22",
"%  c #442525",
"&  c #492627",
"*  c #492C26",
"=  c #4C2728",
"-  c #4E2829",
";  c #51292A",
":  c #5B2D2D",
">  c #443726",
",  c #493126",
"<  c #513531",
"1  c #5C3432",
"2  c #543C35",
"3  c #612E2F",
"4  c #642F30",
"5  c #643031",
"6  c #6B3333",
"7  c #653831",
"8  c #783637",
"9  c #753738",
"0  c #7A3638",
"q  c #763A3A",
"w  c #3D4523",
"e  c #3E4B23",
"r  c #3F5523",
"t  c #54462C",
"y  c #455024",
"u  c #485227",
"i  c #415B24",
"p  c #594839",
"a  c #70403D",
"s  c #426324",
"d  c #436D24",
"f  c #447324",
"g  c #467C25",
"h  c #6C4843",
"j  c #734B43",
"k  c #7B564B",
"l  c #6A5959",
"z  c #795453",
"x  c #7D6258",
"c  c #843B3C",
"v  c #8C3D3E",
"b  c #903E3F",
"n  c #923F40",
"m  c #834341",
"M  c #8C4141",
"N  c #8B4E4D",
"B  c #934343",
"V  c #9B4445",
"C  c #964947",
"Z  c #994847",
"A  c #9F4748",
"S  c #954A49",
"D  c #85564C",
"F  c #9B4F51",
"G  c #825E52",
"H  c #9B5353",
"J  c #945A52",
"K  c #A44546",
"L  c #A54648",
"P  c #A94748",
"I  c #AC494A",
"U  c #B44A4C",
"Y  c #BA4C4E",
"T  c #A9514F",
"R  c #A14F50",
"E  c #BD4E50",
"W  c #A55251",
"Q  c #AA5252",
"!  c #AB5857",
"~  c #AC5C5D",
"^  c #BB5453",
"/  c #B55955",
"(  c #816553",
")  c #94705F",
"_  c #AB695D",
"`  c #B9615A",
"'  c #AF5E60",
"]  c #966060",
"[  c #9A6262",
"{  c #936B6B",
"}  c #997561",
"|  c #8C7575",
" . c #8B7A79",
".. c #8A7C7C",
"X. c #927675",
"o. c #AE6A6B",
"O. c #B16262",
"+. c #B46E61",
"@. c #A57F68",
"#. c #B37063",
"$. c #B87968",
"%. c #B77071",
"&. c #B77D7D",
"*. c #C04F51",
"=. c #C5645E",
"-. c #C8665F",
";. c #C26A61",
":. c #C47E6C",
">. c #AF8D72",
",. c #B78670",
"<. c #B99578",
"1. c #C28C74",
"2. c #D18974",
"3. c #D68D79",
"4. c #C39479",
"5. c #C69B7D",
"6. c #C9997C",
"7. c #DD927B",
"8. c #C2A07F",
"9. c #8E8282",
"0. c #A78888",
"q. c #BD8484",
"w. c #BD8C8D",
"e. c #BA9495",
"r. c #BFAEAF",
"t. c #C28687",
"y. c #C78E8F",
"u. c #C99192",
"i. c #C7A382",
"p. c #C8A583",
"a. c #D6A887",
"s. c #D6B38D",
"d. c #DEB992",
"f. c #E2AB8B",
"g. c #E4B490",
"h. c #ECBB96",
"j. c #F3BF98",
"k. c #C6ADAE",
"l. c #D3AEAE",
"z. c #C7B7B8",
"x. c #C4BABA",
"c. c #D5B4B5",
"v. c #EAC39A",
"b. c #F3C199",
"n. c #F1CA9F",
"m. c #F4CEA1",
"M. c #F5D0A3",
"N. c #FDD7A8",
"B. c #FFD8A9",
"V. c #CDC5C4",
"C. c #DDC2C3",
"Z. c #E0C9C9",
/* pixels */
"      + @ @ @ @ + @ @ + + @ @ + @ @ @ @ + + + + + + + + @ + + +           ",
"      - ; ; ; - = - - = = - - - ; ; - - = & % % % % % % % % @ + o         ",
"    6 9 0 0 0 0 8 0 8 9 8 0 0 8 0 q q 9 6 6 6 6 6 6 6 6 5 ; % + o         ",
"@ - 9 n K K K K K K K K K K K K K K S V v v v v v v v v c 5 & @ + @       ",
"@ ; 0 L Y Y U U U U U U U Y Y Y U U U P K K K V V K K V v 6 & # $ $ $ $   ",
"@ - q K U U I P P P I U Y Y Y Y Y U I L K L K K K K L K v 6 * $ r s e $ @ ",
"+ & 6 B K P P K P P P P P K P U U I K Q ~ ~ H S K ~ ~ W B 6 , e d g i $ @ ",
"+ @ ; 9 v V P U U U I K b v n K U P Q o.q.&.] N [ q.q.o.S 6 , e f g s $ @ ",
"+ @ % : 0 V U Y Y Y U K c 9 c V U L ~ t.c.r...z X.k.l.q.S 6 * w d f i $ @ ",
"+ @ = 4 c K U Y Y Y Y P v 0 c K U L ~ u.Z.z...l 9.V.C.y.F 6 * $ r i e # @ ",
"+ % 5 c V U Y Y Y Y Y U K B V I U P O.u.Z.z...l 9.V.C.u.H 6 * # $ $ $ @ o ",
"@ - q K U Y Y Y Y Y Y Y U U Y Y U I O.u.Z.z...l 9.V.C.w.N 7 , $ # @ @ @ + ",
"@ ; 0 L Y Y Y Y Y Y Y Y Y Y Y Y U I O.u.Z.z...l 9.V.x.0.j t u e $ + o o + ",
"@ ; 0 K Y E Y Y Y Y Y Y Y Y Y Y U P ' y.C.k...l ..z.r.| p u s s w @ O     ",
"@ ; 0 P E *.E Y Y Y Y Y Y Y Y Y U P ! &.k.e.{ z { e.0.x t i f f y #       ",
"@ - 8 K Y E Y Y Y Y Y Y Y Y Y Y U P R O.%.o.H S H o.] h > i f f e #       ",
"+ - 9 n K L K K K K K P U Y Y Y U L K K K K S S L K m 1 > e s s w #       ",
"+ % : 9 8 0 8 9 9 9 0 c K U Y U P K K S S S A K K V q : # $ e w $ @       ",
"o @ % - - ; - = = = ; 5 M K I P K K K V V S K K K V c 3 % # # # @ +       ",
"o + + + @ @ @ + + + @ - 6 M V K K K K K K K K K K S M 9 : % @ o o +       ",
"                        : 6 c V U U U U U U Y U P L V v 0 : % o o +       ",
"                          : q W =.=.=.=.=.-.-.=./ / T S M 6 & + + +       ",
"                          ; j #.3.7.7.7.7.7.7.3.2.:.+.! C 9 & + . +       ",
"                          < k 4.h.b.b.j.j.j.b.h.g.a.1.` C 6 & + .         ",
"                          2 ( i.m.N.N.N.N.N.N.N.n.d.6.+.S 6 & @           ",
"                          2 ( p.M.B.B.B.B.N.N.N.n.d.6.#.S 6 & @           ",
"                          2 ( p.m.B.B.B.N.m.v.d.d.s.6.#.S 9 : ;           ",
"                          2 ( p.m.B.B.B.N.v.8.>.<.p.4.#.K v q 6 ; @ o o o ",
"                          2 x 5.n.N.N.N.n.p.} G ) <.1.+.K K V m 5 & @ + + ",
"                          < k ,.g.b.v.d.p.@.D m J $.$.` K P L B q 4 - @ + ",
"                          - a _ 2.f.a.<.} D m B T ` ` Q K K K V B q 3 % o ",
"                          = 6 S ;.2.1.} h 5 c K E ^ Y I K V B B B v 6 = o ",
"                          % 5 V ^ ;.+.D 1 : c I E Y Y I Z c 8 9 9 6 : % + ",
"                          & 5 n I Q S q ; : c P E Y U P M 9 : - & & % @ + ",
"                            4 0 v c q : = : c P Y Y P B 0 3 - @ + + @ @ + ",
"                              : 3 : ; & % : c P U I n 9 : =               ",
"                                % @ @ @ @ ; 8 B S B 8 : % @               ",
"                                    X . @ & 3 9 8 6 : % + +               ",
"                                      . + @ % - - & % @ + +               ",
"                                        o + + @ @ + + + + +               "
};
