/* XPM */
static char *run2[] = {
/* columns rows colors chars-per-pixel */
"35 40 155 2 ",
"   c None",
".  c #331E1E",
"X  c #391F21",
"o  c #372020",
"O  c #3B2222",
"+  c #3B2D22",
"@  c #3B3422",
"#  c #3C3B22",
"$  c #432425",
"%  c #4A2627",
"&  c #412C24",
"*  c #4D2728",
"=  c #452D2A",
"-  c #4E2928",
";  c #512729",
":  c #54292A",
">  c #5B2B2D",
",  c #423B24",
"<  c #47302C",
"1  c #573230",
"2  c #612C2F",
"3  c #652E30",
"4  c #682F31",
"5  c #6C3233",
"6  c #723335",
"7  c #793537",
"8  c #7D3739",
"9  c #753B3C",
"0  c #7E383A",
"q  c #3D4523",
"w  c #3E4A23",
"e  c #3F5223",
"r  c #404424",
"t  c #474927",
"y  c #405623",
"u  c #574137",
"i  c #514930",
"p  c #684237",
"a  c #426224",
"s  c #436A24",
"d  c #447324",
"f  c #457A25",
"g  c #724A42",
"h  c #655048",
"j  c #765A4B",
"k  c #715F5E",
"l  c #7C5B58",
"z  c #6F605F",
"x  c #6F6060",
"c  c #803739",
"v  c #8B3C3E",
"b  c #903D3F",
"n  c #8F3F40",
"m  c #943F41",
"M  c #944042",
"N  c #964749",
"B  c #9E4648",
"V  c #924B4C",
"C  c #86584D",
"Z  c #9E514E",
"A  c #835858",
"S  c #985354",
"D  c #A34446",
"F  c #A94547",
"G  c #A54648",
"H  c #AA4648",
"J  c #A54B4C",
"K  c #AD494B",
"L  c #B34A4C",
"P  c #BB4D4F",
"I  c #A5514E",
"U  c #AC504E",
"Y  c #A14F50",
"T  c #BE4E50",
"R  c #A95754",
"E  c #A65953",
"W  c #AC5C55",
"Q  c #AD5A5B",
"!  c #B85050",
"~  c #B55854",
"^  c #BB5B56",
"/  c #B15E5F",
"(  c #BC5F59",
")  c #B56B5F",
"_  c #A25F60",
"`  c #B25F61",
"'  c #8C6565",
"]  c #956664",
"[  c #817372",
"{  c #A96264",
"}  c #A56869",
"|  c #AA6A6B",
" . c #B16162",
".. c #BB6C60",
"X. c #B26D6E",
"o. c #B87968",
"O. c #A37E7F",
"+. c #B77475",
"@. c #BD7C7C",
"#. c #C04F51",
"$. c #C0625B",
"%. c #C0695F",
"&. c #C56C62",
"*. c #C67667",
"=. c #CD7267",
"-. c #CA7A6A",
";. c #BD8971",
":. c #BC9578",
">. c #BC9B7B",
",. c #C1846F",
"<. c #CB826F",
"1. c #CA8772",
"2. c #D48A75",
"3. c #CC947A",
"4. c #D3957B",
"5. c #9C7F80",
"6. c #A68282",
"7. c #B28C8D",
"8. c #A79C9C",
"9. c #B79C9D",
"0. c #B7A7A7",
"q. c #B7ADAD",
"w. c #C48C8D",
"e. c #DB9B80",
"r. c #C88F90",
"t. c #CB9696",
"y. c #C69C9D",
"u. c #D4A584",
"i. c #D8A384",
"p. c #DAAC8A",
"a. c #E5A487",
"s. c #E6A688",
"d. c #E1AC8A",
"f. c #E3B08D",
"g. c #E9B591",
"h. c #E5BC94",
"j. c #CAAAAB",
"k. c #D3A6A7",
"l. c #D6AFB0",
"z. c #CCBDBE",
"x. c #DAB0B1",
"c. c #E9C59A",
"v. c #EBC89D",
"b. c #F2C69C",
"n. c #F4C99E",
"m. c #F4CEA1",
"M. c #F5D0A2",
"N. c #FAD6A6",
"B. c #FEDAA9",
"V. c #D4BFC0",
"C. c #DDC0C1",
"Z. c #D6C8C8",
"A. c #D9C9CA",
"S. c #E0C7C7",
"D. c #E0CBCC",
/* pixels */
"      O O O O O O O O O O O O O O O O O O O O O O O O O O O           ",
"    ; : : : : : : : : : : : : : : : : : * * * * * * % $ O O X         ",
"  ; 2 7 0 0 8 8 0 0 0 0 8 8 8 0 0 8 6 6 6 6 6 6 6 6 5 > $ O X         ",
"O : 7 B H H H D H H H H H H F H H D B m m m m m m m v 6 : $ O +       ",
"O : 0 H L L L L L L L P P P P P L H D D D D D D D D B 8 > & # w w q   ",
"O : 8 D K K H H H H H L L P P L K H J J J G D J J J B c > , e s e # O ",
"O * 5 v B D H H H H D B B D H L H J Q X.} S V _ X. .Y c > , a f a # O ",
"O $ : 5 v D L L L L H b 8 c B L H Q @.y.7.' A O.y.w._ c : , a f a # O ",
"O O $ 2 c D P P P P K b 6 8 m G D / r.C.0.[ k 8.V.k.X.c : , e s y @ O ",
"O $ > 8 B L P T T T L B v m D K F  .t.D.q.[ x 8.A.x.X.c > & # w # + O ",
"O : 6 B L P P T T P P L H K L L H  .t.A.0.[ z 8.A.l.| 0 : & + + + O O ",
"O : 0 H T T P P P P P T T T P L F  .t.D.0.[ z 8.Z.j.] p t r @ O O O O ",
"O : 0 H T T P P P P P P T T P L H ` t.S.0.[ z 8.z.9.l i a a w +       ",
"O : 0 K T #.T T T T T P P P P P H Q @.k.7.' l 6.9.5.h t s d y @       ",
"O : 8 H P P L P P L P P P P P P H K  .+.| S V { | A u t d d y @       ",
"O * 6 M H D B B B B D L P P P L D G J J J B B J N 9 : r a s e +       ",
"O $ > 5 7 6 5 5 5 6 c m K L L H D D B B D D D D m 5 - @ w w # O       ",
"O O $ % * % % % % % > 7 B H H D D D D D D D D D m 6 : & + + + O       ",
"O O O O O O O O O o $ > 8 m D D F F F F F F F D m c 5 : $ O O O       ",
"                      * > 8 B L ! ! L ! ! ! L K G B v 5 % O X O       ",
"                        * 5 Z &.=.=.=.=.=.=.*...W I B 8 : $ O O       ",
"                        = g o.e.a.s.a.a.a.a.a.4.,.) I c > O O         ",
"                        < j :.c.m.n.b.b.b.b.b.h.i.o.E 0 : O .         ",
"                        < j >.m.B.N.M.M.M.M.m.c.p.,.E 0 : O . . O O O ",
"                        < j >.m.B.N.M.M.M.M.m.c.p.,.E c 2 % $ $ O O O ",
"                      . = j >.m.B.N.M.M.M.M.m.v.p.,.W M 7 5 5 3 : $ O ",
"                    o o = j :.n.N.N.M.M.M.m.n.c.u.,.W B m m m c 4 % O ",
"                  O O $ 1 C ;.g.n.m.m.m.n.b.g.p.3.o.R G D G D v 5 % O ",
"                  O $ : 0 Z ..2.d.h.c.c.f.e.2.*...W J D D B v 6 : $ O ",
"                  O $ 2 b K ^ &.2.i.p.i.4.-.$.! U J D D m c 4 - $ O O ",
"                  O $ 5 M H L ! %.-.1.<.*.( L L H F D m 8 3 * O O O O ",
"                    $ 3 v B B D K ~ ( ^ ~ L K L L K B c 3 * $ O       ",
"                      > 6 8 8 c v n M M v v m G L L B c > O o O       ",
"                        : : : : > > > > > > 6 m K L D c > O o         ",
"                          $ $ $ $ $ $ $ $ $ : 7 m D B c > $ o         ",
"                                            % > 6 c v 8 : $           ",
"                                              % ; 4 8 6 : $           ",
"                                                $ : 2 > $ O           ",
"                                                  $ $ $ O O           ",
"                                                    O O O O           "
};
