/* XPM */
static char *run3[] = {
/* columns rows colors chars-per-pixel */
"37 40 158 2 ",
"   c None",
".  c #2E1E1E",
"X  c #33201F",
"o  c #371F21",
"O  c #362020",
"+  c #3A2221",
"@  c #3A2B22",
"#  c #3B3422",
"$  c #3C3A22",
"%  c #452525",
"&  c #492627",
"*  c #4A2C27",
"=  c #4B2728",
"-  c #4E2829",
";  c #52292A",
":  c #5C2D2E",
">  c #4A3127",
",  c #473429",
"<  c #5F3231",
"1  c #533B35",
"2  c #612E2F",
"3  c #632F30",
"4  c #653031",
"5  c #6B3233",
"6  c #663831",
"7  c #733536",
"8  c #783637",
"9  c #763738",
"0  c #7A3638",
"q  c #753939",
"w  c #7E383A",
"e  c #3D4623",
"r  c #3E4C23",
"t  c #3F5523",
"y  c #444627",
"u  c #55462C",
"i  c #455024",
"p  c #485127",
"a  c #415A24",
"s  c #5A4739",
"d  c #73403D",
"f  c #426324",
"g  c #436D24",
"h  c #447324",
"j  c #467C25",
"k  c #6B4543",
"l  c #744942",
"z  c #785147",
"x  c #7E5B4E",
"c  c #6B595A",
"v  c #785454",
"b  c #7B615F",
"n  c #833A3C",
"m  c #8C3D3F",
"M  c #903D3F",
"N  c #923F40",
"B  c #854242",
"V  c #8B4141",
"C  c #8C4D4D",
"Z  c #934243",
"A  c #964847",
"S  c #994847",
"D  c #9E4748",
"F  c #974948",
"G  c #9A4F51",
"H  c #9B5353",
"J  c #9C5859",
"K  c #A44546",
"L  c #A54648",
"P  c #AA4748",
"I  c #A44A4B",
"U  c #AC494A",
"Y  c #B34A4C",
"T  c #BA4C4E",
"R  c #A8514F",
"E  c #A74F50",
"W  c #BD4E50",
"Q  c #A55351",
"!  c #AA5454",
"~  c #AC5B55",
"^  c #AD5B5C",
"/  c #B65251",
"(  c #BB5453",
")  c #B15B56",
"_  c #B95A56",
"`  c #816453",
"'  c #AD645B",
"]  c #B7655C",
"[  c #975F60",
"{  c #9B5F60",
"}  c #976060",
"|  c #926B6C",
" . c #8C7575",
".. c #8A7C7D",
"X. c #927776",
"o. c #AD6B6B",
"O. c #B16162",
"+. c #B56E61",
"@. c #BB6C61",
"#. c #B46B6B",
"$. c #B77566",
"%. c #BA7676",
"&. c #C04F51",
"*. c #C05E59",
"=. c #C4655E",
"-. c #C66961",
";. c #C67769",
":. c #CB796A",
">. c #BA8570",
",. c #CD816F",
"<. c #CE8471",
"1. c #C48972",
"2. c #D08874",
"3. c #D68E78",
"4. c #C79177",
"5. c #C19378",
"6. c #CB957A",
"7. c #CB987B",
"8. c #D6967C",
"9. c #DD927B",
"0. c #B37F80",
"q. c #8E8283",
"w. c #AB8988",
"e. c #BC8383",
"r. c #BE8C8D",
"t. c #B99595",
"y. c #BEA6A7",
"u. c #C28586",
"i. c #C58C8C",
"p. c #C89F80",
"a. c #D79F81",
"s. c #CA9293",
"d. c #C9A683",
"f. c #D6A585",
"g. c #DBB18C",
"h. c #E3AD8C",
"j. c #E6B38F",
"k. c #E2BA93",
"l. c #EBB994",
"z. c #F0BC96",
"x. c #F3BE98",
"c. c #C4AEAF",
"v. c #D4AEAE",
"b. c #C1B0B0",
"n. c #C5BABA",
"m. c #D4BABA",
"M. c #E9C399",
"N. c #F2C39B",
"B. c #F4CA9F",
"V. c #F5CCA1",
"C. c #F9CFA3",
"Z. c #F7D0A3",
"A. c #FED7A8",
"S. c #FFD8A9",
"D. c #CCC1C2",
"F. c #DCC1C2",
"G. c #E0C5C6",
"H. c #E0C9C9",
/* pixels */
"      O + + + + O + + O + + + O + + + + O O O O O O O O O O O O           ",
"      - - - - - = - - - ; ; - = - ; - - = & % % % % % % % % + O o         ",
"    4 7 8 8 8 0 7 8 0 0 0 0 8 7 0 0 9 7 5 5 5 5 5 5 5 5 3 ; % O o         ",
"+ - 7 N K K K K K K K K K K K K K K I D m m m m m m m m w 4 % O O +       ",
"+ ; 0 K T Y Y Y Y Y Y Y Y T T T Y Y U I K K K K K K K D m 5 & @ $ $ $ $   ",
"+ - w I Y Y P P P P P P Y T T T T Y U I K L L K K K L D m 5 * $ t f r # + ",
"O & 5 Z L P L K K K K K K K P Y Y P I ! ^ ^ H F I ^ ^ Q Z 5 > e g j a $ + ",
"O + ; 7 m D P U U U P K N m Z P Y P ! #.i.0.[ C { e.u.#.F 5 > i h j f $ + ",
"O + % : 0 D Y T T T Y K n 7 n D Y P ^ u.m.y. .v X.c.v.e.F 5 * y g h a # + ",
"O + = 3 n K Y T T T T P m w m K Y P ^ s.H.n...c q.D.F.i.G 5 * $ t a r # + ",
"O % 4 n D Y T T T T T Y K D K P Y P O.s.H.n...c q.D.G.s.H 5 * @ $ $ # + o ",
"+ - q I Y T T T T T T T Y Y Y Y Y U O.s.H.n...c q.D.F.r.C 6 > # @ + + O O ",
"+ - 0 L T T T T T T T T W T T T Y U O.s.H.n...c q.D.m.w.l u i r # O o o O ",
"+ ; 0 P T W T T T T T T T T T T Y P ^ i.F.b...c ..n.c.X.s p f f e @ o     ",
"+ ; 0 P W &.W T T T T T T T T T Y P ! %.v.t.| v | t.w.b u a h h r @       ",
"+ - 0 K T T T T T T T T T T T T Y K E O.%.o.H C J o.} k , a h h r @       ",
"O - 7 N K L K K K K K P Y T T T Y K K I ! I F F I I B < , r f f e +       ",
"O % : 7 8 0 0 7 7 7 0 n I Y T Y P K K F F F D K K D w : @ $ r e # +       ",
"O + % - - ; - = = = ; 4 V I U P K K K D D F K K K D n 2 % @ @ @ + O       ",
"o O O O + + + O O O + ; 5 V D K K K K K K K K K K F V 7 : % + o o O       ",
"                        : 5 n D Y Y Y Y Y Y Y Y U K D m 0 : % o o O       ",
"                          ; q Q =.=.=.=.=.=.=.=.] ) ! F m 5 & O O O       ",
"                          - l +.3.9.9.9.9.9.9.9.2.;.@.~ Z 5 & O O O       ",
"                          1 x 5.l.N.N.x.x.x.x.z.j.f.1.' Z 5 & O           ",
"                          1 ` d.V.A.Z.Z.Z.Z.Z.C.N.g.6.+.A 5 & X .         ",
"                          1 ` d.Z.S.S.A.S.S.A.Z.V.k.7.+.F 5 - + X O O O O ",
"                          1 ` d.Z.S.S.A.A.S.Z.Z.V.k.7.+.F 0 2 ; - & % + O ",
"                          1 ` d.Z.S.S.A.A.A.Z.Z.B.k.6.+.I m w 0 0 7 : % O ",
"                          1 ` p.B.Z.Z.Z.Z.Z.Z.B.M.g.4.] I K K K K m 5 % O ",
"                          , z >.h.N.B.V.V.N.l.h.a.6.$.~ I P P P D n 2 % O ",
"                          - d ' 2.h.k.M.M.h.8.<.;.@.^ R I I L Z w 5 - + O ",
"                        - : 0 I =.<.a.g.f.8.:.*./ U U I K D V 8 : & + O O ",
"                      - 3 0 N U ( -.:.<.,.;.=.( Y U L K S n 7 : & + O O O ",
"                      ; 0 D U Y T / _ _ _ ( Y U Y Y Y U F w : & + O O     ",
"                      ; n P T Y U D Z N N N M N K Y Y U D n 5 ; + +       ",
"                      ; w L Y U Z w 5 : : : 2 5 m P Y U D m w 4 - +       ",
"                      ; 7 Z D Z w 3 & + + + + = 7 N D D m m n 5 ; +       ",
"                      % : 5 9 5 3 ; %         & : 5 7 7 5 5 5 : = +       ",
"                      + % & - = & &             & - - & & = & % % +       ",
"                      O O + + O O               + + + O O O O O O O       "
};
