/* XPM */
static char *run5[] = {
/* columns rows colors chars-per-pixel */
"35 40 163 2 ",
"   c None",
".  c #34201F",
"X  c #381F21",
"o  c #352020",
"O  c #3B2222",
"+  c #3B2D22",
"@  c #3B3322",
"#  c #3C3B22",
"$  c #432424",
"%  c #4B2627",
"&  c #422B24",
"*  c #4E2728",
"=  c #462E2A",
"-  c #512729",
";  c #54292A",
":  c #5A2B2C",
">  c #423B24",
",  c #4F332C",
"<  c #5C3432",
"1  c #622D2F",
"2  c #652E30",
"3  c #692F31",
"4  c #653532",
"5  c #6C3132",
"6  c #6D3C39",
"7  c #743335",
"8  c #7A3537",
"9  c #7D3738",
"0  c #743A3C",
"q  c #7E383A",
"w  c #3D4423",
"e  c #3E4923",
"r  c #3F5223",
"t  c #454726",
"y  c #50482F",
"u  c #405623",
"i  c #564137",
"p  c #674238",
"a  c #6A403B",
"s  c #416224",
"d  c #436B24",
"f  c #457525",
"g  c #457A25",
"h  c #6E4C42",
"j  c #724D43",
"k  c #645048",
"l  c #735548",
"z  c #75594B",
"x  c #7F5A4C",
"c  c #735F5F",
"v  c #7A5C59",
"b  c #706060",
"n  c #813739",
"m  c #8B3C3E",
"M  c #903D3F",
"N  c #943F41",
"B  c #844442",
"V  c #964143",
"C  c #9C4244",
"Z  c #9E4648",
"A  c #94494A",
"S  c #9A4B49",
"D  c #82574A",
"F  c #8D504E",
"G  c #89594F",
"H  c #9D534E",
"J  c #805A57",
"K  c #855A5B",
"L  c #975555",
"P  c #A34446",
"I  c #A94547",
"U  c #A54648",
"Y  c #AA4749",
"T  c #A44B4C",
"R  c #AD484A",
"E  c #B34A4C",
"W  c #BA4D4F",
"Q  c #A84F50",
"!  c #B74F50",
"~  c #BD4E50",
"^  c #A45651",
"/  c #AA5350",
"(  c #AE5759",
")  c #A35B59",
"_  c #AC5B5D",
"`  c #B95151",
"'  c #9D6357",
"]  c #A36358",
"[  c #B26059",
"{  c #B25E60",
"}  c #8A6766",
"|  c #8C6866",
" . c #966565",
".. c #9C7863",
"X. c #817373",
"o. c #AC6465",
"O. c #A46768",
"+. c #AA6A6B",
"@. c #B36162",
"#. c #B56D61",
"$. c #BE6960",
"%. c #B26C6E",
"&. c #A67964",
"*. c #BA7D6B",
"=. c #B77375",
"-. c #BD7C7D",
";. c #C04F51",
":. c #C36B61",
">. c #C96E64",
",. c #CD7166",
"<. c #A8856C",
"1. c #B1856E",
"2. c #BE806C",
"3. c #A2807F",
"4. c #B68F74",
"5. c #B79477",
"6. c #BC9B7C",
"7. c #C38670",
"8. c #D38C77",
"9. c #C29176",
"0. c #D6987E",
"q. c #9C7F80",
"w. c #A48181",
"e. c #B28D8D",
"r. c #A79B9B",
"t. c #B79C9D",
"y. c #B6A7A7",
"u. c #B8A7A8",
"i. c #B7ADAD",
"p. c #C58B8C",
"a. c #C88F90",
"s. c #CB9696",
"d. c #C69C9C",
"f. c #CCA583",
"g. c #CEA986",
"h. c #DFA084",
"j. c #D4AB88",
"k. c #DAB28D",
"l. c #DDB892",
"z. c #E6A387",
"x. c #E8A488",
"c. c #E3AD8C",
"v. c #E7B994",
"b. c #CBAAAB",
"n. c #D0A2A3",
"m. c #D6A8A9",
"M. c #D7AFB0",
"N. c #CCBDBE",
"B. c #DAB0B1",
"V. c #D4BEBF",
"C. c #EEC99D",
"Z. c #F2C79D",
"A. c #F8C99F",
"S. c #F3CCA0",
"D. c #F8C9A0",
"F. c #FAD4A6",
"G. c #FDD7A8",
"H. c #FED8A9",
"J. c #DDC0C1",
"K. c #D6C8C8",
"L. c #D9C9CA",
"P. c #E0C6C7",
"I. c #E0CACB",
/* pixels */
"      O O O O O O O O O O O O O O O O O O O O O O O O O O O           ",
"    - ; ; ; ; ; ; ; ; ; ; ; ; ; ; ; ; ; * % * % * * % $ O O X         ",
"  - 1 8 q q 9 9 9 9 q q q 9 9 q q 9 8 7 7 7 7 7 7 7 5 : % O O         ",
"O ; 8 C Y Y P P P U Y Y Y Y Y Y Y P C N N N N N N N m 7 ; O O +       ",
"O ; n Y E E E E E E E W W W W W E R U P P P P P P P C 9 : & # e e w   ",
"O ; 9 P E E R R R Y R E E W W W E R T T T U P T T T C 9 : > r d r # O ",
"O % 5 m C U Y Y Y Y Y P C P Y E R T _ %.o.L A ) %.@.T 9 : > s g s # O ",
"O $ ; 5 n P E E E E Y N 9 n C E Y ( -.d.e.| J 3.d.p._ n ; > s g s # O ",
"O O $ 1 n P W W ~ ~ R M 7 9 C E Y { a.J.y.X.c r.V.m.%.n ; > r d u @ O ",
"O $ : 9 C E W ~ ~ ~ E P m N P E Y @.s.I.i.X.b r.L.B.%.n : & # e # + O ",
"O ; 7 C E W W ~ ~ W W E R R E E Y @.s.I.i.X.b r.L.M.+.q ; & + + + O O ",
"O ; n R W ~ W W W W W ~ ~ ~ W E Y @.s.I.i.X.b r.K.b. .p y t @ O O O O ",
"O ; q R W ~ W W W W W W ~ ~ W E Y @.s.P.u.X.b r.N.t.v y u s e +       ",
"O ; n R ~ ;.~ ~ ~ ~ ~ ~ W W W W Y _ -.n.e.} v w.t.q.k t d f u @       ",
"O ; 9 Y W ~ W W W W W W W W W W Y Q o.=.+.L F O.+.K i t d f u @       ",
"O * 7 V Y Y P P P P Y E W W W E I U T T T Z C T A 0 , w s s r +       ",
"O $ : 5 8 8 7 7 7 7 n N R E E Y P P C C P P P P M 5 = @ w e # O       ",
"O O $ % * * * * * % : 8 C Y Y P P P P P P P P P M 7 ; & + + + O       ",
"O O O O O O O O O o $ 1 9 N C P I I I I I I I P C n 5 ; $ O O O       ",
"                      - : 7 V R E ` ! ! ! ` E R T C m 5 ; O X O       ",
"                        = 6 H :.,.,.,.,.,.,.>.$.[ / C 9 ; $ O O       ",
"                        = h &.0.z.x.z.z.z.z.h.0.7.#.T n : $ O         ",
"                        = l 4.v.A.D.D.A.D.S.Z.v.j.2.^ q ; O .         ",
"                        = z 6.S.G.H.G.G.G.G.F.C.k.7.^ q ; O X o O O O ",
"                        = z 6.S.G.H.H.G.F.S.C.l.f.*.^ n 1 % $ $ O O O ",
"                        = z 6.S.G.H.H.F.C.g.5.<.&.' S N 8 5 3 1 ; $ O ",
"                        = l 5.C.F.G.F.C.f.&.x j j B V C C N N n 2 % O ",
"                        = h 1.v.A.S.C.j.<.D 4 : 2 9 N P R R P m 5 % O ",
"                        = a ] 8.c.k.6...G B n n m N C P P C m 5 ; $ O ",
"                        $ 4 S :.8.9...j 0 m P Y Y U P P N n 3 * $ O O ",
"                        $ 1 N ` >.#.G < 2 n R E E R P N 9 2 * O O O O ",
"                        $ : m E ` / B ; : 9 C P C C C n 1 * $ O       ",
"                        $ : 9 V R U n ; * 1 8 n 8 8 7 3 ; $ O O       ",
"                            5 7 N C n : $ % ; ; ; ; ; * %             ",
"                              : 7 n 9 1 % $ O O O $ $ $               ",
"                              * : 3 7 7 : % O o                       ",
"                                $ * 2 8 5 ; $                         ",
"                                  % : 2 : % O                         ",
"                                    * * % $ O                         ",
"                                      O O O O                         "
};
