/* XPM */
static char *_[] = {
/* columns rows colors chars-per-pixel */
"33 40 9 1 ",
"  c None",
". c #4A3B1F",
"X c #E5AB3D",
"o c #FDC760",
"O c #2379EA",
"+ c #0094FF",
"@ c #D8B78F",
"# c #FFD7A8",
"$ c white",
/* pixels */
"           ....................  ",
"           ....................  ",
"    .......XXXXXooooooooooooooo..",
"    .......XXXXXooooooooooooooo..",
"  .....XX.......XXooooXXXXXXXoo..",
"  .....XX.......XXooooXXXXXXXoo..",
"  .....XX.......XXooooXXXXXXXoo..",
"..OO.....$$$$$$$..oo..ooooooo....",
"..OO.....$$$$$$$..oo..ooooooo....",
"..OO.....$$..$$$..ooooooooooooo..",
"..OO.....$$..$$$..ooooooooooooo..",
".........$$$$$$$..ooooooooooooo..",
".........$$$$$$$..ooooooooooooo..",
"  ..OOO....$$...++++ooooooooooo..",
"  ..OOO....$$...++++ooooooooooo..",
"  ..OOO....$$...++++ooooooooooo..",
"  ..OOO....$$...XXooooooooo......",
"  ..OOO....$$...XXooooooooo......",
"  .......XX..XXXXXXXoo.....      ",
"  .......XX..XXXXXXXoo.....      ",
"       ....XXXXXooooooooo..      ",
"       ....XXXXXooooooooo..      ",
"         ..XX@@@#########..      ",
"         ..XX@@@#########..      ",
"         ..XX@@@#########..      ",
"         ..XX@@@#########..      ",
"         ..XX@@@#########..      ",
"    .....ooXX@@@#########....    ",
"    .....ooXX@@@#########....    ",
"    ...ooXXXXXXXoo@@@@ooooo..    ",
"    ...ooXXXXXXXoo@@@@ooooo..    ",
"    .......XXoooooooooXXXXX..    ",
"    .......XXoooooooooXXXXX..    ",
"         ..XXooo...........      ",
"         ..XXooo...........      ",
"         ..XXooo...........      ",
"         ..XX...                 ",
"         ..XX...                 ",
"         ....                    ",
"         ....                    "
};
