/* XPM */
static char *_[] = {
/* columns rows colors chars-per-pixel */
"33 38 9 1 ",
"  c None",
". c #4A3B1F",
"X c #E5AB3D",
"o c #FDC760",
"O c #2379EA",
"+ c #0094FF",
"@ c #D8B78F",
"# c #FFD7A8",
"$ c white",
/* pixels */
"           ....................  ",
"           ....................  ",
"    .......XXXXoooooooooooooooo..",
"    .......XXXXoooooooooooooooo..",
"    .......XXXXoooooooooooooooo..",
"  ....XX.......XXoooooXXXXXXXoo..",
"  ....XX.......XXoooooXXXXXXXoo..",
"..OO....$$$$$$$..ooo..ooooooo....",
"..OO....$$$$$$$..ooo..ooooooo....",
"..OO....$$$..$$..oooooooooooooo..",
"..OO....$$$..$$..oooooooooooooo..",
"........$$$$$$$..oooooooooooooo..",
"........$$$$$$$..oooooooooooooo..",
"........$$$$$$$..oooooooooooooo..",
"  ..OO.....$$..+++++ooooooooooo..",
"  ..OO.....$$..+++++ooooooooooo..",
"  ..OO.....$$..XXooooooooo.......",
"  ..OO.....$$..XXooooooooo.......",
"  ...........XXXXXXXoo....       ",
"  ...........XXXXXXXoo....       ",
"        ...XX@@#########..       ",
"        ...XX@@#########..       ",
"        ...XX@@#########..       ",
"           ..XX@@#########...    ",
"           ..XX@@#########...    ",
"      .....ooXX@@#########.....  ",
"      .....ooXX@@#########.....  ",
"      ..oooXXXXXXooo@@@@ooooo..  ",
"      ..oooXXXXXXooo@@@@ooooo..  ",
"      .......XXooooo..ooXXXXX..  ",
"      .......XXooooo..ooXXXXX..  ",
"           ..XXoo............    ",
"           ..XXoo............    ",
"           ..XXoo............    ",
"           ..XX..                ",
"           ..XX..                ",
"           ....                  ",
"           ....                  "
};
