/* XPM */
static char *_[] = {
/* columns rows colors chars-per-pixel */
"35 27 8 1 ",
"  c None",
". c #382121",
"X c #A04345",
"o c #BC4D4F",
"O c #4B9A27",
"+ c #D8B78F",
"@ c #FFD7A8",
"# c white",
/* pixels */
"      ...........................  ",
"      ...........................  ",
"    ....OO..XXXXXXXoooooooooooooo..",
"    ....OO..XXXXXXXoooooooooooooo..",
"    ..OO....XXXXXXXXXooooXXXXXXoo..",
"    ..OO....XXXXXXXXXooooXXXXXXoo..",
"      ..OO..X##..##XXoo..oooooo....",
"      ..OO..X##..##XXoo..oooooo....",
"    ..OO....X##..##XXoooooooooooo..",
"    ..OO....X##..##XXoooooooooooo..",
"    ........X##..##XXoooooooooooo..",
"    ........X##..##XXoooooooooooo..",
"        ....XXXXXXXXXoooooooooooo..",
"........XX...XXXXXXXX..............",
"........XX...XXXXXXXX..............",
"..ooooXXXXXX+@@@@@@@@..            ",
"..ooooXXXXXX+@@@@@@@@..            ",
"  ..XXXXXX+++++++oo..              ",
"  ..XXXXXX+++++++oo..              ",
"    ..XXooooooooo..                ",
"    ..XXooooooooo..                ",
"    ..XXoo...XXoo..                ",
"    ..XXoo...XXoo..                ",
"    ..XX..  .XX..                  ",
"    ..XX..  .XX..                  ",
"    ....    ...                    ",
"    ....    ...                    "
};
