/* XPM */
static char *_[] = {
/* columns rows colors chars-per-pixel */
"35 27 8 1 ",
"  c None",
". c #382121",
"X c #A04345",
"o c #BC4D4F",
"O c #4B9A27",
"+ c #D8B78F",
"@ c #FFD7A8",
"# c white",
/* pixels */
"      ...........................  ",
"      ...........................  ",
"    ....OO..XXXXXXXoooooooooooooo..",
"    ....OO..XXXXXXXoooooooooooooo..",
"    ..OO....XXXXXXXXXooooXXXXXXoo..",
"    ..OO....XXXXXXXXXooooXXXXXXoo..",
"      ..OO..XX#..##XXoo..oooooo....",
"      ..OO..XX#..##XXoo..oooooo....",
"    ..OO....XX#..##XXoooooooooooo..",
"    ..OO....XX#..##XXoooooooooooo..",
"    ........XX#..##XXoooooooooooo..",
"    ........XX#..##XXoooooooooooo..",
"        ....XXXXXXXXXoooooooooooo..",
"........XX....XXXXXXX..............",
"........XX....XXXXXXX..............",
"..ooooXXXXXX++@@@@@@@..            ",
"..ooooXXXXXX++@@@@@@@..            ",
"  ..XXXXXX..+++++....              ",
"  ..XXXXXX..+++++....              ",
"    ..XXoooo..ooo..                ",
"    ..XXoooo..ooo..                ",
"    ..XXoooo..Xoo..                ",
"    ..XXoooo..Xoo..                ",
"      ..XXoo.....                  ",
"      ..XXoo.....                  ",
"      ........                     ",
"      ........                     "
};
