/* XPM */
static char *idle2[] = {
/* columns rows colors chars-per-pixel */
"38 40 167 2 ",
"   c None",
".  c #341F1F",
"X  c #34201F",
"o  c #361F21",
"O  c #362020",
"+  c #3A2222",
"@  c #3A2A22",
"#  c #3B3422",
"$  c #3C3D22",
"%  c #452525",
"&  c #4A2727",
"*  c #442B26",
"=  c #482827",
"-  c #4B2728",
";  c #4C2828",
":  c #552B2B",
">  c #5C2D2D",
",  c #473628",
"<  c #403B25",
"1  c #5F342E",
"2  c #5F3231",
"3  c #5F3936",
"4  c #5D3E38",
"5  c #602E2F",
"6  c #642F30",
"7  c #663031",
"8  c #6A3132",
"9  c #733536",
"0  c #783637",
"q  c #773638",
"w  c #7A3738",
"e  c #7E393A",
"r  c #3D4423",
"t  c #3F4C23",
"y  c #454128",
"u  c #4D4528",
"i  c #415624",
"p  c #415C23",
"a  c #504230",
"s  c #66433D",
"d  c #69423B",
"f  c #426324",
"g  c #446F24",
"h  c #447125",
"j  c #467B25",
"k  c #694D42",
"l  c #6A514D",
"z  c #6E5C5B",
"x  c #7C5B5B",
"c  c #775655",
"v  c #7D605F",
"b  c #746261",
"n  c #843B3C",
"m  c #8A3D3E",
"M  c #8C3F40",
"N  c #913E40",
"B  c #8D4042",
"V  c #864847",
"C  c #944143",
"Z  c #9C4344",
"A  c #9C4748",
"S  c #934C4B",
"D  c #9D494A",
"F  c #96514D",
"G  c #8C5656",
"H  c #A44446",
"J  c #A84547",
"K  c #A64648",
"L  c #AA4748",
"P  c #A54A4B",
"I  c #AE494B",
"U  c #B44A4C",
"Y  c #BA4D4F",
"T  c #A7504F",
"R  c #BD4F50",
"E  c #A65253",
"W  c #AB5654",
"Q  c #AA5758",
"!  c #AC5B5C",
"~  c #B75251",
"^  c #BD5352",
"/  c #B75854",
"(  c #B95C57",
")  c #9C625B",
"_  c #AF625A",
"`  c #A4615F",
"'  c #B1635B",
"]  c #9B706B",
"[  c #AD6364",
"{  c #A76F61",
"}  c #A96D6D",
"|  c #B16768",
" . c #B96D67",
".. c #A97C6B",
"X. c #BC7667",
"o. c #A17F7F",
"O. c #A97474",
"+. c #B67172",
"@. c #BA7575",
"#. c #B47877",
"$. c #BC7B7C",
"%. c #C05B57",
"&. c #C05E59",
"*. c #C15755",
"=. c #C5635C",
"-. c #C76B61",
";. c #C47969",
":. c #CA796A",
">. c #AE8970",
",. c #B38C72",
"<. c #CD8571",
"1. c #C28E75",
"2. c #C68872",
"3. c #D88F79",
"4. c #D48D77",
"5. c #C29075",
"6. c #DE937C",
"7. c #D69A7F",
"8. c #D5957B",
"9. c #A98687",
"0. c #A78E8F",
"q. c #A48485",
"w. c #BE8586",
"e. c #A59797",
"r. c #AE9797",
"t. c #A59C9C",
"y. c #A59B9C",
"u. c #AA9F9F",
"i. c #BE9C9D",
"p. c #AEA6A6",
"a. c #BCA4A5",
"s. c #C38B8C",
"d. c #D49D80",
"f. c #DBA485",
"g. c #D6AA87",
"h. c #D8A987",
"j. c #DEAE8C",
"k. c #D8B28C",
"l. c #E2A989",
"z. c #E2B18D",
"x. c #E8B792",
"c. c #E6BC95",
"v. c #ECBD96",
"b. c #F1BF98",
"n. c #CDA2A3",
"m. c #D2A7A8",
"M. c #D4ADAE",
"N. c #DAB6B6",
"B. c #D4BABB",
"V. c #DDBCBD",
"C. c #D1B4B4",
"Z. c #E7C097",
"A. c #E7C298",
"S. c #ECC49A",
"D. c #EEC89D",
"F. c #F3C099",
"G. c #F2C99E",
"H. c #F4CDA1",
"J. c #F7D0A3",
"K. c #FCD4A6",
"L. c #FFD7A8",
"P. c #FFD8A8",
"I. c #DEBFC0",
"U. c #D9CDCD",
"Y. c #D1C2C2",
"T. c #DBD0D0",
"R. c #DDD2D2",
/* pixels */
"          O O O + + O O O O + O O + + + + + + + + O + + O + + + O O O .     ",
"          o + + % = % % % % % % % - - - - - - - - = - - = - - - - = % %     ",
"        o o + : 5 8 8 8 8 8 8 7 8 q w 0 0 0 0 0 0 0 0 0 0 0 0 0 0 w q 6 - + ",
"      @ O + % 5 w n M B B M m M M Z H H H H H H H H H H H H H H H K C q - + ",
"    r r $ @ = 8 n Z H H H H H Z H H I U U U Y Y Y U U U U U U U U ^ K w - + ",
"+ # t f i $ = 7 m Z K P H H H H K K L U U Y ^ ^ Y U I L L L L I U Y H 0 - + ",
"+ # i j h t = 6 M P ! ! E Z A E ! Q P K U U U L H H H H H H H H L H N 8 % O ",
"+ # i j j t = 6 B ! w.w.} V G O.s.$.! K I U Z m n C K U U U U L Z n 8 : + O ",
"O @ i j g t = 6 C +.m.B.0.c x r.B.n.| P L I N q q m L U U U U I N q : % + O ",
"o @ t i i $ = 6 C $.V.U.t.z b p.T.N.@.P L U Z e w C U Y Y U Y U Z w > % + O ",
"O + @ $ # + = 6 C $.I.T.t.z b p.T.N.@.I L U I Z Z L U U U U U U I Z n 5 % + ",
"O O O + + @ , 1 V #.V.T.t.z b p.T.N.@.I L U U U U U U U U U U U U U Z q - + ",
"O o o O # t i u d ] C.U.t.z b p.T.N.@.I L U U Y Y U U U U U U U Y Y K w - + ",
"    o + r f g i a b a.Y.e.z b u.U.m.+.I L U U U U U U U U U U Y ^ R H 0 - + ",
"    o + r h j f y l q.i.>.c x 9.n.s.[ P I U U U U U U U Y Y R *.*.^ K 0 - + ",
"    o + r h j f < 4 G } ` S S [ +.| W P U U U U U U Y Y Y Y Y R ^ Y H w = O ",
"    o + $ f g i # : e D P Z Z P P P K H I U U U U U L H H H H H L H C q % o ",
"    o + # t t $ @ - q N H H H Z Z Z Z H L U U U U Z n 0 q q 0 0 w w q : + o ",
"    O O + @ @ + + : w C H H H H Z Z Z H H H I I H w > = = = - - - - = + O o ",
"    O O o o + % : 8 n Z H H H L H H H H H H H C n 6 % O O O + + + + + O O O ",
"    O O o o + : q n C Z L I U Y U I U U U I C w 5 :                         ",
"      O O + % 6 n Z P W ( =.=.=.=.=.=.=.=.( S 7 %                           ",
"        O + = 8 B T ' ;.<.6.6.6.6.6.6.6.6.<.) 3 +                           ",
"          O % 7 N W X.d.z.v.F.F.F.F.F.F.b.j...s %                           ",
"          O % 6 B _ 1.k.Z.J.J.J.J.J.J.J.J.Z.>.k =                           ",
"O O O + O O % 6 B _ 5.k.D.J.P.P.P.P.P.P.J.A.,.k =                           ",
"O O + = - - > q C ' 5.k.D.J.J.P.P.P.P.P.J.A.,.k =                           ",
"O + > q w w w n Z ' 1.k.D.J.J.P.P.P.P.P.J.A.,.k =                           ",
"O % 8 m H H H H P ' 2.g.v.G.J.J.J.J.J.J.J.c.,.k =                           ",
"+ % 5 n Z I U L P W  .2.7.l.x.Z.H.H.H.G.v.f.{ s %                           ",
"O + = > w C H H H P W '  .:.4.f.v.Z.Z.z.7.;.F 2 %                           ",
"O O + % : q m Z Z H P I U ^ -.<.d.h.f.8.:./ B > %                           ",
"O O O + % : 8 n Z H H L U U %.-.:.<.<.:.=.U m > +                           ",
"    O O + + : q m H U U U U U ~ ( &.&.%.^ U m : +                           ",
"      O O + = 6 M L U U L Z N N C H I U ^ I B > %                           ",
"        . O % 6 m L U I C q 6 5 8 w C I U I M > %                           ",
"          O % > e C H Z e > % + % > e C H C w : %                           ",
"          O + - 5 8 q q 6 = O . + = > 8 q q 8 >                             ",
"          O + + % % = - %     X O + % % % = =                               ",
"          O O O + O O + O     O O O + + o O O                               "
};
