/* XPM */
static char *run4[] = {
/* columns rows colors chars-per-pixel */
"80 80 187 2 ",
"   c None",
".  c #331F1F",
"X  c #33201F",
"o  c #371E21",
"O  c #381F21",
"+  c #362120",
"@  c #3B2322",
"#  c #3B2C23",
"$  c #3C3423",
"%  c #3D3B23",
"&  c #442625",
"*  c #492727",
"=  c #442A26",
"-  c #4A2A27",
";  c #452B28",
":  c #4D2828",
">  c #4B2728",
",  c #552B2B",
"<  c #5B2D2D",
"1  c #46322A",
"2  c #493729",
"3  c #4B3F31",
"4  c #5D3433",
"5  c #5C3A2D",
"6  c #622E2F",
"7  c #63312F",
"8  c #642F30",
"9  c #663031",
"0  c #6B3232",
"q  c #623D39",
"w  c #733435",
"e  c #793637",
"r  c #7A3738",
"t  c #7D3839",
"y  c #723C37",
"u  c #3D4323",
"i  c #3E4B23",
"p  c #3F5223",
"a  c #3F5923",
"s  c #444926",
"d  c #425424",
"f  c #415B24",
"g  c #5A4436",
"h  c #504929",
"j  c #65403E",
"k  c #71403C",
"l  c #426324",
"z  c #436D24",
"x  c #447324",
"c  c #457A25",
"v  c #7E3F40",
"b  c #6A4A41",
"n  c #674E47",
"m  c #6D5245",
"M  c #7A514B",
"N  c #665656",
"B  c #6A5A5A",
"V  c #6A5555",
"C  c #745452",
"Z  c #785453",
"A  c #843A3B",
"S  c #8C3C3E",
"D  c #913E3F",
"F  c #893F40",
"G  c #943F40",
"H  c #864B4A",
"J  c #944142",
"K  c #9C4244",
"L  c #9D4B4B",
"P  c #954849",
"I  c #885752",
"U  c #985853",
"Y  c #A44446",
"T  c #A84547",
"R  c #A64648",
"E  c #AB4648",
"W  c #A34D4C",
"Q  c #AD494A",
"!  c #B1474A",
"~  c #B3494B",
"^  c #BB4C4E",
"/  c #AD504E",
"(  c #A6504D",
")  c #A34F50",
"_  c #BF4E50",
"`  c #A95253",
"'  c #A35758",
"]  c #A4595A",
"[  c #AC5A5C",
"{  c #A85754",
"}  c #B65552",
"|  c #B95151",
" . c #B65C58",
".. c #8A6757",
"X. c #996E5E",
"o. c #B3635B",
"O. c #BB625B",
"+. c #B46A5E",
"@. c #AC6158",
"#. c #AC5E60",
"$. c #B15F61",
"%. c #996565",
"&. c #957474",
"*. c #937B7B",
"=. c #9D7879",
"-. c #8E6F64",
";. c #A96465",
":. c #B16163",
">. c #B56D60",
",. c #B76B65",
"<. c #A27864",
"1. c #BC7667",
"2. c #BC7B7C",
"3. c #B47A7A",
"4. c #AF797A",
"5. c #C04F51",
"6. c #C3665E",
"7. c #C3685F",
"8. c #C96860",
"9. c #C77165",
"0. c #C87567",
"q. c #C27E6C",
"w. c #CD7F6E",
"e. c #478125",
"r. c #A3836A",
"t. c #B8846E",
"y. c #B08A70",
"u. c #B69175",
"i. c #C7826F",
"p. c #C58D74",
"a. c #CA8A74",
"s. c #DC8D79",
"d. c #D58A76",
"f. c #CC987C",
"g. c #D4947B",
"h. c #DB987F",
"j. c #8F8484",
"k. c #928485",
"l. c #928888",
"z. c #A78080",
"x. c #B88788",
"c. c #B5999A",
"v. c #BDA2A3",
"b. c #C58A8C",
"n. c #C48889",
"m. c #D79F82",
"M. c #CD9E9F",
"N. c #C49293",
"B. c #C7A281",
"V. c #D3A584",
"C. c #D5AC89",
"Z. c #DBA787",
"A. c #D7B58E",
"S. c #DBB38E",
"D. c #DDB991",
"F. c #E4AB8B",
"G. c #ECB08F",
"H. c #EEB291",
"J. c #E2BB93",
"K. c #EBBD96",
"L. c #CFADAE",
"P. c #C8AFB0",
"I. c #C3B4B5",
"U. c #C5BDBD",
"Y. c #CAB2B3",
"T. c #D9B8B9",
"R. c #D4A7A8",
"E. c #E1BFBF",
"W. c #E4C096",
"Q. c #EBC49A",
"!. c #EECA9D",
"~. c #E7C499",
"^. c #F1CB9F",
"/. c #F0C59C",
"(. c #F5CDA1",
"). c #F9CEA2",
"_. c #F5D1A3",
"`. c #FBD3A5",
"'. c #FDD7A8",
"]. c #FFDAAA",
"[. c #C7C2C2",
"{. c #C8C1C1",
"}. c #DCCBCB",
"|. c #DCC7C8",
" X c #E1C2C2",
".X c #E3D5D6",
"XX c #E5D8D8",
/* pixels */
"                                                                                                                                                                ",
"                                                                                                                                                                ",
"                                                                                                                                                                ",
"                                                                                                                                                                ",
"                                                                                                                                                                ",
"                                                                                                                                                                ",
"                                                                                                                                                                ",
"                                                                                                                                                                ",
"                                                                                                                                                                ",
"                                                                                                                                                                ",
"                                                                                                                                                                ",
"                                                                                                                                                                ",
"                                                                                                                                                                ",
"                                                                                                                                                                ",
"                                                                                                                                                                ",
"                                                                                                                                                                ",
"                                                    +                                                                 . .                                       ",
"                                                  @ @ @                                                               @ @                                       ",
"                                                @ @ @ @ & & & & & @ & & & & & & & > > > > > > > > > > > > > > > > > > & & > & &                                 ",
"                                              O @ @ & , < < < < < < < < < < < < 9 9 9 9 9 9 9 9 9 9 9 9 9 9 9 9 9 9 9 9 9 9 < , >                               ",
"                                            o o @ & , 9 w r r r r r e r r r r r A S S S S S S S S S S S S S S S S S S S S S e 8 > &                             ",
"                                          # @ + @ > 6 r S J J J J G D J J J J K Y Y E E E E E E E E E E E E E E E E E E E Y S 9 - @                             ",
"                                        u % $ # # - 9 A K Y Y K K K Y Y Y K K Y E E ~ ~ ^ ^ ^ ^ ^ ^ ~ ~ ~ ~ ~ ~ ~ ~ ~ ^ ^ ~ K w - @ .                           ",
"                                      i p a i % $ - 9 A K Y Y Y Y Y Y T Y Y Y Y E E ! ~ ^ 5.5.5._ ^ ~ ~ E E E E E E ~ ^ ^ ^ K w - @ .                           ",
"                                    # i l z l d % - 8 A K Y Y Y Y Y Y Y Y Y Y Y R E E ! ~ ^ ^ ^ ~ ~ Q E T E E E T E E ~ ~ ~ J w - @                             ",
"                                  @ # i z c x f % - 6 A K ` [ #.[ ) P L U [ [ [ ` Q E ! ! ~ ~ E Y Y Y Y E E E E E E E E Y K A 9 > @                             ",
"                                o @ # p z e.c f % - 8 A L :.2.x.4.%.H I %.4.x.2.:.` E ! ! E K J S D K Y Q Q Q Q Q Q E K G A 9 , & @                             ",
"                                  @ # p x e.x f % - 8 A ) 2.M.L.c.&.Z Z &.v.L.M.3.[ Q ! ! E G r w e G Y ~ ~ ~ ~ ~ ~ E J r 9 , & @ @                             ",
"                                    # i l x z p % - 6 A ' n.T.}.I.k.V B *.I.}.T.n.[ Q ! ! T S w 9 w G E ^ ^ ^ ^ ^ ^ E J r < - & @ @                             ",
"                                    # u p l f u $ - 6 A ] b.E.XXU.k.N B k.{.XX Xb.$.E E ! E J A e A K ~ ^ _ _ _ 5.^ E K A 9 < - @ @                             ",
"                                  @ # $ % u % $ # > 8 A ] b. XXXU.l.N B j.{.XX Xb.:.E E ! E Y K J K T ~ ^ ^ ^ ^ ^ ^ ~ E K S w < & @                             ",
"                                @ @ @ @ # # # # # - 7 A ] b. XXXU.l.N B j.[.XX Xb.:.E E ! ~ ~ ~ ~ ~ ~ ^ ^ ^ ^ ^ ^ ^ ^ ^ ! Y A 9 > &                             ",
"                                  @ @ @ @ @ # $ % 2 5 y U x.T.XXU.k.N B j.[.XX Xb.:.E T ~ ^ ^ ^ ^ ^ ^ ^ ^ ^ ^ ^ ^ ^ ^ ^ ^ E D 9 - &                             ",
"                                    @ O O @ $ u d d h g M z.T.XXU.k.N B j.[.XX Xb.:.E T ~ ^ ^ ^ ^ ^ ^ ^ ^ ^ ^ ^ ^ ^ ^ 5._ ~ G w - &                             ",
"                                      o O @ % d x z f h n *.P.}.I.k.V B j.U.}.T.b.$.E T ~ ^ ^ ^ ^ ^ ^ ^ ^ ^ ^ ^ ^ ^ ^ 5.^ ! G w - &                             ",
"                                        @ # u l c c l s g B c.Y.v.*.C C &.v.T.R.2.[ R E ~ ^ ^ ^ ^ ^ ^ ^ _ _ _ ^ ^ _ _ 5.^ ! G w - &                             ",
"                                          # u l c c l u 3 C =.x.x.%.H H %.x.N.b.,.` R E ~ ^ ^ ^ ^ ^ ^ _ 5._ _ _ 5.5.5.5._ ~ G w - @                             ",
"                                          # u l c c l u 1 j I ;.;.' P P U ;.,.:.` W E E ~ ^ ^ ^ ^ ^ ^ ^ ^ ^ ^ ^ ^ _ _ 5.^ ! G w - @                             ",
"                                          # u f x z a % = 4 v L W W K K W W ) W L Y E E ! ~ ^ ^ ^ ~ ~ Q Q E E E Q Q Q Q E Y S 9 - &                             ",
"                                          # % i f a i $ = < w D K Y Y Y Y Y K K K Y T E E ! ~ ^ ^ Q Y G S S S S D S S S S A w < > @                             ",
"                                          @ # % u u $ # & < w D K Y Y Y Y Y Y Y Y Y T T E E ~ ~ ~ Y S w 9 8 9 9 9 9 9 9 9 6 , - & @ +                           ",
"                                          @ @ # # # # @ > 6 r G Y Y Y Y Y Y Y Y Y Y Y Y Y E E E Y G w , & & & > - - - - > > & & @ @ +                           ",
"                                          @ @ O @ @ & - < 9 A J Y Y T Y Y Y Y T Y Y T Y Y T Y K G r 6 & @ + + @ @ @ @ @ @ @ @ @ @ @                             ",
"                                      @ @ @ O o @ & , 8 w A S K Y Y E E E E E E E E E E T Y G A w 6 , &                                                         ",
"                                        @ @ O o @ & < w S G K W W Q ~ | | | | | | | | | ~ W F 9 , - -                                                           ",
"                                          @ O o @ > 6 A K Y W {  .O.7.7.8.8.8.8.8.8.8.8.7.{ H 4 & @                                                             ",
"                                            o o @ > 6 A K ` o.1.q.a.d.s.s.s.s.s.s.s.s.s.d.1.I q = +                                                             ",
"                                              X @ > 6 A L o.1.p.m.Z.F.G.H.H.H.H.H.H.H.H.F.f.X.b ; +                                                             ",
"                                                @ > 8 A W +.p.V.S.!./.(.).).).).).).).`./.C.<.m 1 +                                                             ",
"                                                @ > 6 A W >.p.C.W.^.`.'.].].].].].].].]._.A.r.m 1 +                                                             ",
"                                                @ > 8 A W >.p.C.W.(.`.].].].].].].].].]._.A.r.m 1 +                                                             ",
"                                              & & , 9 A W >.p.C.J.^.`.].].].].].].].].]._.A.r.m 1 +                                                             ",
"                                            & - , 9 e S W >.p.C.J.^.`.].].].].].].].].]._.A.r.m 1 +                                                             ",
"                                          @ - 6 w A S G W >.p.C.W.(.`.].].].].].].].].]._.A.r.m 1 +                                                             ",
"                                    @ @ @ & < w S K Y Y ( +.p.V.J.!.^.(._.`.`.].].].].].^.C.r.m 1 +                                                             ",
"                                  @ @ @ & , 9 S Y E E R Q o.q.f.V.C.S.D.W.!.(.`.`.`.`.(.K.f.<.b ; X                                                             ",
"                                + @ @ - < w A K E Q Q E Q | >.q.i.t.y.u.B.A.~.!.!.!.!.H.m.i.U q ; + .                                                           ",
"                                  @ & , w S K Y Y Y Y Y E ~ } O.@.U I ..r.B.S.W.W.J.F.h.w.o.H 9 & @ + @                                                         ",
"                                  @ & < e G K K K K K Y Y Q ~ / K r q b ..y.B.S.S.Z.g.i.7.Q S 9 - & @ @ @                                                       ",
"                                + @ & , 9 A S A A A S K Y E Q R S 9 , 4 M <.p.g.g.d.w.9. .Q G e 9 , & @ @ +                                                     ",
"                                + + @ > < 9 9 9 9 9 r S K E E Y A 8 - , k U >.0.0.9.8.O.| ~ Y G A 9 , & @ +                                                     ",
"                                    @ @ & & > & & , 9 A G Y Y J A 9 - , 9 J / | } | | ~ ~ ^ ~ E K A 6 & @                                                       ",
"                                        @ @ @ @ @ & < 9 r S S r 9 < - - 6 r S J J K Y Y E ~ ^ ^ E S 9 > + X                                                     ",
"                                          . . . + @ - , 9 9 9 6 < - & & , 6 9 w w e A G Y E ^ ^ Q G 9 > + .                                                     ",
"                                                @ @ @ & > - - > & @ @ @ & > - - - , 9 r G Y ! ~ E S 9 > @                                                       ",
"                                                  @ @ @ & & & @ @ @ @ @ @ @ @ @ @ & , 9 r D K K G r 8 -                                                         ",
"                                                    +                     + + . . @ & , 8 w r r r 9 <                                                           ",
"                                                                                o @ @ & - , , < < ,                                                             ",
"                                                                                + @ @ @ @ @ @ & &                                                               ",
"                                                                                    @ @ + + + +                                                                 ",
"                                                                                                                                                                ",
"                                                                                                                                                                ",
"                                                                                                                                                                ",
"                                                                                                                                                                ",
"                                                                                                                                                                ",
"                                                                                                                                                                ",
"                                                                                                                                                                ",
"                                                                                                                                                                ",
"                                                                                                                                                                ",
"                                                                                                                                                                "
};
