/* XPM */
static char *food2[] = {
/* columns rows colors chars-per-pixel */
"40 40 197 2 ",
"   c None",
".  c None",
"X  c #06020A",
"o  c #09030D",
"O  c #0C0414",
"+  c #0F041A",
"@  c #0F081A",
"#  c #12051E",
"$  c #11091D",
"%  c #19091C",
"&  c #160618",
"*  c #1D101C",
"=  c #3A0A0F",
"-  c #220918",
";  c #290A17",
":  c #380C1C",
">  c #31121F",
",  c #3B101A",
"<  c #0E0225",
"1  c #150525",
"2  c #1B0625",
"3  c #150C25",
"4  c #1B0C22",
"5  c #170B2A",
"6  c #1B0D2C",
"7  c #170728",
"8  c #1C0F30",
"9  c #1D1132",
"0  c #230925",
"q  c #2A0A23",
"w  c #210623",
"e  c #330C22",
"r  c #3B0D20",
"t  c #22122C",
"y  c #291426",
"u  c #3A1425",
"i  c #3F1925",
"p  c #341A2C",
"a  c #381A2F",
"s  c #281634",
"d  c #291735",
"f  c #3C2235",
"g  c #440D1E",
"h  c #4A0F1E",
"j  c #480D14",
"k  c #5D0F19",
"l  c #510D1B",
"z  c #4B101F",
"x  c #55101D",
"c  c #5A131D",
"v  c #600E18",
"b  c #63131B",
"n  c #6B1419",
"m  c #66191E",
"M  c #6C1B1E",
"N  c #6E1117",
"B  c #761316",
"V  c #7D1516",
"C  c #741618",
"Z  c #751B1C",
"A  c #7D1B1A",
"S  c #6B211F",
"D  c #7B221E",
"F  c #77221E",
"G  c #420E20",
"H  c #441121",
"J  c #4C1220",
"K  c #4B1923",
"L  c #511521",
"P  c #5A1A21",
"I  c #571D23",
"U  c #5B2325",
"Y  c #402639",
"T  c #4D2F3F",
"R  c #562E38",
"E  c #58323B",
"W  c #672523",
"Q  c #762922",
"!  c #6A363A",
"~  c #7F3833",
"^  c #7B342B",
"/  c #593440",
"(  c #613943",
")  c #664348",
"_  c #7C4647",
"`  c #7D5553",
"'  c #851A16",
"]  c #8C1D17",
"[  c #831D1A",
"{  c #841B17",
"}  c #84231D",
"|  c #8B221B",
" . c #88281F",
".. c #952117",
"X. c #9C2417",
"o. c #932319",
"O. c #9A2519",
"+. c #942B1D",
"@. c #9D2A1B",
"#. c #A02617",
"$. c #A32718",
"%. c #A42A1A",
"&. c #AB2D1A",
"*. c #B12F1A",
"=. c #AC321C",
"-. c #AE3A1F",
";. c #B5331B",
":. c #BB351C",
">. c #BC3A1D",
",. c #B7391D",
"<. c #842B22",
"1. c #862820",
"2. c #8A3424",
"3. c #823527",
"4. c #9B3924",
"5. c #A33521",
"6. c #AC3E21",
"7. c #A93622",
"8. c #B23C20",
"9. c #C43B1C",
"0. c #C83D1D",
"q. c #C1371B",
"w. c #BF401F",
"e. c #B54A25",
"r. c #BA4924",
"t. c #B84322",
"y. c #B34A2D",
"u. c #C6421F",
"i. c #CB441F",
"p. c #D0461E",
"a. c #D2481F",
"s. c #C34620",
"d. c #CA4720",
"f. c #CC4C22",
"g. c #C44822",
"h. c #D14E22",
"j. c #C35525",
"k. c #CB5325",
"l. c #CA5C25",
"z. c #C75328",
"x. c #D25324",
"c. c #D55925",
"v. c #DB5B25",
"b. c #D65825",
"n. c #C14D31",
"m. c #C3583C",
"M. c #E15E25",
"N. c #DE6027",
"B. c #D6652E",
"V. c #D86C30",
"C. c #D47F3D",
"Z. c #E66525",
"A. c #E96624",
"S. c #EC6D28",
"D. c #E76827",
"F. c #F06E25",
"G. c #E8712D",
"H. c #F57326",
"J. c #F77C2C",
"K. c #FB7725",
"L. c #E57630",
"P. c #E57932",
"I. c #F27F32",
"U. c #804849",
"Y. c #804341",
"T. c #9C4E43",
"R. c #9D5B51",
"E. c #A24D41",
"W. c #A45D52",
"Q. c #94635D",
"!. c #BC604C",
"~. c #B96856",
"^. c #BD725F",
"/. c #9A6B64",
"(. c #A06B61",
"). c #B77A69",
"_. c #A77367",
"`. c #C16E5A",
"'. c #FA822F",
"]. c #EB833B",
"[. c #F58333",
"{. c #FC8B34",
"}. c #FB8630",
"|. c #FD943A",
" X c #F7923F",
".X c #E68B42",
"XX c #FD9C42",
"oX c #FEA246",
"OX c #FBAB51",
"+X c #FEBA5B",
"@X c #FFB758",
"#X c #C18672",
"$X c #E79E7E",
"%X c #DFAC60",
"&X c #E0AE61",
"*X c #FFD673",
"=X c #EEA887",
/* pixels */
". . . . . . . . . . . . . . . . . . . . . . . . . . . . . . . . . . . . . . . . ",
". . . . . . . . . . . . . . . . . . . . . . . . . . . . . . . . . . . . . . . . ",
". . . . . . . . . . . . . . . . . X O o . . . . . . . . . . . . o O X . . . . . ",
". . . . . . . . . . . . . . . . . @ 6 3 X . . . . . . . . . . X 3 5 @ . . . . . ",
". . . . . . . . . . . . . . . . . 2 s t o . . . . . . . . . . o t d 2 . . . . . ",
". . . . . . . . . . . . . . X @ 2 R U.! y O X . . . . . . X O y ` /.) % O . . . ",
". . . . . . . . . . . . . . O 6 s _ `.R.p 1 O . . . . . . O 1 Y #X=XQ.t 1 X . . ",
". . . . . . . . . . . . . . O 5 s U.`.W./ Y y o X . . . . + 1 f ).$X(.T f * X . ",
". . . . . . . . . . . . . . O 2 y Y.~.~.).)._ t 3 O . . & 0 6 f R.^.).)._.T # + ",
". . . . . . . . . . . . O O : m Z 4.n.y.E.T.! t 5 1 O - S ~ _ _ E R ( ) ) p O o ",
". . . . . . . . . . . . # 1 J o.%.,.9.,.Z b g 2 1 1 1 e 5.m.`.W.a 1 1 2 1 O . . ",
". . . . . . . . . . . o > u W =.,.9.i.,.M l g e e u u U t.m.!.T.p 1 1 # # X . . ",
". . . . . . . . . O + > 4.e.k.Z.Z.Z.F.j.K 2 J A | 5.e.j.G.z.7.1.e 1 # X . . . . ",
". . . . . . . . . O 1 u e.M.Z.H.H.H.K.l.i < J O.&.d.v.D.[.k.$.[ e 1 O . . . . . ",
"o o . . . . . . o , P Q k.Z.S.J.'.|.oXC.U e m %.,.B.].].P.4.M c - O O O X . . . ",
"1 1 O . . . . . % F :.u.A.H.J.{.|.+X*X%X^ k [ :.u.].+XOXV.W 2 % o . O 1 1 X . . ",
"1 2 # . . . . o ; 1.0.p.A.H.J.{.|.@X*X&X3.v | :.i..X+XOXB.W 1 + X . o 1 1 X . . ",
"1 1 1 + O ; = j F 6.f.f.v.Z.S.J.'.XXOX.X2.N +.f.b.].oX Xk.P 1 1     X o X . . . ",
"1 1 1 1 2 g b Z ,.f.k.b.v.v.Z.H.H.}.|.P.+.B %.b.N.I.|.[.g.P 1 1       . . . . . ",
"1 1 2 q e x n [ ,.h.c.b.r.e.k.Z.F.J.{.G.6.+.-.f.b.D.[.G.t.P 1 1       . . . . . ",
"1 1 r b n [ o.@.d.Z.F.l.U u Q u.a.b.Z.D.L.P.c.=.=.u.h.i.&.J 1 6 6 9 $ . . . . . ",
"1 1 g B ' ..#.=.f.Z.K.l.i < P :.0.h.v.Z.{.|.B.%.#.,.9.:.@.J 1 6 6 9 $ . . . . . ",
"1 1 H [ ] #.*.,.f.v.A.j.I e L F  .,.h.b.G.I.c.,.*.,.,.*.o.J 1 2 6 9 $ . . . . . ",
"1 1 J o.#.,.9.9.b.b.b.r.Z c g 0 q  .0.i.v.N.h.9.q.*.%.X.[ r 1 6 6 9 $ . . . . . ",
"1 1 J O.&.,.9.0.b.b.k.t.A b z 0 q 1.:.9.b.b.f.9.:.&.$...C r 1 1 6 6 @ . . . . . ",
"1 1 L &.:.,.*.,.i.i.i.>.[ C F 2.2. .| +.9.i.9.,.&.X.] A h 0 1 1 O O X . . . . . ",
"1 1 P :.9.*.%.&.:.9.9.,.' V %.v.b.+.k Z ,.9.:.%.$.] V n q 1 2 # X . . . . . . . ",
"1 1 P :.9.@.[ | ,.9.9.,.' B @.h.b.+.b Z &.:.*.X...V n c 0 1 # O . . . . . . . . ",
"1 1 P :.:.M r L o.:.9.,.Z b | >.9.O.V [ O.%.o.' C h q q 2 O X . . . . . . . . . ",
"1 1 L %.&.2.3.1.F O.*.O.z e m %.&.O...o.] ] n g r 0 6 5 O . . . . . . . . . . . ",
"1 1 J O.&.d.c.r.F } %.} q < J O.%.%.%.O.' V x 2 5 6 9 3 X . . . . . . . . . . . ",
"1 1 H A | 4.e.4.Z ] %.| J e c [ | o.O.o.C n h 6 6 3 5 $ . . . . . . . . . . . . ",
"1 1 0 e e u u H c | %.%.%.%.F e e b ' C r q 0 6 6 + X . . . . . . . . . . . . . ",
"1 1 1 1 1 1 1 w x | %.&.q.9.} 0 2 x V n q 1 6 8 6 O . . . . . . . . . . . . . . ",
"O O # 1 1 1 1 2 r c M M F } P 2 2 r c h 0 6 3 $ @ X . . . . . . . . . . . . . . ",
". . O 1 1 1 1 1 2 2 0 0 0 0 2 1 1 2 2 6 6 8 $ . . . . . . . . . . . . . . . . . ",
". . X 1 1 1 1 1 1 1 1 1 1 1 1 1 1 1 1 5 6 6 @ . . . . . . . . . . . . . . . . . ",
". . . o o o o O 1 1 1 1 1 1 1 1 1 1 1 1 O O X . . . . . . . . . . . . . . . . . ",
". . . . . . . X # 1 1 1 1 1 1 1 1 1 2 # X . . . . . . . . . . . . . . . . . . . ",
". . . . . . . X # 1 1 1 1 1 1 2 1 2 2 # X . . . . . . . . . . . . . . . . . . . "
};
