/* XPM */
static char *food1[] = {
/* columns rows colors chars-per-pixel */
"40 40 216 2 ",
"   c None",
".  c None",
"X  c #06010C",
"o  c #08020E",
"O  c #0D0314",
"+  c #0F021E",
"@  c #180916",
"#  c #14051B",
"$  c #17081A",
"%  c #230F1E",
"&  c #140425",
"*  c #1F0B24",
"=  c #1D0523",
"-  c #200B27",
";  c #220F2A",
":  c #250522",
">  c #24112C",
",  c #2F172E",
"<  c #321529",
"1  c #35192C",
"2  c #3C1A2B",
"3  c #371525",
"4  c #30122B",
"5  c #3F212F",
"6  c #4A061C",
"7  c #550A1D",
"8  c #7D010D",
"9  c #6A0317",
"0  c #4A1A27",
"q  c #461827",
"w  c #5B1724",
"e  c #611A25",
"r  c #47212D",
"t  c #54252C",
"y  c #5C262B",
"u  c #4E2931",
"i  c #532D32",
"p  c #582E33",
"a  c #593336",
"s  c #453239",
"d  c #793632",
"f  c #713232",
"g  c #643131",
"h  c #7A443B",
"j  c #79463D",
"k  c #68494A",
"l  c #6C5758",
"z  c #88020D",
"x  c #9A020D",
"c  c #860914",
"v  c #990912",
"b  c #891218",
"n  c #971316",
"m  c #A3020C",
"M  c #AB080F",
"N  c #AC0C12",
"B  c #A40D13",
"V  c #A61518",
"C  c #B31315",
"Z  c #B21419",
"A  c #B91D1C",
"S  c #B71B18",
"D  c #B2150C",
"F  c #97221E",
"G  c #A9231F",
"H  c #BC231D",
"J  c #B2231F",
"K  c #AF1E20",
"L  c #922622",
"P  c #81322D",
"I  c #8B342B",
"U  c #91362B",
"Y  c #98382B",
"T  c #BD2925",
"R  c #B72624",
"E  c #A43326",
"W  c #AA3C2B",
"Q  c #A83A2A",
"!  c #BA372B",
"~  c #A22722",
"^  c #C21D19",
"/  c #C4231D",
"(  c #C52A1E",
")  c #CB261C",
"_  c #D42D1F",
"`  c #C42C25",
"'  c #C62D28",
"]  c #CC352B",
"[  c #CD392D",
"{  c #C83326",
"}  c #D2372A",
"|  c #C53D32",
" . c #CD3D32",
".. c #CF3733",
"X. c #D33C35",
"o. c #934235",
"O. c #9C4434",
"+. c #994A3A",
"@. c #93523F",
"#. c #AD412E",
"$. c #A94A36",
"%. c #B44C34",
"&. c #B14F38",
"*. c #B54932",
"=. c #A9523B",
"-. c #BB5136",
";. c #B3533A",
":. c #BB5539",
">. c #BD5A3C",
",. c #B3543B",
"<. c #D7422C",
"1. c #C94537",
"2. c #D44534",
"3. c #D64A3A",
"4. c #DB4D3C",
"5. c #DA4636",
"6. c #C7543B",
"7. c #DC523F",
"8. c #E24433",
"9. c #E64937",
"0. c #8A584A",
"q. c #9B5B44",
"w. c #935947",
"e. c #85574A",
"r. c #AB5E42",
"t. c #B65A42",
"y. c #B95D43",
"u. c #8E665A",
"i. c #BB6145",
"p. c #B96A4A",
"a. c #BC734E",
"s. c #B46B53",
"d. c #B97357",
"f. c #BB7857",
"g. c #AB694D",
"h. c #947266",
"j. c #927669",
"k. c #CD4845",
"l. c #D94F40",
"z. c #D64F42",
"x. c #DB5242",
"c. c #D95A44",
"v. c #DB5B50",
"b. c #E15740",
"n. c #E45B46",
"m. c #E45B47",
"M. c #F25542",
"N. c #C26342",
"B. c #C16649",
"V. c #C26A4C",
"C. c #CA6D4A",
"Z. c #DB6A4B",
"A. c #CF744E",
"S. c #D0754E",
"D. c #DE714F",
"F. c #C57C5B",
"G. c #C37457",
"H. c #D47C53",
"J. c #D87953",
"K. c #CF6756",
"L. c #E4624D",
"P. c #E8644E",
"I. c #E46451",
"U. c #E56A57",
"Y. c #E8735E",
"T. c #C67F60",
"R. c #E97463",
"E. c #E97768",
"W. c #EA776A",
"Q. c #9C8272",
"!. c #B58F75",
"~. c #CA835E",
"^. c #C5815B",
"/. c #DE8A5C",
"(. c #D98257",
"). c #E18B5E",
"_. c #CB8565",
"`. c #CC8963",
"'. c #CF8E6C",
"]. c #D18B67",
"[. c #D2936C",
"{. c #CE9776",
"}. c #D59B75",
"|. c #D59873",
" X c #E89163",
".X c #E49363",
"XX c #F58E78",
"oX c #F18872",
"OX c #DAA27C",
"+X c #D6A077",
"@X c #F3AA72",
"#X c #F2A570",
"$X c #F7B177",
"%X c #A39480",
"&X c #D6AA85",
"*X c #DDAB83",
"=X c #D0A581",
"-X c #DBB189",
";X c #E2B48C",
":X c #E4BA8F",
">X c #E5BC92",
",X c #E8BC92",
"<X c #FAAA8E",
"1X c #ECCA9D",
"2X c #E7C59B",
"3X c #EECEA2",
"4X c #E1C9A1",
"5X c #EED2A3",
"6X c #F0D3A5",
"7X c #F4DDAD",
"8X c #F1D5A8",
"9X c #FBEDBA",
"0X c #F8E5B3",
"qX c #FEF3BF",
"wX c #FEFAC4",
"eX c #FDF7C1",
/* pixels */
". . . . . . . . . . . . . . . . . . . . . . . . . O & 1 0.p & & & & O . . . . . ",
". . . . . . . . . . . . . . . . . . . . . . . . . O & 1 0.p & & & & O . . . . . ",
". . . . . . . . . . . . . . . . . . o o o o o o O 3 q y @.e.k k a i 2 O X . . . ",
". . . . . . . . . . . . . . . . . O & & & & & & = y I U #.T.-X=Xf.g.j * + X . . ",
". . . . . . . . . . . . . . . . . $ > > > > > > , f O.O.$.`.>X*XF.p.j , > O . . ",
". . . . . . . . . . . . . . . O $ a 0.u.h.h.Q.%X!.!.{.{.OX[.F.G.t.;.g.Q.j.s O O ",
". . . . . . . . . . . . . . X & ; 0.[.+X;X,X6XeXeX0X8X7X9X|.%.%.#.#.F.3X4Xl & & ",
". . . . . . . . . . . . . . @ < r w.~.`.|.OX>X9X9X1X;X>X2X|.G.B.%.#.F.1X2Xl & & ",
". . . . . . . . . . . . $ * i w.q.=.;.;.t.t.].5X3X[.p.p.p.[.;XOXG.t._.;X&Xk ; - ",
". . . . . . . . . X O % g j q.^.~._._._.{.|.}.*X*X*X*X|.C.C.G._.*X>X|.f.s.0.j j ",
". . . . . . . . . O & 1 q.a.^.[.|.*X>X2X6X6X>X[.[.1XwX7X].%.E t.5XwX&XO.U r.a.a.",
". . . . . . . . . % 1 i q.p.a.~.`.|.OX*X;X:XOX~._.>X0X5X|.t.E t.3XqX&XO.U +.q.q.",
". . . . . . . . $ g q.q.$.#.$.&.;.t.B.B.t.t.;.$.&._.OX;X1XT.W t.>X7X{.O.U y 1 1 ",
". . . . . . . . * j a.p.#.E W W #.%.-.%.#.W W E Q p.[.OX7X].W t.;X8X{.O.I q & & ",
". . . . . . o @ t @.i.i.;.%.>.C.C.N.:.:.:.:.%.W W ,.p._.;X}.F.].1X0X+XO.I 0 & & ",
". . . . . O & < o.:.:.>.C.A./.@X@XH.>.N.C.S.N.#.W W Q &.`.;X1X3X9XwX&XO.I 0 & & ",
". . . . . $ * 1 O.%.%.:.C.J.).@X@X(.N.N.A.H.N.%.#.W E $.`.;X1X3X9XeX=Xo.P q & & ",
". . . O $ t d P L G J R 1.6.c.Z.Z.J.)./.(.(.A.N.N.%.W t.|.[.G._.>X6X!.t q 3     ",
". . o & - d >.*.b x m N ` [ ] ]  .).$X@X X/.(.H.S.:.W t.*XG.E &.OX,Xh.> &       ",
". . @ 3 1 P *.W n B N Z ` [ [ 2.2.D. X X X X(.S.A.:.#.i.*XG.Y =.|.;Xu.> &       ",
"$ $ 0 o.O.L b n A ` ` ` ] ] 3.m.c.| J |  X@X).B.N.:.%.B.OXd.U $.`.+X0.> &       ",
"& & y ;.-.F 8 z ^ { [ ] ] ] 3.I.L.T m J  X$X XN.>.:.-.C.|.s.U $.~.[.0.> &       ",
"& & 0 E ! V B B A X.x.4.3.3.4.x.x. .T ! c.Z.J.(.H.N.%.i.[.f.=.@.0.e.k > &       ",
"& & 6 v N S ) ^ Z k.E.E.I.L.x.[ [ x.L.z.A N 1.#X@XC.#.;.~.F.a.q.5 ; >     . . . ",
"& & 6 v M ^ _ ) Z k.E.E.U.U.x.[  .x.I.x.Z m 1.#X@XC.W &.F.f.p.w.< & &     . . . ",
"& & 7 Z ^  .4.5.} 4.c.I.oXXXY.x.x.x.l. .Z m ! (./.t.Y $.p.e.i u       . . . . . ",
"& & e / _ 4.L.n.M.9.<.b.XX<XXXU.I.l.X.] N m R S.A.=.U O.r.p & &       . . . . . ",
"& & w H ) 5.n.n.M.M.b.L.E.oXE.m.n.9.8.X.Z N ! C.C.;.O.+.@.u & &       . . . . . ",
"& & 7 A / { 4.4.I.W.XXE.| R ' ]  .8.9.8.} ' | 6.>.r.r.@.u       . . . . . . . . ",
"& & w ` { 2.b.4. .U.XXE.[ / [ x.x.} / / H A ! %.&.j p u   . . . . . . . . . . . ",
"& & e <.8.b.P.4.A k.W.Y.4.<.x.Y.U.' m m m m J -.;.t & &   . . . . . . . . . . . ",
"& & w Q ! 2.x.2.R 1.v.v.5.<.7.U.I.T x m V V ~ O.o.u & &   . . . . . . . . . . . ",
"      3 q b Z A { ` H ` X.X.2.4.2.G z n W *.P 1 <       . . . . . . . . . . . . ",
"      & = 9 m Z } ( D S ] X.X.X...V 8 b *.>.d * &       . . . . . . . . . . . . ",
"      & : 6 9 c R ( ( ( ` ` R R R G F L P d y * &       . . . . . . . . . . . . ",
". . .     : = 3 v ' 5.} Z N v z z E -.O.1 * *     . . . . . . . . . . . . . . . ",
". . .     & & : c R 2.{ B x z 8 c Y ;.o.< & &     . . . . . . . . . . . . . . . ",
". . . . .       6 w e e 7 6 6 6 6 0 t t       . . . . . . . . . . . . . . . . . ",
". . . . .       & & & & & & & & & & & &       . . . . . . . . . . . . . . . . . ",
". . . . .       & & & & & & & & & & & &       . . . . . . . . . . . . . . . . . "
};
