/* XPM */
static char *food4[] = {
/* columns rows colors chars-per-pixel */
"40 40 222 2 ",
"   c None",
".  c None",
"X  c #0A0002",
"o  c #07050A",
"O  c #130003",
"+  c #1B0004",
"@  c #110F0E",
"#  c #140A1B",
"$  c #131312",
"%  c #250006",
"&  c #290106",
"*  c #270208",
"=  c #34020A",
"-  c #3D0109",
";  c #360308",
":  c #280B17",
">  c #3B0A17",
",  c #3D131B",
"<  c #1C1031",
"1  c #170D27",
"2  c #2C0A22",
"3  c #332F2C",
"4  c #42020C",
"5  c #4B010B",
"6  c #53020C",
"7  c #5D020D",
"8  c #570C0B",
"9  c #4B0C17",
"0  c #570A13",
"q  c #4F141D",
"w  c #64010D",
"e  c #6A030D",
"r  c #69080E",
"t  c #760C0F",
"y  c #70170D",
"u  c #680812",
"i  c #770A14",
"p  c #6B151C",
"a  c #791417",
"s  c #491B24",
"d  c #561E28",
"f  c #791820",
"g  c #601A24",
"h  c #512026",
"j  c #7B2E35",
"k  c #772C33",
"l  c #7A3138",
"z  c #7B3037",
"x  c #652B35",
"c  c #41423B",
"v  c #6A3C44",
"b  c #723E4B",
"n  c #7A3842",
"m  c #5D5D54",
"M  c #51504A",
"N  c #73404D",
"B  c #794D59",
"V  c #6E5F5A",
"C  c #66655C",
"Z  c #707066",
"A  c #86160F",
"S  c #811413",
"D  c #8C151D",
"F  c #9A1F1B",
"G  c #860F1B",
"H  c #9D2510",
"J  c #852519",
"K  c #A22E16",
"L  c #B83814",
"P  c #AE351A",
"I  c #801B24",
"U  c #951823",
"Y  c #AA1F2A",
"T  c #8C2525",
"R  c #942121",
"E  c #812C31",
"W  c #8F3C3F",
"Q  c #B0272D",
"!  c #AE3722",
"~  c #BA2631",
"^  c #B33631",
"/  c #C03F17",
"(  c #C32D35",
")  c #CA3539",
"_  c #BF4729",
"`  c #D04918",
"'  c #EB5916",
"]  c #F45B14",
"[  c #F5631C",
"{  c #F56116",
"}  c #C1433C",
"|  c #D94B3B",
" . c #D65C36",
".. c #D2542A",
"X. c #E9432B",
"o. c #EA533F",
"O. c #ED4A33",
"+. c #D26038",
"@. c #EC6128",
"#. c #F46726",
"$. c #F4742D",
"%. c #E96639",
"&. c #F06833",
"*. c #F37738",
"=. c #813940",
"-. c #8E454D",
";. c #954D54",
":. c #90545A",
">. c #A44C4E",
",. c #B75557",
"<. c #AF524F",
"1. c #905964",
"2. c #8B616E",
"3. c #8F6F72",
"4. c #BC6464",
"5. c #AC777F",
"6. c #DB4944",
"7. c #D95549",
"8. c #CE4840",
"9. c #E5584A",
"0. c #E95D50",
"q. c #CB6558",
"w. c #D76858",
"e. c #DF6441",
"r. c #EB684B",
"t. c #EE784C",
"y. c #EA7659",
"u. c #F07F53",
"i. c #EA6C51",
"p. c #CB6968",
"a. c #DA6A63",
"s. c #D7766B",
"d. c #C97476",
"f. c #D87976",
"g. c #E76C61",
"h. c #EB7A69",
"j. c #E87C76",
"k. c #F8813F",
"l. c #818176",
"z. c #F1834B",
"x. c #F68649",
"c. c #F08559",
"v. c #FB9757",
"b. c #EB856A",
"n. c #F0956B",
"m. c #F0996F",
"M. c #E7847C",
"N. c #EE987A",
"B. c #F09A72",
"V. c #EF9066",
"C. c #F8A573",
"Z. c #997684",
"A. c #A17E8D",
"S. c #BF7E84",
"D. c #C07F85",
"F. c #9B9A8D",
"G. c #8F8F83",
"H. c #AB8794",
"J. c #B7959B",
"K. c #B29195",
"L. c #B4A79D",
"P. c #B495A3",
"I. c #BB9EAC",
"U. c #BE97A2",
"Y. c #AF92A0",
"T. c #BBA1AF",
"R. c #BDBBAE",
"E. c #BEA3B1",
"W. c #CE8487",
"Q. c #D88484",
"!. c #C98D93",
"~. c #CA959A",
"^. c #DA9798",
"/. c #E88884",
"(. c #E8958A",
"). c #E49995",
"_. c #EEA58A",
"`. c #ECA898",
"'. c #F1B499",
"]. c #F3B290",
"[. c #C69EA7",
"{. c #DC9FA2",
"}. c #C8A4AD",
"|. c #D7A8AC",
" X c #C2AAB5",
".X c #D6AAB0",
"XX c #D4B6B9",
"oX c #EAABA6",
"OX c #E9ADAB",
"+X c #E4AAAB",
"@X c #ECB6AC",
"#X c #E1AFB1",
"$X c #E4B0B2",
"%X c #EAB3B3",
"&X c #EABBBB",
"*X c #E9BBB5",
"=X c #FFC592",
"-X c #F5C1AB",
";X c #EBC3BC",
":X c #F3C9B6",
">X c #DFBFC1",
",X c #D6C4C6",
"<X c #DBC8C9",
"1X c #D9D4C7",
"2X c #CECEC0",
"3X c #EAC5C3",
"4X c #EACDCB",
"5X c #E5CCCA",
"6X c #EBD4D3",
"7X c #EBDED9",
"8X c #E5D6D2",
"9X c #F2D5C7",
"0X c #ECE3DB",
"qX c #ECECDC",
"wX c #F1E9DE",
"eX c #F3E6DA",
"rX c #FFECCE",
"tX c #F7EDE0",
"yX c #FCF8E6",
"uX c #FEFDEC",
"iX c #F8F4E5",
"pX c #FFFFF2",
/* pixels */
". . . . . . . . . - w w w w - X . . . . . . . . . . . . . . . . . . . . . . . . ",
". . . . . . . . X - w w w w - X . . . . . . . . . . . . . . . . . . . . . . . . ",
". . . . . . . . & u D G e w - X . . . . . . . . . . . . . . . . . . . . . . . . ",
". . . . . . . O 6 U ( Q i w - X . . . . . . . . . . . . . . . . . . . . . . . . ",
". . . . . . . + u Y ) ~ i w - X . . . . . . . . . . . . . . . . . . . . . . . . ",
". . . . . % - 6 U ) 6.) a w - X . . . . . . . . . . . . . . . . . . . . . . . . ",
". . . . . - w i ~ 6.9.8.a w - X . . . . . . . . . . . . . . . . . . . . . . . . ",
". . X O + 6 i D ( 6.r.| S w - X . . . . . . . . . . . . . . . . . . . . . . . . ",
". . % 5 7 U ~ ( 6.%.%...a 7 - . . . . . . . . . . . . . . . . . . . . . . . . . ",
". . & w t Q 6.6.%._ K J - % + . . . . . . . . . . . . . . . . . . . . . . . . . ",
". . % 7 i ^ 9.r.%.K e 6 O . . . . . . . . . . . . . . . . . . . . . . . . . . . ",
"X X - a D } 0.r. .J 6 4 O . . . . . . . . . . . . . . . . . . . . . . . . . . . ",
"= = p } 8.a.j.a.T - O O . . . . . . . . . . . . . . . . . . . . . . . . . . . . ",
"4 4 T 9.0.h./.p.f % . . . . . . . . . . . . . . . . . . . . . . . . . . . . . . ",
"4 4 E w.g.M.).Q.1.s % % X . X % % X . . . . 3 m C C C C C C C M $ . . . . . . . ",
"4 4 z p.f.).$X&XXX;.7 5 O . % 7 7 % . . . . m 1XqXqXqXqXqXqXqXR.3 . . . . . . . ",
"4 4 j p.f.).OX*X&X<.t 7 + X & 7 7 & . X @ $ Z qXuXuXuXuXuXuXpX2Xc $ $ $ $ . . . ",
"6 7 T 7.0.y.V.n.m.+.L K 8 - = & & = - h 3.F.R.0XwXwXwXwXwXiXuX0XL.F.F.F.G.3 . . ",
"w w F X.O.&.$.$.$.[ ] ` S w - X X - w W 1XpXyX0X7X0X0X0X0XiXuXuXuXuXuXuXqXC . . ",
"7 w R | o.r.z.z.z.*.&...S w - . . - w j L.2X1X0X0X8X8X8X8XwXyXyXuXuXuXuXqXV X X ",
"5 5 E p.f.(.`.`.@X(.h.q.f w - . . - e 0 3 3 l.qXiX<X X X X<XwX0X0X0X0XwX8X:.= = ",
"4 4 l d.Q.).%X&X3XoX/.p.I w - . X - e 6 O . C qXuX,XI.I.T.,X0X0X7X7X0X0X5X:.4 4 ",
"4 4 n D.!.|.%X&X3X_.y.w.! H y = & = - - & & v K.~.~.~.~.}.,X4X4X,X,X,X<XXXB 4 4 ",
"4 4 b P.[..X%X&X3Xm.$.$.' ' L e 6 % . O 5 w u p f ,.M.(.+X%X%X$X}.E.E.E.P.N 4 4 ",
"- - v H.P.|.oX@X*Xm.*.*.#.[ / t e = . O 6 e e e i ,.M.(.OX%X%X.X}.I.I.I.Y.b 4 4 ",
"+ + s n -.q.u.c.n._.]._.h.y. ./ L y - 4 7 w A L / s.`.oX&X&X%X$X.X.X}.T.P.b 4 4 ",
". . & 7 t L ] { $.].6X3X)./.y.[ ' H w w w w H ' #.n.%X&X4X3X%X%X%X%X.XE.P.N 4 4 ",
". . % 6 r L &.&.z.'.4X&XM.h.i.&.@.P A S f I ! ' #.N.&X&X3X&X%X%X%X%X[.H.Z.x = = ",
". . + - 0 W w.s.).OX%X`.t.&.t.b.b.%.` ..q.s.y.*.*._.;X;X&X%X%X%X$X$XS.x d : X X ",
". . X O % d l -.d.j.g.h.N._.'.9X:XC.k.v.-X9X-X'._.N.m.N.oX%X%X$X.X}.2.9 - + . . ",
". . . . . * 4 g 4.0.X.9.%X6XeXuXyX=Xv.C.rXuXtX8X4Xm.$.z.`.%X%X$X}.T.2.9 - + . . ",
". . . . . + = q >.7.o.i.+X5X8XtXeX].x.C.9XuXeX6X3Xn.$.t.).+X$X|.H.A.B > * O . . ",
". . . . . X X % p <.s.f.[. XXX&X*XV.#.t.:X7X4X&X@Xc.[ &.f.~.}.H.v d , O X . . . ",
". . . . . . . O 0 >.f.W.U.I.}.$XoXu.] *.@X6X3X%XoXu.] @.s.!.T.A.d - % . . . . . ",
". . . . . . . X - k ;.;.1.2.5.^.).i.] %.).+X.X.X|.b.%.e.<.1.2.B , % O . . . . . ",
". . . . . . . . X = 9 9 9 9 =.d.f.0.X.o.f.Q.!.I.I.W.f.p.I 0 9 > O . . . . . . . ",
". . . . . . . . . % - - - 4 k 4.p.7.X.| p.d.D.J.J.D.d.,.f 5 - = X . . . . . . . ",
". . . . . . . . . # 2 2     x j j T F R E l n b b n l k   > 2 : o . . . . . . . ",
". . . . . . . . . # < <       4 4 7 w 7 5 4 4 4 4 4 4 4   < < 1 o . . . . . . . ",
". . . . . . . . . # < <       4 4 6 w 7 5 4 4 4 4 4 4 4   < < 1 o . . . . . . . "
};
