/* XPM */
static char *_[] = {
/* columns rows colors chars-per-pixel */
"150 50 2 1 ",
"  c None",
". c red",
/* pixels */
"                                                                                                                                                      ",
"                                                                                                                                                      ",
"                                                                                                                                                      ",
"                                                                                                                                                      ",
"                                                                                                                                                      ",
"                                                                                                                                                      ",
"                                                                                                                                                      ",
"                                                                                                                                                      ",
"                                                                                                                                                      ",
"                                                                                                                                                      ",
"                                                                                                                                                      ",
"                                                                                                                                                      ",
"                                                                                                                                                      ",
"                                                                                                                                                      ",
"                                                                                                                                                      ",
"               ..........     ......       ........  ...........  ..........  .........           .........      .......       .......                ",
"               ..........     ......      .........  ............ ..........  ...........         .........    ..........    ..........               ",
"               ..........     ......      .........  ............ ..........  ...........         .........   ...........   ...........               ",
"               .........     ........    ..........  ...........  .........   ............        .........   ...........   ..........                ",
"               ....          ........    ....            ....     ....        ....    ....        ....        ....          ....                      ",
"               ....          ........    ....            ....     ....        ....    ....        ....       ....          ....                       ",
"               ....          ... ....    ....            ....     ....        ....    ....        ....       ....          ....                       ",
"               ....          ...  ...    ....            ....     ....        ....    ....        ....       ....          ....                       ",
"               .........    ....  ....   ........        ....     .........   ....    ....        ........   ....   ....   ....   ....                ",
"               .........    ....  ....    .........      ....     .........   ....   .....        ........   ....  ......  ....  ......               ",
"               .........    ....  ....    ..........     ....     .........   ...........         ........   ....  ......  ....  ......               ",
"               .........    ...   ....       .......     ....     .........   ...........         ........   ....   .....  ....  ......               ",
"               ....         ..........          ....     ....     ....        ..........          ....       ....    ....  ....    ....               ",
"               ....        ............         ....     ....     ....        ....   ...          ....       ....    ....  ....    ....               ",
"               ....        ............         ....     ....     ....        ....   ....         ....       ....    ....  ....    ....               ",
"               ....        ............         ....     ....     ....        ....   ....         ....        ....   ....   ...    ....               ",
"               .........   ....    ....        .....     ....     .........   ....   ....         .........   ....   ....   ....   ....               ",
"               ..........  ...     ....  ..........      ....     ..........  ....    ....        .........   ...........   ...........               ",
"               .......... ....      .... ..........      ....     ..........  ....    ....        .........    ..........    ..........               ",
"               .......... ....      .... .........       ....     ..........  ....    ....        .........     .........     .........               ",
"                                                                                                                                                      ",
"                                                                                                                                                      ",
"                                                                                                                                                      ",
"                                                                                                                                                      ",
"                                                                                                                                                      ",
"                                                                                                                                                      ",
"                                                                                                                                                      ",
"                                                                                                                                                      ",
"                                                                                                                                                      ",
"                                                                                                                                                      ",
"                                                                                                                                                      ",
"                                                                                                                                                      ",
"                                                                                                                                                      ",
"                                                                                                                                                      ",
"                                                                                                                                                      "
};
