/* XPM */
static char *enemy5[] = {
/* columns rows colors chars-per-pixel */
"60 60 110 2 ",
"   c None",
".  c #382121",
"X  c #3A2B22",
"o  c #3B3322",
"O  c #432525",
"+  c #492727",
"@  c #452827",
"#  c #4B2728",
"$  c #462C29",
"%  c #4D2829",
"&  c #532A2A",
"*  c #5B2D2D",
"=  c #573E36",
"-  c #612F2F",
";  c #632F30",
":  c #653031",
">  c #6D3334",
",  c #603D37",
"<  c #6F3F3B",
"1  c #733536",
"2  c #793637",
"3  c #7B3738",
"4  c #7E3839",
"5  c #3D4323",
"6  c #3F4D23",
"7  c #405524",
"8  c #415B24",
"9  c #594038",
"0  c #426324",
"q  c #436A25",
"w  c #467725",
"e  c #664B40",
"r  c #6B4F43",
"t  c #714840",
"y  c #7A5046",
"u  c #7B574A",
"i  c #833A3B",
"p  c #8B3C3E",
"a  c #933F41",
"s  c #844843",
"d  c #964042",
"f  c #9C4244",
"g  c #984947",
"h  c #9C5C5D",
"j  c #A14345",
"k  c #A74648",
"l  c #AA4648",
"z  c #AE494A",
"x  c #B34A4C",
"c  c #BB4D4F",
"v  c #A7524F",
"b  c #A64F51",
"n  c #A75153",
"m  c #A85254",
"M  c #A65E55",
"N  c #A95E56",
"B  c #AD5D5F",
"V  c #8B6253",
"C  c #8F6C59",
"Z  c #A36B5C",
"A  c #B1665B",
"S  c #AE5F60",
"D  c #9A6263",
"F  c #9C7D65",
"G  c #947C7C",
"H  c #AF6163",
"J  c #B16466",
"K  c #B56D6F",
"L  c #AA7E68",
"P  c #B17B67",
"I  c #B66E70",
"U  c #BB797A",
"Y  c #C3685F",
"T  c #478226",
"R  c #488526",
"E  c #4A9727",
"W  c #A2846A",
"Q  c #BE816D",
"!  c #B48F73",
"~  c #BD8D73",
"^  c #B49375",
"/  c #BA9879",
"(  c #CC8873",
")  c #C59176",
"_  c #C59579",
"`  c #C39C7D",
"'  c #D0987D",
"]  c #BC7F81",
"[  c #938585",
"{  c #BC8081",
"}  c #C28E8F",
"|  c #C38F90",
" . c #CEA282",
".. c #D1A986",
"X. c #D4B18B",
"o. c #DDBB92",
"O. c #E7BF96",
"+. c #D1A4A5",
"@. c #D6AEAF",
"#. c #D7AFB0",
"$. c #DCBABB",
"%. c #E7C499",
"&. c #F0CB9F",
"*. c #F7CBA0",
"=. c #DFCCCC",
"-. c #E0CDCE",
";. c #E5DADB",
":. c #E7DCDC",
">. c #EDEBEB",
",. c #EEECEC",
/* pixels */
"                                                                                                                        ",
"                                                                                                                        ",
"                                                                                                                        ",
"                                                                                                                        ",
"                                                                                                                        ",
"                                                                                                                        ",
"                                                                                                                        ",
"                                                                                                                        ",
"                                                                                                                        ",
"                                                                                                                        ",
"                                                                                                                        ",
"                                                                                                                        ",
"                                                                                                                        ",
"                                                                                                                        ",
"                                                                                                                        ",
"                                                                                                                        ",
"                                                                                                                        ",
"                                                                                                                        ",
"                                                                                                                        ",
"                                    . . . . . . . . . . . . . . . . . . . . . . . . . . . . . .                         ",
"                                  . . X o X . . O + + + + + + + # # # # # # # # # # # # # # # #                         ",
"                                . . . 5 0 7 o + : 2 2 2 2 2 2 2 3 i p p p p p p p p p p p p p 3 * .                     ",
"                              . . . X 7 R q o & i j j j j j j j l x c c c c c c c c c c c c c j : .                     ",
"                              . . 5 0 8 8 5 X & i j j j j j j j j l x c c c c x z z z z z x c j : .                     ",
"                              . X 0 E 0 X . . & i j j j j j j j j j l x c c c l j j j j j l x j : .                     ",
"                                X 6 0 8 8 5 X & i n U | D 1 D } U m l x x d i f l l l l l j p 1 & .                     ",
"                                  X X 7 R q o & i H @.:.[ O G :.#.H l x j > & i c c c c c d ; O . .                     ",
"                                  5 6 8 q 7 o & i J $.,.[ . [ ,.$.J l x z i 1 d c c c c c j 3 * + .                     ",
"                                X 8 T 0 5 o . & i J $.,.[ . [ ,.$.J l x x z j x c c c c c x l p * .                     ",
"                              . . 6 w 7 X . . & i J $.,.[ . [ ,.$.J l x c c c c c c c c c c c j : .                     ",
"                              . . o 5 o . . . & i J $.,.[ . [ ,.$.J l x c c c c c c c c c c c j : .                     ",
"                                . . . . . . . & i B +.-.G # G =.+.S l x c c c c c c c c c c c j : .                     ",
"                                      . . . . & i b K { h 2 h ] I b l x c c c c c c c c c c c j : .                     ",
"                                        O . . & 2 f f j j j j j j j j l z z z z z z z z z z z d - .                     ",
"                        . . . . . . . * > * O O * 1 p j j j j j j j a 3 1 1 1 1 1 1 1 1 1 1 1 : # .                     ",
"                      . . . . . . . . : a 2 # . . # 3 j j j j j j j i & . . . . . . . . . . . . . .                     ",
"                      . O ; 1 1 1 > > i f p 1 < u C P ( ( ( ( ( ( ( Z , . . . . . . . . . . . . .                       ",
"                      . & p x x x j f f f f f N ~ X.O.*.*.*.*.*.*.*.` r .                                               ",
"                        & 2 a j x l j j j v A Q  .o.%.&.&.&.X./ ^ ^ F e .                                               ",
"                          # * i j j j j j A ) ..X.o.o.o.o.o.W e 9 9 =                                                   ",
"                            O > i a f j l N L ! _ ' ' ' ' ' V $ . . .                                                   ",
"                              # * 2 f l x g t y N Y Y Y Y Y s @ . . .                                                   ",
"                              . . > f l x p & * d c c c c c p * + . .                                                   ",
"                              . . > f j l i # * d c c c c c l a > + .                                                   ",
"                              . . > a a a 1 + & p z z z x c c c p & .                                                   ",
"                              . . & ; : : & O O - 1 1 1 a l x c p & .                                                   ",
"                              . . . . . . . . . . . . O > f l x p & .                                                   ",
"                                . . . . . . . . . . . . & > 1 2 > #                                                     ",
"                                                    . . . . . O O                                                       ",
"                                                    . . . . . . .                                                       ",
"                                                                                                                        ",
"                                                                                                                        ",
"                                                                                                                        ",
"                                                                                                                        ",
"                                                                                                                        ",
"                                                                                                                        ",
"                                                                                                                        ",
"                                                                                                                        ",
"                                                                                                                        ",
"                                                                                                                        "
};
