/* XPM */
static char *enemy1[] = {
/* columns rows colors chars-per-pixel */
"60 60 113 2 ",
"   c None",
".  c #392121",
"X  c #392A21",
"o  c #3B3322",
"O  c #3C3B22",
"+  c #442525",
"@  c #4A2727",
"#  c #462C2A",
"$  c #4C2A29",
"%  c #542A2B",
"&  c #5B2C2D",
"*  c #48302C",
"=  c #573B34",
"-  c #612F2F",
";  c #632F30",
":  c #643131",
">  c #6A3233",
",  c #6F3937",
"<  c #6F3D3A",
"1  c #743536",
"2  c #793637",
"3  c #7B3738",
"4  c #743838",
"5  c #7D3839",
"6  c #3E4623",
"7  c #3F4B23",
"8  c #3F5023",
"9  c #405323",
"0  c #415B24",
"q  c #67433C",
"w  c #7D403D",
"e  c #436324",
"r  c #446C25",
"t  c #457525",
"y  c #467925",
"u  c #754F4F",
"i  c #765B4B",
"p  c #7C5F4F",
"a  c #665454",
"s  c #765050",
"d  c #833A3B",
"f  c #8B3C3E",
"g  c #933F41",
"h  c #804943",
"j  c #814C4D",
"k  c #964042",
"l  c #9B4244",
"z  c #904749",
"x  c #904849",
"c  c #9C4D4A",
"v  c #815349",
"b  c #83594D",
"n  c #A24446",
"m  c #A44748",
"M  c #AB4749",
"N  c #A34B4C",
"B  c #AE484A",
"V  c #B44A4C",
"C  c #BC4D4F",
"Z  c #A1504D",
"A  c #A9514F",
"S  c #A75052",
"D  c #AA5759",
"F  c #AB585A",
"G  c #B25A55",
"H  c #8B6D59",
"J  c #8F715C",
"K  c #997B63",
"L  c #A96365",
"P  c #B56C6E",
"I  c #A37461",
"U  c #AB7663",
"Y  c #BB7C69",
"T  c #B66F71",
"R  c #BC7B7C",
"E  c #C15F5A",
"W  c #488A26",
"Q  c #9F8067",
"!  c #A38369",
"~  c #AC816A",
"^  c #B0856D",
"/  c #BA997A",
"(  c #C78D75",
")  c #CD8F77",
"_  c #CB9078",
"`  c #D4957C",
"'  c #B28383",
"]  c #B79899",
"[  c #B8999A",
"{  c #BFB7B7",
"}  c #BFB8B8",
"|  c #C68E8F",
" . c #C68E90",
".. c #C79091",
"X. c #CC9A9B",
"o. c #D3B18B",
"O. c #DBB991",
"+. c #E1BE94",
"@. c #C1BABA",
"#. c #DCB9BA",
"$. c #DBB8B9",
"%. c #E8C499",
"&. c #EAC69B",
"*. c #EDC89C",
"=. c #F3CCA0",
"-. c #F9D2A4",
";. c #FDD6A7",
":. c #FED6A7",
">. c #FED6A8",
",. c #FFD7A8",
"<. c #F1E3E3",
"1. c #F1E4E4",
"2. c #F2E5E6",
/* pixels */
"                                                                                                                        ",
"                                                                                                                        ",
"                                                                                                                        ",
"                                                                                                                        ",
"                                                                                                                        ",
"                                                                                                                        ",
"                                                                                                                        ",
"                                                                                                                        ",
"                                                                                                                        ",
"                                                                                                                        ",
"                                                                                                                        ",
"                                                                                                                        ",
"                                                                                                                        ",
"                                                                                                                        ",
"                                                                                                                        ",
"                                                                                                                        ",
"                                                                                                                        ",
"                                    . . . . . . . . . . . . . . . . . . . . . . . . . . . . . .                         ",
"                                    . X o O X . + % % % % % % % % % & & & & & & & & & & & & & & %                       ",
"                                . . . o 0 r 6 . & 5 d d d d d d d f k k k k k k k k k k k k k k 2 +                     ",
"                                . . o 6 r y 7 . > l n n n n n n n B C C C C C C C V V V V C C C d + .                   ",
"                                . O 0 e 0 7 o . > l n n n n n n n n M V C C C V B M M M M M V C d + .                   ",
"                                . 6 t y 7 X . . > l N S N l l N S N n B C C V B n n n n n n M V 5 + .                   ",
"                                  O 9 0 0 0 O . > l P X.' j j ' X.P n B C l 5 f n B B B B M g 2 & . .                   ",
"                                    . O t W 9 . > l  .2.{ a a @.2.| n B C d @ : n C C C C V 2 . . . .                   ",
"                                  O 8 0 e 0 O . > l ..2.} a a @.2. .n B C l 5 f B C C C C V k 2 & . .                   ",
"                                . 6 t y 7 X . . > l ..2.} a a @.2. .n B C V V V C C C C C C V V 3 + .                   ",
"                                . O 0 0 O . . . > l ..2.} a a @.2. .n B C C C C C C C C C C C C d + .                   ",
"                                . X o o X . . . > l ..2.} a a @.2. .n B C C C C C C C C C C C C d + .                   ",
"                                . . . . . . . . > l R #.] u s [ #.R n B C C C C C C C C C C C C d + .                   ",
"                                        . . . . > l F T L z x L T D n B C C C C C C C C C C C C d + .                   ",
"                                        @ @ + . ; f g l n n n n n n n n n n n n n n n n n n n n 2 + .                   ",
"                        . . . . . . . $ > 2 % . @ & 2 k n n n n n n l d > > > > > > > > > > > > % . .                   ",
"                      . . . + + + + + % d g > + # # < c A A A A A A N , . . . . . . . . . . . . . . .                   ",
"                      . . & 5 d d 5 2 3 g l d 2 v J ~ _ ` ` ` ` ` ` ) b . . .                                           ",
"                      . . 2 V C C V n n n n n m Y o.%.-.>.>.>.-.-.-.=.K . .                                             ",
"                        . : 5 g M M n n n l d 4 I o.+.&.*.*.O./ ! ! Q p .                                               ",
"                          + + > g n n n n g > # H o.O.O.O.O./ i * * $ #                                                 ",
"                            . & 2 d k n m n d > b K ^ ( ) ) U q . . .                                                   ",
"                                @ ; f n V V B n w = h G E E Z : . .                                                     ",
"                                . % 2 f n V C V 3 . & f k k d & .                                                       ",
"                                    % : f M V V 3 . + % & & %                                                           ",
"                                    . $ 2 f l l > . . . . . .                                                           ",
"                                        % & - : $ . . . .                                                               ",
"                                        . . . . . . . . .                                                               ",
"                                                                                                                        ",
"                                                                                                                        ",
"                                                                                                                        ",
"                                                                                                                        ",
"                                                                                                                        ",
"                                                                                                                        ",
"                                                                                                                        ",
"                                                                                                                        ",
"                                                                                                                        ",
"                                                                                                                        ",
"                                                                                                                        ",
"                                                                                                                        ",
"                                                                                                                        ",
"                                                                                                                        ",
"                                                                                                                        "
};
