/* XPM */
static char *enemy2[] = {
/* columns rows colors chars-per-pixel */
"60 60 117 2 ",
"   c None",
".  c #382121",
"X  c #3A2D22",
"o  c #3B3322",
"O  c #3C3D22",
"+  c #442525",
"@  c #492727",
"#  c #4B2728",
"$  c #432D2D",
"%  c #4E2829",
"&  c #552B2B",
"*  c #5D2D2E",
"=  c #4E322E",
"-  c #4C2F30",
";  c #543132",
":  c #583E37",
">  c #602E2F",
",  c #632F30",
"<  c #653031",
"1  c #6C3233",
"2  c #6E3C39",
"3  c #743536",
"4  c #793637",
"5  c #793738",
"6  c #76393A",
"7  c #7D3839",
"8  c #3D4223",
"9  c #3F4A23",
"0  c #405424",
"q  c #415B24",
"w  c #594038",
"e  c #67443C",
"r  c #6E413C",
"t  c #74453F",
"y  c #426224",
"u  c #446C25",
"i  c #457325",
"p  c #477F26",
"a  c #6D4B41",
"s  c #6D5245",
"d  c #75574A",
"f  c #7A5549",
"g  c #833A3B",
"h  c #8B3C3E",
"j  c #903E3F",
"k  c #933F41",
"l  c #8E4342",
"z  c #8B4C46",
"x  c #974042",
"c  c #9C4244",
"v  c #8D514A",
"b  c #9A5A51",
"n  c #975758",
"m  c #955C5D",
"M  c #A14446",
"N  c #AA4749",
"B  c #A54C4E",
"V  c #AE494A",
"C  c #B34A4C",
"Z  c #BB4D4F",
"A  c #A25750",
"S  c #A95456",
"D  c #AA5759",
"F  c #AB5A5B",
"G  c #8B6B58",
"H  c #926B59",
"J  c #9F6061",
"K  c #9F6768",
"L  c #8B7373",
"P  c #887A7A",
"I  c #B26768",
"U  c #B46A6C",
"Y  c #AB7161",
"T  c #AD7A66",
"R  c #B66F70",
"E  c #B97374",
"W  c #BB7C7D",
"Q  c #C3685F",
"!  c #478026",
"~  c #499027",
"^  c #A18168",
"/  c #A8876C",
"(  c #A98A6F",
")  c #BA876F",
"_  c #AE8D71",
"`  c #B88C72",
"'  c #B49375",
"]  c #BD9B7B",
"[  c #CC8873",
"{  c #C09377",
"}  c #D0987D",
"|  c #9E8484",
" . c #9E8B8B",
".. c #9E9393",
"X. c #BE898A",
"o. c #C08485",
"O. c #C89495",
"+. c #CD9B9C",
"@. c #CCA584",
"#. c #D1AF89",
"$. c #D8B48E",
"%. c #DDBB92",
"&. c #E5BE95",
"*. c #D1A5A6",
"=. c #D5ACAD",
"-. c #D7AFB0",
";. c #DBB8B9",
":. c #E6C398",
">. c #F0CB9F",
",. c #F7CBA0",
"<. c #D6C2C3",
"1. c #DCD0D0",
"2. c #E1C4C5",
"3. c #E8D7D7",
"4. c #E2DFDF",
"5. c #F0E6E7",
"6. c #F9F8F8",
/* pixels */
"                                                                                                                        ",
"                                                                                                                        ",
"                                                                                                                        ",
"                                                                                                                        ",
"                                                                                                                        ",
"                                                                                                                        ",
"                                                                                                                        ",
"                                                                                                                        ",
"                                                                                                                        ",
"                                                                                                                        ",
"                                                                                                                        ",
"                                                                                                                        ",
"                                                                                                                        ",
"                                                                                                                        ",
"                                                                                                                        ",
"                                                                                                                        ",
"                                                                                                                        ",
"                                                                                                                        ",
"                                                                                                                        ",
"                                  . . . . . . . . . . . . . . . . . . . . . . . . . . . . . .                           ",
"                                . . X o X . . + @ @ @ @ @ @ @ # % % % % % % % % % % % % % % %                           ",
"                              . . . O y 0 o + , 4 4 4 4 4 4 4 7 g h h h h h h h h h h h h h g , .                       ",
"                            . . . X 0 ! u O % 7 M M M M M M M N C Z Z Z Z Z Z Z Z Z Z Z Z Z N 1 .                       ",
"                            . . 8 q q q 9 X % 7 M M M M M M M M N C C Z Z Z C V V V V V C C N 1 .                       ",
"                            . . q ~ u o . . % 7 M M M M M M M M M M C Z Z Z V M M M M M M C N 1 .                       ",
"                              . 9 y q q 8 X % 7 B E O.K 6 m X.W D M C C c g x N N N N N M h 3 & .                       ",
"                                X X 0 p u O % 7 D *.5. .- L 1.;.U M C V 3 @ g C Z Z Z Z c 1 + . .                       ",
"                                O 9 q u q o % 7 F -.6...$ P 4.2.R M C C h 1 k Z Z Z Z Z N g > @ .                       ",
"                              . 0 p y 8 o . % 7 F -.6...$ P 4.2.R M C Z V M C Z Z Z Z Z C N k , .                       ",
"                            . . 9 i 0 X . . % 7 F -.6...$ P 4.2.R M C Z Z Z Z Z Z Z Z Z Z Z N 1 .                       ",
"                            . . o 8 o . . . % 7 F -.6...$ P 4.2.R M C Z Z Z Z Z Z Z Z Z Z Z N 1 .                       ",
"                              . . . . . . . % 7 S +.3.| ; L <.=.I M C Z Z Z Z Z Z Z Z Z Z Z N 1 .                       ",
"                                    . . . . % 7 B U o.J 7 n W E S M C Z Z Z Z Z Z Z Z Z Z Z N 1 .                       ",
"                                      + . . # 3 x c M M M M M M M M N V V V V V V V V V V V c < .                       ",
"                      . . . . . . . & 1 > + + & 1 h M M M M M M M x g 3 3 3 3 3 3 3 3 3 3 3 1 % .                       ",
"                    . . . . . . . . > j g & . . + 3 M M M M M M M h * . . . . . . . . . . . . . .                       ",
"                    . + > 3 3 3 1 1 7 x h 3 2 f G T [ [ [ [ [ [ [ Y e . . . . . . . . . . . . . .                       ",
"                    . % g C C C M c c c c c A ) #.&.,.,.,.,.,.,.,.@.d .                                                 ",
"                      % 3 h M C N M M M k g v ` %.:.>.>.>.$.] ' ' ^ s .                                                 ",
"                        % & 7 M M M M M g * e / %.%.%.%.%.( s w w :                                                     ",
"                          + < g k c M M k 3 r H _ { } } } H = . . .                                                     ",
"                            % & 3 c N C V M l t a b Q Q Q z % .                                                         ",
"                            . . 1 c N Z Z Z M < + g C Z Z g # .                                                         ",
"                            . . 1 c N Z Z Z M < + 5 N C Z g # .                                                         ",
"                              . < h M C Z Z M < + 1 k M V g @ .                                                         ",
"                                & , g M C Z M < . & < 1 3 < @                                                           ",
"                                  . * h M C c , . . . . . .                                                             ",
"                                  . % < 3 5 1 % . . . . .                                                               ",
"                                  . . . . + . . .                                                                       ",
"                                  . . . . . . . .                                                                       ",
"                                                                                                                        ",
"                                                                                                                        ",
"                                                                                                                        ",
"                                                                                                                        ",
"                                                                                                                        ",
"                                                                                                                        ",
"                                                                                                                        ",
"                                                                                                                        ",
"                                                                                                                        ",
"                                                                                                                        "
};
