/* XPM */
static char *enemy0[] = {
/* columns rows colors chars-per-pixel */
"60 60 115 2 ",
"   c None",
".  c #392121",
"X  c #3A2C22",
"o  c #3B3222",
"O  c #3C3A22",
"+  c #452526",
"@  c #492727",
"#  c #4B2728",
"$  c #442F2F",
"%  c #4E2829",
"&  c #532A2B",
"*  c #5B2D2D",
"=  c #4D3131",
"-  c #563533",
";  c #573D36",
":  c #612F2F",
">  c #632F30",
",  c #663031",
"<  c #6D3233",
"1  c #743536",
"2  c #793637",
"3  c #7B3738",
"4  c #773A3B",
"5  c #7D393A",
"6  c #3D4423",
"7  c #3F4E23",
"8  c #405324",
"9  c #415C24",
"0  c #5E433A",
"q  c #66443C",
"w  c #71423D",
"e  c #426124",
"r  c #436A25",
"t  c #457525",
"y  c #7D5B4D",
"u  c #823A3B",
"i  c #8A3C3E",
"p  c #903E3F",
"a  c #933F41",
"s  c #8D4945",
"d  c #964142",
"f  c #9A4243",
"g  c #98544D",
"h  c #975658",
"j  c #955B5C",
"k  c #A14345",
"l  c #A74648",
"z  c #AB4648",
"x  c #A54C4E",
"c  c #AE484A",
"v  c #B44A4C",
"b  c #BC4D4F",
"n  c #A95454",
"m  c #AA5759",
"M  c #AB585A",
"N  c #BB5754",
"B  c #996557",
"V  c #946E5B",
"C  c #A86358",
"Z  c #BD645C",
"A  c #B26A5E",
"S  c #B9685E",
"D  c #8B6F6F",
"F  c #967761",
"G  c #897374",
"H  c #867878",
"J  c #A06061",
"K  c #A06768",
"L  c #B36A6B",
"P  c #B67E69",
"I  c #B77071",
"U  c #B87374",
"Y  c #B77B7C",
"T  c #BE7D7F",
"R  c #C1645D",
"E  c #C8665F",
"W  c #C3685F",
"Q  c #478026",
"!  c #498B26",
"~  c #4A9427",
"^  c #B69175",
"/  c #BA9477",
"(  c #C08670",
")  c #CC8973",
"_  c #D28F78",
"`  c #C09477",
"'  c #CB957A",
"]  c #D0997D",
"[  c #9F8585",
"{  c #9F8C8C",
"}  c #9F9494",
"|  c #BD8889",
" . c #C08586",
".. c #C89596",
"X. c #CC9A9B",
"o. c #D0A785",
"O. c #D2AA87",
"+. c #D6B38C",
"@. c #DDB790",
"#. c #DDBB92",
"$. c #E6A487",
"%. c #EBB692",
"&. c #D1A4A5",
"*. c #D6AEAF",
"=. c #DCB9BA",
"-. c #EAC399",
";. c #F0CA9E",
":. c #F7CBA0",
">. c #D5C1C2",
",. c #DBCFCF",
"<. c #E2C5C6",
"1. c #E1DEDE",
"2. c #E9D8D8",
"3. c #F1E8E8",
"4. c #FAF9F9",
/* pixels */
"                                                                                                                        ",
"                                                                                                                        ",
"                                                                                                                        ",
"                                                                                                                        ",
"                                                                                                                        ",
"                                                                                                                        ",
"                                                                                                                        ",
"                                                                                                                        ",
"                                                                                                                        ",
"                                                                                                                        ",
"                                                                                                                        ",
"                                                                                                                        ",
"                                                                                                                        ",
"                                                                                                                        ",
"                                                                                                                        ",
"                                    . . . . . . . . . . . . . . . . . . . . . . . . . . . . . .                         ",
"                                  . . X o X . . + @ @ @ @ @ @ @ # % % % % % % % % % % % % % % %                         ",
"                                . . . 6 r 7 X % < 2 2 2 2 2 2 2 u i i i i i i i i i i i i i i 3 & .                     ",
"                              . . . X 9 ! e X * i k k k k k k k l v b b b b b b b b b b b b b f * .                     ",
"                              . X 6 e 9 9 6 X * i k k k k k k k k l v b b b b v c c c c c v b f * .                     ",
"                              . o r ~ 9 . . . * i k k k k k k k k k l v b b v l k k k k k l v f * .                     ",
"                                o 8 e 9 9 6 X * i m T | j 4 K ..U x l v c a i f l l l l l f i < % .                     ",
"                                  X o 9 ! e X * i L =.,.G = { 3.&.m l v f , * i b b b b b p * + . .                     ",
"                                  6 7 9 r 7 X * i I <.1.H $ } 4.*.M l v l u 1 f b b b b b f 1 * + .                     ",
"                              . o e Q 9 O X . * i I <.1.H $ } 4.*.M l v v l l v b b b b b v l u & .                     ",
"                              . X 8 t 7 . . . * i I <.1.H $ } 4.*.M l v b b b b b b b b b b b f * .                     ",
"                              . . o 6 o . . . * i I <.1.H $ } 4.*.M l v b b b b b b b b b b b f * .                     ",
"                              . . . . . . . . * i L *.>.D - [ 2.X.n l v b b b b b b b b b b b f * .                     ",
"                                      . . . . * i n U Y h 5 J  .L x l v b b b b b b b b b b b f * .                     ",
"                                      + + . . & u f f k k k k k k k k c c c c c c c c c c c c i * .                     ",
"                        . . . . . . . * 1 * . + * 1 i k k k k k k k a 5 1 1 1 1 1 1 1 1 1 1 1 > @ .                     ",
"                      . . . . . . . . < f 1 + . . & u k k k k k k k 5 % . . . . . . . . . . . . . .                     ",
"                      . # , 1 1 1 < < u f i 1 w y V P ) ) ) ) ) ) ) B - . . . . . . . . . . . . .                       ",
"                      . * d v v c k f f k f f C ` +.-.:.:.:.:.:.:.:.^ 0 .                                               ",
"                      . * 5 a k c l k k k n A ( o.#.-.;.;.;.%.$.] / F 0                                                 ",
"                          % : i k k k k k A ' O.+.#.#.#.#.@._ E g q ;                                                   ",
"                          . % < u a k k l S ) ] ] ] ] ] ] ' A d 1 +                                                     ",
"                              & * u k l v N R W W W W W W Z s * &                                                       ",
"                              . + 1 k c b v k k k l v v b v 2 . .                                                       ",
"                              . + 1 k c b f 1 , , 1 d l v v 2 . .                                                       ",
"                              . + 1 k k c u @ . . & u k l l 1 . .                                                       ",
"                              . + 1 f i 1 , + . . & u f u < *                                                           ",
"                              . + 1 f < . .     . & 5 i : .                                                             ",
"                              . . * < * .       . + * < &                                                               ",
"                              . . . . .         . . . .                                                                 ",
"                              . . . .           . . . .                                                                 ",
"                                                                                                                        ",
"                                                                                                                        ",
"                                                                                                                        ",
"                                                                                                                        ",
"                                                                                                                        ",
"                                                                                                                        ",
"                                                                                                                        ",
"                                                                                                                        ",
"                                                                                                                        ",
"                                                                                                                        ",
"                                                                                                                        ",
"                                                                                                                        ",
"                                                                                                                        ",
"                                                                                                                        "
};
