/* XPM */
static char *enemy4[] = {
/* columns rows colors chars-per-pixel */
"60 60 115 2 ",
"   c None",
".  c #392121",
"X  c #392A21",
"o  c #3B3322",
"O  c #3C3B22",
"+  c #422424",
"@  c #492727",
"#  c #452A28",
"$  c #4B2B2A",
"%  c #532A2A",
"&  c #5B2C2D",
"*  c #48302C",
"=  c #602E2F",
"-  c #632F30",
";  c #653031",
":  c #6A3233",
">  c #723435",
",  c #783637",
"<  c #7B3738",
"1  c #743D3B",
"2  c #7E3839",
"3  c #3E4423",
"4  c #3F4B23",
"5  c #405524",
"6  c #415C24",
"7  c #426224",
"8  c #446C25",
"9  c #457425",
"0  c #467B25",
"q  c #5B4747",
"w  c #6D4647",
"e  c #7B4546",
"r  c #6E5446",
"t  c #7C5449",
"y  c #775B4C",
"u  c #7D5858",
"i  c #706060",
"p  c #83393B",
"a  c #8D3D3F",
"s  c #903E3F",
"d  c #923E40",
"f  c #8D4446",
"g  c #844A44",
"h  c #964042",
"j  c #9A4243",
"k  c #934B4C",
"l  c #9D4C4A",
"z  c #82574B",
"x  c #865253",
"c  c #A24446",
"v  c #A74648",
"b  c #AA4749",
"n  c #A34C4C",
"m  c #AE484A",
"M  c #B44A4C",
"N  c #BC4D4F",
"B  c #A9514F",
"V  c #A64F51",
"C  c #B94F50",
"Z  c #A75153",
"A  c #A95654",
"S  c #AC5A5C",
"D  c #B15451",
"F  c #BB5855",
"G  c #8F705C",
"H  c #91745E",
"J  c #B0655B",
"K  c #9C7D65",
"L  c #A66061",
"P  c #AC6668",
"I  c #B26668",
"U  c #B56C6E",
"Y  c #B17564",
"T  c #BD7E6B",
"R  c #AB7C7D",
"E  c #B77173",
"W  c #B87374",
"Q  c #C15F5A",
"!  c #C17566",
"~  c #478426",
"^  c #A38369",
"/  c #B0836B",
"(  c #BF836E",
")  c #B49476",
"_  c #C18770",
"`  c #C48872",
"'  c #CD8F77",
"]  c #CF9279",
"[  c #CA9B7D",
"{  c #D4957C",
"}  c #B7898A",
"|  c #AF9091",
" . c #BFA2A2",
".. c #B5ADAD",
"X. c #C18485",
"o. c #C99495",
"O. c #CC999A",
"+. c #D4AF8A",
"@. c #D6B38C",
"#. c #D8B68F",
"$. c #DBB991",
"%. c #E2BF95",
"&. c #CF9FA0",
"*. c #D8B1B2",
"=. c #EAC59A",
"-. c #EDC89C",
";. c #FDD6A7",
":. c #FFD7A8",
">. c #CBC4C4",
",. c #CBC5C5",
"<. c #DFC0C1",
"1. c #ECD9DA",
"2. c #EDDADB",
"3. c #F6EEEE",
"4. c #F7EFEF",
/* pixels */
"                                                                                                                        ",
"                                                                                                                        ",
"                                                                                                                        ",
"                                                                                                                        ",
"                                                                                                                        ",
"                                                                                                                        ",
"                                                                                                                        ",
"                                                                                                                        ",
"                                                                                                                        ",
"                                                                                                                        ",
"                                                                                                                        ",
"                                                                                                                        ",
"                                                                                                                        ",
"                                                                                                                        ",
"                                                                                                                        ",
"                                                                                                                        ",
"                                                                                                                        ",
"                                                                                                                        ",
"                                                                                                                        ",
"                                    . . . . . . . . . . . . . . . . . . . . . . . . . . . . . .                         ",
"                                  . . X o O X . + % % % % % % % % % & & & & & & & & & & & & & & %                       ",
"                                . . . O 6 8 3 . & p p p p p p p p a h h h h h h h h h h h h h h > .                     ",
"                                . X o 4 8 9 3 + > j c c c c c c c m N N N N N N N M M M M N N M < . .                   ",
"                                . O 6 7 5 3 o + > c c c c c c c c c v M N N N M m v v v v m M M < . .                   ",
"                                . 4 0 9 3 X . + > c n Z n j j n V n c m N M M v c c c c c c v m > . .                   ",
"                                  O 5 6 6 5 O + > c E &.R e x } o.I c m N j < a c m m m m v a > % . .                   ",
"                                    . 3 0 ~ 4 + > c O.4...q i >.2.X.c M N 2 + : v N N N N m > . . . .                   ",
"                                  O 5 6 7 6 O + > c O.4...q i >.2.X.c M N j , a M N N N N M d > % . .                   ",
"                                . 4 0 9 4 X . + > c O.4...q i >.2.X.c M N M M M N N N N N N M v > . .                   ",
"                                . O 7 6 o . . + > c O.4...q i >.2.X.c M N N N N N N N N N N N N < . .                   ",
"                                . X o o . . . + > c O.4...q i >.2.X.c M N N N N N N N N N N N M < . .                   ",
"                                . . . . . . . + > c X.<.| w u  .*.W c M N N N N N N N N N N N M < . .                   ",
"                                        . . . + > c S W L f k P U A c M N N N N N N N N N N N M < . .                   ",
"                                        @ @ . + ; a h j c c c c c c c c c c c c c c c c c c c c : . .                   ",
"                        . . . . . . . % : : % . $ & < j c c c c c c j p : : : : : : : : : : : ; % . .                   ",
"                      . . . + + + + + & p a ; + # $ 1 n B B B B B B l : . . . . . . . . . . . . . . .                   ",
"                      . . & p p p < > 2 d j p 1 z H / ] { { { { { { ` t . .                                             ",
"                      . + 2 N N N M c c c c c n ( #.-.;.:.:.:.;.;.;.-.G . .                                             ",
"                        + : 2 h v v c c c n J T [ #.%.-.-.-.#.) ^ ^ K y .                                               ",
"                          + + : j c c c c A _ +.@.#.$.$.$.$.) r * * $                                                   ",
"                            . & > p j c v D ! ' ' ' ' ' ' ' Y g = @ .                                                   ",
"                              + @ : s c M C F Q Q Q Q Q Q Q F m d & .                                                   ",
"                              $ % > d v M M c h h h h h c m M N c ; .                                                   ",
"                            . = 2 a j v M v 2 & & & & & > j m M c ; .                                                   ",
"                          . . & p a a d j d ; . . . . . & 2 d j a & .                                                   ",
"                          . . @ & & & & - - %           $ & & - & @ .                                                   ",
"                            . . . . . . . .               . . . . . .                                                   ",
"                                                                                                                        ",
"                                                                                                                        ",
"                                                                                                                        ",
"                                                                                                                        ",
"                                                                                                                        ",
"                                                                                                                        ",
"                                                                                                                        ",
"                                                                                                                        ",
"                                                                                                                        ",
"                                                                                                                        ",
"                                                                                                                        ",
"                                                                                                                        ",
"                                                                                                                        "
};
