/* XPM */
static char *_[] = {
/* columns rows colors chars-per-pixel */
"46 46 8 1 ",
"  c None",
". c #584B44",
"X c #6D6666",
"o c #1B945F",
"O c #35A948",
"+ c #8B8484",
"@ c #BAB0B0",
"# c #9EDF8A",
/* pixels */
"                      @@@@                    ",
"                      @@@@                    ",
"               +++@...++++@@...               ",
"          @@.+++++@...++++@@.+++@..           ",
"          @@.+++++@...++++@@.+++@..           ",
"       ..+++@..X+++@..++++...+++@...++        ",
"      ...X+++...XX+@       .+++@...+++@       ",
"     +@...XX+@@...         X+@@.++++++@..     ",
"     +@...XX+@@             +@@ ++++++@..     ",
"   ..++++@  +++                  ++@@@.++@    ",
"   ..XX++@                       @@...++++@@  ",
"   ..XX++@                       @@  .++++@@  ",
"  .....X                             X++++..  ",
"  ...+@.                             X+++...  ",
"  ...+@.                              +++...  ",
"  .XX++@@                              ...++@ ",
"  .XXX+++                              +++++@ ",
"  .XXX+++                              +++++@ ",
"+++...                                 +++++. ",
"XX+++.                                  X...@@",
"..X++@@                                 .++++@",
"..X++@@                                 .++++@",
"...XX+@                                 X++++.",
"......                                  X+++..",
"......                                  X+++..",
"XX+++@              ooooo               ....@@",
"..++++@            oOOOOOo              X++++@",
"..++++@            oOOOOOo              X++++@",
"..X+++@           oOOO#OOOoo            X++++@",
"..X..X            oO##O##Ooo            .XXX..",
"..X..X            oO##O##Ooo            .XXX..",
"......            oOOO#OOOoo           ++...@@",
"+++@@@             oOOOOOo             ++++++@",
"XX++++@             ooooo               XX++..",
"XX++++@             ooooo               XX++..",
"XXX++.                                  .....@",
"..X...                                 +++@@..",
"..X...                                 +++@@..",
".....@@                                +++++@.",
"..++++@                                 X++++@",
"..++++@                                 X++++@",
"..+++++                                 .X++..",
"......                                  ....@@",
"+++++@                                  X++++@",
"+++++@                                  X++++@",
"XXX+++                                  .X+++."
};
