/* XPM */
static char *_[] = {
/* columns rows colors chars-per-pixel */
"46 46 8 1 ",
"  c None",
". c #584B44",
"X c #6D6666",
"o c #1B945F",
"O c #35A948",
"+ c #8B8484",
"@ c #BAB0B0",
"# c #9EDF8A",
/* pixels */
"                     @@@@                     ",
"             +++@@...++++@@...                ",
"             +++@@...++++@@...                ",
"         @..++++@@...++++@@.+++@..            ",
"      ..++@@.XX+++@..++++...+++@...++         ",
"      ..++@@.XX+++@..++++...+++@...++         ",
"     ...X+++...X++@       .+++@...+++@        ",
"   ++@...X++@...X         X+@@.++++++@..      ",
"   ++@...X++@              +@@ ++++++@..      ",
"  .+++++@ +++                   ++@@@.++@     ",
"  .XXX++@                       @@...++++@@   ",
"  .XXX++@                       @@  .++++@@   ",
"......X                             X++++..   ",
"...++@.                             X+++...   ",
"...++@.                              +++...   ",
"..X+++@@                              ...++@  ",
"..XXX+++                              +++++@  ",
"..XXX+++                              +++++@  ",
"++...                                 +++++.  ",
"+++..                                  X...@@@",
"+++..                                  X...@@@",
"XX+@@@                                 .++++@@",
"..X++@            ooooooo              X++++..",
".....           oooOOOOOooo            X+++...",
".....           oooOOOOOooo            X+++...",
"+++@@          oOOO#####OOOo           ....@@@",
"+++++@       oooOO#OOOOO#OOooo         X++++@@",
"+++++@       oooOO#OOOOO#OOooo         X++++@@",
"XX+++@       ooO##Oo   oO##Ooo         X++++@@",
"XX.XX        ooO##Oo   oO##Ooo         .XXX...",
"XX.XX        ooO##Oo   oO##Ooo         .XXX...",
".....        ooO##Oo   oO##Ooo        ++...@@@",
"++@@@        oooOO#OOOOO#OOooo        ++++++@@",
"++@@@        oooOO#OOOOO#OOooo        ++++++@@",
"+++++@         oOOO#####OOOo           XX++...",
"XX+..           oooOOOOOooo            .....@@",
"XX+..           oooOOOOOooo            .....@@",
"XX...             ooooooo             +++@@...",
"...@@@                                +++++@..",
"...@@@                                +++++@..",
"+++++@                                 X++++@@",
"++++++                                 .X++...",
".....                                  ....@@@",
".....                                  ....@@@",
"+++@@                                  X++++@@",
"XX+++                                  .X+++.."
};
