/* XPM */
static char *_[] = {
/* columns rows colors chars-per-pixel */
"46 46 8 1 ",
"  c None",
". c #584B44",
"X c #6D6666",
"o c #1B945F",
"O c #35A948",
"+ c #8B8484",
"@ c #BAB0B0",
"# c #9EDF8A",
/* pixels */
"               +++@...++++@@...               ",
"               +++@...++++@@...               ",
"          @@.+++++@...++++@@.+++@@.           ",
"       ..+++@..X+++@@.++++...+++@@...+        ",
"       ..+++@..X+++@@.++++...+++@@...+        ",
"      ...X+++...XX+@@      .+++@...+++@@      ",
"    ++@...XX+@@...         X+@@.++++++@@.     ",
"    ++@...XX+@@             +@@ ++++++@@.     ",
"   .+++++@  +++                   +@@@..+@    ",
"   .XXX++@                        @...++++@@  ",
"   .XXX++@                        @   ++++@@  ",
" ......X                              ++++..  ",
" ...++@.                              +++...  ",
" ...++@.                              +++...  ",
" ..X+++@@                              X..++@ ",
" ..XXX+++                              .++++@ ",
"+++.....                               X++++. ",
"+++...                                  ++++. ",
"X+++..             ooooooo               ...@@",
".XX+@@@         oooOOOOOOOooo            ++++@",
".XX+@@@         oooOOOOOOOooo            ++++@",
"...X++@        oooO#######OOooo          ++++.",
"......       oooOO#OOOOOOO##Oooo         +++..",
"......       oooOO#OOOOOOO##Oooo         +++..",
"X+++@@       ooO##OOO    OOO#OOo         ...@@",
".+++++@     oOO#OOOo      OOO##Ooo       ++++@",
".+++++@     oOO#OOO       OOO##Ooo       ++++@",
".XX+++@     oOO#OO         oO##Ooo       ++++@",
".XX.XX      oOO#OO         oO##Ooo       XXX..",
".XX.XX      oOO#OO         oO##Ooo       XXX..",
"......      oOO#OO         oO##Ooo      +...@@",
"+++@@@      oOO#OOO       OOO##Ooo      +++++@",
"+++@@@      oOO#OOOo      OOO##Ooo      +++++@",
"X+++++@      ooO##OOO    OOO#OOo         X++..",
"XXX+..       oooOO#OOOOOOO##Oooo         ....@",
"XXX+..       oooOO#OOOOOOO##Oooo         ....@",
".XX...         oooO#######OOooo         ++@@..",
"....@@@         oooOOOOOOOooo           ++++@.",
".+++++@            ooooooo               ++++@",
".+++++@            ooooooo               ++++@",
".++++++                                  X++..",
"......                                   ...@@",
"......                                   ...@@",
"++++@@                                   ++++@",
"XXX+++                                   X+++.",
"XXX+++                                   X+++."
};
