/* XPM */
static char *_[] = {
/* columns rows colors chars-per-pixel */
"46 46 8 1 ",
"  c None",
". c #584B44",
"X c #6D6666",
"o c #1B945F",
"O c #35A948",
"+ c #8B8484",
"@ c #BAB0B0",
"# c #9EDF8A",
/* pixels */
"             +++@@...++++@@...                ",
"             +++@@...++++@@...                ",
"         @..++++@@...++++@@.+++@..            ",
"      ..++@@.XX+++@..++++...+++@...++         ",
"      ..++@@.XX+++@..++++...+++@...++         ",
"     ...X+++...X++@       .+++@...+++@        ",
"   ++@...X++@...X         X+@@.++++++@..      ",
"   ++@...X++@              +@@ ++++++@..      ",
"  .+++++@ +++                   ++@@@.++@     ",
"  .XXX++@                       @@...++++@@   ",
"  .XXX++@                       @@  .++++@@   ",
"......X                             X++++..   ",
"...++@.                             X+++...   ",
"...++@.                              +++...   ",
"..X+++@@                              ...++@  ",
"..XXX+++          ooooooo             +++++@  ",
"++.....        oooOOOOOOOooo          +++++.  ",
"++...          oooOOOOOOOooo          +++++.  ",
"+++..       oooOOO#######OOOooo        X...@@@",
"XX+@@@    ooOOO###OOOOOOO###OOOo       .++++@@",
"XX+@@@    ooOOO###OOOOOOO###OOOo       .++++@@",
"..X++@    ooO##OOO       OOO##Oo       X++++..",
".....    oOO#OOOo         oOOO#Ooo     X+++...",
".....    oOO#OOO           OOO#Ooo     X+++...",
"+++@@    oOO#OO             OO#Ooo     ....@@@",
"+++++@  oO##Oo               oO#OOo    X++++@@",
"+++++@  oO##Oo               oO#OOo    X++++@@",
"XX+++@  oO##Oo               oO#OOo    X++++@@",
"XX.XX   oO##Oo               oO#OOo    .XXX...",
"XX.XX   oO##Oo               oO#OOo    .XXX...",
".....   oO##Oo               oO#OOo   ++...@@@",
"++@@@   oO##Oo               oO#OOo   ++++++@@",
"++@@@   oO##Oo               oO#OOo   ++++++@@",
"+++++@   oOO#OO             OO#Ooo     XX++...",
"XX+..    oOO#OOO           OOO#Ooo     .....@@",
"XX+..    oOO#OOOo         oOOO#Ooo     .....@@",
"XX...     ooO##OOO       OOO##Oo      +++@@...",
"...@@@    ooOOO###OOOOOOO###OOOo      +++++@..",
"+++++@      oooOOO#######OOOooo        X++++@@",
"+++++@      oooOOO#######OOOooo        X++++@@",
"++++++         oooOOOOOOOooo           .X++...",
".....             ooooooo              ....@@@",
".....             ooooooo              ....@@@",
"+++@@                                  X++++@@",
"XX+++                                  .X+++..",
"XX+++                                  .X+++.."
};
