/* XPM */
static char *_[] = {
/* columns rows colors chars-per-pixel */
"46 46 7 1 ",
"  c None",
". c #584B44",
"X c #6D6666",
"o c #35A948",
"O c #8B8484",
"+ c #BAB0B0",
"@ c #9EDF8A",
/* pixels */
"                      ++++                    ",
"               OOO+...OOOO++...               ",
"               OOO+...OOOO++...               ",
"          ++.OOOOO+...OOOO++.OOO++.           ",
"       ..OOO+..XOOO++.OOOO...OOO++...O        ",
"       ..OOO+..XOOO++.OOOO...OOO++...O        ",
"      ...XOOO...XX ++      .OOO+...OOO++      ",
"    OO+...XXO++...         XO++.OOOOOO++.     ",
"    OO+...XXO++              ++ OOOOOO++.     ",
"   .OOOOO+                         +++..O+    ",
"   .XXXOO+                        +   OOOO++  ",
" ......XX                             OOOO..  ",
" ......X                              OOOO..  ",
" ...OO+.                               OO...  ",
" ..XOOO++         oooooooooo           X..OO+ ",
" ..XOOO++         oooooooooo           X..OO+ ",
" ..XXXOO       oooo@@@@@@@ooooo        .OOOO+ ",
"OOO.....     ooo@@@ooooooo@@@ooo       XOOOO. ",
"OOO...       ooo@@@       @@@ooo         OOO. ",
"XOOO..      o@@@             @@@oo       ...++",
".XXO+++   oo@oo               oo@@o      OOOO+",
".XXO+++   oo@o                  @@o      OOOO+",
"...XOO+  ooo@                   @@ooo    OOOO.",
"......   o@@                     o@oo    OOO..",
"......   o@@                     o@oo    OOO..",
"XOOO++ ooo@@                      @ooo   ...++",
".OOOOO+oo@o                        @@o   OOOO+",
".OOOOO+oo@o                        @@o   OOOO+",
".XXOOO+oo@o                        @@o   OOOO+",
".XX.XX.oo@o                        @@o   XXX..",
".XX.XX.oo@o                        @@o   XXX..",
".......oo@o                        @@o   ...++",
"OOO+++.oo@o                        @@o   OOOO+",
"XOOOOO+ooo@@                      @ooo   XOO..",
"XOOOOO+ooo@@                     o@ooo   XOO..",
"XXXO..   o@@                     o@oo    ....+",
".XX...   ooo@                   @@ooo    O++..",
".XX...   ooo@o                  @@ooo    O++..",
"....+++   oo@o                  @@o      OOO+.",
".OOOOO+     o@@@             @@@oo       OOOO+",
".OOOOO+     o@@@oo         oo@@@oo       OOOO+",
".OOOOO       ooo@@@       @@@ooo         XOO..",
"......         oooo@@@@@@@ooooo          ...++",
"......         oooo@@@@@@@ooooo          ...++",
"OOOO++            oooooooooo             OOOO+",
"XXXOOO                                   XOOO."
};
