/* XPM */
static char *_[] = {
/* columns rows colors chars-per-pixel */
"46 46 7 1 ",
"  c None",
". c #584B44",
"X c #6D6666",
"o c #35A948",
"O c #8B8484",
"+ c #BAB0B0",
"@ c #9EDF8A",
/* pixels */
"                     ++++                     ",
"             OOO++...OOOO++...                ",
"             OOO++...OOOO++...                ",
"         +..OOOO++...OOOO++.OOO+..            ",
"      ..OO++.XXOOO+..OOOO...OOO+...OO         ",
"      ..OO++.XXOOO+..OOOO...OOO+...OO         ",
"     ...XOOO...XO +       .OOO+...OOO+        ",
"   OO+...XOO+...X         XO++.OOOOOO+..      ",
"   OO+...XOO+               ++ OOOOOO+..      ",
"  .OOOOO+                        O+++.OO+     ",
"  .XXXOO+                       ++  .OOOO++   ",
"......XX        ooooooooooo         XOOOO..   ",
"......X         ooooooooooo         XOOOO..   ",
"...OO+.      ooo@@@@@@@@@@@ooo        OO...   ",
"..XOOO++  ooo@@@ooooooooooo@@@oo      ...OO+  ",
"..XOOO++  ooo@@@           @@@oo      ...OO+  ",
"..XXXOO  ooo@                 @ooo    OOOOO+  ",
"OO..... o@@@                   @@@o   OOOOO.  ",
"OO......o@@@                   @@@o   OOOOO.  ",
"OOO...ooo@                      @@oo   X...+++",
"XXO+++oo@                        o@oo  .OOOO++",
"XXO+++oo@                         @oo  .OOOO++",
"..XOO+@@                           @@o XOOOO..",
"......@@                           @@oXXOOO...",
"......@@                           @@oXXOOO...",
"OOO++.o                             o@.....+++",
"OOOOO+o                             o@XXOOOO++",
"OOOOO+o                             o@XXOOOO++",
"XXOOO+o                             o@XXOOOO++",
"XX.XX.o                             o@..XXX...",
"XX.XX.o                             o@..XXX...",
"......o                             o@OO...+++",
"OO+++.o                             o@OOOOOO++",
"OOOOO+o                             o@XXXOO...",
"OOOOO+o                             o@XXXOO...",
"XXO...@@                           @@o......++",
"XX....@@                           @@oOOO++...",
"XX....@@                           @@o OO++...",
"...+++oo@                         @oo  OOOO+..",
"OOOOO+ooo@                      @@ooo  XOOOO++",
"OOOOO+ooo@o                     @@ooo  XOOOO++",
"OOOOO   o@@@                   @@@o    .XOO...",
".....    ooo@                 @ooo     ....+++",
".....    ooo@oo             oo@ooo     ....+++",
"OOO++     ooo@@@           @@@oo       XOOOO++",
"XXOOO        ooo@@@@@@@@@@@ooo         .XOOO.."
};
