/* XPM */
static char *_[] = {
/* columns rows colors chars-per-pixel */
"46 46 7 1 ",
"  c None",
". c #584B44",
"X c #6D6666",
"o c #35A948",
"O c #8B8484",
"+ c #BAB0B0",
"@ c #9EDF8A",
/* pixels */
"               OOO+...OOOO++...               ",
"               OOO+...OOOO++...               ",
"          ++.OOOOO+...OOOO++.OOO++.           ",
"       ..OOO+..XOOO++.OOOO...OOO++...O        ",
"      ...XOOO...XXO++.XXXX..OOO+...OOO++      ",
"      ...XOOO...XX ++      .OOO+...OOO++      ",
"    OO+...XXO++              ++ OOOOOO++.     ",
"   .OOOOO+..OO     ooooooooo    XXO+++..O+    ",
"   .OOOOO+        oooooooooo       +++..O+    ",
"   .XXXOO+   ooooo@@@@@@@@@@ooo   +   OOOO++  ",
" ......XX   o@@@@@oooooooooo@@@@o     OOOO..  ",
" ......XX   o@@@@@oooooooooo@@@@oo    OOOO..  ",
" ...OO+..ooo@ooooo          oooo@@ooo OOO...  ",
" ..XOOO++o@@ooo                ooo@oooXX..OO+ ",
" ..XOOO++o@@ooo                ooo@oooXX..OO+ ",
" ..XXXOOO@oo                      o@@o..OOOO+ ",
"OOO......o                         oo@XXOOOO. ",
"OOO..... o                         oo@XXOOOO. ",
"XOOO...oo                            o@@X...++",
".XXO+++oo                            ooo.OOOO+",
".XXO+++oo                            ooo.OOOO+",
"...XOO+                               ooXOOOO.",
"......                                ooXOOO..",
"......                                oo OOO..",
"XOOO++                                   ...++",
".OOOOO+                                  OOOO+",
".XXOOO+                                  OOOO+",
".XXOOO+                                  OOOO+",
".XX.XX                                   XXX..",
"......                                   ...++",
"......                                   ...++",
"OOO+++                                   OOOO+",
"XOOOOO+                                  XOO..",
"XOOOOO+                                  XOO..",
"XXXO..                                oo ....+",
".XX...                                ooOO++..",
".XX...                                ooOO++..",
"....+++oo                            oooOOOO+.",
".OOOOO+oo                            o@@XOOOO+",
".OOOOO+oo                            o@@XOOOO+",
".OOOOOO@@o                         oo@oo.XOO..",
".......oo@oo                      o@@ooo....++",
".......oo@oo                      o@@ooo ...++",
"OOOO++ ooo@@ooo                ooo@ooo   OOOO+",
"XXXOOO   ooo@ooooo          oooo@@ooo    XOOO.",
"XXXOOO   ooo@ooooo          oooo@@ooo    XOOO."
};
