/* XPM */
static char *run1[] = {
/* columns rows colors chars-per-pixel */
"37 40 168 2 ",
"   c None",
".  c #341F1F",
"X  c #34201F",
"o  c #361F21",
"O  c #381E21",
"+  c #362020",
"@  c #3A2221",
"#  c #3B2B22",
"$  c #3B3422",
"%  c #3C3A22",
"&  c #442525",
"*  c #492627",
"=  c #492C26",
"-  c #4C2728",
";  c #4E2829",
":  c #51292A",
">  c #5B2D2D",
",  c #493126",
"<  c #443726",
"1  c #513531",
"2  c #5C3432",
"3  c #543C35",
"4  c #612E2F",
"5  c #642F30",
"6  c #643031",
"7  c #6B3333",
"8  c #653831",
"9  c #733536",
"0  c #783637",
"q  c #753738",
"w  c #7A3638",
"e  c #763A3A",
"r  c #7B3839",
"t  c #3D4523",
"y  c #3E4B23",
"u  c #3F5523",
"i  c #464829",
"p  c #54462C",
"a  c #485227",
"s  c #415B24",
"d  c #455024",
"f  c #594839",
"g  c #70403D",
"h  c #426324",
"j  c #436D24",
"k  c #447324",
"l  c #467C25",
"z  c #6C4843",
"x  c #734B43",
"c  c #7B564B",
"v  c #6F5857",
"b  c #6A5959",
"n  c #795453",
"m  c #7D6258",
"M  c #843B3C",
"N  c #8C3D3E",
"B  c #903E3F",
"V  c #923F40",
"C  c #834341",
"Z  c #8C4141",
"A  c #8B4E4D",
"S  c #934343",
"D  c #9B4445",
"F  c #964947",
"G  c #994847",
"H  c #9F4748",
"J  c #954A49",
"K  c #9C4A49",
"L  c #85564C",
"P  c #9B4F51",
"I  c #825E52",
"U  c #9B5353",
"Y  c #985F5F",
"T  c #945A52",
"R  c #A44546",
"E  c #A54648",
"W  c #A94748",
"Q  c #A44A4B",
"!  c #AC494A",
"~  c #B44A4C",
"^  c #BA4C4E",
"/  c #A9514F",
"(  c #A14F50",
")  c #BD4E50",
"_  c #A55251",
"`  c #AA5252",
"'  c #AC5C5D",
"]  c #AB5857",
"[  c #BB5453",
"{  c #B55955",
"}  c #816553",
"|  c #94705F",
" . c #AB695D",
".. c #B4645C",
"X. c #B9615A",
"o. c #AF5E60",
"O. c #966060",
"+. c #936B6B",
"@. c #9A6262",
"#. c #997561",
"$. c #8C7575",
"%. c #8A7C7C",
"&. c #8B7A79",
"*. c #927675",
"=. c #AE6A6B",
"-. c #B16262",
";. c #B46E61",
":. c #B66B66",
">. c #A57F68",
",. c #B37063",
"<. c #B87968",
"1. c #B77071",
"2. c #B77D7D",
"3. c #C04F51",
"4. c #C5645E",
"5. c #C8665F",
"6. c #C26A61",
"7. c #C47E6C",
"8. c #AF8D72",
"9. c #B78670",
"0. c #B99578",
"q. c #C28C74",
"w. c #D18974",
"e. c #D68D79",
"r. c #C39479",
"t. c #C9997C",
"y. c #C69B7D",
"u. c #DD927B",
"i. c #C2A07F",
"p. c #8E8282",
"a. c #A78888",
"s. c #BD8484",
"d. c #BD8C8D",
"f. c #BA9495",
"g. c #BEA7A7",
"h. c #BFAEAF",
"j. c #C78E8F",
"k. c #C28687",
"l. c #CB9796",
"z. c #C99192",
"x. c #C8A583",
"c. c #C7A382",
"v. c #D6A887",
"b. c #D6B38D",
"n. c #DEB992",
"m. c #E2AB8B",
"M. c #ECBB96",
"N. c #E4B490",
"B. c #F3BF98",
"V. c #CC9FA0",
"C. c #C6ADAE",
"Z. c #D3AEAE",
"A. c #C4BABA",
"S. c #C7B7B8",
"D. c #D5B4B5",
"F. c #EAC39A",
"G. c #E9C49A",
"H. c #F3C199",
"J. c #F1CA9F",
"K. c #F4CEA1",
"L. c #F5D0A3",
"P. c #FBD4A6",
"I. c #FDD7A8",
"U. c #FFD8A9",
"Y. c #CDC5C4",
"T. c #DDC2C3",
"R. c #E2CDCD",
"E. c #E0C9C9",
/* pixels */
"          + + + @ + + + + + + + + @ @ @ @ + @ @ + + @ @ + @ @ @ @ +       ",
"        o + @ & & & & & & & & * - ; ; : : ; ; ; - - ; ; - ; : : : ;       ",
"        o + & : 6 7 7 7 7 7 7 7 7 q e e w 0 w w 0 q 0 w 0 w w w w q 7     ",
"      @ + @ * 6 M N N N N N N N N D J R R R R R R R R R R R R R R V q ; @ ",
"  % % % % # * 7 N D R R D D R R R W ~ ~ ~ ^ ^ ^ ~ ~ ~ ~ ~ ~ ~ ^ ^ E w : @ ",
"@ % y h u % = 7 N R E R R R R E R E ! ~ ^ ^ ^ ^ ^ ~ ! W W W ! ~ ~ R e ; @ ",
"@ % s l j y , 7 S _ ' ' R J U ' ' ` R ! ~ ~ W R W W W W W R W W R S 7 * + ",
"@ % h l k y , 7 J =.s.s.@.A O.2.s.=.` W ~ R V N B R ! ~ ~ ~ W D N q : @ + ",
"@ % s k j t = 7 J s.Z.C.*.n &.h.D.k.' E ~ D M q M R ~ ^ ^ ^ ~ D w > & @ + ",
"@ # y s u % = 7 P j.T.Y.p.b %.S.E.z.' E ~ R M w N W ^ ^ ^ ^ ~ R M 5 - @ + ",
"o @ % % % # = 7 U z.T.Y.p.b %.S.E.z.-.W ~ ! D S R ~ ^ ^ ^ ^ ^ ~ D M 6 & + ",
"+ @ @ @ # % , 8 A d.T.Y.p.b %.S.E.z.-.! ~ ^ ^ ~ ~ ^ ^ ^ ^ ^ ^ ^ ~ R e ; @ ",
"+ o o + % y a p x a.A.Y.p.b %.S.E.z.-.! ~ ^ ^ ^ ^ ^ ^ ^ ^ ^ ^ ^ ^ E w : @ ",
"    O @ t h h a f $.h.S.%.b &.C.T.j.o.W ~ ^ ^ ^ ^ ^ ^ ^ ^ ^ ^ ) ^ R w : @ ",
"      # d k k s p m a.f.+.n +.f.C.2.] W ~ ^ ^ ^ ^ ^ ^ ^ ^ ^ ) 3.) W w : @ ",
"      # y k k s < z O.=.U J U =.1.-.( W ~ ^ ^ ^ ^ ^ ^ ^ ^ ^ ^ ) ^ R 0 ; @ ",
"      # t h h y < 2 C R E J J R R R R E ~ ^ ^ ^ ~ W R R R R R E R V q ; + ",
"      @ % t y % # > e D R R H J J J R R W ~ ^ ~ R M w q q q 0 w 0 q > & + ",
"      + @ # # # & 4 M D R R R J D D R R R W ! R Z 6 : - - - ; : ; ; & @ o ",
"      + o o @ & > q Z J R R R R R R R R R R D Z 7 ; @ + + + @ @ @ + + + o ",
"      + o o & > w N D E W ~ ^ ~ ~ ~ ~ ~ ~ D M 7 >                         ",
"      + + + * 7 Z J / { { 4.5.5.4.4.4.4.4._ e >                           ",
"      + . + * q F ] ;.7.w.e.u.u.u.u.u.u.e.,.x :                           ",
"        . + * 7 F X.q.v.N.M.H.B.B.B.H.H.M.r.c 1                           ",
"          @ * 7 J ;.t.n.J.I.I.I.I.I.I.I.K.c.} 3                           ",
"          @ * 7 J ,.t.n.J.I.I.I.U.U.U.U.L.x.} 3                           ",
"          : > q J ,.t.b.n.n.F.K.I.U.U.U.K.x.} 3                           ",
"o o o @ : 7 e N R ,.r.x.0.8.i.F.I.U.U.U.K.x.} 3                           ",
"+ + @ * 6 C D R R ;.q.0.| I #.x.J.I.I.I.J.y.m 3                           ",
"+ @ ; 5 e S E W R X.<.<.T C L >.x.n.F.H.N.9.c 1                           ",
"o & 4 e S D R R R ` X.X./ S C L #.0.v.m.w. .g ;                           ",
"o - 7 N S S S D R ! ^ [ ) R M 6 z #.q.w.6.J 7 -                           ",
"+ & > 7 q q 0 M G ! ^ ^ ) ! M > 2 L ;.6.[ D 6 &                           ",
"+ @ & * * ; > q Z W ~ ^ ) W M > : e J ` ! V 6 *                           ",
"+ @ @ + + @ ; 4 w S W ^ ^ W M > - > e M N w 5                             ",
"              - > q V ! ~ W M > & * : > 4 >                               ",
"              @ & > 0 S J S 0 : @ @ @ @ &                                 ",
"              + + & > 7 0 q 4 * @ . X                                     ",
"              + + @ & * ; ; & @ + .                                       ",
"              + + + + + @ @ + + o                                         "
};
