/* XPM */
static char *run4[] = {
/* columns rows colors chars-per-pixel */
"37 40 171 2 ",
"   c None",
".  c #331F1F",
"X  c #33201F",
"o  c #371F21",
"O  c #362020",
"+  c #3A2221",
"@  c #3B2B22",
"#  c #3B3422",
"$  c #3C3B22",
"%  c #452525",
"&  c #492727",
"*  c #492B26",
"=  c #4B2728",
"-  c #4E2929",
";  c #462D2A",
":  c #532A2A",
">  c #5B2C2D",
",  c #4A3126",
"<  c #463529",
"1  c #533B34",
"2  c #5F3331",
"3  c #612E2F",
"4  c #622F30",
"5  c #663132",
"6  c #6B3233",
"7  c #653B36",
"8  c #733436",
"9  c #783637",
"0  c #763738",
"q  c #7A3638",
"w  c #753B3A",
"e  c #7E3839",
"r  c #3D4623",
"t  c #3E4C23",
"y  c #3F5523",
"u  c #4B412F",
"i  c #55462C",
"p  c #485127",
"a  c #415A24",
"s  c #455024",
"d  c #5A4738",
"f  c #73423E",
"g  c #426324",
"h  c #436C24",
"j  c #447324",
"k  c #467C25",
"l  c #6B4743",
"z  c #734A42",
"x  c #7D5B4E",
"c  c #795549",
"v  c #6B5A59",
"b  c #785454",
"n  c #7B615E",
"m  c #833A3B",
"M  c #8C3D3E",
"N  c #913E3F",
"B  c #883E40",
"V  c #933E40",
"C  c #8B4E4D",
"Z  c #964243",
"A  c #9C4244",
"S  c #914B49",
"D  c #9C4B4B",
"F  c #934648",
"G  c #994F51",
"H  c #9B5455",
"J  c #965F5F",
"K  c #A44446",
"L  c #AA4547",
"P  c #A54748",
"I  c #AB4748",
"U  c #A44A4B",
"Y  c #AB4849",
"T  c #B34A4B",
"R  c #BB4C4E",
"E  c #A9514F",
"W  c #A04F50",
"Q  c #A84F51",
"!  c #BD4E50",
"~  c #A35352",
"^  c #AA5554",
"/  c #AC5C5D",
"(  c #B45250",
")  c #BB5654",
"_  c #B15A55",
"`  c #BA5F58",
"'  c #B45B59",
"]  c #816453",
"[  c #97605F",
"{  c #916859",
"}  c #9B6457",
"|  c #A5665A",
" . c #B3645B",
".. c #B26B5F",
"X. c #B45E60",
"o. c #926B6B",
"O. c #986162",
"+. c #8B7575",
"@. c #8A7C7C",
"#. c #877D7C",
"$. c #927675",
"%. c #AD696A",
"&. c #B16162",
"*. c #B46E61",
"=. c #B66B65",
"-. c #B07464",
";. c #B76F70",
":. c #B77C7D",
">. c #C04F51",
",. c #C5645E",
"<. c #C3685F",
"1. c #C66A60",
"2. c #C27D6B",
"3. c #CB7C6B",
"4. c #AA826B",
"5. c #B68870",
"6. c #BE9578",
"7. c #C2806D",
"8. c #CD8671",
"9. c #C48972",
"0. c #D08974",
"q. c #D68E78",
"w. c #C6967A",
"e. c #C9957A",
"r. c #C79A7D",
"t. c #DE927B",
"y. c #8E8382",
"u. c #AB8888",
"i. c #BD8384",
"p. c #BF8C8D",
"a. c #BA9495",
"s. c #BEA6A7",
"d. c #C68E8F",
"f. c #C28687",
"g. c #C88F91",
"h. c #CB9596",
"j. c #C99393",
"k. c #CC9E9F",
"l. c #C6A281",
"z. c #CAA583",
"x. c #D4A383",
"c. c #D5AC89",
"v. c #DFA586",
"b. c #D8B28C",
"n. c #DDB790",
"m. c #DEBA92",
"M. c #E2AF8D",
"N. c #E3B48F",
"B. c #E4BC94",
"V. c #ECBC95",
"C. c #F4BF98",
"Z. c #C4ADAE",
"A. c #D3ADAE",
"S. c #C4BABA",
"D. c #C0B0B1",
"F. c #D4B9BA",
"G. c #E6C097",
"H. c #EFC99D",
"J. c #E7C499",
"K. c #F1C199",
"L. c #F1CB9F",
"P. c #F3CDA0",
"I. c #F7D1A3",
"U. c #FBD4A6",
"Y. c #FED7A8",
"T. c #FFD8A9",
"R. c #CDC6C6",
"E. c #CCC1C1",
"W. c #DDC2C3",
"Q. c #E2CDCE",
"!. c #E0C9C9",
/* pixels */
"          O O O O O O O O O O O + + + + + O + + + + + + O + + + + O       ",
"        o O + + % % % % % % % & * * * : * * * : : : : * = * * * * *       ",
"        o O + : 4 6 6 6 6 6 6 6 6 0 0 9 q q q q q q q q 0 0 0 9 9 0 6     ",
"      + O O % 5 m M M M M M M M M A A K K K P K K K K K K K K K K V 0 * + ",
"  $ $ $ $ @ & 6 M A K A K K K K K K I T R R ! R R T T T T T T T T K 9 * + ",
"+ $ r g y $ * 6 M A P K K K K P K K I T T R R R T I I I I I I T T K 9 * + ",
"+ $ a k h r , 6 Z ~ / / U F D / / ^ U I T T I K K K K K K K K L K V 6 & + ",
"+ $ g k j r * 6 F %.i.i.O.C O.:.i.=.Q L T K V M N K I I I I L A M 0 > % O ",
"+ # a j h r * 6 D i.A.Z.$.b +.s.F.f./ L I A m 0 m K T T T R T A 9 > % + O ",
"+ # r a y $ * 6 H d.W.E.y.v @.S.!.j./ L I K M q M L R R R R R K m 4 & + O ",
"o + # $ $ @ * 6 G j.W.E.y.v @.S.!.j.&.L T I A F K T R R R R R T A m > % O ",
"O O O + @ # , 7 C p.W.E.y.v @.S.!.j.&.Y T T T T T R R R R R R R T A 0 * + ",
"O o o O # r s i z u.F.E.y.v @.S.!.j.&.Y T R R R R R R R R R R R R K q : + ",
"    o @ r g g p d $.Z.S.@.v @.D.W.d./ Y T R R R R R R R R R R ! ! I q : + ",
"      @ r j j a u n u.a.o.b o.a.k.:.^ L T R R R R R R R R R ! >.! I q : + ",
"      @ r j j a < l J %.H S H %.;.&.U K T R R R R R R R R R R R R K 9 * + ",
"      @ r g g r < 2 B D U K P U U U K K I T R R T I K K K K K K K V 0 * O ",
"      + # r r $ @ > e A K K K K A A K K K T T T A m q 0 0 0 9 q 9 0 > % O ",
"      O + @ @ @ % 3 m A K K K K A A K K K I Y K M 4 : = = = * : * * % + O ",
"      O o o + & > 0 M A K K K K K K K K K K A M 0 * + O O O + + + O O O O ",
"      O o O % 3 q M A K I T T T T T T T T A m 6 >                         ",
"      O O O & 6 M D E _ ` ,.,.,.,.,.,.,.,.~ w :                           ",
"      O . O & 6 F ^ *.2.0.t.t.t.t.t.t.t.q.-.z *                           ",
"        . O & 6 F  .9.x.N.V.C.C.C.C.C.K.V.6.x 1                           ",
"          O & 6 F ..e.n.H.Y.Y.Y.Y.Y.Y.Y.P.l.] 1                           ",
"          + = 0 F *.e.m.P.Y.Y.T.T.Y.T.T.I.z.] 1                           ",
"          : > e D *.e.m.P.Y.Y.Y.Y.Y.T.T.I.z.] 1                           ",
"O . . + : 6 q M U *.e.m.L.Y.Y.Y.Y.Y.T.T.I.z.] 1                           ",
". . + % 5 m A K U *.w.b.G.H.P.I.Y.Y.Y.Y.L.l.] , O                         ",
". + = 3 m A K K U  .2.e.w.r.c.B.P.I.L.K.M.5.c ; O .                       ",
"o % 4 e A K K K P ( `  .} { 4.z.B.J.B.v.0.| f * O .                       ",
"O = 6 M A F F A K Y T A w 7 x 4.z.c.x.8.<.U q : + O                       ",
"O % > 0 0 0 q M A K K V 5 : f | 7.8.3.1.) Y V q > +                       ",
"O + % & & * > 0 M A F m 3 : 5 S _ ` ) ( R T Y A 0 *                       ",
"O O O O O + % > 0 q q 6 : & > 0 B N V A I T R I m >                       ",
"        . O + % : > > : % % & : > 3 6 q F I T K m :                       ",
"          O O + + + + + + + + + + + & 4 e F A F 9 :                       ",
"                              O . . + & 3 6 0 0 5 :                       ",
"                                . . . + % = = * >                         ",
"                                  . o O O O O O                           "
};
