/* XPM */
static char *_[] = {
/* columns rows colors chars-per-pixel */
"50 50 184 2 ",
"   c #08032C",
".  c #0E082D",
"X  c #13092D",
"o  c #1A0B2E",
"O  c #11072D",
"+  c #1A122F",
"@  c #0C0731",
"#  c #0E0A34",
"$  c #110C37",
"%  c #120E39",
"&  c #191435",
"*  c #15113C",
"=  c #19153B",
"-  c #1A163B",
";  c #240F2F",
":  c #26162F",
">  c #28142F",
",  c #240F30",
"<  c #2D1530",
"1  c #251E31",
"2  c #2A1930",
"3  c #251030",
"4  c #331731",
"5  c #341C31",
"6  c #25203F",
"7  c #382532",
"8  c #3B3135",
"9  c #441D32",
"0  c #4A2D33",
"q  c #472A32",
"w  c #532434",
"e  c #542934",
"r  c #5D2934",
"t  c #5A2734",
"y  c #413635",
"u  c #543334",
"i  c #583635",
"p  c #5D3935",
"a  c #672D35",
"s  c #643936",
"d  c #723337",
"f  c #7D3838",
"g  c #4D4238",
"h  c #5A4E3A",
"j  c #5C513A",
"k  c #6C4236",
"l  c #624D39",
"z  c #754738",
"x  c #7B4C39",
"c  c #734638",
"v  c #69583C",
"b  c #74663E",
"n  c #181542",
"m  c #171440",
"M  c #252145",
"N  c #2A2649",
"B  c #342F51",
"V  c #363151",
"C  c #3A3656",
"Z  c #3F3C5B",
"A  c #5C5349",
"S  c #6A595E",
"D  c #746850",
"F  c #4F4B68",
"G  c #5C5874",
"H  c #5D5764",
"J  c #746E71",
"K  c #823838",
"L  c #824F39",
"P  c #8A443A",
"I  c #9A443A",
"U  c #94403A",
"Y  c #8E573A",
"T  c #9B5E3C",
"R  c #AA4C3C",
"E  c #A3473B",
"W  c #B14D3C",
"Q  c #A8573C",
"!  c #BB553E",
"~  c #A7673D",
"^  c #B46E3E",
"/  c #BB6A3F",
"(  c #BD743F",
")  c #B5713F",
"_  c #C5563E",
"`  c #CE5B3F",
"'  c #C75A3E",
"]  c #D15B3F",
"[  c #C2773F",
"{  c #867742",
"}  c #9B7340",
"|  c #A87442",
" . c #D15D40",
".. c #C96140",
"X. c #D56341",
"o. c #D66A42",
"O. c #DC6C41",
"+. c #DD6541",
"@. c #C27640",
"#. c #C27840",
"$. c #CA7343",
"%. c #DB7B44",
"&. c #DE7242",
"*. c #EA7344",
"=. c #E87F43",
"-. c #E57B42",
";. c #F57A45",
":. c #F27645",
">. c #9C8944",
",. c #BF8743",
"<. c #B29D48",
"1. c #BB8851",
"2. c #B5A249",
"3. c #D48342",
"4. c #DC8745",
"5. c #D48845",
"6. c #DE8A45",
"7. c #C59053",
"8. c #E28F46",
"9. c #EC8C45",
"0. c #E78444",
"q. c #F68445",
"w. c #F78D45",
"e. c #EB9144",
"r. c #E39B48",
"t. c #F49445",
"y. c #F89545",
"u. c #F69845",
"i. c #F89946",
"p. c #CFA64A",
"a. c #CBB54D",
"s. c #D2B24C",
"d. c #EAA74A",
"f. c #F5A147",
"g. c #F8A549",
"h. c #F3AA49",
"j. c #F8AC49",
"k. c #F2A748",
"l. c #EDB44D",
"z. c #E7B84D",
"x. c #F8B74C",
"c. c #E1BE6E",
"v. c #DBC54F",
"b. c #DBC550",
"n. c #F3C34F",
"m. c #F9C64E",
"M. c #F9C84E",
"N. c #E1CA50",
"B. c #EECF51",
"V. c #FACD50",
"C. c #F6C752",
"Z. c #EAD151",
"A. c #F7D552",
"S. c #F6DD53",
"D. c #F9DE54",
"F. c #FBD351",
"G. c #FBE254",
"H. c #FBE35A",
"J. c #DCCA70",
"K. c #E1D174",
"L. c #E6C673",
"P. c #FAE56A",
"I. c #F9E366",
"U. c #726E83",
"Y. c #787588",
"T. c #B2A79B",
"R. c #9592A4",
"E. c #A5A2AF",
"W. c #BCB2A4",
"Q. c #A6A4B0",
"!. c #A8A4B0",
"~. c #FCEB88",
"^. c #F7E785",
"/. c #FBEC95",
"(. c #DDD5AB",
"). c #E3DBB6",
"_. c #F8EEB4",
"`. c #D9D8D9",
"'. c #FAF2C1",
"]. c #EEEBDD",
"[. c #F3EDD4",
"{. c #F3EED8",
"}. c #F0EDE2",
"|. c #E4E3E3",
/* pixels */
"* * * #                                                                                             ",
"n n % @                                                                                             ",
"* m * #                                                                                             ",
"$ % % #                                                                                             ",
"    @ @                                                                                             ",
"                                                                                                    ",
"                                                                                                    ",
"                                                                                                    ",
"                    # - B C C C C C N *                   - V C C C C C N &                         ",
"                    - F R.Q.!.!.!.Q.Y.C                 $ Z R.E.!.!.!.!.U.V                         ",
"                    M U.`.}.{.[.[.[.W.S 2               - G `.].[.[.[.[.T.S >                       ",
".                   M Y.`.'./.~.~.~.L.7.x X             - G |._./.~.~.~.c.1.x                       ",
"8 +                 6 J (./.P.H.H.H.V.h.( u 2 X         & H ).^.P.H.H.H.C.d.( 0 : X                 ",
"{ 8 X               1 D J.P.H.G.G.G.V.j.8.^ s :         & A K.I.H.G.G.G.M.h.8.^ p :                 ",
"<.l 2               1 b b.D.G.G.G.G.V.j.i.e.Y 0 +       + j N.S.G.G.G.G.M.j.i.e.Y q +               ",
"z.,.c :             1 b v.D.G.G.G.G.V.j.i.u.6.^ p       + j N.S.G.G.G.G.M.j.i.i.6.~ i X             ",
"M.d.) k : .         1 b v.D.G.G.G.G.V.j.i.i.i.3.z       + j N.S.G.G.G.G.M.j.i.i.i.[ k X             ",
"M.h.8.( p 2 X       1 b v.D.G.G.G.G.V.j.i.i.i.3.z       + j N.S.G.G.G.G.M.j.i.i.i.[ k X             ",
"M.j.i.8.~ k 5       1 b v.D.G.G.G.G.V.j.i.i.i.3.z       + j N.S.G.G.G.G.M.j.i.i.i.[ k X             ",
"M.j.i.u.e.^ u       1 b v.D.G.G.G.G.V.j.i.i.i.3.z       + j N.S.G.G.G.G.M.j.i.i.i.[ k X             ",
"m.j.i.i.i.#.p       1 b v.D.G.G.G.G.V.j.i.i.i.5.x X X X 1 v N.S.G.G.G.G.M.j.i.i.i.[ k X             ",
"l.f.i.i.i.#.p       1 b v.D.G.G.G.G.F.x.j.j.j.r.} g g g h { Z.D.G.G.G.G.M.j.i.i.i.[ k X             ",
"9.u.i.i.i.#.p       1 b v.D.G.G.G.G.D.F.V.V.V.n.s.<.<.<.2.a.S.G.G.G.G.G.M.j.i.i.i.[ k X             ",
"&.0.u.i.i.#.p       1 b v.D.G.G.G.G.G.G.G.G.G.G.S.S.S.S.S.S.G.G.G.G.G.G.M.j.i.i.i.[ k X             ",
"X.O.=.u.i.#.p       1 b v.D.G.G.G.G.G.G.G.G.G.G.G.G.G.G.G.G.G.G.G.G.G.G.M.j.i.i.i.[ k X             ",
"] ] O.=.u.@.p       1 b v.D.G.G.G.G.G.G.G.G.G.G.G.G.G.G.G.G.G.G.G.G.G.G.M.j.i.i.i.[ k X             ",
"o.X.] X.%.~ u       1 b v.D.G.G.G.G.G.G.G.G.G.G.G.G.G.G.G.G.G.G.G.G.G.G.M.j.i.i.i.[ k X             ",
"4.o. .' Q c 7       1 b v.D.G.G.G.G.G.G.G.G.G.G.G.G.G.G.G.G.G.G.G.G.G.G.M.j.i.i.i.[ k X             ",
"d.%.` R e < X       1 v a.Z.A.A.A.A.A.A.A.A.A.A.A.A.A.A.A.D.G.G.G.G.G.G.M.j.i.i.i.[ k X             ",
"n.6.Q r ;           X 7 v | 5.8.8.8.8.8.8.8.8.8.8.8.8.8.r.d.D.G.G.G.G.G.M.j.i.i.i.[ k X             ",
"M.r.~ u +               o w I _ ` ] ] ] ] ] ] ] ] ] ] ] X.6.A.D.G.G.G.G.M.j.i.i.i.[ k X             ",
"M.k.6.~ 0 +               ; t I _ ` ] ] ] ] ] ] ] ] ] ] X.6.A.D.G.G.G.G.M.j.i.i.i.[ k X             ",
"M.j.i.6.L 0 :               4 a E _ ` ] ] ] ] ] ] ] ] ] X.6.A.D.G.G.G.G.M.j.i.i.i.[ k X             ",
"M.j.i.u.3.T 0               X < r E ! _ _ _ _ _ _ _ _ _ ..4.A.D.G.G.G.G.M.j.i.i.i.[ k X             ",
"M.j.i.i.i.#.p                   > a f K K K K K K K K K P | B.D.G.G.G.G.M.j.i.i.i.[ k X             ",
"M.j.i.i.i.#.p                     o , 3 , ; ; ; ; ; ; ; 5 v N.S.G.G.G.G.M.j.i.i.i.[ k X             ",
"M.j.i.i.i.#.p                       @                   + j N.S.G.G.G.G.M.j.i.i.i.[ k X             ",
"x.g.i.i.i.#.p                   @ # % % #               + j N.S.G.G.G.G.M.j.i.i.i.[ k X             ",
"k.i.i.i.i.#.p                 @ # % $ $ % #             + j N.S.G.G.G.G.M.j.i.i.i.[ k X             ",
"q.w.y.i.i.#.p                 # % % # # $ * @           + j N.S.G.G.G.G.M.j.i.i.i.[ k X             ",
";.q.w.y.i.#.p                 # * $   @ $ * @           + h v.S.D.D.D.D.m.j.i.i.i.[ k X             ",
";.;.q.w.u.@.p                 @ $ % % % $ #             X y >.p.z.l.l.l.h.f.i.i.i.[ k X             ",
";.;.;.q.u.@.p                   @ $ % % #                 + y T $.%.%.%.0.u.i.i.i.[ k X             ",
"*.:.;.*./ L 7                     @ # # @                     w K W ] ] O.-.9.i.i.[ k X             ",
"+.*.*...e o                                                     < d _ ` ] ] O.u.u.[ k X             ",
"X.X.! f 4 X           # @                                       o 9 f _ ` ] X.-.9.( k X             ",
"R I d 5 X           @ # #                                         o 4 U E R R W / T i X             ",
"r w 5 X               # @                                           O w r r r r s u 5               ",
"o X O                                                                 X o o o o o X X               ",
"                                                                                                    "
};
