/* XPM */
static char *_[] = {
/* columns rows colors chars-per-pixel */
"50 50 186 2 ",
"   c #08032C",
".  c #0F082C",
"X  c #11072D",
"o  c #130A2E",
"O  c #190C2E",
"+  c #16102F",
"@  c #1C102E",
"#  c #0B0731",
"$  c #0D0933",
"%  c #120D36",
"&  c #120E39",
"*  c #1D1630",
"=  c #16123B",
"-  c #18133A",
";  c #19153B",
":  c #200E2E",
">  c #22122F",
",  c #2D1530",
"<  c #251E31",
"1  c #2C1930",
"2  c #331630",
"3  c #351C31",
"4  c #3A1A31",
"5  c #2B2232",
"6  c #282135",
"7  c #3C2331",
"8  c #332B34",
"9  c #3C3335",
"0  c #451E32",
"q  c #452B33",
"w  c #4B2D34",
"e  c #482433",
"r  c #532534",
"t  c #5E2934",
"y  c #443A36",
"u  c #4C3636",
"i  c #523234",
"p  c #593635",
"a  c #5D3935",
"s  c #672E36",
"d  c #733337",
"f  c #7A3938",
"g  c #7A3737",
"h  c #643735",
"j  c #5D513B",
"k  c #524738",
"l  c #6E4337",
"z  c #7B4B39",
"x  c #685B3C",
"c  c #6D603D",
"v  c #74663E",
"b  c #7B6D3F",
"n  c #191642",
"m  c #171440",
"M  c #211C41",
"N  c #292546",
"B  c #332F51",
"V  c #3C3756",
"C  c #413D5C",
"Z  c #463E57",
"A  c #44405F",
"S  c #7C6E40",
"D  c #746743",
"F  c #746953",
"G  c #464361",
"H  c #4A4664",
"J  c #4F4C68",
"K  c #75707C",
"L  c #68657E",
"P  c #853B38",
"I  c #8A3C39",
"U  c #8C493A",
"Y  c #95413A",
"T  c #9A483B",
"R  c #87533A",
"E  c #95593B",
"W  c #A4493B",
"Q  c #A94A3C",
"!  c #B64F3D",
"~  c #BA523D",
"^  c #B4563D",
"/  c #9E613C",
"(  c #A3643D",
")  c #B36E3F",
"_  c #B8673E",
"`  c #B7713F",
"'  c #CD593F",
"]  c #C4583E",
"[  c #D15C3F",
"{  c #CD653F",
"}  c #D5623F",
"|  c #827240",
" . c #8C7D48",
".. c #8C6953",
"X. c #BE7440",
"o. c #D25E40",
"O. c #C96440",
"+. c #C76C41",
"@. c #CA6E41",
"#. c #D46240",
"$. c #D56D42",
"%. c #DC6D41",
"&. c #D86640",
"*. c #C27740",
"=. c #C27840",
"-. c #CC7E41",
";. c #DA7443",
":. c #E07442",
">. c #E47A42",
",. c #E97544",
"<. c #F57B45",
"1. c #988644",
"2. c #8D815C",
"3. c #A08F46",
"4. c #B19146",
"5. c #BBA74A",
"6. c #CF8041",
"7. c #C78C4B",
"8. c #DE8746",
"9. c #DE8944",
"0. c #D28141",
"q. c #D99648",
"w. c #E98243",
"e. c #E18B47",
"r. c #E78544",
"t. c #F38C44",
"y. c #F68345",
"u. c #ED9244",
"i. c #E49648",
"p. c #E49B49",
"a. c #F39445",
"s. c #F89745",
"d. c #F79845",
"f. c #F89A46",
"g. c #C5AA4B",
"h. c #C8B34C",
"j. c #D0BA4D",
"k. c #E9A94B",
"l. c #F9AA49",
"z. c #EBB14D",
"x. c #F0BE4F",
"c. c #DBC54F",
"v. c #DCC658",
"b. c #FAC84F",
"n. c #F9C34E",
"m. c #E3CC50",
"M. c #E0CB58",
"N. c #F1C250",
"B. c #FAC850",
"V. c #F3C850",
"C. c #ECD352",
"Z. c #F5D452",
"A. c #F3DB53",
"S. c #FADE53",
"D. c #F9D752",
"F. c #FBE254",
"G. c #FAE25B",
"H. c #DCCB74",
"J. c #EDC360",
"K. c #E1D073",
"L. c #FAE46B",
"P. c #FCE770",
"I. c #6C6982",
"U. c #6B6780",
"Y. c #7A7687",
"T. c #807C8A",
"R. c #8A858D",
"E. c #8D8A93",
"W. c #99949D",
"Q. c #BFB79F",
"!. c #9B97A2",
"~. c #CCB483",
"^. c #C7BFA3",
"/. c #EBDD91",
"(. c #EFE093",
"). c #F7E896",
"_. c #CCC4A3",
"`. c #DED8BE",
"'. c #D1C7A2",
"]. c #E4DCB9",
"[. c #F9EDAB",
"{. c #F5E9A7",
"}. c #D0CCC3",
"|. c #DFDDDA",
" X c #DAD7D5",
".X c #E0DDDA",
/* pixels */
"Q ^ _ ( w O                     X 2 s T Q Q Q Q Q Q Q Q Q Q Q Q Q Q Q T d 3 X           # $ $       ",
"t s h a 1 X                       X 2 r t t t t t t t t t t t t t t t r 3 X               $ #       ",
"O O O O .                           X X O O O O O O O O O O O O O O O X X                           ",
"                                                                                                    ",
"                                                                                                    ",
"                          ; M M M M M M M M M M M M M M M M M M M M ; $                         $ ; ",
"                        % H U.I.I.I.I.I.I.I.I.I.I.I.I.I.I.I.I.I.I.L H M                         M H ",
"                      % N !. X.X.X.X.X.X.X.X.X.X.X.X|.|..X.X.X.X.X XW.Z %                     $ H !.",
"                    ; J R.'.[.[.[.[.[.[.[.[.[.[.[.[.[.[.[.[.[.[.[.{.~...w X                 & A R._.",
"                  % V E.}.(.P.P.P.P.P.P.P.P.P.P.P.P.P.P.P.P.P.P.P.L.J.7.z 1               % N Y.^.(.",
"                ; H R._.{.P.F.F.F.F.F.F.F.F.F.F.F.F.F.F.F.F.F.F.F.S.B.k.X.z 1 X         = C T.Q./.P.",
"X               N E.].).G.F.F.F.F.F.F.F.F.F.F.F.F.F.F.F.F.F.F.F.F.S.B.l.f.9.l 3 X       N K `.).L.F.",
"i X             6 2.K.L.F.F.F.F.F.F.F.F.F.F.F.F.F.F.F.F.F.F.F.F.F.S.B.l.f.u.-.E q       < F H.L.G.F.",
"R q >           6  .M.G.F.F.F.F.S.V.N.N.N.N.N.N.N.N.N.Z.F.F.F.F.F.S.B.l.f.d.u.` a       < D v.G.F.F.",
"-.E a > X       < | j.C.Z.Z.Z.Z.x.i.e.e.e.9.9.8.8.9.9.z.S.F.F.F.F.S.B.l.f.f.f.=.a       < v c.S.F.F.",
"f.9.( a 1 .     * j 1.g.k.z.z.k.i.$.&.%.#.[ [ [ [ [ #.p.S.F.F.F.F.S.B.l.f.f.f.=.a       < v c.S.F.F.",
"d.d.9.) i O       * q U +.$.$.$.$.#.:.w.:.#.[ [ [ [ #.p.S.F.F.F.F.S.B.l.f.f.f.=.a       < v c.S.F.F.",
"t.d.u.-.a O         > r f ! o.o.[ #.%.>.>.:.#.[ [ [ #.p.S.F.F.F.F.S.B.l.f.f.f.=.a       < v c.S.F.F.",
"w.d.u.6.a @           : 4 I ~ ' [ [ #.%.>.>.{ ~ ~ ~ ~ q.S.F.F.F.F.S.B.l.f.f.f.=.a       < x h.C.A.F.",
"%.w.r.-.a @             X r I ! [ [ [ #.%.$.T g d d f 4.A.F.F.F.F.S.B.l.f.f.f.=.a       @ y | g.C.F.",
"~ ] @.) i O                 4 I ! ~ ~ ~ ~ W r O X X @ | A.F.F.F.F.S.B.l.f.f.f.=.a         X 6 b h.A.",
"4 4 7 7 @                   X , 4 4 4 4 4 2 O       X S A.F.F.F.F.S.B.l.f.f.f.=.a .         X 6 c 5.",
"X X X X                       X X X X X X X         X S A.F.F.F.F.S.B.l.f.f.f.=.a           X 8 b g.",
"                                                    X S A.F.F.F.F.S.B.l.f.f.f.=.a           * j 4.m.",
"                                                    X S A.F.F.F.F.S.B.l.f.f.f.=.a       X < k 3.m.F.",
"                                                    X S A.F.F.F.F.S.B.l.f.f.f.=.a       < v c.S.F.F.",
"7                                                   X S A.F.F.F.F.S.B.l.f.f.f.=.a       < v c.S.F.F.",
"l 1 X                                               X S A.F.F.F.F.S.B.l.f.f.f.=.a       < v c.S.F.F.",
") l 7 X                                             X S A.F.F.F.F.S.B.l.f.f.f.=.a       < v c.S.F.F.",
"f.0.R 3 X                                           X S A.F.F.F.F.S.B.l.f.f.f.=.a       < v c.S.F.F.",
"f.u.6./ w X                                         X S A.F.F.F.F.S.B.l.f.f.f.=.a .     < v c.S.F.F.",
"f.d.u.=.a O                       $ $ # $ $         X S A.F.F.F.F.S.B.l.f.f.f.=.a .     < v c.S.F.F.",
"f.f.d.6.a @                       % & & & & #       X S A.F.F.F.F.S.b.l.f.f.f.=.a       < v c.S.F.F.",
"f.f.d.6.a @                       % = m = & #       X S A.F.F.F.F.S.b.l.f.f.f.=.a       < v c.S.F.F.",
"f.f.d.6.a @                       $ = n n $         X S A.F.F.F.F.S.b.l.f.f.f.=.a       < v c.S.F.F.",
"f.f.d.6.a @                       % & & & & $       X S A.F.F.F.F.S.b.l.f.f.f.=.a       + 9 S 5.C.F.",
"d.d.d.6.a O                       $ $ $ $ $ #       X S A.F.F.F.F.S.b.l.f.f.f.=.a         @ 9 | h.C.",
"d.d.d.6.a O                                         X S A.F.F.F.F.S.b.l.f.f.f.=.a           + y 1.j.",
"t.d.d.-.a O                                         X v m.Z.A.S.S.Z.n.l.f.f.f.=.a               y 1.",
"<.y.t.-.a @                                           * u E +.;.;.;.r.d.d.f.f.=.a               X 6 ",
"<.,.+.E q X                                             O t Y ~ [ o.%.>.t.d.f.=.a                 X ",
",.O.U w >                                               X , r Y ] ' } %.>.d.d.=.a                   ",
"O.T r                                                       : s W ] ' #.%.w.d.=.a .                 ",
"f 4 O                                                         > t Q ' ' #.%.w.X.a                   ",
"0 O                                                           X 2 s P P P U E z 7                   ",
"O                                                               X , 4 4 4 4 q 3 @                   ",
"                                                                                                    ",
"                                                                                                    ",
"                                                                                                    ",
"                              = B C G G G G G G G G G G G G G G G C ;                               "
};
