/* XPM */
static char *_[] = {
/* columns rows colors chars-per-pixel */
"50 50 176 2 ",
"   c #08032C",
".  c #0E082D",
"X  c #11072D",
"o  c #140C2E",
"O  c #1B0D2E",
"+  c #1A142F",
"@  c #0C0730",
"#  c #0D0832",
"$  c #110C33",
"%  c #1A1430",
"&  c #1F1830",
"*  c #19143A",
"=  c #151037",
"-  c #230F2F",
";  c #25122F",
":  c #241C31",
">  c #2F1430",
",  c #341730",
"<  c #341B31",
"1  c #3A1931",
"2  c #272032",
"3  c #2A2332",
"4  c #312533",
"5  c #3C2532",
"6  c #312933",
"7  c #3B3235",
"8  c #3D363F",
"9  c #421D32",
"0  c #422432",
"q  c #462933",
"w  c #4D2233",
"e  c #5A2734",
"r  c #5A2834",
"t  c #453B37",
"y  c #413736",
"u  c #5F3135",
"i  c #633937",
"p  c #693336",
"a  c #7B3637",
"s  c #783537",
"d  c #4D4338",
"f  c #4B4037",
"g  c #554A39",
"h  c #544939",
"j  c #5D523B",
"k  c #6F4B39",
"l  c #7E4D39",
"z  c #685B3C",
"x  c #7D6F3F",
"c  c #74663E",
"v  c #262144",
"b  c #2D2847",
"n  c #383555",
"m  c #423E5D",
"M  c #7D6E40",
"N  c #7F7040",
"B  c #464360",
"V  c #504C69",
"C  c #57546F",
"Z  c #625E73",
"A  c #736F7E",
"S  c #863B38",
"D  c #883C39",
"F  c #934039",
"G  c #84513A",
"H  c #9F573C",
"J  c #A44B3C",
"K  c #B24D3C",
"L  c #A4533D",
"P  c #BD533D",
"I  c #AE6B3E",
"U  c #BE743F",
"Y  c #C5563E",
"T  c #CD5A3F",
"R  c #D15B3F",
"E  c #816E40",
"W  c #847441",
"Q  c #8B7C42",
"!  c #CD5F40",
"~  c #D55F40",
"^  c #CB6540",
"/  c #D46340",
"(  c #D96240",
")  c #D56941",
"_  c #DC6C42",
"`  c #C77C40",
"'  c #DE7C43",
"]  c #DE7041",
"[  c #E26A42",
"{  c #EB7144",
"}  c #E97943",
"|  c #F27744",
" . c #F47A45",
".. c #958343",
"X. c #9B8A45",
"o. c #A69446",
"O. c #AB9848",
"+. c #A89547",
"@. c #B19E48",
"#. c #B79647",
"$. c #BAA64A",
"%. c #B8A54A",
"&. c #8D867A",
"*. c #EA8443",
"=. c #E18E46",
"-. c #E18F48",
";. c #EA8D44",
":. c #F48446",
">. c #F58A45",
",. c #E19146",
"<. c #EA9044",
"1. c #E39549",
"2. c #E79B49",
"3. c #F59345",
"4. c #F69A45",
"5. c #F69B4A",
"6. c #C3AF4B",
"7. c #CBB54C",
"8. c #CEB94D",
"9. c #C6B24C",
"0. c #D2BC4E",
"q. c #D7A24A",
"w. c #E9A94B",
"e. c #EBA64B",
"r. c #F7A046",
"t. c #F7AF4B",
"y. c #EDB54D",
"u. c #EEBA4E",
"i. c #F2BB4D",
"p. c #F8BA4D",
"a. c #F7B44D",
"s. c #D6C04E",
"d. c #DAC34F",
"f. c #DFC850",
"g. c #D9C352",
"h. c #E1CA4F",
"j. c #F5C04E",
"k. c #F9C14E",
"l. c #E4CB50",
"z. c #F4CC51",
"x. c #F2C750",
"c. c #ECD452",
"v. c #F6D452",
"b. c #FAD652",
"n. c #F4DC53",
"m. c #FADE53",
"M. c #FBE254",
"N. c #FBE45E",
"B. c #F5DE62",
"V. c #FBE568",
"C. c #FAE467",
"Z. c #FBE673",
"A. c #FCE97C",
"S. c #7C7784",
"D. c #7D7A88",
"F. c #858288",
"G. c #978F80",
"H. c #928F9E",
"J. c #BBB49B",
"K. c #9290A0",
"L. c #BAB4A2",
"P. c #B8B7BF",
"I. c #B4B2BB",
"U. c #A9A7B2",
"Y. c #C2BBA3",
"T. c #DAD097",
"R. c #E6D997",
"E. c #F9EC9F",
"W. c #FBEA86",
"Q. c #CFCABB",
"!. c #C9C2A5",
"~. c #E3DDC4",
"^. c #F7F3DD",
"/. c #EBE8D6",
"(. c #FEFAE3",
"). c #FAF6E0",
/* pixels */
"                                    O 9 F P T T T T T T T T T T T T T T T T S 0 O                   ",
"          # @                         O e a S S S S S S S S S S S S S S S a w -                     ",
"        @ # @                           ; , 1 1 1 1 1 1 1 1 1 1 1 1 1 1 1 < - X                     ",
"          @ @                                                                                       ",
"                                                                                                    ",
"                                                                                                    ",
"                            * V C C C C C C C C C C C C C C C C B #                               @ ",
"                          # n U.I.P.P.P.P.P.P.P.P.P.P.P.P.P.P.I.H.*                               = ",
"                        $ v Z /.).(.(.(.(.(.(.(.(.(.(.(.(.(.(.^.Q.8 & o                         $ b ",
"                        n K.~.Z.V.V.V.V.V.V.V.V.V.V.V.V.V.V.V.C.B.f.N 6                         b D.",
"                    * B F.!.E.N.M.M.M.M.M.M.M.M.M.M.M.M.M.M.M.M.M.M.$.M t o                 @ m S.J.",
"                  . v S.Y.R.Z.M.M.M.M.M.M.M.M.M.M.M.M.M.M.M.M.M.M.M.l.%.E 6 O               $ A L.R.",
"                  . b G.R.A.M.M.M.M.M.m.m.m.m.m.m.m.M.M.M.M.M.M.M.M.M.l.#.k 5 O             $ &.T.W.",
"                  . 3 ..f.M.M.M.M.M.m.b.b.b.b.b.b.b.b.b.b.m.M.M.M.M.M.m.i.,.G 5 o           o Q g.M.",
"                  . 3 ..f.M.M.M.M.m.j.,.,.-.-.-.-.-.-.1.1.x.m.M.M.M.M.v.j.4.` G 5           o Q d.M.",
"                  . 3 ..f.M.M.M.M.m.i.' _ ) ) ) ) ) ) ) ) u.m.M.M.M.M.v.k.4.<.U l 0 O       o Q d.M.",
"                  . 3 ..f.M.M.M.M.m.i.*._ ) R R R R R R ) y.b.M.M.M.M.v.k.r.4.-.U G < o     o Q d.M.",
"                  . 3 ..f.M.M.M.M.m.k.3.} _ ) R R R R R ) y.b.M.M.M.M.m.k.r.4.4.<.U q o     o Q d.M.",
"                  . 3 ..f.M.M.M.M.m.k.4.3.*.] R R R R R ) y.b.M.M.M.M.v.k.r.4.4.<.U q o     o Q d.M.",
"                  . 3 ..f.M.M.M.M.M.v.p.p.t.e.1.1.1.1.1.2.z.m.M.M.M.M.v.k.r.4.4.<.U q o     o Q d.M.",
"                    2 W 9.m.M.M.M.M.m.v.v.v.z.z.z.z.z.z.z.m.M.M.M.M.M.v.k.r.4.4.<.U q o     o Q d.M.",
"                    % g X.0.M.M.M.M.M.M.M.M.M.M.M.M.M.M.M.M.M.M.M.M.M.v.k.r.4.4.<.U q o     o Q d.M.",
"                      o t +.m.M.M.M.M.M.M.M.M.M.M.M.M.M.M.M.M.M.M.M.M.v.k.r.4.4.<.U q o     o Q d.M.",
"                        + y W c.m.M.M.M.M.M.M.M.M.M.M.M.M.M.M.M.M.M.M.v.k.r.4.4.<.U q o     o Q d.M.",
"                          o 7 +.8.c.M.M.M.M.M.M.M.M.M.M.M.M.M.M.M.M.M.v.k.r.4.4.<.U q o     o Q d.M.",
"                            + f Q 8.c.c.c.c.c.c.c.c.c.c.c.m.M.M.M.M.M.m.k.r.4.4.<.U q o     o Q d.M.",
"                                g X.6.6.6.6.6.6.6.6.6.6.9.c.m.M.M.M.M.v.k.r.4.4.<.U q o     o Q d.M.",
"                                + 3 6 6 6 6 6 6 6 6 6 6 7 %.c.M.M.M.M.v.k.r.4.4.<.U q o     o Q d.M.",
"                                                        o O.c.M.M.M.M.v.k.r.4.4.<.U q o     o Q d.M.",
"                    . + : 3 3 3 3 3 +                   o O.c.M.M.M.M.v.k.r.4.4.<.U q o     o Q d.M.",
"                    + d c M M x x c d                   % O.c.M.M.M.M.v.k.r.4.4.<.U q o     o Q d.M.",
"                    2 W 9.h.h.h.h.s...: : : : : : : : : 6 %.c.M.M.M.M.v.k.r.4.4.<.U q o     o Q d.M.",
"                  . 3 ..d.m.m.m.m.m.9.Q Q Q Q Q Q Q Q Q ..s.m.M.M.M.M.v.k.r.4.4.<.U q o     o Q d.M.",
"                  . 3 ..f.M.M.M.M.M.c.d.d.d.d.d.d.d.d.d.d.m.M.M.M.M.M.v.k.r.4.4.<.U q o     o Q d.M.",
"                  . 3 Q s.m.M.M.M.M.M.M.M.M.M.M.M.M.M.M.M.M.M.M.M.M.m.v.p.4.4.4.<.U q o     o W 8.m.",
"                    : z @.l.M.M.M.M.M.M.M.M.M.M.M.M.M.M.M.M.M.M.M.M.v.k.t.4.4.4.<.U q o     . z +.d.",
"                    . : j @.m.M.M.M.M.M.M.M.M.M.M.M.M.M.M.M.M.M.M.M.p.5.3.3.4.4.<.U q o       : d X.",
"                        : j +.m.m.M.M.M.M.M.M.M.M.M.M.M.M.M.M.M.v.a.5.:.:.>.3.3.<.U q o         & g ",
"                        . + d 0.l.b.b.b.b.b.b.b.b.b.b.b.b.b.b.b.j.:. . . . .>.3.<.U q o           & ",
"                            3 Q #.q.w.w.w.w.w.w.w.w.w.w.w.w.w.e.2.{ { |  . .:.>.<.U q o           . ",
"                            . : i L ^ ) ) ) ) ) ) ) ) ) ) ) ) ) ) ~ [ {  . . . .' I 0 o             ",
"                                > e F R R R R R R R R R R R R R R R ( [ { | | ) H i ;               ",
"                                X - e K Y T R R R R R R R R R R R R R ( _ { _ L u ; o               ",
"                                    , s J P Y Y Y Y Y Y Y Y Y Y Y Y Y T T ! L p ,                   ",
"                                      O r a D D D D D D D D D D D D D D S S w ;                     ",
"                                        - , , , , , , , , , , , , , , , , , O                       ",
"                                                                                                    ",
"                                                                                                    ",
"                                                                                                    ",
"                                                                                                    "
};
