/* XPM */
static char *_[] = {
/* columns rows colors chars-per-pixel */
"35 40 8 1 ",
"  c None",
". c #4A3B1F",
"X c #E5AB3D",
"o c #FDC760",
"O c #2379EA",
"+ c #D8B78F",
"@ c #FFD7A8",
"# c white",
/* pixels */
"  ............................     ",
"  ............................     ",
"..ooooooooooooooooXXXXXXXXXX.....  ",
"..ooooooooooooooooXXXXXXXXXX.....  ",
"..ooooooooooooooooXXXXXXXXXX.....  ",
"..ooXXXXXXXoooooXXXXXXXXXXXX..OOO..",
"..ooXXXXXXXoooooXXXXXXXXXXXX..OOO..",
"....ooooooo..oooXX########XX..OOO..",
"....ooooooo..oooXX########XX..OOO..",
"..ooooooooooooooXX###...##XX.......",
"..ooooooooooooooXX###...##XX.......",
"..ooooooooooooooXX########..OO...  ",
"..ooooooooooooooXX########..OO...  ",
"..ooooooooooooooXX########..OO...  ",
"..ooooooooooooooXXXXXXXXXX..OO...  ",
"..ooooooooooooooXXXXXXXXXX..OO...  ",
"...........ooXXXXXXXXXXXXX.......  ",
"...........ooXXXXXXXXXXXXX.......  ",
"      ...oooooooooXXXXXX....       ",
"      ...oooooooooXXXXXX....       ",
"      ...oooooooooXXXXXX....       ",
"      ...@@@@@@@@@+++XXX..  ..     ",
"      ...@@@@@@@@@+++XXX..  ..     ",
"      ...@@@@@@@@@+++XXX......     ",
"      ...@@@@@@@@@+++XXX......     ",
"      ...@@@@@@@@@+++XXX......     ",
"      ...@@@@@@@@@+++XXXoooo..     ",
"      ...@@@@@@@@@+++XXXoooo..     ",
"      ...@@@@@@@@@+++XXXoooo..     ",
"      ...oo+++++ooXXXXXXXX....     ",
"      ...oo+++++ooXXXXXXXX....     ",
"      ...ooooooooooooXXX....       ",
"      ...ooooooooooooXXX....       ",
"      ...ooXX.....oooXXX..         ",
"      ...ooXX.....oooXXX..         ",
"         ..XX...  ...XXX..         ",
"         ..XX...  ...XXX..         ",
"         ..XX...  ...XXX..         ",
"           .....     .....         ",
"           .....     .....         "
};
