/* XPM */
static char *_[] = {
/* columns rows colors chars-per-pixel */
"35 38 8 1 ",
"  c None",
". c #4A3B1F",
"X c #E5AB3D",
"o c #FDC760",
"O c #2379EA",
"+ c #D8B78F",
"@ c #FFD7A8",
"# c white",
/* pixels */
"  .............................    ",
"  .............................    ",
"  .............................    ",
"..oooooooooooooooooXXXXXXXXX.....  ",
"..oooooooooooooooooXXXXXXXXX.....  ",
"..oooXXXXXXXooooXXXXXXXXXXXX...OO..",
"..oooXXXXXXXooooXXXXXXXXXXXX...OO..",
".....ooooooo..ooXXX#######XX...OO..",
".....ooooooo..ooXXX#######XX...OO..",
".....ooooooo..ooXXX#######XX...OO..",
"..ooooooooooooooXXX##..###XX.......",
"..ooooooooooooooXXX##..###XX.......",
"..ooooooooooooooXXX#######..OOO..  ",
"..ooooooooooooooXXX#######..OOO..  ",
"..ooooooooooooooXXX#######..OOO..  ",
"..ooooooooooooooXXXXXXXXXX..OOO..  ",
"..ooooooooooooooXXXXXXXXXX..OOO..  ",
"............ooXXXXXXXXXXXX.......  ",
"............ooXXXXXXXXXXXX.......  ",
"       ..ooooooooooXXXX.....       ",
"       ..ooooooooooXXXX.....       ",
"       ..ooooooooooXXXX.....       ",
"       ..@@@@@@@@@@++XX...         ",
"       ..@@@@@@@@@@++XX...         ",
"       ..@@@@@@@@@@++XX........    ",
"       ..@@@@@@@@@@++XX........    ",
"       ..@@@@@@@@@@++XXooooo...    ",
"       ..@@@@@@@@@@++XXooooo...    ",
"       ..@@@@@@@@@@++XXooooo...    ",
"       ..ooo++++oooXXXXXXX.....    ",
"       ..ooo++++oooXXXXXXX.....    ",
"       ..ooooooooooooXX.....       ",
"       ..ooooooooooooXX.....       ",
"       ..ooooooooooooXX.....       ",
"       ..oooXX.....ooXX...         ",
"       ..oooXX.....ooXX...         ",
"         .......   .......         ",
"         .......   .......         "
};
