/* XPM */
static char *_[] = {
/* columns rows colors chars-per-pixel */
"34 40 8 1 ",
"  c None",
". c #4A3B1F",
"X c #E5AB3D",
"o c #FDC760",
"O c #2379EA",
"+ c #D8B78F",
"@ c #FFD7A8",
"# c white",
/* pixels */
"  .............................   ",
"  .............................   ",
"..oooooooooooooooooXXXXXXXXX..... ",
"..oooooooooooooooooXXXXXXXXX..... ",
"..oooooooooooooooooXXXXXXXXX..... ",
"..oooXXXXXXXoooooXXXXXXXXXXX...OO.",
"..oooXXXXXXXoooooXXXXXXXXXXX...OO.",
".....ooooooo..oooXX#######XX...OO.",
".....ooooooo..oooXX#######XX...OO.",
"..oooooooooooooooXX##...##XX......",
"..oooooooooooooooXX##...##XX......",
"..oooooooooooooooXX##...##XX......",
"..oooooooooooooooXX#######..OOO.. ",
"..oooooooooooooooXX#######..OOO.. ",
"..oooooooooooooooXXXXXXXXX..OOO.. ",
"..oooooooooooooooXXXXXXXXX..OOO.. ",
"..oooooooooooooooXXXXXXXXX..OOO.. ",
"............ooXXXXXXXXXXXX....... ",
"............ooXXXXXXXXXXXX....... ",
"       ..ooooooooooXXXXX....      ",
"       ..ooooooooooXXXXX....      ",
"       ..@@@@@@@@@@++XXX..        ",
"       ..@@@@@@@@@@++XXX..        ",
"       ..@@@@@@@@@@++XXX..        ",
"       ..@@@@@@@@@@++XXX.......   ",
"       ..@@@@@@@@@@++XXX.......   ",
"       ..@@@@@@@@@@++XXXoooo...   ",
"       ..@@@@@@@@@@++XXXoooo...   ",
"       ..ooo+++++ooXXXXXXX.....   ",
"       ..ooo+++++ooXXXXXXX.....   ",
"       ..ooo+++++ooXXXXXXX.....   ",
"       ..ooooooooooooXXX....      ",
"       ..ooooooooooooXXX....      ",
"       ..oooXX.....ooXXX..        ",
"       ..oooXX.....ooXXX..        ",
"       ..oooXX.....ooXXX..        ",
"         ...XX...  ..XXX..        ",
"         ...XX...  ..XXX..        ",
"            .....    .....        ",
"            .....    .....        "
};
