/* XPM */
static char *_[] = {
/* columns rows colors chars-per-pixel */
"34 37 8 1 ",
"  c None",
". c #4A3B1F",
"X c #E5AB3D",
"o c #FDC760",
"O c #2379EA",
"+ c #D8B78F",
"@ c #FFD7A8",
"# c white",
/* pixels */
"  ............................    ",
"  ............................    ",
"..ooooooooooooooooXXXXXXXXXX....  ",
"..ooooooooooooooooXXXXXXXXXX....  ",
"..ooooooooooooooooXXXXXXXXXX....  ",
"..ooXXXXXXXoooooXXXXXXXXXXXX..OO..",
"..ooXXXXXXXoooooXXXXXXXXXXXX..OO..",
"....ooooooo...ooXX#######XXX..OO..",
"....ooooooo...ooXX#######XXX..OO..",
"..ooooooooooooooXX###..##XXX......",
"..ooooooooooooooXX###..##XXX......",
"..ooooooooooooooXX###..##XXX......",
"..ooooooooooooooXX#######...OO..  ",
"..ooooooooooooooXX#######...OO..  ",
"..ooooooooooooooXXXXXXXXX...OO..  ",
"..ooooooooooooooXXXXXXXXX...OO..  ",
"...........oooXXXXXXXXXXX.......  ",
"...........oooXXXXXXXXXXX.......  ",
"...........oooXXXXXXXXXXX.......  ",
"       ..oooooooooXXXXX.....      ",
"       ..oooooooooXXXXX.....      ",
"       ..@@@@@@@@@+++XX..         ",
"       ..@@@@@@@@@+++XX..         ",
"       ..@@@@@@@@@+++XX.......    ",
"       ..@@@@@@@@@+++XX.......    ",
"       ..@@@@@@@@@+++XX.......    ",
"       ..@@@@@@@@@+++XXooooo..    ",
"       ..@@@@@@@@@+++XXooooo..    ",
"       ..oo+++++ooXXXXXXX.....    ",
"       ..oo+++++ooXXXXXXX.....    ",
"    ...ooooooooooooooXX.....      ",
"    ...ooooooooooooooXX.....      ",
"    ...ooooooooooooooXX.....      ",
"    ...ooXX.......oooXXXX...      ",
"    ...ooXX.......oooXXXX...      ",
"    .......       ..........      ",
"    .......       ..........      "
};
