/* XPM */
static char *_[] = {
/* columns rows colors chars-per-pixel */
"35 35 8 1 ",
"  c None",
". c #4A3B1F",
"X c #E5AB3D",
"o c #FDC760",
"O c #2379EA",
"+ c #D8B78F",
"@ c #FFD7A8",
"# c white",
/* pixels */
"   ............................    ",
"   ............................    ",
"   ............................    ",
"...ooooooooooooooooXXXXXXXXX.....  ",
"...ooooooooooooooooXXXXXXXXX.....  ",
"...ooXXXXXXXoooooXXXXXXXXXXX...OO..",
"...ooXXXXXXXoooooXXXXXXXXXXX...OO..",
".....ooooooo..oooXX#######XX...OO..",
".....ooooooo..oooXX#######XX...OO..",
".....ooooooo..oooXX#######XX...OO..",
"...ooooooooooooooXX##...##XX.......",
"...ooooooooooooooXX##...##XX.......",
"...ooooooooooooooXX#######..OOO..  ",
"...ooooooooooooooXX#######..OOO..  ",
"...ooooooooooooooXXXXXXXXX..OOO..  ",
"...ooooooooooooooXXXXXXXXX..OOO..  ",
"...ooooooooooooooXXXXXXXXX..OOO..  ",
"............ooXXXXXXXXXXXX.......  ",
"............ooXXXXXXXXXXXX.......  ",
"       ...oooooooooXXXXX....       ",
"       ...oooooooooXXXXX....       ",
"       ...@@@@@@@@@++XXX..         ",
"       ...@@@@@@@@@++XXX..         ",
"       ...@@@@@@@@@++XXX..         ",
"       ...@@@@@@@@@++XXX..         ",
"       ...@@@@@@@@@++XXX..         ",
"       ...@@@@@@@@@++XXXoo.....    ",
"       ...@@@@@@@@@++XXXoo.....    ",
"     .....oo+++++..ooXXXXXoo...    ",
"     .....oo+++++..ooXXXXXoo...    ",
"     .....oo+++++..ooXXXXXoo...    ",
"     ..oooooooooo..XXXXX.......    ",
"     ..oooooooooo..XXXXX.......    ",
"     ..oooXX..............         ",
"     ..oooXX..............         "
};
