/* XPM */
static char *power5[] = {
/* columns rows colors chars-per-pixel */
"45 38 108 2 ",
"   c None",
".  c #E34010",
"X  c #E14E12",
"o  c #E35213",
"O  c #EA5414",
"+  c #E25913",
"@  c #FF5D16",
"#  c #DE6C15",
"$  c #E36415",
"%  c #EC6217",
"&  c #E36E15",
"*  c #EA6E1B",
"=  c #F46B1B",
"-  c #FF6C1E",
";  c #E57315",
":  c #EB721C",
">  c #E7791E",
",  c #F2721F",
"<  c #F17B1C",
"1  c #FF7C22",
"2  c #EB8315",
"3  c #EE8B15",
"4  c #EB801B",
"5  c #ED8D1B",
"6  c #F3851E",
"7  c #EF951D",
"8  c #F19415",
"9  c #F49C15",
"0  c #F19719",
"q  c #F2A51E",
"w  c #F6AB19",
"e  c #F6B51D",
"r  c #F18322",
"t  c #FF8626",
"y  c #FC8D22",
"u  c #EC9221",
"i  c #EC9923",
"p  c #FC9427",
"a  c #FC9C24",
"s  c #F79D28",
"d  c #FF9E2B",
"f  c #FEA426",
"g  c #FFAA26",
"h  c #F6A62D",
"j  c #FFA52A",
"k  c #FFAA2C",
"l  c #F7B327",
"z  c #FEB727",
"x  c #FCBB26",
"c  c #F3B12B",
"v  c #FEB42D",
"b  c #FFAD33",
"n  c #FFB232",
"m  c #F5BB37",
"M  c #FFBC31",
"N  c #FFB63B",
"B  c #FFBC3C",
"V  c #F4C42C",
"C  c #FFC62C",
"Z  c #FFC929",
"A  c #FFD12E",
"S  c #F5C733",
"D  c #FFC333",
"F  c #FFCC34",
"G  c #FFC738",
"H  c #FFCC3D",
"J  c #FFD533",
"K  c #FFDC33",
"L  c #FFD539",
"P  c #FFDC3D",
"I  c #FEE335",
"U  c #FFEC34",
"Y  c #FFE53B",
"T  c #FFEC3F",
"R  c #FFF237",
"E  c #FFF63C",
"W  c #FFFE3D",
"Q  c #FFCD44",
"!  c #FACD4D",
"~  c #FFE446",
"^  c #FFEC42",
"/  c #FFE44C",
"(  c #FFEC4C",
")  c #FFF445",
"_  c #FFFC45",
"`  c #FFF44A",
"'  c #FFFC4D",
"]  c #FFEF53",
"[  c #FFF451",
"{  c #FFFE54",
"}  c #FFFE5C",
"|  c #FFDE61",
" . c #FFFE63",
".. c #FFFF6B",
"X. c #FFFF73",
"o. c #FFFF7B",
"O. c #FFFF84",
"+. c #FFFF8B",
"@. c #FFFF95",
"#. c #FFFF9A",
"$. c #FFFFA6",
"%. c #FFFFAA",
"&. c #FFFFB5",
"*. c #FFFFBB",
"=. c #FFFFC3",
"-. c #FFFFD3",
";. c #FFFFDB",
":. c #FFFFE3",
/* pixels */
"                                                                                          ",
"                                                                                          ",
"                                                                                          ",
"                                                                                          ",
"                                                                                          ",
"                                                                                          ",
"                                                                                          ",
"                                                                                          ",
"                                                                                          ",
"                                                          2 2 2 2                         ",
"          . . , d j L n t - @ O X X X                   2 2 2 2 2                         ",
"        p m m ! | | ] ~ H M M s * X X X 2 9             2 2 2 2 2                         ",
"      M G ' {  ..... ... .[ ) P h : X X 0 w 9           2 2 2 2 2                         ",
"    F P ' {  ... .} ..O.O.X.} { P D   o q e 9           2     2 2                         ",
"    _ ) ~ } o.+.+.+.%.O.+.#.X.{ ^ P F   o o                                               ",
"  M ( }  .O.o.@.$.$.*.@.o.O... .} [ T j % X                                               ",
"  P ` } X.O.@.$.%.%.;.%.+.+.o. .{ ' ` j 6 <                                               ",
"  E _ } o.+.$.&.*.%.;.=.&.$.O.} ' { ` d a y                                               ",
"  Y ) } O.%.$.*.-.=.*.-.-.&.o.[ {  .[ k a < o                                             ",
"  1 Q X.@.$.$.&.-.:.&.-.-.$.o... . .} )   % O                                             ",
"  - H  .o.@.*.*.%.%.&.*.=.&.o.X... .{ _ K 6 + &                                           ",
"  - b / ..+.&.*.%.@.*.$.#.$.O...} { ' J C l i &                                           ",
"  - t B } o.+.%.&.@.%.O.X.O.@. .' _ ` v z A I   &                                         ",
"    - d ^ ' } .... .{  .O.@.O.} ^ Y ' W C g a & &                                         ",
"      k F ) ^ [ } {  . ...o.X.B k a u v K J z   &                                         ",
"        r v v b N P ( ' ' {   L J Z V J c u 4 #                                           ",
"        o = y y y z F K I K   E R U I S > o + &                                           ",
"          X y f f a f f g z Z   Z Z x $ + +                 2 2 2                         ",
"                  o         Z Z Z Z x $ $ ;               2 2 2   2         9 9 9 9       ",
"                            5 5 5 7   & ; ;                 2 2 2 2                       ",
"                            ; ; ; ; ; ; ;                     2 2 2                       ",
"                              ;     ; ;                   2 3   2                         ",
"                                                  3 3 3       8                           ",
"                                                3 3 3   3     8 8                         ",
"                                                3 3 3 3 3     8 8                         ",
"                                                  3 3 3 3     8 8                         ",
"                                                    3 3                                   ",
"                                                                                          "
};
