/* XPM */
static char *power2[] = {
/* columns rows colors chars-per-pixel */
"45 38 118 2 ",
"   c None",
".  c #E62E0E",
"X  c #E6310E",
"o  c #E34210",
"O  c #E24B12",
"+  c #F04612",
"@  c #E05513",
"#  c #EB5014",
"$  c #E25B14",
"%  c #E65D19",
"&  c #E46413",
"*  c #ED641C",
"=  c #E76A18",
"-  c #EB6C18",
";  c #FC661E",
":  c #E57415",
">  c #E97414",
",  c #E77A17",
"<  c #EA731B",
"1  c #ED7A1B",
"2  c #F07E17",
"3  c #FC771F",
"4  c #F37A1E",
"5  c #F67721",
"6  c #FD7521",
"7  c #FC7E21",
"8  c #E68614",
"9  c #EB8416",
"0  c #ED8B15",
"q  c #EC841A",
"w  c #EB8B1A",
"e  c #F98819",
"r  c #EE931C",
"t  c #EE9B1E",
"y  c #F19415",
"u  c #F59D15",
"i  c #F3911F",
"p  c #F29D1F",
"a  c #F0A01E",
"s  c #F2A91F",
"d  c #FF8625",
"f  c #F98826",
"g  c #F18C28",
"h  c #F49620",
"j  c #F69C22",
"k  c #FB9D20",
"l  c #FF9B2F",
"z  c #FF9833",
"x  c #FEA323",
"c  c #F4AB20",
"v  c #F9AB24",
"b  c #F4A429",
"n  c #FBA32C",
"m  c #F7AB2C",
"M  c #FEAC2D",
"N  c #F3B221",
"B  c #FCBB25",
"V  c #F6B32F",
"C  c #FBB52A",
"Z  c #FFB92C",
"A  c #FFAB30",
"S  c #FEB333",
"D  c #FEBA35",
"F  c #FFB63D",
"G  c #FFBA3C",
"H  c #F7C024",
"J  c #F9C425",
"K  c #FBCD27",
"L  c #FDCA2C",
"P  c #FCD72E",
"I  c #FEDB2D",
"U  c #FFC135",
"Y  c #FCCC33",
"T  c #FDC53C",
"R  c #FFCD3B",
"E  c #FFD034",
"W  c #FFD63D",
"Q  c #FFDB3C",
"!  c #FFE02B",
"~  c #FFF12D",
"^  c #FFE33D",
"/  c #FFE93C",
"(  c #FFFC3A",
")  c #FCCE44",
"_  c #FFDE43",
"`  c #FFD249",
"'  c #F9DB48",
"]  c #FFDC53",
"[  c #FFE341",
"{  c #FFED43",
"}  c #FFE649",
"|  c #FEEC4B",
" . c #FEF345",
".. c #FFFE46",
"X. c #FFF34A",
"o. c #FFFD4C",
"O. c #FCEA53",
"+. c #FEEC5F",
"@. c #FFF353",
"#. c #FFF25D",
"$. c #FFFD5C",
"%. c #FFF060",
"&. c #FFFE64",
"*. c #FFFF6C",
"=. c #FFF475",
"-. c #FFFE74",
";. c #FFF67D",
":. c #FFFF7C",
">. c #FFFF84",
",. c #FFF08B",
"<. c #FFFF8E",
"1. c #FFFF92",
"2. c #FFFF98",
"3. c #FFFFA5",
"4. c #FFFFA9",
"5. c #FFFFB1",
"6. c #FFFFB9",
"7. c #FFFFC2",
/* pixels */
"                                                                                          ",
"                                                        0 0                               ",
"                                                      0 0 0 0                             ",
"                                                      0 8 0 0 0                           ",
"                                                      0   0 0 0                           ",
"                                                        0 0 0                             ",
"                                                                                          ",
"                            @ @ @ @                                                       ",
"                            @ @ @ @ @                                                     ",
"                      , p v $       @ @                                                   ",
"            O O - Z Z P L x k = @ @ @ @ @ > u                                             ",
"          7 b j n [ } X.{ L x < $ @ @   @ &                                               ",
"        D F [ _ ] *.-.*.@./ Z i = @ @   @ @                                               ",
"      U W $.@.&.:.<.<.>.*.@.[ Z 1 @ @   @ @                                               ",
"    M R @.$...o.&.<.1.2.1.>.*.W 4 o @ @ @ @                                               ",
"  + n W | *.*.:.>.-.2.2.1.>.-.@.g # 4 $                                                   ",
"  7 S ^ X.-.#.;.2.<.1.2.1.>.<.-.) m C =                                                   ",
"  D R ^ X.:.+.=.1.3.2.3.2.<.2.:.$./ Y                                                     ",
"  W ^ Q ) >.<.-.-.2.5.6.5.2.:.-.@.W M $                                                   ",
"  W { Q G :.<.>.<.6.1.3.4.1.1.>.*.` 3 @ O                                                 ",
"  D [ R z -.2.<.<.6.3.5.3.:.:.2.<.%.T % 1 q = = = c                                       ",
"  A _ _ G -.<.<.<.4.1.4.4.1.-.2.>.$.| 1 j j , t : w t                                     ",
"  f T { X.:.:.<.1.<.:.2.5.5.<.<.*.@. .s p h   J w : : w :                                 ",
"  X 5 T @.*.>.2.2.>.6.7.5.3.1.>.:.*...~ q $ = : e 2 t K ,                                 ",
"    ; n o.-.>.3.4.3.5.6.4.1.1.-.-.*...( L r , J q : , , :                 y               ",
"      d S @.$.>.3.3.1.3.2.:.>.$.@.' b I ! H t I q r t = :                 y               ",
"        6 V ^ $.>.2.-.<.:.&.-.@./ C q c B N w N t c p : :             y   y               ",
"          . Y  .+.,.*.&.$.o.&.O.D x B 0 9 : = = J a : :                 y y               ",
"              % * l X.o.o. .E < > 9 9 9                                                   ",
"                                                                                          ",
"                                                                                          ",
"                                                                                          ",
"                                                                  u                       ",
"                                                                  u u u                   ",
"                                                                                          ",
"                                                                                          ",
"                                                                                          ",
"                                                                                          "
};
