/* XPM */
static char *power0[] = {
/* columns rows colors chars-per-pixel */
"45 38 121 2 ",
"   c None",
".  c #DF5C14",
"X  c #E44E13",
"o  c #E05513",
"O  c #E85716",
"+  c #E45D15",
"@  c #E95B17",
"#  c #FB5314",
"$  c #F55D17",
"%  c #C76F16",
"&  c #C96815",
"*  c #E26416",
"=  c #E46B15",
"-  c #EE6F16",
";  c #EC6C1A",
":  c #FF601C",
">  c #E57315",
",  c #E87215",
"<  c #E77815",
"1  c #E87A15",
"2  c #E6751A",
"3  c #E97E1A",
"4  c #FC7F1B",
"5  c #FF7F20",
"6  c #EB8216",
"7  c #EE8B15",
"8  c #E7831C",
"9  c #EA841A",
"0  c #EB8E1A",
"q  c #F28F16",
"w  c #F0871E",
"e  c #F7891F",
"r  c #EE921D",
"t  c #FB961C",
"y  c #EFA41D",
"u  c #F18B21",
"i  c #FD8C23",
"p  c #EE9921",
"a  c #F49522",
"s  c #FC9423",
"d  c #F59C23",
"f  c #FF9F27",
"g  c #FF9029",
"h  c #EDA222",
"j  c #FDA026",
"k  c #F5A229",
"l  c #FFA429",
"z  c #FFAB2B",
"x  c #ECB123",
"c  c #F5B123",
"v  c #FFB524",
"b  c #FABE25",
"n  c #FEB52B",
"m  c #F1BA2B",
"M  c #FFBC2B",
"N  c #FFA836",
"B  c #FFAA3E",
"V  c #FFBC34",
"C  c #F6C723",
"Z  c #F8C527",
"A  c #FDCF24",
"S  c #F6C229",
"D  c #FCC32C",
"F  c #FDCC2B",
"G  c #FFD32D",
"H  c #FEDA2F",
"J  c #FFC434",
"K  c #FECB33",
"L  c #FFC73A",
"P  c #FFCE3F",
"I  c #FDD533",
"U  c #FEDD33",
"Y  c #FFD33C",
"T  c #FFDD3C",
"R  c #FCE427",
"E  c #FCE52B",
"W  c #FFE82B",
"Q  c #FFE737",
"!  c #FFE43E",
"~  c #FEEC3F",
"^  c #FFF832",
"/  c #FFF43A",
"(  c #FFFC3C",
")  c #F5C146",
"_  c #FFC144",
"`  c #FFC64B",
"'  c #FCD344",
"]  c #FDC250",
"[  c #FFCD50",
"{  c #FFE444",
"}  c #FFED44",
"|  c #FFE54A",
" . c #FFEC49",
".. c #FFF541",
"X. c #FFFC45",
"o. c #FFF44B",
"O. c #FFFE4D",
"+. c #FFE250",
"@. c #FFEE51",
"#. c #FFE75B",
"$. c #FFF653",
"%. c #FFFD54",
"&. c #FFF458",
"*. c #FFFE5C",
"=. c #FFF366",
"-. c #FFFF63",
";. c #FFFE6B",
":. c #FFFF73",
">. c #FFFF7B",
",. c #FFFF84",
"<. c #FFFE8B",
"1. c #FFFF91",
"2. c #FFFD9E",
"3. c #FFFFA3",
"4. c #FFFFAF",
"5. c #FFFFB0",
"6. c #FFFFBB",
"7. c #FFFFC1",
"8. c #FFFFCD",
"9. c #FFFFD1",
"0. c #FFFFD9",
/* pixels */
"                                                                                          ",
"                                                                                          ",
"                                                                                          ",
"                                                                                          ",
"                                                                                          ",
"                                                                                          ",
"                          o o o o o o                 < <                                 ",
"                      a d w w =   o o o             < < < <                               ",
"                    + a n n n     o o o o         < < <     <                             ",
"            X X ; j @ a M M M 2 . o o o o o     <     <       <                           ",
"        O M n K ~ } K ! ../ / 8 . o o   o o     <       <     <                           ",
"      i k T K { %.%.=.%.X.( ( S 3 o o   o o       <       > >                             ",
"    f n T ! { &.;.;.>.>.>.;.%./ p o o   o o         <     <                               ",
"    J ! X.{ %.;.:.>.,.4.7.6.,.%.k o o o o             < <                                 ",
"  5 P O.O.%.-.:.>.:.6.5.7.0.8.:.N $ o o                                                   ",
"  V | *.-.>.>.,.1.3.7.7.6.4.6.;.T z e q                                                   ",
"  ! $.-.-.;.<.1.1.2.7.8.6.3.,.+.V z n 6 = .                                               ",
"  X.*.-.-.:.2.2.1.2.5.7.7.4.;.' z z K * . . .                                             ",
"  O.%.%.*.5.5.1.1.4.4.4.5.4.<.+.Y K D @ o . . .         7                                 ",
"  Y @.*.:.7.5.1.<.1.9.8.3.;. .&.{ n i s ; .   .       7 7                                 ",
"  V { %.;.4.2.1.1.3.6.3.,.-.;.:.` l n ; +   . . .     7 7 7 7                             ",
"  g Y { [ 2.<.1.3.5.1.<.,.:.>.;._ z I u d 9 = r r 9 1 6 7 7 7                             ",
"  : L Y B <.>.1.4.3.:.,.,.:.;.*.Y D Q U G d 2 F b r > >   7                               ",
"    T } O.O.;.,.<.;.*.:.:.*.*.-. .Q ( ( ( m 2 F 9 > >   >                                 ",
"      ! { { *.;.:.>.>.:.:.-.%.} o. .H ( F D F 4   > > > >                                 ",
"        T T $.*.;.>.:.;.-.%.! K Y T G U H Q U - , > > > >                                 ",
"          T o.*.#.] ) ) ' / K d h x c G G Q Q y < > > > >                                 ",
"                  # X X       * & % 8 E v M Q R 0 > > >                                   ",
"                                Z F F ( ( F t 7                                           ",
"                                0 r     ^ W A                                             ",
"                                        y C                                               ",
"                                      = =                                                 ",
"                                                                                          ",
"                                                                                          ",
"                                                                                          ",
"                                                                                          ",
"                                                                                          ",
"                                                                                          "
};
