/* XPM */
static char *power4[] = {
/* columns rows colors chars-per-pixel */
"45 38 129 2 ",
"   c None",
".  c #E6310E",
"X  c #EB3F12",
"o  c #C65913",
"O  c #CA5B13",
"+  c #DF5914",
"@  c #E24711",
"#  c #E54B11",
"$  c #E35312",
"%  c #F15A17",
"&  c #D66114",
"*  c #D96214",
"=  c #E06515",
"-  c #EC6315",
";  c #E26B15",
":  c #EA6E17",
">  c #E46B18",
",  c #E96A18",
"<  c #F3601C",
"1  c #F56A1B",
"2  c #FA6E1D",
"3  c #E67416",
"4  c #E77915",
"5  c #E87D15",
"6  c #E77718",
"7  c #E77E18",
"8  c #FE751F",
"9  c #FF7D1E",
"0  c #F37F22",
"q  c #FF7E21",
"w  c #EA8115",
"e  c #EE8B15",
"r  c #ED8518",
"t  c #F3871A",
"y  c #ED931C",
"u  c #EE9C1D",
"i  c #F39915",
"p  c #F4951E",
"a  c #F59F1C",
"s  c #F4A01A",
"d  c #FCA41F",
"f  c #F7B71F",
"g  c #F08E24",
"h  c #FF8E22",
"j  c #FF9424",
"k  c #F29921",
"l  c #FF9629",
"z  c #FE9C2A",
"x  c #EFA525",
"c  c #FEA325",
"v  c #F6AD22",
"b  c #F4A229",
"n  c #FDA22C",
"m  c #FFAA2B",
"M  c #F4B722",
"N  c #FCB022",
"B  c #FBB926",
"V  c #F1B429",
"C  c #FFB52B",
"Z  c #F7BC2D",
"A  c #FAB92B",
"S  c #F6A630",
"D  c #FFA331",
"F  c #FFAA3C",
"G  c #FFB132",
"H  c #FBBE32",
"J  c #F7BA3B",
"K  c #F7C024",
"L  c #FBC625",
"P  c #FFC825",
"I  c #FEC72C",
"U  c #FFCB29",
"Y  c #FBD226",
"T  c #FCD228",
"R  c #FEC932",
"E  c #FFC13B",
"W  c #FFCA3B",
"Q  c #FFD334",
"!  c #FDDC32",
"~  c #FFD33B",
"^  c #FEDC3E",
"/  c #FFE32A",
"(  c #FFF22B",
")  c #FFF92E",
"_  c #FFE432",
"`  c #FFED37",
"'  c #FFE53B",
"]  c #FEED3C",
"[  c #FFF035",
"{  c #FFFF30",
"}  c #FDF33B",
"|  c #FFFE3F",
" . c #F7A746",
".. c #FFB442",
"X. c #FFD643",
"o. c #FFDD44",
"O. c #FFDE48",
"+. c #FFD654",
"@. c #FBDC57",
"#. c #FFE444",
"$. c #FFEC43",
"%. c #FFF443",
"&. c #FFFD44",
"*. c #FFF44B",
"=. c #FFFD4C",
"-. c #FFE751",
";. c #FFEE53",
":. c #FFFD54",
">. c #FFF659",
",. c #FFFE5C",
"<. c #FFD960",
"1. c #FFEC61",
"2. c #FFEB69",
"3. c #FFF260",
"4. c #FFFE63",
"5. c #FFFF6B",
"6. c #FFFF74",
"7. c #FFFF7B",
"8. c #FFFF83",
"9. c #FFFF8C",
"0. c #FFFF93",
"q. c #FFFF9B",
"w. c #FFFFA7",
"e. c #FFFFA8",
"r. c #FFFFB0",
"t. c #FFFFB9",
"y. c #FFFFC0",
"u. c #FFFFCE",
"i. c #FFFFDF",
/* pixels */
"                                                                                          ",
"                                                                                          ",
"                                                        e e                               ",
"                                                        e e e                             ",
"                                                      e e e e e                           ",
"                                                      e e e e e                           ",
"                                                        e e e                             ",
"                                                                                          ",
"                                                                                          ",
"                                                                                          ",
"                . .         5 5 5 5         = =                                           ",
"          8 l n S J *.&.] A $ t r 5 4 ; = = = = = =                                       ",
"        0 m E o.#.X.$.*.*.^ g N t ; 4 ; = = = = = = =                                     ",
"    X < D %.,.,.-...O.>.4.,.&._ p - 5       * = = = =                                     ",
"    8 F 4.4.7.7.7.9.7.5.4.4.:.&._ f 4 ; = o   = = = =                                     ",
"  .  .1.4.,.6.7.8.0.q.8.4.:.6.=.| Z # = O     = = = =                                     ",
"  b @.4.,.8.9.q.r.t.e.0.7.4.5.:.%.H % = &     = = = =                                     ",
"  =.4.4.,.0.w.e.r.u.w.w.0.6.4.:.*.~ z > = =   =   =                                       ",
"  ,.5.6.6.8.t.w.8.q.9.r.e.7.5.,.:.=.&.  = = = = =                                         ",
"  :.4.7.8.6.w.e.r.u.r.i.u.0.8.,.#.^ } h                                                   ",
"  W 2.8.7.8.e.q.0.t.t.u.y.q.9.4.*.' Q 9 -                                                 ",
"  z <.7.6.7.e.0.6.8.q.u.y.q.7.4.:.$.R c : $                                               ",
"  q +.5.6.5.w.q.7.6.9.y.y.0.5.,.:.$.Q / y ;   ;                                           ",
"    %.:.7.0.r.y.u.i.i.q.7.8.7.=.' Q Q / U k ; ; ; ; ;                                     ",
"    j E :.-.6.9.0.9.6.5.6.6.5.X.' } [ U _ V ; ;   ; ;   w     w w                         ",
"      z G n F +.4.5.:.4.5.3.E R Q R x ! }         ; ; ; w w w w w                         ",
"        8 1 2 D o.:.:.:.;.X.C A R A r _           6 ; ; w w w w w                         ",
"          @ 2 q n ] &.] I m ` c I _ B L   } | | I t 3   w w w w w                         ",
"                  >   c j j   = k v 3 3 K ( { | ) L d     w w w                           ",
"                    + = , = + + r s     r M / _ P a r                                     ",
"                      + + + + 3 5 w     u K T v d r 4                                     ",
"                              i 5 ; ; ; L / Y 4   4                                       ",
"                                ; ;     / / /   4                                         ",
"                                      ; 7 y                                               ",
"                                                                                          ",
"                                                                                          ",
"                                                                                          ",
"                                                                                          "
};
