/* XPM */
static char *power8[] = {
/* columns rows colors chars-per-pixel */
"45 38 118 2 ",
"   c None",
".  c #E5350F",
"X  c #AD5410",
"o  c #CA400F",
"O  c #DE5113",
"+  c #E24711",
"@  c #EA4613",
"#  c #EB4D16",
"$  c #E15413",
"%  c #E85214",
"&  c #E35C15",
"*  c #ED5A19",
"=  c #C16112",
"-  c #CB6413",
";  c #DA6A14",
":  c #E46315",
">  c #E36E15",
",  c #EA6D19",
"<  c #F16B1D",
"1  c #FF691E",
"2  c #E57315",
"3  c #E77815",
"4  c #E87C15",
"5  c #EA721B",
"6  c #FB761E",
"7  c #F37D1D",
"8  c #EF7720",
"9  c #EF7925",
"0  c #FF7320",
"q  c #FA7B20",
"w  c #D18B1A",
"e  c #EC8515",
"r  c #EF8E15",
"t  c #EC841D",
"y  c #E98F1A",
"u  c #EF9F1D",
"i  c #F09015",
"p  c #F49C15",
"a  c #F0981C",
"s  c #EEA01B",
"d  c #F6A215",
"f  c #F38022",
"g  c #FF8824",
"h  c #FF8D28",
"j  c #EF9A21",
"k  c #F59426",
"l  c #FC9222",
"z  c #F39E26",
"x  c #FF9B25",
"c  c #EFA321",
"v  c #FFA427",
"b  c #F3A827",
"n  c #FCA32C",
"m  c #F6AF2A",
"M  c #FFAD2D",
"N  c #ECB322",
"B  c #F4B42D",
"V  c #FEB32D",
"C  c #F2A736",
"Z  c #F7AE33",
"A  c #F8AF36",
"S  c #FFB331",
"D  c #FDBA32",
"F  c #FFBA3D",
"G  c #FCC325",
"H  c #FECB27",
"J  c #F7CC2E",
"K  c #FDCC2A",
"L  c #FAD722",
"P  c #F5C333",
"I  c #FFC435",
"U  c #F8C930",
"Y  c #FFCA3D",
"T  c #FFD432",
"R  c #FFDD35",
"E  c #FED33C",
"W  c #FFDC3C",
"Q  c #FBE425",
"!  c #FFE730",
"~  c #FFE33C",
"^  c #FFEC3F",
"/  c #FFB940",
"(  c #FFC64A",
")  c #FDD543",
"_  c #FEDE41",
"`  c #FFD34C",
"'  c #FFD457",
"]  c #FFDC55",
"[  c #FFDD5A",
"{  c #FFE343",
"}  c #FFEB45",
"|  c #FFE34C",
" . c #F7F043",
".. c #FFF44A",
"X. c #FFFE4D",
"o. c #FFF453",
"O. c #FFFF55",
"+. c #FFF55C",
"@. c #FFFF5C",
"#. c #FFEC61",
"$. c #FFF663",
"%. c #FFFF63",
"&. c #FFF56A",
"*. c #FFFF6B",
"=. c #FFFF73",
"-. c #FFFF7B",
";. c #FFFF84",
":. c #FFFF8D",
">. c #FFFF93",
",. c #FFFF9D",
"<. c #FFFFA9",
"1. c #FFFFB1",
"2. c #FFFFBB",
"3. c #FFFFC0",
"4. c #FFFFCC",
"5. c #FFFFD2",
"6. c #FFFFDB",
"7. c #FFFFEB",
/* pixels */
"                                                                                          ",
"                                                                                          ",
"                                                                                          ",
"                                                                            p p           ",
"                                                                          p p             ",
"                                                                                          ",
"                                                3 3 3 3 3                                 ",
"                . . .                           3 3 3 3 3 3                               ",
"              < * * * f                         3 3 3   3 3 3                             ",
"          g n M S S S I M q + + + +             3 3 3 3 3 3                               ",
"        ~ W S I W W W } ..E 6 % + + +           3 3   3                                   ",
"      I ^ ^ | #.&.+.+.%.@...` P j + + +           3 3 3                                   ",
"    n ) o.o.*.;.>.:.:.-.=.=.-.X.P   + +             3                                     ",
"  @ Z +.-.=.>.,.<.1.2.,.,.<.>.*.C &   + o                                                 ",
"  1 ( =.:.-.<.<.>.;.3.3.2.1.-.;.] k + + + +               e e   e   r r r                 ",
"  h ' ;.>.>.2.<.>.2.4.2.,.-.-.-.$._ m $ + +             e e e e e e r r r r               ",
"  M ] -.>.>.,.>.<.5.3.4.1.:.=.=.%.} V z 5           2 2 4 e e e     r r r r               ",
"  D | =.>.>.;.:.<.4.3.6.4.>.*.=.%.W v T b         2 2 2 2 4 e e       r r r               ",
"  M | *.;.>.:.>.<.2.6.7.2.=.%.-.@.~ M T t $     2     2   2 4 e                           ",
"  0 Y O.@.-.;.1.3.:.2.,.>.>.%.%.%.o.T v , $     2 2 2   2 2 2                             ",
"    D { @.=.;.,.1.<.>.,.<.>.*.=.@.{ M x , $     2 - = 2 2 2 2                       d d   ",
"    8 A @.*.-.;.,.2.>.<.>.=.*.=.@.W l 7 : &     u w   2 2 2 2                       d d d ",
"      9 ) o.*.=.;.<.>.:.=.O.=.*.@._ l & & : > > N N     2 2                         d d   ",
"        # E &.*.*.=.O.@.=.-.@.=.@.R l & : > > > X - 2 2                                   ",
"            F [ =.%.O.*.-.=.O.@.X.J :   > > > > ; ;   >                                   ",
"              / ` O.X.o.o.X.~ ~ U c     > > > > >     >                                   ",
"                V  .P B K ! K K a 4     s y > >       >                                   ",
"                    O $ t H G   4 4   p L Q   > > > >                                     ",
"                            e 4         d r > > > > >                                     ",
"                                        p i                                               ",
"                                                                                          ",
"                                                                                          ",
"                                                                                          ",
"                                                                                          ",
"                                                                                          ",
"                                                                                          ",
"                                                                                          ",
"                                                                                          "
};
