/* XPM */
static char *power3[] = {
/* columns rows colors chars-per-pixel */
"45 38 119 2 ",
"   c None",
".  c #96480E",
"X  c #DF5C14",
"o  c #E14E12",
"O  c #E25313",
"+  c #E45B15",
"@  c #D56714",
"#  c #DE6115",
"$  c #D76814",
"%  c #E06515",
"&  c #E36E15",
"*  c #EA6618",
"=  c #F16519",
"-  c #FC6F1E",
";  c #E57616",
":  c #E67A16",
">  c #E67419",
",  c #ED711A",
"<  c #F27219",
"1  c #FF741F",
"2  c #F97C1D",
"3  c #FF7820",
"4  c #FF7928",
"5  c #EC8515",
"6  c #EE8D15",
"7  c #E68519",
"8  c #EA801B",
"9  c #EC8B1D",
"0  c #F0821D",
"q  c #F18C1E",
"w  c #F09416",
"e  c #F39815",
"r  c #F4B31C",
"t  c #F8B71A",
"y  c #F5BE1E",
"u  c #F28E21",
"i  c #FB8A24",
"p  c #EA9622",
"a  c #EF9C21",
"s  c #EE952A",
"d  c #F49621",
"f  c #FC9226",
"g  c #F29C24",
"h  c #FC9A24",
"j  c #FBA424",
"k  c #F4AD21",
"l  c #F9AB25",
"z  c #F3A528",
"x  c #FFA12B",
"c  c #F3AC29",
"v  c #FEAF2B",
"b  c #F7B221",
"n  c #F4B429",
"m  c #FEB628",
"M  c #F3BA2A",
"N  c #FCBE2E",
"B  c #FFAF30",
"V  c #FEB43C",
"C  c #FFBD3D",
"Z  c #F4C322",
"A  c #FAC224",
"S  c #FBCA25",
"D  c #F6C22C",
"F  c #FFC52A",
"G  c #FFCD2F",
"H  c #FDD026",
"J  c #FDDB26",
"K  c #FFD52F",
"L  c #FADD2E",
"P  c #FEC132",
"I  c #FFCF35",
"U  c #FFC138",
"Y  c #FCDC34",
"T  c #FFD63B",
"R  c #FFDB3E",
"E  c #FCE926",
"W  c #FFFD2A",
"Q  c #FFE232",
"!  c #FFE836",
"~  c #FEE23B",
"^  c #FEEA3D",
"/  c #FFF637",
"(  c #FFFA32",
")  c #FFFE3D",
"_  c #FFB346",
"`  c #FFCB44",
"'  c #FFCB4F",
"]  c #FFD345",
"[  c #FFDC4A",
"{  c #FFCE50",
"}  c #FFDF52",
"|  c #FFDA59",
" . c #FFE542",
".. c #FFEA43",
"X. c #FFE749",
"o. c #FFEB4A",
"O. c #FEF442",
"+. c #FFFD45",
"@. c #FFF54B",
"#. c #FFFD4C",
"$. c #FFEC5E",
"%. c #FFF653",
"&. c #FFFF55",
"*. c #FFFF5A",
"=. c #FFED67",
"-. c #FFF162",
";. c #FFFF65",
":. c #FFFF6B",
">. c #FFFF73",
",. c #FFFF7D",
"<. c #FFFF83",
"1. c #FFFF8A",
"2. c #FFFF91",
"3. c #FFFF9F",
"4. c #FFFFA0",
"5. c #FFFFAE",
"6. c #FFFFB1",
"7. c #FFFFBD",
"8. c #FFFFC2",
/* pixels */
"                                                                                          ",
"                                                                                          ",
"                                                                                          ",
"                                                                                          ",
"                                                                                          ",
"                                        & & $ .                                           ",
"                                      & & &   @ &                                         ",
"                                    & & & &   & &                                         ",
"                                    & & & &   & &                                         ",
"                                    &   & & & & &                                         ",
"                  # # # # # # 5 6 6   & & & & & &                                         ",
"          3 f I Y c g z u < k j b A S ; & & & &                                           ",
"        T V U  .#. .T  .` V ^ T K J S & % % & &                                           ",
"       .o.*.&.*.;.*.&.*.:.:.&.&.^ H b + o o                                               ",
"    T X.*.#.&.;.>.>.<.:.:.;.) &...k O o o o                                               ",
"  B } ;.*.*.*.>.1.2.<.1.2.1.:.o.~   o o o o o                                             ",
"  R -.:.*.:.>.<.2.2.4.4.3.1.<.` x = o o o o o                                             ",
"  &.:.:.&.:.<.2.1.<.6.5.3.1.<.` v f * O o o o                                             ",
"  *.*.*.*.>.3.<.;.:.2.3.3.2.,.%.+.~ h + O O o                                             ",
"  *.@.@.:.2.1.:.&.:.>.1.4.3.&.*.#.^ v + < 2                                               ",
"  *.*.;.,.3.<.>.,.2.1.1.4.7.2.>.o.P j D m d % % %                                         ",
"  &.*.;.:.1.<.<.1.2.2.2.5.8.6.<.$.] P M g q 9 5 & %                                       ",
"  ..%.&.&.,.1.1.<.,.1.4.5.5.4.,.>.;.O.p > q b t : % %                                     ",
"  x [ ;.>.>.>.;.;.2.1.2.3.1.<.>.:.*.) ) G m F W   % %                                     ",
"     .%.:.:.:.;.;.,.1.5.5.2.>.,.;.&.&.) G m l 7   # %     5     5 5                       ",
"      C _ :.:.:.>.1.<.1.1.,.>.,.;.*.&.) ! n 8 % # # %     5 5 5 6 y r 6                   ",
"        4 ' { | =.>.:.;.;.:.<.;.&.#.+.+.) M % % % %       5 5 5 6 E y 6 6                 ",
"          1 - i N / O.+.&.>.1.#.) ) ) #.^ n % % &         5 5 5 6 J r 6 6                 ",
"            o o , F v Q +.*.+.#.*.*.#.Y 9 &     e           5 5 5 w w 6                   ",
"                    q A M s F @.#.O.Y 9 >                                                 ",
"                      b 9 + 0 ~ ) L a &                                                   ",
"                          O O Y ( Z X                                                     ",
"                                                                                          ",
"                                                                                          ",
"                                                                                          ",
"                                                                                          ",
"                                                                                          ",
"                                                                                          "
};
