/* XPM */
static char *death2[] = {
/* columns rows colors chars-per-pixel */
"37 40 8 1 ",
"  c None",
". c #382121",
"X c #A04345",
"o c #BC4D4F",
"O c #4B9A27",
"+ c #D8B78F",
"@ c #FFD7A8",
"# c white",
/* pixels */
"                                     ",
"                                     ",
"              ..................     ",
"              ..................     ",
"       .......XXXXoooooooooooooo..   ",
"       .......XXXXoooooooooooooo..   ",
"       .......XXXXoooooooooooooo..   ",
"     ....XXX......XXooooXXXXXXoo..   ",
"     ....XXX......XXooooXXXXXXoo..   ",
"   ..OO.....######..oo..oooooo....   ",
"   ..OO.....######..oo..oooooo....   ",
"   ..OO.....######..oooooooooooo..   ",
"   ..OO.....######..oooooooooooo..   ",
"   .........######..oooooooooooo..   ",
"   .........######..oooooooooooo..   ",
"     ..OO.....##..oooooooooooooo..   ",
"     ..OO.....##..oooooooooooooo..   ",
"     ..OO.....##..XXoooooooo......   ",
"     ..OO.....##..XXoooooooo......   ",
"     .......XX..XXXXXXoo....         ",
"     .......XX..XXXXXXoo....         ",
"       ..ooo++@@@@@@@@..             ",
"       ..ooo++@@@@@@@@..             ",
"         ...XX++@@@@@@@@..           ",
"         ...XX++@@@@@@@@..           ",
"     ....oooXX++@@@@@@@@....         ",
"     ....oooXX++@@@@@@@@....         ",
"     ..ooXXXXXXXoo++++oooo..         ",
"     ..ooXXXXXXXoo++++oooo..         ",
"     .......XXoooo..ooXXXX..         ",
"     .......XXoooo..ooXXXX..         ",
"     .......XXoooo..ooXXXX..         ",
"         ...XXoo..........           ",
"         ...XXoo..........           ",
"         ...XX..                     ",
"         ...XX..                     ",
"         .....                       ",
"         .....                       ",
"                                     ",
"                                     "
};
