/* XPM */
static char *death0[] = {
/* columns rows colors chars-per-pixel */
"37 40 8 1 ",
"  c None",
". c #382121",
"X c #A04345",
"o c #BC4D4F",
"O c #4B9A27",
"+ c #D8B78F",
"@ c #FFD7A8",
"# c white",
/* pixels */
"                                     ",
"              ...................    ",
"              ...................    ",
"        ......XXXXooooooooooooooo..  ",
"        ......XXXXooooooooooooooo..  ",
"     .....XX......XXooooXXXXXXooo..  ",
"     .....XX......XXooooXXXXXXooo..  ",
"     .....XX......XXooooXXXXXXooo..  ",
"   ..OOO....######..oo..oooooo.....  ",
"   ..OOO....######..oo..oooooo.....  ",
"   ..OOO....######..ooooooooooooo..  ",
"   ..OOO....######..ooooooooooooo..  ",
"   .........######..ooooooooooooo..  ",
"   .........######..ooooooooooooo..  ",
"     ...OO....##..ooooooooooooooo..  ",
"     ...OO....##..ooooooooooooooo..  ",
"     ...OO....##..XXoooooooo.......  ",
"     ...OO....##..XXoooooooo.......  ",
"     .......XX..XXXXXXoo....         ",
"     .......XX..XXXXXXoo....         ",
"     .....XXXXoooooooo..             ",
"     .....XXXXoooooooo..             ",
"        ..XX++@@@@@@@@..             ",
"        ..XX++@@@@@@@@..             ",
"        ..XX++@@@@@@@@..             ",
"        ..XX++@@@@@@@@..             ",
"   .....ooXX++@@@@@@@@....           ",
"   .....ooXX++@@@@@@@@....           ",
"   ..oooXXXXXXoo++++oooo..           ",
"   ..oooXXXXXXoo++++oooo..           ",
"   .......XXooooooooXXXX..           ",
"   .......XXooooooooXXXX..           ",
"   .......XXooooooooXXXX..           ",
"        ..XXoo..........             ",
"        ..XXoo..........             ",
"        ..XX..                       ",
"        ..XX..                       ",
"        ....                         ",
"        ....                         ",
"                                     "
};
