/* XPM */
static char *_[] = {
/* columns rows colors chars-per-pixel */
"35 40 8 1 ",
"  c None",
". c #4A3B1F",
"X c #E5AB3D",
"o c #FDC760",
"O c #2379EA",
"+ c #D8B78F",
"@ c #FFD7A8",
"# c white",
/* pixels */
"                                   ",
"     ............................  ",
"     ............................  ",
"  .....XXXXXXXXXooooooooooooooooo..",
"  .....XXXXXXXXXooooooooooooooooo..",
"..OOO..XXXXXXXXXXXXooooXXXXXXXooo..",
"..OOO..XXXXXXXXXXXXooooXXXXXXXooo..",
"..OOO..XXXXXXXXXXXXooooXXXXXXXooo..",
"..OOO..XX#######XXXoo..ooooooo.....",
"..OOO..XX#######XXXoo..ooooooo.....",
".......XX###..##XXXoooooooooooooo..",
".......XX###..##XXXoooooooooooooo..",
"  ...OO..#######XXXoooooooooooooo..",
"  ...OO..#######XXXoooooooooooooo..",
"  ...OO..#######XXXoooooooooooooo..",
"  ...OO..XXXXXXXXXXoooooooooooooo..",
"  ...OO..XXXXXXXXXXoooooooooooooo..",
"  .......XXXXXXXXXXXXoo............",
"  .......XXXXXXXXXXXXoo............",
"       .....XXXXoooooooooo..       ",
"       .....XXXXoooooooooo..       ",
"       .....XXXXoooooooooo..       ",
"     ..  ...XX++@@@@@@@@@@..       ",
"     ..  ...XX++@@@@@@@@@@..       ",
"     .......XX++@@@@@@@@@@..       ",
"     .......XX++@@@@@@@@@@..       ",
"     ..oooooXX++@@@@@@@@@@..       ",
"     ..oooooXX++@@@@@@@@@@..       ",
"     ..oooooXX++@@@@@@@@@@..       ",
"     ....XXXXXXXooo++++ooo..       ",
"     ....XXXXXXXooo++++ooo..       ",
"       .....XXoooooooooooo..       ",
"       .....XXoooooooooooo..       ",
"         ...XXoo.....XXooo..       ",
"         ...XXoo.....XXooo..       ",
"         ...XXoo.....XXooo..       ",
"         ...XX..   ..XX...         ",
"         ...XX..   ..XX...         ",
"         .....     ....            ",
"         .....     ....            "
};
