/* XPM */
static char *_[] = {
/* columns rows colors chars-per-pixel */
"35 40 8 1 ",
"  c None",
". c #204A1F",
"X c #3FE53D",
"o c #62FD60",
"O c #D623EA",
"+ c #98D88F",
"@ c #B3FFA8",
"# c white",
/* pixels */
"                                   ",
"                                   ",
"                                   ",
"                                   ",
"                                   ",
"                                   ",
"                                   ",
"                                   ",
"                                   ",
"          .................        ",
"        ...XXXXXXoooooooooo.       ",
"       .OO.XXXXXXXoooXXXXoo.       ",
"       .OO.XXXXXXXoooXXXXoo.       ",
"       .OO.X#####Xoo.oooo...       ",
"       ....X##.##Xooooooooo.       ",
"        ..O.#####Xooooooooo.       ",
"        ..O.#####Xooooooooo.       ",
"        ..O.XXXXXXooooooooo.       ",
"        ....XXXXXXXXo.......       ",
"        ....XXXXXXXXo.......       ",
"           ...XXXoooooo.           ",
"          . ..X++@@@@@@.           ",
"          . ..X++@@@@@@.           ",
"          ....X++@@@@@@.           ",
"          .oooX++@@@@@@.           ",
"          .oooX++@@@@@@.           ",
"          ..XXXXXo+++oo.           ",
"           ...Xoooooooo.           ",
"            ..Xoo...Xoo.           ",
"            ..Xoo...Xoo.           ",
"            ..X.. ..X..            ",
"            ...   ...              ",
"                                   ",
"                                   ",
"                                   ",
"                                   ",
"                                   ",
"                                   ",
"                                   ",
"                                   "
};
