/* XPM */
static char *_[] = {
/* columns rows colors chars-per-pixel */
"35 40 8 1 ",
"  c None",
". c #1F4A2D",
"X c #3DE573",
"o c #EA23BB",
"O c #60FD92",
"+ c #8FD89F",
"@ c #A8FFBA",
"# c white",
/* pixels */
"                                   ",
"                                   ",
"                                   ",
"                                   ",
"                                   ",
"                                   ",
"                                   ",
"                                   ",
"                                   ",
"                                   ",
"                                   ",
"           ..............          ",
"          ..XXXXXOOOOOOOO.         ",
"         .o.XXXXXXOOXXXXO.         ",
"         .o.X####XO.OOOO..         ",
"         ...X##.#XOOOOOOO.         ",
"          .o.####XOOOOOOO.         ",
"          .o.####XOOOOOOO.         ",
"          .o.XXXXXOOOOOOO.         ",
"          ...XXXXXXO......         ",
"            ...XXOOOOO.            ",
"           . ..X+@@@@@.            ",
"           ....X+@@@@@.            ",
"           .OOOX+@@@@@.            ",
"           .OOOX+@@@@@.            ",
"           ..XXXXO++OO.            ",
"            ...XOOOOOO.            ",
"             ..XO..XOO.            ",
"             ..X. .X..             ",
"             ...  ..               ",
"                                   ",
"                                   ",
"                                   ",
"                                   ",
"                                   ",
"                                   ",
"                                   ",
"                                   ",
"                                   ",
"                                   "
};
