/* XPM */
static char *base[] = {
/* columns rows colors chars-per-pixel */
"75 75 6 1 ",
"  c #252941",
". c #3E455D",
"X c #181425",
"o c #5A6177",
"O c #202136",
"+ c #2C2F4A",
/* pixels */
"     .........XXXXXXXXX........................oooooXXXXXXXXXOOOOOOOOOOOOOO",
"     .........XXXXXXXXX........................oooooXXXXXXXXXOOOOOOOOOOOOOO",
"     .........XXXXXXXXX........................oooooXXXXXXXXXOOOOOOOOOOOOOO",
"     .........XXXXXXXXX........................oooooXXXXXXXXXOOOOOOOOOOOOOO",
"     .........XXXXXXXXX........................oooooXXXXXXXXXOOOOOOOOOOOOOO",
".....oooo..........XXXXOOOOO...................ooooo++++XXXXXXXXXXXXXX     ",
".....oooo..........XXXXOOOOO...................ooooo++++XXXXXXXXXXXXXX     ",
".....oooo..........XXXXOOOOO...................ooooo++++XXXXXXXXXXXXXX     ",
".....oooo..........XXXXOOOOO...................ooooo++++XXXXXXXXXXXXXX     ",
".........ooooo.........XXXXXOOOOO...................++++XXXXXXXXXX    .....",
".........ooooo.........XXXXXOOOOO...................++++XXXXXXXXXX    .....",
".........ooooo.........XXXXXOOOOO...................++++XXXXXXXXXX    .....",
".........ooooo.........XXXXXOOOOO...................++++XXXXXXXXXX    .....",
".........ooooo.........XXXXXOOOOO...................++++XXXXXXXXXX    .....",
".........ooooo.........XXXXXXXXXXOOOOOOOOOOOOOOOOOOO++++XXXXX     .........",
".........ooooo.........XXXXXXXXXXOOOOOOOOOOOOOOOOOOO++++XXXXX     .........",
".........ooooo.........XXXXXXXXXXOOOOOOOOOOOOOOOOOOO++++XXXXX     .........",
".........ooooo.........XXXXXXXXXXOOOOOOOOOOOOOOOOOOO++++XXXXX     .........",
".........ooooo.........XXXXXXXXXXOOOOOOOOOOOOOOOOOOO++++XXXXX     .........",
".........ooooo+++++++++XXXXXXXXXXXXXXXXXXXXXXXXXXXXXXXXXXXXXX     .........",
".........ooooo+++++++++XXXXXXXXXXXXXXXXXXXXXXXXXXXXXXXXXXXXXX     .........",
".........ooooo+++++++++XXXXXXXXXXXXXXXXXXXXXXXXXXXXXXXXXXXXXX     .........",
".........ooooo+++++++++XXXXXXXXXXXXXXXXXXXXXXXXXXXXXXXXXXXXXX     .........",
".....oooo++++++++++XXXX                   ..........XXXXXXXXXOOOOO.........",
".....oooo++++++++++XXXX                   ..........XXXXXXXXXOOOOO.........",
".....oooo++++++++++XXXX                   ..........XXXXXXXXXOOOOO.........",
".....oooo++++++++++XXXX                   ..........XXXXXXXXXOOOOO.........",
".....oooo++++++++++XXXX                   ..........XXXXXXXXXOOOOO.........",
".....+++++++++XXXXX         ..............ooooo.........XXXXXOOOOOOOOO.....",
".....+++++++++XXXXX         ..............ooooo.........XXXXXOOOOOOOOO.....",
".....+++++++++XXXXX         ..............ooooo.........XXXXXOOOOOOOOO.....",
".....+++++++++XXXXX         ..............ooooo.........XXXXXOOOOOOOOO.....",
".....+++++++++XXXXX         ..............ooooo.........XXXXXOOOOOOOOO.....",
"+++++++++XXXXXXXXXX         ...................ooooo.........XXXXXOOOOOOOOO",
"+++++++++XXXXXXXXXX         ...................ooooo.........XXXXXOOOOOOOOO",
"+++++++++XXXXXXXXXX         ...................ooooo.........XXXXXOOOOOOOOO",
"+++++++++XXXXXXXXXX         ...................ooooo.........XXXXXOOOOOOOOO",
"XXXXXXXXXXXXXXXXXXX+++++++++........................oooo..........XXXXOOOOO",
"XXXXXXXXXXXXXXXXXXX+++++++++........................oooo..........XXXXOOOOO",
"XXXXXXXXXXXXXXXXXXX+++++++++........................oooo..........XXXXOOOOO",
"XXXXXXXXXXXXXXXXXXX+++++++++........................oooo..........XXXXOOOOO",
"XXXXXXXXXXXXXXXXXXX+++++++++........................oooo..........XXXXOOOOO",
"         XXXXXXXXXX+++++++++............................ooooo.........XXXXX",
"         XXXXXXXXXX+++++++++............................ooooo.........XXXXX",
"         XXXXXXXXXX+++++++++............................ooooo.........XXXXX",
"         XXXXXXXXXX+++++++++............................ooooo.........XXXXX",
"         XXXXXXXXXX+++++++++............................ooooo.........XXXXX",
".....oooo     XXXXXOOOOOOOOO............................ooooo+++++++++XXXXX",
".....oooo     XXXXXOOOOOOOOO............................ooooo+++++++++XXXXX",
".....oooo     XXXXXOOOOOOOOO............................ooooo+++++++++XXXXX",
".....oooo     XXXXXOOOOOOOOO............................ooooo+++++++++XXXXX",
".....oooo     XXXXXOOOOOOOOO............................ooooo+++++++++XXXXX",
".........ooooo+++++XXXXOOOOOOOOOO...................oooo++++++++++XXXX.....",
".........ooooo+++++XXXXOOOOOOOOOO...................oooo++++++++++XXXX.....",
".........ooooo+++++XXXXOOOOOOOOOO...................oooo++++++++++XXXX.....",
".........ooooo+++++XXXXOOOOOOOOOO...................oooo++++++++++XXXX.....",
".........ooooo+++++XXXXXXXXXOOOOOOOOOOOOOO+++++++++++++++++++XXXXX.........",
".........ooooo+++++XXXXXXXXXOOOOOOOOOOOOOO+++++++++++++++++++XXXXX.........",
".........ooooo+++++XXXXXXXXXOOOOOOOOOOOOOO+++++++++++++++++++XXXXX.........",
".........ooooo+++++XXXXXXXXXOOOOOOOOOOOOOO+++++++++++++++++++XXXXX.........",
".........ooooo+++++XXXXXXXXXOOOOOOOOOOOOOO+++++++++++++++++++XXXXX.........",
".....oooo+++++XXXXXXXXX..........ooooOOOOOOOOOOOOOOOOOOOXXXXX..............",
".....oooo+++++XXXXXXXXX..........ooooOOOOOOOOOOOOOOOOOOOXXXXX..............",
".....oooo+++++XXXXXXXXX..........ooooOOOOOOOOOOOOOOOOOOOXXXXX..............",
".....oooo+++++XXXXXXXXX..........ooooOOOOOOOOOOOOOOOOOOOXXXXX..............",
".....oooo+++++XXXXXXXXX..........ooooOOOOOOOOOOOOOOOOOOOXXXXX..............",
".....++++XXXXXXXXXX..................oooooXXXXXXXXXXXXXXOOOOO..............",
".....++++XXXXXXXXXX..................oooooXXXXXXXXXXXXXXOOOOO..............",
".....++++XXXXXXXXXX..................oooooXXXXXXXXXXXXXXOOOOO..............",
".....++++XXXXXXXXXX..................oooooXXXXXXXXXXXXXXOOOOO..............",
"+++++XXXX     XXXXX.......................oooooXXXXXXXXXOOOOO+++++.........",
"+++++XXXX     XXXXX.......................oooooXXXXXXXXXOOOOO+++++.........",
"+++++XXXX     XXXXX.......................oooooXXXXXXXXXOOOOO+++++.........",
"+++++XXXX     XXXXX.......................oooooXXXXXXXXXOOOOO+++++.........",
"+++++XXXX     XXXXX.......................oooooXXXXXXXXXOOOOO+++++........."
};
