/* XPM */
static char *wall1[] = {
/* columns rows colors chars-per-pixel */
"60 60 187 2 ",
"   c #35334F",
".  c #373550",
"X  c #3B3650",
"o  c #3F3851",
"O  c #54384F",
"+  c #5D3A4F",
"@  c #423751",
"#  c #4B3753",
"$  c #443951",
"%  c #4B3B52",
"&  c #543755",
"*  c #5B3656",
"=  c #533C52",
"-  c #5C3C51",
";  c #643B4F",
":  c #6E3B4F",
">  c #7D3E4F",
",  c #713A4E",
"<  c #653757",
"1  c #6A3757",
"2  c #633C51",
"3  c #6B3B54",
"4  c #653658",
"5  c #6F3758",
"6  c #703756",
"7  c #753B53",
"8  c #7B3C52",
"9  c #7C3759",
"0  c #733958",
"q  c #783959",
"w  c #544154",
"e  c #5C4355",
"r  c #77404F",
"t  c #644554",
"y  c #6B4453",
"u  c #654856",
"i  c #6D4A56",
"p  c #6E4C58",
"a  c #734352",
"s  c #7C4451",
"d  c #744C56",
"f  c #7D4853",
"g  c #744E58",
"h  c #7F5057",
"j  c #7A5058",
"k  c #833F4F",
"l  c #8E3E4E",
"z  c #8D3D54",
"x  c #8C3A59",
"c  c #88395A",
"v  c #953C56",
"b  c #9C3D55",
"n  c #933C59",
"m  c #993F58",
"M  c #A13F53",
"N  c #83404F",
"B  c #88404F",
"V  c #97414F",
"C  c #9B424F",
"Z  c #834451",
"A  c #8B4552",
"S  c #844D56",
"D  c #8D4853",
"F  c #944551",
"G  c #924C54",
"H  c #9A4C53",
"J  c #845157",
"K  c #8B5157",
"L  c #84555A",
"P  c #8A575A",
"I  c #8D595B",
"U  c #955257",
"Y  c #9B5355",
"T  c #945659",
"R  c #9A5659",
"E  c #955B5C",
"W  c #9B5D5C",
"Q  c #A0454F",
"!  c #AE444E",
"~  c #B1444E",
"^  c #B1484F",
"/  c #A44253",
"(  c #AB4351",
")  c #A34B53",
"_  c #AB4B53",
"`  c #B44B51",
"'  c #BA4E55",
"]  c #A65354",
"[  c #A85756",
"{  c #AD5957",
"}  c #A35A5A",
"|  c #AC5C5A",
" . c #B45455",
".. c #BC5454",
"X. c #B55956",
"o. c #BC5C56",
"O. c #B55158",
"+. c #BC5659",
"@. c #B25E5C",
"#. c #BE5B59",
"$. c #9F605D",
"%. c #A4625E",
"&. c #AD655E",
"*. c #B2635D",
"=. c #BB655D",
"-. c #BA685F",
";. c #965E60",
":. c #B16963",
">. c #BC6C61",
",. c #C05754",
"<. c #C55A56",
"1. c #C35E59",
"2. c #C85F59",
"3. c #C85C56",
"4. c #C5635B",
"5. c #CA645B",
"6. c #C5695E",
"7. c #CB6A5E",
"8. c #D5635C",
"9. c #D1695C",
"0. c #C46F62",
"q. c #CC6E60",
"w. c #D06F61",
"e. c #C67162",
"r. c #CE7363",
"t. c #C57268",
"y. c #D17563",
"u. c #DB7467",
"i. c #DC7C6C",
"p. c #E57566",
"a. c #E67F6C",
"s. c #E87D6B",
"d. c #E5816E",
"f. c #E48771",
"g. c #E88771",
"h. c #E68C73",
"j. c #E98D75",
"k. c #E79076",
"l. c #E99177",
"z. c #ED977A",
"x. c #EC9C7D",
"c. c #EEA17F",
"v. c #EEA481",
"b. c #EEAB85",
"n. c #F1AC86",
"m. c #F0B087",
"M. c #F3B48A",
"N. c #F6B98D",
"B. c #F8BA8E",
"V. c #F7BD90",
"C. c #F7C293",
"Z. c #F9C494",
"A. c #FBCA97",
"S. c #FBCC99",
"D. c #FBD19E",
"F. c #FBD4A5",
"G. c #FBD7A5",
"H. c #FBD3A2",
"J. c #FBD8A6",
"K. c #FCD8A6",
"L. c #FCDDAA",
"P. c #FDE1AF",
"I. c #FCE0AD",
"U. c #FDE1AE",
"Y. c #FDE3B0",
"T. c #FDE1B0",
"R. c #FDE5B6",
"E. c #FDE5B4",
"W. c #FDE4B3",
"Q. c #FDE9B6",
"!. c #FCE6B8",
"~. c #FDE9B8",
"^. c #FDE8BD",
"/. c #FDEDBD",
"(. c #FDEABB",
"). c #FDEAC1",
"_. c #FCECC6",
"`. c #FDECC3",
"'. c #FEF0C2",
"]. c #FDF0C3",
"[. c #FEF3CB",
"{. c #FDF4CB",
"}. c #FEF4CB",
"|. c #FDF7D2",
" X c #FDF7D2",
".X c #FDF9D7",
"XX c #FDFAD8",
/* pixels */
"A.D.R.'. XXX.X[.^.'. X[.^.H.S.K.Q.^.R.H.Z.n.x.j.t.p e :.f.x.b.C.A.A.H.R.^.^.'. X[.^.K.S.A.S.Z.Z.K.^.[. X).^.[..XXX X^.Q.",
"A.S.L.R.).).).^.R.R.).^.P.H.S.H.P.R.L.H.Z.M.v.j.t.p e :.f.c.M.C.A.A.D.L.P.P.R.).^.P.H.S.A.S.Z.A.H.R.^.).R.R.^.).).).R.P.",
"A.S.S.H.H.H.H.H.D.H.H.H.D.S.A.S.D.D.D.S.A.Z.N.z.t.p e :.l.M.Z.A.A.A.S.S.D.D.H.H.H.D.S.A.A.A.A.A.S.D.H.H.H.D.H.H.H.H.D.D.",
"A.A.A.A.A.A.A.A.A.A.A.A.A.A.A.A.A.A.A.A.A.S.Z.x.t.p e :.l.B.S.S.A.A.A.A.A.A.A.A.A.A.A.A.A.A.A.A.A.A.A.A.A.A.A.A.A.A.A.A.",
"A.A.A.A.A.A.A.A.A.A.A.A.A.A.A.A.A.A.A.A.A.S.Z.x.t.p e :.l.N.S.S.A.A.A.A.A.A.A.A.A.A.A.A.A.A.A.A.A.A.A.A.A.A.A.A.A.A.A.A.",
"A.A.A.A.A.A.A.A.A.A.A.A.A.A.A.A.A.A.A.A.A.Z.M.z.t.p e :.j.n.Z.A.S.A.A.A.A.A.A.A.A.A.A.A.A.A.A.A.A.A.A.A.A.A.A.A.A.A.A.A.",
"A.A.A.A.A.A.A.A.A.A.A.A.A.A.A.A.A.A.A.S.Z.M.v.j.t.p e :.j.x.M.Z.S.A.A.A.A.A.A.A.A.A.A.A.A.A.A.A.A.A.A.A.A.A.A.A.A.A.A.A.",
"S.S.S.S.S.S.S.S.S.S.S.S.S.S.S.S.S.S.A.Z.N.v.l.g.t.p e :.f.j.x.M.Z.A.S.S.S.S.S.S.S.S.S.S.Z.Z.Z.S.S.S.S.S.S.S.S.S.S.S.S.S.",
"A.A.A.A.A.A.A.A.A.A.A.A.A.A.A.A.A.A.Z.M.v.l.d.d.t.p e :.d.d.f.x.M.Z.A.A.A.A.A.A.A.A.A.A.N.M.V.A.A.A.A.A.A.A.A.A.A.A.A.A.",
"n.n.n.n.n.n.n.n.n.n.n.n.n.n.n.n.n.n.n.x.l.f.a.d.t.p e :.d.a.d.f.x.v.n.n.n.n.n.n.n.n.n.n.v.x.v.n.n.n.n.n.n.n.n.n.n.n.n.n.",
"f.f.f.f.f.f.f.f.f.f.f.f.f.f.f.f.f.f.f.f.d.d.a.d.t.p e :.d.d.d.d.f.f.f.f.f.f.f.f.f.f.f.f.f.f.f.f.f.f.f.f.f.f.f.f.f.f.f.f.",
"a.a.a.a.a.a.a.a.a.a.a.a.a.a.a.a.a.a.a.a.d.d.a.p.4.i e @.p.s.d.d.d.a.a.a.a.a.a.a.a.a.a.a.a.a.d.d.a.a.a.a.a.a.a.a.a.a.a.a.",
"i.i.i.i.i.i.i.i.i.i.i.i.i.i.i.i.i.i.i.i.i.i.i.8. .i - ) 8.u.i.i.i.i.i.i.i.i.i.i.i.i.i.i.i.i.i.i.i.i.i.i.i.i.i.i.i.i.i.i.",
";.;.;.;.;.;.;.;.;.;.;.;.;.;.;.;.;.;.;.;.;.;.E G s = % a G E ;.;.;.;.;.;.;.;.;.;.;.;.;.;.;.;.;.;.;.;.;.;.;.;.;.;.;.;.;.;.",
"% % % % % % % % % % % % % % % % % % % % % % % % % @ @ @ % % % % % % % % % % % % % % % % % % % % % % % % % % % % % % % % ",
". . . . . . . . . . . . . . . . . . . . . . . . . . X . . .         . . . . . . . . . . . . . . . . . . . . . . . . . . ",
"@ @ @ @ @ @ @ X @ @ @ @ X X @ @ X X X X X X @ @ % % @ @ @ @ % % % % @ @ X X @ @ @ @ @ X @ @ @ @ @ @ X @ @ @ @ @ @ @ @ X ",
"; i u i 2 = @ X @ @ @ @ X X X X X X X X X . % d S Z : % % j I I I I d % . X @ @ @ @ X X X X @ @ @ X X @ = 2 i u i - % X ",
"A G W W S 7 % X @ @ @ @ X X @ X @ @ @ @ . . = U 1...C - e %.r.r.r.q.W w . X @ @ X X X X X X X X @ @ X % 1 S R W G s = X ",
"@.*.>.-.*.K = . X @ X X X X @ @ @ @ @ @ X . = R 5.5.[ t e [ 9.y.y.5.H = . X @ @ X X X X X X X @ @ X . % S @.-.>.-.R e X ",
"r.r.r.y.r.W w . X X X X @ @ @ @ @ @ X X @ X = T 4.y.*.u = G X.-.*._ k = X X @ @ X X @ X X X X @ X X . w W r.r.r.y.&.u . ",
"r.r.r.y.y.$.w . X . . . X X @ @ @ @ X X @ @ e T -.r.:.u @ - i d u 1 - @ X X X @ @ @ @ @ X X . . . X . w W r.y.y.y.:.u . ",
"r.r.r.y.r.$.w @ % = w = % @ X X @ X X X @ % t E >.r.*.u @ % = = = = % @ X X @ @ @ @ @ @ @ % = w = % @ w W r.y.r.y.*.t . ",
"r.r.r.y.r.$.w O > G W U Z ; @ X X X X X @ % t W e.y.*.u % : A T T A : % X X @ @ @ @ X @ ; B U W G k O w W r.y.r.y.*.t . ",
"r.r.r.y.r.W w 2 ) 1.q.4.` s @ . @ @ X . @ = a &.r.y.:.u = F ..7.7...A = . X @ @ X X . @ a _ 4.r.4._ 1 = E r.y.r.y.:.u . ",
"r.r.r.r.r.W w i @.q.r.y.4.S @ . @ X X . @ 2 S *.r.y.:.t e [ 7.y.y.7.R = . X @ @ X @ . @ S -.q.r.q.-.a w E r.y.r.y.*.u . ",
"r.r.r.r.r.W w u >.y.r.y.r.P % . @ @ X . % i Y -.r.y.:.t e %.r.r.y.r.%.w . X X @ X @ . @ J e.y.r.y.>.d w E r.y.r.y.*.t . ",
"r.r.r.y.r.W w u >.y.r.y.r.I % . @ @ . . % j &.0.r.y.:.t e %.r.r.y.r.%.w . X X @ @ @ . @ J e.y.r.y.>.d w E r.y.r.y.:.u . ",
"6.q.r.y.7.T = u >.y.r.y.e.I @ . @ @ @ X % J *.q.r.q.[ t e %.r.r.y.r.%.w . @ @ @ @ @ . @ J e.y.r.y.>.d = T 6.r.r.q.[ t . ",
"` #.q.7...A = d >.y.r.y.r.I @ . @ % = @ % Z  .7.q.1.) - e %.r.r.y.r.%.e . @ @ @ @ @ . @ J e.y.r.y.>.d = Z ..7.q.1.H 2 . ",
"l G [ [ F : % d >.y.r.y.r.I % . @ e u w % : F [ [ H k = e %.r.r.y.r.%.e . X X X X X . @ J e.y.r.y.>.d % : F [ [ H > = . ",
"= = e e = % @ d >.y.r.y.e.I % . @ u J t @ % = e e - = @ e &.y.r.y.r.%.e . X X X X X . @ J e.y.r.y.>.j @ # = e e - = @ . ",
"t t t t t = @ d >.y.r.y.e.P % % i E %.d @ = t t t t - @ e &.r.r.y.r.%.w % - t u i t % % J e.y.r.y.>.j @ = t t t t - % X ",
"] [ &.*.[ Z % d >.y.r.y.e.J % a ] 4.>.g % s ] *.*.[ G - e %.r.r.y.r.$.w - H [ *.*.] a % J e.y.r.y.>.d % s ] *.*.[ G - . ",
"..,.4.5.,.F = u -.y.r.y.6.J % f o.9.-.d = A ..4.4.<.) 2 e [ q.r.y.7.W w 2 _ <.4.2...Z = h 6.r.r.y.-.d = A ..4.5.<.) 2 . ",
"^ ^ ` ` ^ B = i X.5.r.7.o.f % s ..3.X.a % B ^ ` ` ` C - - Y 4.q.q.4.U = 2 Q ` ` ` ^ > % f o.7.r.7.X.a = B ^ ` ` ` C - X ",
"! ! ! ! ! k = 2 ) +.4.#._ a % s ` ' ) 1 % k ! ! ! ^ C - = A  .1.1. .A = 2 C ^ ! ^ ! > % a ) #.4.+.) 1 % k ! ! ! ^ V - . ",
"! ! ! ^ ! B = - c / _ / x 2 % r ( / x - % k ! ^ ! ^ C - % 9 m ( ( m 6 % 2 C ^ ! ^ ! > % 2 x / _ / x - % k ! ^ ! ^ V - X ",
"! ! ! ^ ! B % # 4 7 8 8 1 & % ; k 8 1 # % k ! ^ ! ^ C - # * 6 8 8 6 * @ 2 C ^ ! ^ ! > % & 1 8 > 7 4 # % B ! ^ ^ ^ C - X ",
"! ! ! ^ ! l % . @ % % % @ @ @ = - = @ . % k ! ^ ! ^ C 2 @ @ % % % % @ @ 2 C ^ ! ^ ! 8 % @ @ % % % @ . % k ! ^ ! ^ V - X ",
"M / ! ( / 8 % X X . X X X X @ @ % @ X X % 8 M ( ! ( z - X X X X X X X X 2 n ( ! ( m 7 @ X X X X X X X % 8 / ( ! ( z - X ",
"c n / / n 6 % X X X @ @ @ @ @ @ @ @ @ X % 1 x / / m 9 = X X X X X X X X - 9 m / m x 4 @ X @ X X X X X % 5 x / / n 9 = X ",
"4 1 7 7 1 * @ X X X X @ X X @ X X X X X @ & 1 7 8 1 4 % X X X X X X X X # 4 1 8 7 4 & @ X @ @ @ X X X @ & 1 7 8 1 * # X ",
"@ @ @ @ @ @ @ X X X X X @ X X X X X X X @ @ @ @ @ @ @ @ @ @ X X @ @ X @ @ @ @ @ @ @ @ . @ @ @ @ X X X @ @ @ @ @ @ @ @ X ",
". . . . . . . . . . . . . . . . . . . . . . . . . . . . . . . . X X X X . . . . . . . . . . . . . . . . . . . . . . . . ",
"% % % % % % % % % % % % % % % % % % % % % % % % % % % % % % % % % @ @ % % % % % % % % % % % % % % % % % % % % % % % % % ",
";.;.;.;.;.;.;.;.;.;.;.;.;.;.;.;.;.;.;.;.;.;.;.;.;.;.;.;.;.;.E G a % = Z G E ;.;.;.;.;.;.;.;.;.;.;.;.;.;.;.;.;.;.;.;.;.;.",
"i.i.i.i.i.i.i.i.i.i.i.i.i.i.i.i.i.i.i.i.i.i.i.i.i.i.i.i.i.i.u.8.) - i  .8.i.i.i.i.i.i.i.i.i.i.i.i.i.i.i.i.i.i.i.i.i.i.i.",
"a.a.a.a.a.a.a.a.a.a.a.a.a.a.a.a.a.a.a.a.a.a.a.a.a.a.a.a.d.d.s.p.@.e i 0.p.a.d.d.a.a.a.a.a.a.a.a.a.a.a.a.a.a.a.a.a.a.a.a.",
"f.f.f.f.f.f.f.f.f.f.f.f.f.f.f.f.f.f.f.f.f.f.f.f.f.f.f.d.d.d.d.d.:.e p t.d.a.d.d.f.f.f.f.f.f.f.f.f.f.f.f.f.f.f.f.f.f.f.f.",
"n.n.n.n.n.n.n.n.n.n.n.n.n.v.x.v.n.n.n.n.n.n.n.n.n.n.v.x.f.d.a.d.:.e p t.d.a.f.l.x.n.n.n.n.n.n.n.n.n.n.n.n.n.n.n.n.n.n.n.",
"A.A.A.A.A.A.A.A.A.A.A.A.A.V.M.N.A.A.A.A.A.A.A.A.A.A.Z.M.x.f.d.d.:.e p t.d.d.k.v.M.Z.A.A.A.A.A.A.A.A.A.A.A.A.A.A.A.A.A.A.",
"S.S.S.S.S.S.S.S.S.S.S.S.S.Z.Z.Z.S.S.S.S.S.S.S.S.S.S.A.Z.M.x.j.d.:.e p t.g.l.v.N.Z.A.S.S.S.S.S.S.S.S.S.S.S.S.S.S.S.S.S.S.",
"A.A.A.A.A.A.A.A.A.A.A.A.A.A.A.A.A.A.A.A.A.A.A.A.A.A.A.S.Z.M.x.j.:.e p t.j.v.M.Z.S.A.A.A.A.A.A.A.A.A.A.A.A.A.A.A.A.A.A.A.",
"A.A.A.A.A.A.A.A.A.A.A.A.A.A.A.A.A.A.A.A.A.A.A.A.A.A.A.S.A.Z.n.j.:.e p t.z.M.Z.A.S.A.A.A.A.A.A.A.A.A.A.A.A.A.A.A.A.A.A.A.",
"A.A.A.A.A.A.A.A.A.A.A.A.A.A.A.A.A.A.A.A.A.A.A.A.A.A.A.A.S.S.N.l.:.e p t.x.Z.S.A.A.A.A.A.A.A.A.A.A.A.A.A.A.A.A.A.A.A.A.A.",
"A.A.A.A.A.A.A.A.A.A.A.A.A.A.A.A.A.A.A.A.A.A.A.A.A.A.A.A.S.S.B.l.:.e p t.x.Z.S.A.A.A.A.A.A.A.A.A.A.A.A.A.A.A.A.A.A.A.A.A.",
"D.H.H.H.H.H.D.H.H.H.D.S.A.A.A.A.A.S.D.H.H.H.D.D.S.S.A.A.A.Z.M.j.:.e p t.z.N.Z.A.S.D.D.D.S.A.S.D.H.H.H.D.H.H.H.H.H.S.S.A.",
"P.R.).).).^.R.R.).^.R.H.A.Z.S.A.S.H.P.^.).R.P.P.L.D.A.A.C.M.c.f.:.e p t.j.v.N.Z.H.L.R.P.H.S.H.P.^.).R.R.^.).).).R.L.S.A.",
"Q.^. XXX.X[.^.). X[.^.K.Z.Z.S.A.S.K.^.[. X'.^.^.R.H.A.A.C.b.x.f.:.e p t.j.x.m.Z.H.R.^.Q.K.S.H.^.[. X'.^.[..XXX X).R.D.A."
};
