/* XPM */
static char *wall2[] = {
/* columns rows colors chars-per-pixel */
"60 60 193 2 ",
"   c #36344F",
".  c #3A344F",
"X  c #373550",
"o  c #3B3650",
"O  c #3E3851",
"+  c #56384F",
"@  c #5C384F",
"#  c #433751",
"$  c #4B3753",
"%  c #433851",
"&  c #4B3B52",
"*  c #533655",
"=  c #5A3755",
"-  c #523C52",
";  c #5A3C52",
":  c #643A4F",
">  c #6B3B4F",
",  c #753E4F",
"<  c #7A3E4F",
"1  c #643757",
"2  c #6C3757",
"3  c #653C52",
"4  c #6A3C52",
"5  c #6C3658",
"6  c #6F3958",
"7  c #743B52",
"8  c #7B3C52",
"9  c #733758",
"0  c #763958",
"q  c #554154",
"w  c #5B4355",
"e  c #624655",
"r  c #6D4352",
"t  c #6E4A56",
"y  c #6C4C58",
"u  c #734252",
"i  c #7C4352",
"p  c #714B56",
"a  c #7C4B56",
"s  c #734E59",
"d  c #7A4959",
"f  c #6D565F",
"g  c #75505B",
"h  c #7B515A",
"j  c #7F5057",
"k  c #6F5E64",
"l  c #705E63",
"z  c #6F6369",
"x  c #843E4F",
"c  c #893F4E",
"v  c #823C52",
"b  c #853959",
"n  c #8D3A59",
"m  c #893D54",
"M  c #963D55",
"N  c #9C3E54",
"B  c #923B59",
"V  c #9C3F58",
"C  c #A33F53",
"Z  c #86404F",
"A  c #8A414F",
"S  c #94414F",
"D  c #9D424F",
"F  c #834452",
"G  c #8B4551",
"H  c #814B54",
"J  c #8C4953",
"K  c #824E58",
"L  c #944552",
"P  c #934C53",
"I  c #9C4B53",
"U  c #9B4559",
"Y  c #835157",
"T  c #885057",
"R  c #84555B",
"E  c #88575C",
"W  c #8B595D",
"Q  c #945157",
"!  c #9E5357",
"~  c #94555A",
"^  c #955B5E",
"/  c #9A5D5C",
"(  c #99565A",
")  c #A4434E",
"_  c #AD444E",
"`  c #A6484F",
"'  c #B1444E",
"]  c #B2484F",
"[  c #A44253",
"{  c #AB4451",
"}  c #A24B53",
"|  c #AC4C53",
" . c #B44B51",
".. c #A35254",
"X. c #AA5354",
"o. c #AD5956",
"O. c #A35B5A",
"+. c #AD5D5A",
"@. c #B35354",
"#. c #BB5455",
"$. c #BD5A57",
"%. c #BB5659",
"&. c #B35F5B",
"*. c #BE5B59",
"=. c #B45756",
"-. c #AC655E",
";. c #B3645D",
":. c #B9645D",
">. c #BD685F",
",. c #965E60",
"<. c #9A5F60",
"1. c #9B6061",
"2. c #A36262",
"3. c #A96563",
"4. c #B36860",
"5. c #BB6C61",
"6. c #C45A56",
"7. c #C25E59",
"8. c #CC5C59",
"9. c #C05553",
"0. c #D05F5A",
"q. c #C4635B",
"w. c #C9665C",
"e. c #C5695E",
"r. c #CA6A5E",
"t. c #D9685F",
"y. c #CC6D60",
"u. c #C76A61",
"i. c #D46D62",
"p. c #DA6D62",
"a. c #C77063",
"s. c #CD7363",
"d. c #CC766A",
"f. c #CE786A",
"g. c #C2776B",
"h. c #D17563",
"j. c #DB7164",
"k. c #D0776A",
"l. c #D47B6C",
"z. c #DC7C6C",
"x. c #D77865",
"c. c #E57F6D",
"v. c #E97968",
"b. c #E07164",
"n. c #DC816E",
"m. c #DE8470",
"M. c #CC947B",
"N. c #E5816E",
"B. c #E8826E",
"V. c #E48671",
"C. c #E58A73",
"Z. c #EA8C73",
"A. c #E69277",
"S. c #EA9277",
"D. c #EA9579",
"F. c #EB9B7B",
"G. c #F19C7D",
"H. c #EBA07F",
"J. c #F2A07F",
"K. c #D3AC89",
"L. c #D2BB99",
"P. c #EEA582",
"I. c #EEAB85",
"U. c #F2A481",
"Y. c #F1AC86",
"T. c #F4AF88",
"R. c #F2B087",
"E. c #F3B389",
"W. c #F5BB8E",
"Q. c #F6BF90",
"!. c #F6C394",
"~. c #F9C594",
"^. c #F7C897",
"/. c #FBCA97",
"(. c #F7CC9A",
"). c #FBCC99",
"_. c #FBD19E",
"`. c #FCD3A2",
"'. c #FCD4A4",
"]. c #FBD5A3",
"[. c #FDDAA7",
"{. c #FBDCAA",
"}. c #FCE0AE",
"|. c #FCE4B3",
" X c #FCE8B6",
".X c #FDEABC",
"XX c #FDE5BB",
"oX c #FDECC3",
"OX c #FEF0C2",
"+X c #FDF4CC",
"@X c #FFF8D4",
"#X c #FFFAD8",
"$X c #FCF5D0",
/* pixels */
"@XoX'././././.).~.Y.V.c.z.,.& o # # - d U G G X.*.q.e.s.s.q.:.-.-.e.r.q.%.{ c 3 - & # # o & ,.z.N.V.Y./.)././././.).).).",
"@XoX'././././.)./.Y.V.c.z.,.& o O # & i U L L | %.q.r.s.s.r.;.^ ( >.r.7.$._ S , 2 3 - # o & ,.z.N.V.Y./.)././././.).'.[.",
"#XoX'././././.)./.Y.V.c.z.,.& o O O & i { _ ) _  .q.s.s.s.s.-.t p ;.w.@.' _ ) D D S 2 # X & ,.z.c.V.Y./.)././././.'.XX+X",
"+X.X'././././.)./.Y.V.c.z.,.& o O O # 8 [ ' ' '  .7.y.s.s.r.O.q e -.q. ._ _ ' ' _ [ 7 # X & ,.z.c.V.Y./.)././././.'.oX#X",
".X X_././././.)./.Y.V.c.z.,.& o O O # 2 B [ _ _ ] $.q.y.r.$.L - e X.9.] _ _ ' _ C B 2 # X & ,.z.c.V.Y./.)././././.'.oX#X",
"OX X'././././.)./.Y.V.c.z.,.& o O O # = 9 v A A A G P ( ^ G , $ - G P A x A A A v 9 = # o & ,.z.c.V.Y./.)././././.'..X+X",
"@XoX'././././.)./.Y.V.c.z.,.& o O O # # & & - - - - - q q - & # # - - - - - - - & & # # o & ,.z.c.V.Y./.)././././._. X.X",
"+X.X'././././.)./.Y.V.c.z.,.& o O O O O O O o $ = 3 r t t t p p p p t r 3 = $ o O O O O o & ,.z.c.V.Y./.)././././.'. XOX",
".X X_././././.)./.Y.V.c.z.,.& o # O O O O O # 1 b } =.;.5.5.5.5.5.5.;.@.I b 1 # O O O O o & ,.z.c.V.Y./.)././././.'.oX@X",
"[.'.)././././.)./.Y.V.c.z.,.& o # O O O O O & 8 [ %.r.s.h.h.h.h.h.h.s.w.%.[ 7 & O O O O o & ,.z.c.V.Y./.)././././.'..X+X",
").).)././././.)./.Y.V.c.z.,.& o # O O O o o & v  .q.s.s.s.s.s.s.s.s.s.s.7.| 8 & O O O O o & ,.z.c.V.Y./.)././././._. X.X",
"'.'.)././././.)./.Y.V.c.z.,.& o O O O # O o & 8 { 7.r.h.h.h.h.h.h.h.h.r.*.[ 8 & O O O O o & ,.z.c.V.Y./.)././././.).'.[.",
" X[._././././.)./.Y.V.c.z.,.& o O O O O O O & 5 B | %.e.s.s.s.s.s.s.e.%.| n 5 # O O O O o & ,.z.c.V.Y./.)./././././.).).",
".X}._././././.)./.Y.V.c.z.,.& o O O O O O O # * 3 u H Y R R E E E E Y H u 3 * # O O O O o & ,.z.c.V.Y./.)././././.).'.[.",
" X}._././././.).~.Y.V.c.z.,.& o O O O # # # # & & & & - - & & & & & & & & & & # # # # O o & ,.z.c.V.Y./.)././././._.[. X",
"[.'.)./././.).~.W.H.V.c.z.,.& o O O # * 3 7 , , u i a Y a u : # & r i 7 , , , 7 2 1 * # o & ,.z.c.V.Y./.)././././._.}..X",
"/././././././.W.P.A.N.N.z.,.& o O O # 5 n N _ _ _ @.%.e.q.@.A - e X.$._ ) _ _ ) N b 1 # X & ,.z.c.V.Y.~.)././././._.}. X",
"E.W./.).).~.W.P.S.V.N.N.z.,.& o O O & 8 C { ' '  .7.r.s.s.w.! q e &.7. .' ' ' ' { N 7 # X & ,.z.c.V.F.W.~.).)././.).'.[.",
"F.P.W.~.~.W.P.S.V.c.c.N.z.^ & o O O & 8 _ _ _ _  .q.s.s.s.s.O.q e ;.q. ._ _ _ _ _ ) 8 # X & ,.z.N.N.A.P.W.~././././././.",
"Z.S.G.U.U.G.A.Z.B.B.N.v.p.~ & o O O & 7 N { ' '  .6.r.h.h.q.! = e O.6. .' ' ' ' { N 7 # X & ,.z.N.N.V.A.P.W.~.).).~.W.E.",
"k.k.k.k.k.k.k.k.k.k.k.y.$.G & o O O # 1 b M ) ) ) | =.>.:.| Z - q I | ) ) ) ) ) M b 1 # o & ^ z.c.c.c.V.S.P.W.~.~.W.P.F.",
"h h h h h h h h h h h a u = # O O O o $ = 3 2 2 2 r r p p 2 + # # 3 r 3 3 2 > 2 3 = $ # o & Q t.v.B.B.B.Z.A.G.J.J.G.A.Z.",
"q q q q q q q q q q q q - & # O # # & & & & $ # # & - - q q q q q q - - - & # # # # # O o & G $.u.d.d.d.d.d.f.f.f.d.d.d.",
"2.2.2.2.2.2.2.2.2.2.2.O.P r # O # 3 x c x 7 1 $ & > G ~ ^ ( ( ( ( ( ^ J G 6 = # O O O O O # = r p p g g g g p p p p p p ",
"n.V.V.V.V.V.N.N.c.c.z.j.8.J & X # i  . .| [ b - - G $.e.s.s.s.s.s.s.r.6. .B 2 # O O O O O # & - q q q q q q q q q q q q ",
"S.F.Y.E.E.Y.F.Z.N.c.c.c.j.~ & X & T q.w.q.%.I 3 q ( r.s.h.h.s.s.h.h.s.r.*.{ 8 & O O O O O # u I O.3.3.3.3.3.3.3.3.3.3.3.",
"P.E.~.)./.!.Y.F.V.N.N.N.z.^ &   & E s.h.y.w.X.e q ( y.s.s.s.s.s.s.s.s.y.7.| 8 & O O O O o & J 0.b.c.c.c.N.V.V.V.V.V.V.N.",
"W.!./.).)./.~.E.F.V.N.N.z.,.&   & E s.x.s.6.` 3 - P 6.r.h.h.h.h.h.h.y.w.@.U 7 & O O O O o & ~ j.c.c.c.N.Z.F.Y.E.E.Y.F.S.",
"/././././././.!.Y.F.V.N.z.,.& X # h -.4.-.} A = & , I O.-.-.-.-.-.-.-.X.L 0 = # O O O O o & ,.z.N.N.N.V.F.E.~.).).~.E.P.",
"/./././././././.~.P.V.N.z.,.& o # - q e q = - # # $ = q e e e e e e e q = - # O O O O O o & ,.z.N.N.V.F.E.~./.)./.~.!.W.",
"_.).)././././.)./.Y.V.c.z.,.& o # q q e e e e e e e e e q = - # # - = = = = = = - - $ # o & ,.z.N.N.F.Y.~./.)././././.~.",
"}.[.)././././.)./.Y.V.c.z.,.& X # h -.;.-.-.-.-.-.-.-.-.O.I < & = J I S S S S S m 9 = # o & ,.z.c.V.P.~./././././././.~.",
" X}._././././.)./.Y.V.c.z.,.& X & E s.h.h.h.h.h.h.h.h.h.r.7.I = e o.6.] _ _ ' _ [ M 2 # o & ^ z.c.V.Y./.)././././.).)._.",
" X}._././././.)./.Y.V.c.z.,.& X & E s.h.s.s.s.s.s.s.s.s.s.y.O.q e -.q. ._ _ _ _ _ [ 7 # X & ,.z.c.V.Y./.)././././._.[. X",
"oX X'././././.)./.Y.V.c.z.,.& X & T q.r.y.s.h.h.h.h.h.h.s.r.O.q e ;.q. .' ' ' ' { [ 7 # o & ,.z.c.V.Y./.)././././._.}. X",
"$XoX'././././.)./.Y.V.c.z.,.& X # i  .$.q.y.s.s.s.s.s.s.r.$.L - e X.9.] _ _ _ _ C n 2 # o & ,.z.c.V.Y./.)././././._.}. X",
"+X.X'././././.)./.Y.V.c.z.,.& o # : x G Q ( ( ( ( ( ( ( ~ G > & - i G A x Z A Z 8 6 = # o & ,.z.c.V.Y./.)././././.'. XoX",
".X X_././././.)./.Y.V.c.z.,.& o # # & - - q q q q q q q q - & # # & - - - - - - & & # # o & ,.z.c.V.Y./.)././././.'.oX$X",
"[.'.)././././.)./.Y.V.c.z.,.& o # & & # O o # + 3 r p p p p p p p p p r 3 = $ O O O O O o & ,.z.c.V.Y./.)././././.'..X+X",
"(.)./././././.)./.Y.V.c.z.,.& o # = 3 - # O & < } ;.5.5.5.5.5.5.5.5.:.@.I b 1 # O O O O o & ,.z.c.V.Y./.)././././._. X.X",
"^./././././.).~.W.P.V.N.z.,.& o # - = & # o - P 7.y.h.h.h.h.h.h.h.h.s.w.%.U 7 & O O O O o & ,.z.c.V.Y./.)./././.).).'.[.",
"!.~./././././.W.Y.S.N.N.z.,.& o # # # # O o q ( y.s.s.s.s.s.s.s.s.s.s.y.7.| 8 & O O O O o & ,.z.c.V.Y./.)./././.).).).(.",
"E.W./.).).~.W.Y.F.V.N.N.z.,.& o O O O O O o - Q q.p.h.h.h.h.h.h.h.h.h.r.*.[ 8 & O O O O o & ,.z.N.V.P.W.~.).)./.)././.^.",
"H.P.Q./.~.W.Y.F.V.N.c.N.z.,.& o O O O O O O & G  .q.a.a.a.a.a.a.a.a.e.%.| n 5 # O O O O o & ,.z.N.N.S.Y.W./././././.~.!.",
"A.F.U.Y.Y.U.S.Z.B.N.N.v.p.~ & o O O o o o o # + 7 a R R R R R E R R Y a u 3 * o O O O O o & ,.z.B.N.V.S.Y.W./.).).~.W.E.",
"k.k.n.n.n.n.z.z.z.z.z.p.7.J & O O # # # # & & & & - q q - - & & & & & & & & & # # # # O o & ,.z.N.N.N.V.F.Y.W.~.~.W.P.H.",
"E E E E E E E E E E E R i 3 # O # & = p E E E R R R R R H i : # & u i 7 , , , 7 7 1 * # o & ~ p.v.B.B.B.Z.S.J.U.U.U.S.A.",
"q q q q q q q q q q q - - & # O # - u O.a.s.a.a.a.a.a.a.q.@.A - e X.$._ ) _ _ ) N b 1 # O & J 6.p.k.k.k.k.k.k.k.k.k.k.k.",
",.,.^ ^ ^ ^ ^ ,.,.,.,.~ J 2 # o # q a -.s.h.h.h.h.h.h.h.s.q.! q e &.6. .' ' ' ' { N 7 # O # = i K R R R R R R R R R R R ",
"z.n.m.m.m.n.n.z.z.z.z.p.8.J & o # q h -.s.s.s.s.s.s.s.s.s.y.O.q e ;.q. ._ _ _ _ _ [ 7 # o # & - q q q q q q q q q q q q ",
"A.F.U.Y.Y.U.S.Z.N.N.N.v.p.~ & o # = a -.h.h.h.h.h.h.h.h.y.q.I = e O.6.] ' ' ' ' { N 2 # o # r J ( 1.1.1.1.,.,.( ( ,.,.1.",
"P.P.!././.Q.Y.F.V.N.N.N.z.,.& o # - r ( 5.5.5.5.5.5.5.5.;.| x - q I | ) ) ) ) ) M b 1 # o & J 8.p.z.z.z.z.n.m.V.V.m.n.n.",
"W.Q.~.).).~.Q.Y.F.V.N.N.z.,.& o # # - e p p p p p p y y t 3 + # # 3 2 3 : : > 2 3 = & # o & ~ j.c.N.c.N.Z.F.U.T.T.Y.F.A.",
"!././././././.W.Y.S.N.N.z.,.& o O # & & & # # & - q q q q q q q q q - - - & # # # # O O o & ,.z.N.N.N.V.F.Y.Q././.!.P.P.",
"^././././././.~.Q.P.V.N.z.,.& o # q t i < + & > G ~ ( ( ( ( ( ( ( ( ^ P G 6 = # O O O O o & ,.z.N.N.V.F.Y.Q./.).)./.Q.W.",
").).).).).)./.)./.Y.V.B.z.,.& o # q j X.} 2 - G $.e.s.s.s.s.s.s.s.s.r.7. .B 5 # O O O # o & ,.z.N.N.F.Y.Q./././././.^.!.",
"[.[._.).).).)._.).E.Z.B.c.1.& o # q R O.&.p q ~ r.h.h.s.s.s.s.s.s.s.s.r.*.[ 8 & o O O O o & ,.z.N.V.P.Q./././././././.^.",
"L.L.K.K.K.K.K.K.K.M.g.a.5.R & o # q h -.;.p q ~ y.s.s.s.s.s.s.s.s.s.s.r.*.{ 8 & o O O O o & ,.z.N.V.Y./.)././././.).).(.",
"z z k k k k l l l f y y y q # o # q h O.o.u - J $.r.s.s.s.s.s.s.s.s.r.q.@.M 7 & O O O O o & ,.z.N.V.Y./.)././././.).'.[.",
". . . . . . . . . . o o o o O o # q a X.X.r - x  .q.s.s.s.s.s.s.s.s.r.6.| n 6 # O O O O o & ,.z.N.V.Y./.)././././._.[.}."
};
