/* XPM */
static char *wall[] = {
/* columns rows colors chars-per-pixel */
"100 35 135 2 ",
"   c None",
".  c #141515",
"X  c #161718",
"o  c #171819",
"O  c #1A1B1C",
"+  c #1E1F20",
"@  c #1F2021",
"#  c #222324",
"$  c #242628",
"%  c #26292A",
"&  c #2A2C2D",
"*  c #2C2F30",
"=  c #2E3132",
"-  c #323435",
";  c #333739",
":  c #35393B",
">  c #3A3D3E",
",  c #3C3F40",
"<  c #3C4143",
"1  c #3F4649",
"2  c #414345",
"3  c #424648",
"4  c #454A4B",
"5  c #4A4C4E",
"6  c #464E51",
"7  c #4C4E50",
"8  c #475053",
"9  c #4D5153",
"0  c #4C5659",
"q  c #4E595C",
"w  c #525455",
"e  c #545759",
"r  c #55595B",
"t  c #5A5C5E",
"y  c #525E61",
"u  c #5C5F61",
"i  c #566165",
"p  c #5E6164",
"a  c #5D6669",
"s  c #626466",
"d  c #646669",
"f  c #66696B",
"g  c #6A6B6D",
"h  c #6C6E71",
"j  c #6D7174",
"k  c #707577",
"l  c #717877",
"z  c #727679",
"x  c #757A7B",
"c  c #787E7F",
"v  c #79807F",
"b  c #797F80",
"n  c #7D8483",
"m  c #7F8888",
"M  c #808786",
"N  c #818887",
"B  c #838789",
"V  c #838A89",
"C  c #898D8E",
"Z  c #8C8F91",
"A  c #8D9092",
"S  c #949798",
"D  c #969A9A",
"F  c #999D9D",
"G  c #9AA09F",
"H  c #9D9FA0",
"J  c #9EA1A2",
"K  c #9DA3A2",
"L  c #9EA2A3",
"P  c #9DA1A2",
"I  c #9EA4A3",
"U  c #9FA5A4",
"Y  c #A0A2A3",
"T  c #A1A3A4",
"R  c #A1A2A4",
"E  c #A1A4A5",
"W  c #A2A4A5",
"Q  c #A0A6A5",
"!  c #A3A5A6",
"~  c #A3A7A7",
"^  c #A2A7A7",
"/  c #A4A6A7",
"(  c #A3A8A7",
")  c #A5A6A8",
"_  c #A5A7A8",
"`  c #A4A7A8",
"'  c #A6A7A9",
"]  c #A3A8A8",
"[  c #A4A9A8",
"{  c #A4A9A9",
"}  c #A5A9AA",
"|  c #A7A8AA",
" . c #A7A9AB",
".. c #A7A9AA",
"X. c #A8A9AB",
"o. c #A8AAAC",
"O. c #A9AAAC",
"+. c #A9ABAC",
"@. c #A8ABAC",
"#. c #A9ADAD",
"$. c #AAAEAE",
"%. c #ACAFAF",
"&. c #ACAFB0",
"*. c #ACB0B0",
"=. c #ACB2B1",
"-. c #ADB2B2",
";. c #AEB2B2",
":. c #AEB4B2",
">. c #AFB4B3",
",. c #B0B5B4",
"<. c #B0B4B4",
"1. c #B1B6B5",
"2. c #B2B7B6",
"3. c #B3B8B7",
"4. c #B5B9B8",
"5. c #B5BAB9",
"6. c #B6BBBA",
"7. c #B7BCBB",
"8. c #B7BDBC",
"9. c #B8BDBC",
"0. c #B9BEBD",
"q. c #BABFBE",
"w. c #BBBFBE",
"e. c #BBBFBF",
"r. c #BBC0BF",
"t. c #BCC0BF",
"y. c #BCC0C0",
"u. c #BCC1C0",
"i. c #BDC1C0",
"p. c #BCC1C1",
"a. c #BDC1C1",
"s. c #BEC2C1",
"d. c #BEC2C2",
"f. c #BFC4C3",
"g. c #C1C5C4",
/* pixels */
"S ! _ ! ! ! P D F ! ! ! ! ! ! _  . . . . . . . ._ ! ! P F F ! *.,.,.7.7.0.r.r.r.r.r.0.r.r.0.0.0.0.r.r.r.*._ *.0.0.0.p.g.g.p.p.p.0.0.7.0.0.7.7.7.0.7.*.o.    D F H ! ! ! H P ! ! ! ! ! _ _ ! ! ! ! ! D C ",
"D ! o. .o._ F D F o. . . .o.o.o.o.o.o.o.o.o.o.o.o. ._ ! F F P o.*.,.0.r.p.p.p.p.p.p.p.p.p.p.p.p.p.p.p.p.,.! P &.,.3.7.r.r.p.p.p.p.p.p.p.p.p.0.p.g.g.p.*.A C F P P ! _ ! ! _  .o. . . .o.o.o. . ._ ! F A ",
"n C A A A Z B n M Z Z Z A A A A A A A A A A A A A Z Z C B M A D F F P P !  .( ( (  . . . . . .(  . . . .F A A D D F G P P P ! ! ! ! ! !  . . .o.o.*.o.D n n N C N C C C C Z A A A A A Z Z A A Z Z C B c ",
"s h j j j j j f f j j j j j j j j j j j j j j j j j j j j j n N N N N N N N N N N N N N N N N N N N N N M n N N N N N N N N N N N N N N N N N A A A C c g j c j j j j h j j j j j j j j j j j j j j j f ",
"p g j j j j h s s h h h h h h j j j j j j j j j j j j j j j n N N N N N N N N N N N N M M M M M N M N N n v n N N N N N N N N N M N N N N M M M M N n k f h z j j j j j j j j j j j j j j j j j j j h f ",
"p g j j j j h f s h j h h j j j j j j j j j j j j j j j j j c M N N N N N N N N N N N N N N N N N N N N n v n N N N N N N N N N N N N N N N N N N N M k f g j j j j j j j j j j j j j j j j j j j j h s ",
"p g j j j h g f s h h j j j h j j j j j j j j j j j j j j j c M N N N N N N N N N N N N N N M N N N N N n v n N N N N N N N N N N N N N N N N N N N N k s f j j j j j j j j j j j j j j j j j h h h g p ",
"p g j j h h g s s h h h j h h j j j j j j j h h g g f f f g z n N N N N N N N N N N N N N N M M N N N N n v n M N N N N N N N N N N N N N M M M n n n k s s j j j j j j j j j j j j j j j h h h g h f u ",
"p g j h h h g s s h h h h h h h j j j h g f s p p u u t t p f k c n n N N N N N M N N N N N N N N N N N n c n n n n M M M N N N N N n n c c c c k j c h u u s f h j j j j j j j j h h h h g g g f s u w ",
"p f h g g g f s s h h h h h h h h g g s u t t r w w w w w w t p s g k c n M n n n n n M M n n n M n n M b c v n n n n n n n n n n v c g f i u u u u u t t t t t p f h h h h h g g g g g g g g s p t 9 3 ",
"r p s s s s s p p s s s s s s s s p r w w t s s t 5 5 5 7 0 p s s u u s j z c c c c c c n c c c c c c c c z c n c k j j j j k j g s p p s f u w 5 5 9 w u s s t e w r p s s s s s s s s s s s s s t e   ",
"t s g g g g g g g h h h h h h h s u t u t 5 4 4 > &   & $ * 2 2 4 9 t s s h c n n n n n n z c n n n n n n n n n n n c c c c c h s s u w 5 5   - & &   - < 4 5 7 r u t t s g g h h h h h h h h h j h f   ",
"u g h h h j j j j j j j j j j h p t s s w - # & & O     X O - # & 9 r s p s z M N N N N n c n N N N N N N N N N N N n M n n c f s s e 5 : &   + O X   @ & - & - w s s t u g j j j j j j j j j j k j j   ",
"u f h h h j j j j j j j j j j s t t t 7 3 @ X X   X     X X   X     2 w u p f c M N N N M n n M N N N N N N N N N N N N N n g u t 9 4     +   # O O   #     O + 5 e t t r s h j h j j j j j j j j h g   ",
"u f h h h j j j j j j j j j h t u t 4 %   X X X   X     X O   X     O * w u p j n N M N M v n n N M N N N N N N N N N N M j s t 7 *       #   # + O   #     @ O   - 4 t t t s g g h h h h j j h h g s   ",
"u f h h h j j j j j j j j h f p f u > O   X X X   X     X O   X     X O 5 s f g n M N N M v n n M M M N N N N N N N N N n j f s 6 # O     #   # + O   #     @ O   # < p s u s g g g g g g g g g g f t 5 ",
"t f h h h j j j j j j j j h s u s w & X   X X O   O     X O   X     X X 2 s s s n N N N M c n M N N N N N N N N N N N M c f s p 4 @ O     #   # O O   #     @ O   O - e s t s g g g g g s s s s s u r w ",
"r s h g g h h h h h h h h g p t p 2 + X   X O O   O     O O   O     X X - e p p c n M n n k j c b v v b n n n n n n n n z s u t < O O     #   # O O   #     @ O   O % 2 p r e t u u t r e w w 7 7 5 9 r ",
"r s g g g g g g g g g g g s t u p , O X   X X O   O     O O   O     X X - w p p j v n n n z f j c k k z c v n n n n n n j s t u   O O     #   # + O   #     @ O   O # 2 u r 9 w r e w 7 9 w 9 5 4 7 w r ",
"p g h g f f g g f f f f f s t s s 4 # X   X O O   O     O O   O     X X , p s s h c n n m n h k n c c c c n n n n n n c g s s s   O O     #   # + O   #     @ O   O * 9 s p t u s s s p s g f f f f s t ",
"s g j j j j h h h h h h h f u g g 7 # X   X X O   O     X O   X     X X 2 s g f k n N N N n h c N M M N N N N N N N N n j g g g   O O     #   # + O   #     @ O   O * w g s s f h j h s f h j j j j g s ",
"s g j h h h g g g g g g g s u g g 7 # X   X X O   X     X O   X     X . < s g f z n N N M n h c N N N N N N N N N N N n k g g g   O O     @   # O O   #     @ O   O * w g s s g h h h s f h h h j j h s ",
"p g h g g g g g g g g g g s u g g 7 # O : # O & : O = & @ # : + # - O X > u g f k n N N n c g c N M M M N N N N N N N n j g g p - O # & & # > & # % = # - = # $ ; + & w g s s f h h h s f g h h h j h s ",
"p f g g g g g g g g g g g s u g g 9 & $ 3 - * , 1 % < < = : 4 & ; 3 = O > u g f k n N N n z f c N N M M N N N N N N N n j g g u > # - < : * 4 : - , > & < < = : < % = w g s s f h h h s s g h h h j g p ",
"t s g g g g g g g g g g g s u g g e > : q 6 4 9 q < 0 q 4 9 i 1 4 q 1 = 4 s g f k n N N n z f k N N N N N N N N N N N n h g g p 3 ; 4 q 8 1 y 6 6 q 0 < 0 0 4 8 q : < y g s s f h h h s s f g h h j g p ",
"4 w t p s s s f g g g g g s u s s e 4 9 i i i p i i p p i p a i i i y 6 9 p g f k n N M n z f k N M M M M M M N N N N n h s s t 4 8 y i p i i p i i p i p p i i i 8 9 u g s s f h h h s p s g g g h g p ",
"  r u s s s s s s s s s s p e u p r w t p p p s p s s s s p s f s i p r e u s u j c c c c j h z c c n n n c j c c z z k s u p t 9 r p f f f f f s i i s f f s s i r e t s t t s s s s t r u s s s s s t ",
"  f f h g g g g f f f f g s u t t t t p p s s s p p s s p p p s s s s p p p p s c v n b c c c n n b n n n j p h h h g h s t t t t u s s s s s s s p p p s p s s s p t t t r p s f f f s s s s s s f s t ",
"  j j j j j j j j j j j j j g s p s s s s s s s s s s s s s p s g j j j j g h c n n M N N N N N N N N N N k t g h g g h g s p s s s s s s s s s s s s s p p s s s s s s u s g h h h h h h h g g g h g p ",
"  h h j j j j j j j j j j j j j h h h h h h h h h h h h h h s h c n n n n n n N N N N N N N N N N N N N n j t g h h h h h g g g g g g g g g g g g g g h s f h h h h h h h j h h h h h h h h h h h h g p ",
"  g g h h h h h h h h h h h h h h h h h h j j j j j j j j j f h c N N N N N N N N M M M M M N N N N N N n j t g h h h h h h g g g g g g g g g g g g g g s f h j j j j j j j h h h h h h h h h g h h g p ",
"  s s f g g g g g g g g g g g g g g g g g g h h h j j j j j f h c N N N N N N N N M M M M n n n n M n M n j t g h h g g h g g g g g g g g g g g g g g g s f g h h h h h h h h h h h h h h h h h h h g p ",
"  t u s s s s f f f g g g g g g g g g g g g g g h h h j j j f h c N N N N N N N N N N M M n n n n n n n n j r f g g g g g g g g g g g g g g g g g g g g s s g g g g g g g g g h h h h h h h h h h h g p ",
"    e t t t s p t t p p s s s s s s s g f f g g g g g g g g s f c n n n n n n n n n n n n n n n n n n n c f w s g f g g g g g g g g g g g g g f f f s s t u s f g g g g g g g g g g g g g g g g g g s u ",
"              5 5 5 w w w e t t t t p s s s s s s s s s s s u u g c z c c z k l z z z c v n n n n n n n c s w s s s s s s s s s s s s s s s s s s s u t w w u p s s s s s s s s s s s s s s s s s s p r "
};
