/* XPM */
static char *idle1[] = {
/* columns rows colors chars-per-pixel */
"35 40 154 2 ",
"   c None",
".  c #391F21",
"X  c #372121",
"o  c #3B2222",
"O  c #3C2C22",
"+  c #3C3422",
"@  c #3D3C22",
"#  c #432525",
"$  c #4A2727",
"%  c #422826",
"&  c #492827",
"*  c #4D2728",
"=  c #432A28",
"-  c #4E2828",
";  c #522A2A",
":  c #5C2C2D",
">  c #403B23",
",  c #4D3129",
"<  c #4B3E29",
"1  c #543E33",
"2  c #612E2F",
"3  c #652F30",
"4  c #6B3133",
"5  c #663E34",
"6  c #743435",
"7  c #793537",
"8  c #7D3738",
"9  c #773A3B",
"0  c #7F383A",
"q  c #3E4522",
"w  c #3E4B23",
"e  c #444026",
"r  c #424A25",
"t  c #4D472D",
"y  c #405723",
"u  c #415A24",
"i  c #6D433E",
"p  c #426524",
"a  c #436B24",
"s  c #447024",
"d  c #467B25",
"f  c #634D45",
"g  c #725146",
"h  c #765749",
"j  c #6E5E5E",
"k  c #7D5654",
"l  c #775B57",
"z  c #715B5B",
"x  c #7C6C6C",
"c  c #81393B",
"v  c #8A3D3E",
"b  c #913E3F",
"n  c #8C3E40",
"m  c #943F41",
"M  c #934042",
"N  c #9C4344",
"B  c #9A4749",
"V  c #904C4B",
"C  c #9D4D4C",
"Z  c #855A59",
"A  c #975352",
"S  c #A34446",
"D  c #A34748",
"F  c #AB4648",
"G  c #A44A4B",
"H  c #AF494A",
"J  c #B04749",
"K  c #B3494B",
"L  c #BB4C4E",
"P  c #BD4E50",
"I  c #A65252",
"U  c #AB5554",
"Y  c #AC5B5B",
"T  c #A15B5B",
"R  c #BD5252",
"E  c #B65C56",
"W  c #BA5955",
"Q  c #B05A5A",
"!  c #BD5F5A",
"~  c #B1625B",
"^  c #876260",
"/  c #8A6261",
"(  c #936461",
")  c #AF6364",
"_  c #AB6768",
"`  c #AC6A6B",
"'  c #A66762",
"]  c #B16B6C",
"[  c #B16665",
"{  c #AE7063",
"}  c #BC7A6A",
"|  c #B77574",
" . c #BC7F7E",
".. c #C25E5A",
"X. c #C5635D",
"o. c #C4685F",
"O. c #C36A60",
"+. c #C67366",
"@. c #C97567",
"#. c #CB7F6D",
"$. c #BF836F",
"%. c #BC9076",
"&. c #BE9578",
"*. c #C0846F",
"=. c #CC8671",
"-. c #D78F79",
";. c #D38B76",
":. c #C99F7F",
">. c #C19D7C",
",. c #D49279",
"<. c #DC917B",
"1. c #A17F80",
"2. c #A28181",
"3. c #BE8484",
"4. c #A69B9C",
"5. c #B69495",
"6. c #B89E9F",
"7. c #BFA2A3",
"8. c #BBACAD",
"9. c #BDB2B2",
"0. c #C58E8E",
"q. c #D19F81",
"w. c #D89C80",
"e. c #C99696",
"r. c #CC9A99",
"t. c #D5A182",
"y. c #D7AE8A",
"u. c #DDAA89",
"i. c #DFB48E",
"p. c #E2B58F",
"a. c #E0B690",
"s. c #EAB792",
"d. c #EBBC95",
"f. c #F0BF98",
"g. c #CEA7A8",
"h. c #C9A5A6",
"j. c #D2ABAC",
"k. c #D7B2B3",
"l. c #EBC097",
"z. c #ECC49A",
"x. c #EEC99D",
"c. c #F1C29A",
"v. c #F3CA9F",
"b. c #F4CDA1",
"n. c #FAD4A6",
"m. c #FCD7A8",
"M. c #FFDAAA",
"N. c #D0C5C6",
"B. c #D6C7C8",
"V. c #DDC7C8",
"C. c #D9CECF",
"Z. c #DDC8C8",
"A. c #DBCFD0",
"S. c #E1CDCD",
/* pixels */
"          X X X X X X X X X X X X X X X X X X X X X X X X X X X X     ",
"        . X X # * * * * * * * * * ; ; ; ; ; ; ; ; ; ; ; ; ; ; - *     ",
"      X . X # : 7 7 7 7 7 7 7 7 7 9 c c c c c c c c c c c c c 7 3 * X ",
"    + O X X ; 7 b m m m m m m B B S F F F F F F S S S S S F F B 7 ; X ",
"  @ w w @ O ; c B S S S S S S S S F J L L P L J J J F J J J L F c ; X ",
"X @ u a y > ; c B G G G S D G G G D F L L L J J F F F F F F F S 8 ; X ",
"X @ p d p > ; c G [ ] T V A _ ] Y G F J F S B S S F F F F F B v 4 * X ",
"X @ p d p > ; c Y 0.h.| k / 5.h. .U F F S c 8 b F J J J J S c 3 - X X ",
"X + u a y > ; c ` j.B.4.z x 8.Z.e.Q F F B 8 7 M J L L P J S c : * X X ",
"X O @ w @ O ; c ] k.A.4.j x 9.S.r.Q F F S m m S J L P P L J B 8 : # X ",
"X X O O O O ; 9 ` k.A.4.j x 9.S.r.Q F F J J J J L L L L L L J B 7 * X ",
"X X . X + e < 5 ( g.C.4.j x 9.S.r.Q F J L L L L L L L L L P L F c ; X ",
"    X O w p u t l 6.N.4.j x 8.Z.e.Q F J L P P L L L L L L P L F c ; X ",
"    X O y d a r f 2.7.2.k ^ 5.g.3.U F J L L L L P L L L P ..L F c ; X ",
"    X O y d s r 1 Z ` ' V A ` | ) G F J P L L L L L J L L L L F c ; X ",
"    X O w a p q , 9 B G D D G G G S F J L L L J D S S S S S F B 7 * X ",
"    . X @ w q + & 4 b S S S B B B S S F J J F B 8 7 7 7 7 7 7 7 : # X ",
"    X X O O O # ; 7 m S S S S S S S S S F F B 7 : * * * * * * * # X X ",
"    X X X X # ; 4 c B S F F F F F F F F S m 9 2 # X X X X X X X X X X ",
"    X X X X ; 7 v B S F J J L L L J J J B 7 : -                       ",
"      X X X ; 8 B S S F J L L L L L L J m 3 #                         ",
"        X # ; 9 B S S F J L P P P P P J m 2 #                         ",
"          X ; 9 B G U E ..X.X.X.X.X.X.~ B 4 #                         ",
"          X ; 8 G ~ } =.-.<.<.<.<.<.<.;.{ i %                         ",
"          * : c I } q.a.d.c.c.c.c.c.c.d.&.g =                         ",
"        : 2 7 M U $.y.l.n.n.m.m.m.m.M.b.:.h =                         ",
"X X X * 4 c M S U $.y.x.m.M.M.M.M.M.M.b.:.h =                         ",
"X X # : c B S S U *.y.x.m.M.M.M.M.M.M.b.:.h =                         ",
"X # 2 c B S S S U $.y.l.n.M.M.M.M.M.M.b.>.h =                         ",
"X * 7 m S S S S U } q.p.l.v.n.m.M.m.n.d.%.g =                         ",
"  - 3 9 m B S S G ~ } =.,.y.d.v.b.c.s.w.{ i &                         ",
"    ; : 7 n B S S G U E o.=.t.i.a.y.,.+.B 4 #                         ",
"      # ; 7 v B B S F J R X.#.,.,.=.@.W M 2 #                         ",
"        * ; 4 c B F J J J R X.O.O.X...J m 2 #                         ",
"          # : c S J J F S D S F F L R J M 2 #                         ",
"          X ; c S J F B 9 4 4 8 m F L J M 2 #                         ",
"          X ; 7 M S S c : # # ; 7 b S B c : #                         ",
"          X # : 7 8 8 4 * X X # : 7 7 7 4 ; #                         ",
"          X X # * * - ;     X X # * - - *                             ",
"          X X X X X X       X X X X X X X                             "
};
