/* XPM */
static char *_[] = {
/* columns rows colors chars-per-pixel */
"34 35 9 1 ",
"  c None",
". c #462D48",
"X c #6B397A",
"o c #727B58",
"O c #8B7D71",
"+ c #A637AD",
"@ c #C655B7",
"# c #F282E3",
"$ c #F4D6ED",
/* pixels */
"              .....               ",
"              .....               ",
"             .$$###..             ",
"           $$######++#            ",
"           $$######++#            ",
"          .######++##+..          ",
"        ..$########+++++.         ",
"        ..$########+++++.         ",
"     .$$#########++++++++++..     ",
"     .$$#########++++++++++..     ",
"     $########$$@##++++++++++     ",
"   ..########$$$@$$##++++++++.    ",
"   ..########$$$@$$##++++++++.    ",
"  .$$######$$$@@$@@@@#++++++++..  ",
"$$########$@@@$$@@@@@@##++++++++++",
"$$########$@@@$$@@@@@@##++++++++++",
"$$$$$$$$$$$@@$@@@@@@@@@@##########",
"##########@$$@@@@@@@@@@@#+++++++++",
"##########@$$@@@@@@@@@@@#+++++++++",
"###########@@@@@@@@@@@##++++++OO++",
"###########@@@@@@@@@@@##++++++OO++",
"  .###+++++##@@@@@@@@#XX+XX+++..  ",
"   ..++++++++#@@@@@##XXXXXXoo.    ",
"   ..++++++++#@@@@@##XXXXXXoo.    ",
"     +++++++++##@##XXXXXXoo++     ",
"      ..++++++++XXXXXXooX..       ",
"      ..++++++++XXXXXXooX..       ",
"        ..++++++XXXXXXXX.         ",
"        ..++++++XXXXXXXX.         ",
"          .+++++XXXXXo..          ",
"           +++++XXXooX            ",
"           +++++XXXooX            ",
"             .++XXX..             ",
"              .....               ",
"              .....               "
};
